<svg width="1440" height="788" viewBox="0 0 1440 788" fill="none" xmlns="http://www.w3.org/2000/svg">
<g opacity="0.2">
<path d="M76.6862 41.9329C80.2256 41.9329 83.7649 41.7256 87.2452 41.2509C103.349 39.0621 122.849 30.5236 124.24 2.36426C124.265 1.47492 123.018 0.746861 121.4 0.728431C119.832 0.728431 118.467 1.39659 118.408 2.26749C117.388 22.9895 106.13 35.3942 85.8211 38.1544C63.8014 41.1542 36.793 32.0626 30.5487 26.017C29.7649 25.2567 29.1329 24.3074 29.7649 23.9572C42.97 16.7365 52.602 3.28125 53.0065 2.71447C53.5879 1.88503 52.8379 0.981869 51.3548 0.663919C49.8717 0.350577 48.1947 0.760687 47.6132 1.57169C47.5205 1.69611 38.0065 14.9763 25.6779 21.7177C24.1947 22.5287 22.1975 24.3858 25.5009 27.5883C31.4503 33.316 54.1947 41.9329 76.6862 41.9329Z" fill="#EEB7C7"/>
<path d="M238.963 23.0677C264.817 34.219 289.71 40.0112 311.646 40.0112C314.84 40.0112 317.941 39.8868 320.983 39.6472C349.188 37.3801 371.966 24.9708 388.651 2.74193C389.258 1.93554 388.559 1.01394 387.05 0.68217C385.575 0.350397 383.89 0.72825 383.25 1.53925C367.407 22.653 346.171 34.4125 320.149 36.5045C265.542 40.9144 206.469 1.53925 205.887 1.14297C204.868 0.460988 203.039 0.350396 201.792 0.903353C200.545 1.46092 200.376 2.45624 201.362 3.13822C201.994 3.56676 216.826 13.5154 238.963 23.0677Z" fill="#EEB7C7"/>
<mask id="mask0_426_17465" style="mask-type:luminance" maskUnits="userSpaceOnUse" x="0" y="0" width="483" height="110">
<path d="M0 0H482.73V109.707H0V0Z" fill="white"/>
</mask>
<g mask="url(#mask0_426_17465)">
<path d="M3.48129 109.121C3.56556 109.121 3.65825 109.121 3.74252 109.121C38.2425 107.471 91.7115 100.112 150.582 74.3769C189.725 57.2583 241.4 59.6682 296.091 62.2395C318.692 63.3039 342.085 64.396 365.318 64.1426C398.714 63.7786 429.59 52.9729 454.568 32.919C473.259 17.9108 481.989 3.26668 482.368 2.64921C482.857 1.80595 482.023 0.916614 480.481 0.649351C478.947 0.377481 477.321 0.838279 476.823 1.68154C476.478 2.26675 441.573 60.129 365.208 60.9861C342.312 61.2534 319.071 60.1429 296.588 59.0969C240.7 56.4795 187.931 54.0051 146.959 71.9162C89.2172 97.1449 36.9363 104.361 3.22005 105.965C1.61893 106.043 0.464438 106.808 0.582414 107.679C0.725672 108.504 1.99814 109.121 3.48129 109.121Z" fill="#EEB7C7"/>
</g>
<mask id="mask1_426_17465" style="mask-type:luminance" maskUnits="userSpaceOnUse" x="0" y="1" width="710" height="152">
<path d="M0 1.17969H709.246V152.174H0V1.17969Z" fill="white"/>
</mask>
<g mask="url(#mask1_426_17465)">
<path d="M242.62 106.076C202.145 97.0488 163.381 105.666 105.985 124.72C51.3535 142.87 3.39567 148.28 2.89848 148.345C1.33107 148.515 0.319831 149.358 0.63163 150.216C0.926572 150.962 2.11478 151.483 3.47994 151.483C3.65691 151.483 3.85915 151.469 4.0614 151.45C4.55016 151.404 53.4434 145.884 109.002 127.434C164.738 108.919 202.204 100.491 240.412 109.011C284.519 118.849 377.974 124.577 440.965 98.0349C504.85 71.1243 521.418 65.1432 560.645 74.5849L562.246 74.9628C584.729 80.391 622.364 89.4502 654.277 79.0915C684.479 69.2673 702.909 43.8221 709.002 3.45628C709.145 2.58537 707.957 1.82505 706.356 1.74672C704.738 1.68221 703.372 2.3135 703.229 3.20284C697.28 42.4858 679.811 67.1108 651.319 76.3774C622.01 85.9113 587.46 77.5801 564.597 72.0782L562.971 71.6957C520.836 61.5582 502.154 68.2674 437.392 95.542C376.373 121.245 285.53 115.642 242.62 106.076Z" fill="#EEB7C7"/>
</g>
<path d="M558.008 25.7953C561.892 26.6847 566.156 27.127 570.741 27.127C590.3 27.127 616.095 19.1506 647.721 3.31304C648.909 2.72783 648.993 1.71408 647.898 1.07818C646.819 0.428454 644.991 0.396199 643.802 0.98141C607.103 19.3718 578.199 26.9565 560.241 22.8785C541.204 18.5793 539.67 2.40988 539.67 2.25321C539.611 1.3777 538.246 0.727972 536.654 0.727972C535.053 0.760227 533.805 1.50672 533.864 2.37763C533.923 3.12412 535.55 20.7174 558.008 25.7953Z" fill="#EEB7C7"/>
<mask id="mask2_426_17465" style="mask-type:luminance" maskUnits="userSpaceOnUse" x="0" y="0" width="790" height="180">
<path d="M0 0H789.066V179.305H0V0Z" fill="white"/>
</mask>
<g mask="url(#mask2_426_17465)">
<path d="M3.36304 178.836C3.91921 178.854 6.81809 178.914 11.4024 178.914C31.5681 178.914 84.4304 177.679 114.987 165.477C143.301 154.165 215.722 146.948 294.211 155.879C352.087 162.445 422.048 138.11 473.166 120.324C478.129 118.596 482.916 116.928 487.559 115.342C524.435 102.698 591.286 121.116 655.963 138.935C681.868 146.073 706.357 152.819 728.814 157.574C745.618 161.132 759.168 160.542 769.028 155.833C805.618 138.364 776.342 69.9492 776.056 69.2673C768.16 51.1165 766.475 2.63138 766.449 2.15676C766.424 1.28585 765.084 0.585439 763.491 0.603871C761.89 0.617695 760.618 1.34576 760.643 2.22127C760.702 4.22113 762.362 51.5312 770.393 70.0137C778.517 88.6576 793.407 140 765.202 153.45C757.078 157.339 745.534 157.736 730.879 154.625C708.682 149.93 684.312 143.216 658.517 136.11C592.416 117.895 524.065 99.0808 484.424 112.661C479.781 114.246 474.969 115.928 470.006 117.66C419.756 135.143 350.933 159.1 295.366 152.768C235.568 145.981 150.818 147.216 111.531 162.924C75.6663 177.25 4.29 175.693 3.59899 175.679C1.97259 175.647 0.632703 176.315 0.58214 177.204C0.523151 178.057 1.73663 178.79 3.36304 178.836Z" fill="#EEB7C7"/>
</g>
<mask id="mask3_426_17465" style="mask-type:luminance" maskUnits="userSpaceOnUse" x="0" y="0" width="902" height="269">
<path d="M0 0H901.246V268.958H0V0Z" fill="white"/>
</mask>
<g mask="url(#mask3_426_17465)">
<path d="M891.328 261.544C885.092 266.207 865.154 266.129 832.053 261.304C783.252 254.18 772.196 245.471 735.606 216.547C719.359 203.727 697.137 186.148 664.171 163.191C585.37 108.296 488.258 134.396 410.208 155.353C382.845 162.703 356.991 169.652 335.317 172.158C299.865 176.264 266.907 175.918 235.02 175.582C193.264 175.14 153.86 174.725 119.832 185.577C63.253 203.617 4.26435 201.285 3.68289 201.253C2.0902 201.175 0.691325 201.843 0.548065 202.714C0.430088 203.585 1.62672 204.35 3.21941 204.428C3.82615 204.442 64.5592 206.902 122.756 188.341C155.368 177.932 192.219 178.328 234.902 178.771C267.11 179.107 300.388 179.453 336.514 175.282C358.913 172.697 385.053 165.666 412.761 158.228C451.121 147.916 494.612 136.235 537.261 134C585.834 131.461 625.845 141.649 659.587 165.177C692.435 188.056 714.632 205.584 730.82 218.372C767.376 247.231 779.679 256.959 830.544 264.382C847.836 266.907 861.615 268.175 872.182 268.175C883.988 268.175 891.766 266.589 895.997 263.433C903.918 257.498 898.204 246.66 877.921 229.352C829.415 187.881 808.727 155.229 816.387 132.318C820.971 118.641 827.527 91.3667 831.067 63.8433C833.907 41.6605 835.592 12.8653 827.435 1.58499C826.862 0.773986 825.176 0.3777 823.668 0.69565C822.159 1.0136 821.435 1.93519 822.042 2.76002C836.199 22.3209 820.331 103.062 810.699 131.765C802.744 155.496 823.727 188.913 873.05 231.08C891.362 246.678 897.505 256.94 891.328 261.544Z" fill="#EEB7C7"/>
</g>
<mask id="mask4_426_17465" style="mask-type:luminance" maskUnits="userSpaceOnUse" x="0" y="0" width="966" height="317">
<path d="M0 0H965.965V316.144H0V0Z" fill="white"/>
</mask>
<g mask="url(#mask4_426_17465)">
<path d="M953.13 305.665C947.205 310.807 937.809 313.061 925.186 312.379C898.439 310.95 878.357 307.886 858.916 304.951C843.512 302.605 828.942 300.398 812.324 299.209C776.981 296.684 719.155 263.811 697.565 225.196C685.961 204.409 655.296 185.531 615.512 174.679C580.49 165.126 543.874 163.32 512.391 169.587C394.245 193.083 303.116 204.331 241.574 203.013C199.271 202.096 156.445 210.598 115.035 218.786C74.7964 226.749 36.7571 234.287 3.76556 232.126C2.17286 232.034 0.723424 232.652 0.546458 233.523C0.369493 234.398 1.50713 235.191 3.09983 235.287C37.4565 237.522 76.1025 229.878 117.015 221.768C157.895 213.676 200.139 205.299 241.372 206.174C303.664 207.488 395.526 196.175 514.397 172.554C544.372 166.606 579.36 168.347 612.933 177.517C651.284 187.973 680.855 206.142 692.029 226.118C714.571 266.479 773.728 299.652 811.565 302.352C827.753 303.508 842.147 305.683 857.349 307.997C877.026 310.983 897.335 314.075 924.604 315.535C926.231 315.614 927.798 315.66 929.332 315.66C941.837 315.66 951.705 312.821 958 307.347C972.453 294.813 966.217 269.824 943.498 249.231C888.832 199.7 866.29 158.145 878.298 129.064C894.925 88.8 899.366 3.04565 899.425 2.18856C899.484 1.31766 898.203 0.58499 896.61 0.552734C894.984 0.552734 893.677 1.22089 893.618 2.0918C893.593 2.94888 889.152 88.3853 872.644 128.369C860.138 158.684 882.276 199.907 938.534 250.867C959.888 270.188 966.276 294.26 953.13 305.665Z" fill="#EEB7C7"/>
</g>
<mask id="mask5_426_17465" style="mask-type:luminance" maskUnits="userSpaceOnUse" x="0" y="243" width="91" height="51">
<path d="M0 243.006H90.101V293.73H0V243.006Z" fill="white"/>
</mask>
<g mask="url(#mask5_426_17465)">
<path d="M3.33761 290.371C1.73649 290.418 0.489305 291.164 0.582 292.04C0.66627 292.878 1.93874 293.546 3.48087 293.546C3.53986 293.546 3.59885 293.546 3.62413 293.546C39.919 292.514 64.9892 287.501 78.1016 278.617C92.6718 268.765 89.0987 256.719 87.2195 250.245L87.1016 249.803C86.6044 248.153 84.9274 246.803 82.1128 245.789C65.4864 239.84 9.13536 247.614 2.78144 248.517C1.24773 248.738 0.287056 249.596 0.69155 250.453C1.10447 251.296 2.66346 251.817 4.23087 251.595C20.8573 249.232 66.6746 244.061 78.9443 248.453C80.3937 248.978 81.1774 249.563 81.3881 250.31L81.4976 250.757C83.3853 257.166 86.5454 267.875 73.61 276.617C61.5342 284.773 37.9218 289.39 3.33761 290.371Z" fill="#EEB7C7"/>
</g>
<mask id="mask6_426_17465" style="mask-type:luminance" maskUnits="userSpaceOnUse" x="0" y="197" width="1184" height="591">
<path d="M0 197H1183.85V788H0V197Z" fill="white"/>
</mask>
<g mask="url(#mask6_426_17465)">
<path d="M1155.34 737.308C1177.3 721.839 1180.92 702.831 1182.75 684.681C1184.05 671.751 1174.68 661.673 1164.73 651.015C1149.41 634.61 1132.06 615.999 1145.53 580.587C1158.96 545.22 1116.42 530.595 1075.28 516.457C1046.12 506.43 1015.98 496.072 1006.75 478.285C984.201 434.878 980.779 432.989 942.394 421.69C907.17 411.331 882.622 389.959 878.358 365.91C874.094 341.824 837.302 325.116 765.867 314.803C717.589 307.841 695.771 280.617 674.645 254.291C666.058 243.583 657.934 233.477 648.184 224.8C632.316 210.695 598.364 200.986 555.016 198.162C515.502 195.59 474.673 199.208 448.507 207.631C417.749 217.534 353.51 218.658 296.847 219.658C259.213 220.326 223.668 220.944 202.811 224.118C154.617 231.417 143.182 261.623 133.086 288.28C131.982 291.197 130.879 294.086 129.749 296.892C119.19 323.323 5.10617 312.615 3.94325 312.504C2.37584 312.347 0.86741 312.932 0.580892 313.79C0.285951 314.647 1.3646 315.471 2.92359 315.628C7.86178 316.107 123.657 326.959 135.412 297.574C136.541 294.749 137.645 291.846 138.741 288.911C148.491 263.148 159.581 233.938 204.345 227.164C224.544 224.1 259.769 223.483 297.016 222.833C354.378 221.814 419.401 220.676 451.44 210.364C504.766 193.213 611.367 198.129 643.221 226.464C652.768 234.952 660.808 244.965 669.31 255.563C690.985 282.58 713.383 310.504 764.358 317.868C833.181 327.798 868.549 343.603 872.552 366.196C876.993 391.277 902.703 413.598 939.605 424.468C975.757 435.099 978.723 435.97 1001.12 479.124C1010.96 498.085 1042.06 508.776 1072.14 519.121C1113.44 533.304 1152.4 546.713 1139.78 579.937C1125.91 616.441 1143.76 635.578 1159.48 652.457C1169.46 663.166 1178.1 672.414 1176.86 684.505C1173.87 713.983 1168.89 763.325 1008.81 760.661C913.583 759.072 878.501 742.524 850.305 729.23C831.091 720.171 814.498 712.333 784.642 711.255C765.664 710.559 748.751 710.891 732.386 711.19C686.485 712.066 650.215 712.762 605.679 689.648L597.496 685.395C543.968 657.6 538.364 654.692 494.375 651.25C481.929 650.282 472.271 648.54 463.735 647.001C441.167 642.937 424.887 640.002 384.235 655.028C353.569 666.373 302.013 687.584 301.052 702.228C300.825 705.592 303.26 708.384 308.249 710.527C317.536 714.508 335.114 712.158 357.404 709.177C393.724 704.32 443.485 697.675 477.344 717.664C501.429 731.88 519.1 743.796 534.681 754.33C554.493 767.707 570.167 778.273 589.777 787.268C590.333 787.521 590.999 787.632 591.639 787.632C592.473 787.632 593.291 787.443 593.872 787.06C594.884 786.397 594.74 785.397 593.518 784.826C574.313 776.034 558.816 765.564 539.207 752.33C523.566 741.764 505.811 729.802 481.608 715.508C445.398 694.136 393.757 701.053 356.038 706.085C336.1 708.748 318.901 711.047 311.847 708.02C308.333 706.513 306.707 704.656 306.884 702.324C307.491 692.786 337.642 676.082 387.547 657.627C425.814 643.476 440.207 646.061 461.965 649.983C470.729 651.554 480.656 653.346 493.625 654.36C535.785 657.659 540.159 659.913 593.577 687.662L601.76 691.915C648.066 715.936 687.268 715.19 732.673 714.319C748.895 714.015 765.664 713.683 784.347 714.365C812.265 715.379 827.409 722.535 846.588 731.581C875.459 745.206 911.409 762.168 1008.72 763.786C1080.36 765.039 1128.32 756.362 1155.34 737.308Z" fill="#EEB7C7"/>
</g>
<mask id="mask7_426_17465" style="mask-type:luminance" maskUnits="userSpaceOnUse" x="0" y="736" width="541" height="52">
<path d="M0 736.096H540.977V788H0V736.096Z" fill="white"/>
</mask>
<g mask="url(#mask7_426_17465)">
<path d="M466.871 769.61C446.537 768.734 443.368 762.246 439.686 754.744C436.146 747.478 432.11 739.225 410.731 736.879C385.483 734.101 364.947 745.224 345.043 755.979C331.315 763.403 318.321 770.434 304.366 772.923C199.037 791.709 145.568 779.097 123.051 769.909C66.7928 746.952 4.87156 737.004 4.26482 736.907C2.72269 736.672 1.12999 737.147 0.666512 737.99C0.22831 738.828 1.10471 739.699 2.63842 739.957C3.24516 740.05 64.1805 749.841 119.571 772.448C142.981 782 198.346 795.165 306.161 775.936C321.422 773.208 335.495 765.596 349.13 758.233C367.93 748.063 387.371 737.543 409.601 739.985C427.441 741.953 430.66 748.556 434.09 755.551C437.773 763.117 441.978 771.702 466.408 772.748C508.391 774.559 534.565 787.106 534.826 787.235C535.374 787.502 536.073 787.631 536.773 787.631C537.556 787.631 538.365 787.456 538.947 787.106C540.017 786.456 539.899 785.456 538.711 784.871C537.582 784.346 510.919 771.513 466.871 769.61Z" fill="#EEB7C7"/>
</g>
<mask id="mask8_426_17465" style="mask-type:luminance" maskUnits="userSpaceOnUse" x="0" y="618" width="242" height="102">
<path d="M0 618.132H241.112V719.581H0V618.132Z" fill="white"/>
</mask>
<g mask="url(#mask8_426_17465)">
<path d="M152.268 652.521C164.453 650.3 177.077 647.996 195.473 648.254C220.652 648.586 235.164 653.696 235.282 662.262C235.366 669.939 223.408 678.017 211.577 678.252C192.801 678.634 183.169 682.583 159.894 692.122C149.714 696.311 137.006 701.513 119.681 708.001C65.6554 728.262 5.85769 703.384 5.25095 703.13C3.97005 702.591 2.17511 702.72 1.18916 703.416C0.203202 704.117 0.430729 705.098 1.71163 705.637C2.1414 705.826 34.029 719.125 73.0879 719.125C89.0739 719.125 106.248 716.904 122.992 710.618C140.428 704.084 153.169 698.85 163.408 694.661C186.304 685.265 194.857 681.759 211.804 681.427C226.686 681.127 241.197 671.621 241.079 662.244C240.911 646.886 206.234 645.236 195.616 645.093C176.15 644.826 162.506 647.333 150.439 649.521C120.759 654.931 97.3407 659.184 5.27623 619.219C4.02904 618.68 2.20039 618.791 1.21444 619.473C0.228483 620.155 0.430729 621.155 1.67792 621.708C96.1778 662.723 120.928 658.217 152.268 652.521Z" fill="#EEB7C7"/>
</g>
<mask id="mask9_426_17465" style="mask-type:luminance" maskUnits="userSpaceOnUse" x="0" y="654" width="125" height="48">
<path d="M0 654.701H124.618V701.887H0V654.701Z" fill="white"/>
</mask>
<g mask="url(#mask9_426_17465)">
<path d="M86.116 701.195C109.846 701.195 123.169 689.33 123.658 680.777C123.978 675.031 118.695 671.146 110.226 670.861C107.613 670.782 104.714 670.704 101.605 670.64C80.3435 670.133 48.161 669.386 34.8464 660.451C29.2425 656.71 23.293 654.917 17.0571 655.074C7.45879 655.346 1.30711 660.373 1.07116 660.58C0.632955 660.944 0.489698 661.387 0.666663 661.802C15.2874 696.421 50.3941 701.195 86.116 701.195ZM17.3773 658.23C21.6161 658.106 25.9981 659.534 30.3211 662.451C45.2874 672.478 79.0036 673.271 101.318 673.796C104.394 673.874 107.268 673.939 109.846 674.017C117.388 674.271 117.945 678.763 117.852 680.68C117.447 687.947 106.189 698.025 86.116 698.025C55.2733 698.025 21.2116 695.214 6.61609 661.802C8.18351 660.723 12.2116 658.373 17.3773 658.23Z" fill="#EEB7C7"/>
</g>
<mask id="mask10_426_17465" style="mask-type:luminance" maskUnits="userSpaceOnUse" x="0" y="325" width="1130" height="402">
<path d="M0 325.581H1129.92V726.659H0V325.581Z" fill="white"/>
</mask>
<g mask="url(#mask10_426_17465)">
<path d="M2.37493 596.548C3.01537 596.691 67.0181 611.192 104.939 628.468C126.007 638.066 171.268 632.514 219.175 626.643C263.046 621.265 308.391 615.713 336.512 621.565C364.043 627.311 397.119 621.98 429.065 616.823C469.102 610.363 506.939 604.257 534.824 617.837C558.124 629.182 580.489 633.274 600.251 636.891C625.439 641.494 645.31 645.126 657.588 662.023C681.352 694.753 718.371 694.961 754.262 692.376C760.59 691.915 766.388 691.311 771.992 690.726C799.236 687.883 818.939 685.823 856.767 705.513C880.624 717.918 933.865 725.931 986.694 725.931C997.143 725.931 1007.62 725.613 1017.8 724.963C1061.61 722.152 1094.26 713.443 1109.69 700.449C1139.81 675.114 1126.95 659.705 1114.48 644.826C1109.05 638.352 1103.95 632.228 1102.06 625.233C1100.61 619.869 1100.93 613.284 1101.25 606.322C1102.38 582.457 1103.77 552.759 1036.95 543.635C1007.7 539.635 975.874 539.174 942.158 538.686C880.472 537.797 816.697 536.861 772.051 512.379C731.804 490.325 702.967 480.123 681.925 472.681C666.841 467.355 655.961 463.498 648.065 457.756C643.456 454.392 638.694 449.711 633.647 444.743C617.138 428.482 596.568 408.221 557.164 406.843C534.065 406.032 528.874 415.202 523.422 424.911C515.644 438.73 506.855 454.374 449.897 455.374C348.58 457.134 259.532 425.533 223.818 393.374C184.439 357.929 83.5602 327.037 3.50414 325.927C1.85245 325.941 0.579984 326.595 0.546276 327.466C0.520995 328.337 1.76819 329.069 3.36088 329.102C81.6979 330.18 180.378 360.371 218.855 395.023C255.411 427.956 346.574 460.374 450.074 458.549C511.178 457.484 521.45 439.209 528.959 425.846C534.327 416.28 538.22 409.349 556.784 410.013C593.029 411.299 612.731 430.703 628.574 446.301C633.706 451.36 638.551 456.153 643.422 459.673C651.925 465.875 663.183 469.861 678.765 475.363C699.596 482.727 728.121 492.818 767.93 514.646C814.203 540.018 879.166 540.967 941.989 541.875C975.385 542.363 1006.89 542.81 1035.53 546.727C1097.85 555.247 1096.55 582.347 1095.42 606.257C1095.06 613.363 1094.74 620.09 1096.29 625.708C1098.29 633.149 1103.83 639.748 1109.17 646.144C1121.5 660.899 1133.16 674.842 1104.79 698.721C1090.31 710.904 1059.15 719.107 1017.11 721.807C956.896 725.677 888.225 717.508 860.745 703.209C820.734 682.395 798.739 684.694 770.888 687.597C765.377 688.169 759.655 688.772 753.478 689.219C718.489 691.74 685.203 691.473 662.956 660.834C649.692 642.573 627.613 638.541 602.079 633.864C582.874 630.357 561.082 626.357 538.683 615.459C508.388 600.705 467.223 607.336 427.414 613.759C396.369 618.773 364.279 623.947 338.568 618.584C308.83 612.381 262.608 618.044 217.894 623.533C171.411 629.228 127.515 634.61 108.63 626.007C70.035 608.428 5.21481 593.756 4.58279 593.613C3.09964 593.277 1.38897 593.659 0.782231 594.47C0.200771 595.276 0.891781 596.212 2.37493 596.548Z" fill="#EEB7C7"/>
</g>
<mask id="mask11_426_17465" style="mask-type:luminance" maskUnits="userSpaceOnUse" x="0" y="350" width="1038" height="351">
<path d="M0 350.354H1037.16V700.707H0V350.354Z" fill="white"/>
</mask>
<g mask="url(#mask11_426_17465)">
<path d="M773.873 563.928C700.701 554.74 687.85 533.497 674.207 510.996L672.699 508.508C657.732 483.962 644.409 471.543 604.895 462.769C583.828 458.088 564.277 463.958 545.359 469.635C527.308 475.064 510.252 480.188 491.654 477.188C469.887 473.7 450.303 481.077 431.359 488.201C413.283 494.988 394.601 502.02 373.449 500.37C350.469 498.578 335.755 489.357 320.174 479.602C306.303 470.921 291.969 461.94 271.019 458.088C218.915 448.522 184.011 430.845 157.812 400.778C126.876 365.288 9.01684 351.819 4.02809 351.266C2.46067 351.091 0.926964 351.644 0.606741 352.501C0.286518 353.358 1.30618 354.201 2.87359 354.372C4.0618 354.501 122.873 368.066 152.553 402.147C179.107 432.624 216.16 451.36 269.165 461.088C288.632 464.654 302.443 473.317 315.792 481.681C331.373 491.454 347.477 501.541 372.606 503.509C396.016 505.333 415.634 497.956 434.637 490.8C453.294 483.791 470.873 477.156 489.994 480.22C510.884 483.565 529.836 477.888 548.115 472.396C566.654 466.829 584.182 461.576 602.662 465.686C640.061 473.985 652.769 485.915 667.162 509.49L668.671 511.983C682.828 535.354 696.201 557.422 772.541 567.006C847.541 576.411 876.007 592.055 916.255 616.823C929.771 625.136 949.271 632.61 968.131 639.826C1003.82 653.489 1037.54 666.4 1028.59 683.265C1025.43 689.233 1018.41 693.375 1007.7 695.578C975.471 702.227 912.8 691.532 844.154 667.672C803.561 653.553 778.17 651.014 757.777 648.964C733.777 646.572 716.46 644.826 686.662 626.2C651.926 604.497 625.668 601.718 602.485 599.276C587.629 597.705 573.589 596.23 558.792 589.82L554.907 588.139C518.485 572.333 496.499 562.785 448.474 578.918C396.337 596.433 361.255 598.88 331.146 587.139C304.272 576.651 277.289 584.074 257.587 589.484C251.064 591.277 245.435 592.834 240.699 593.548C223.727 596.12 128.941 601.479 88.5757 564.656C74.6797 551.98 66.5898 542.174 60.0589 534.304C47.2584 518.835 39.5477 509.49 5.04775 497.099C3.70786 496.624 1.91292 496.832 1.01124 497.56C0.143258 498.292 0.522471 499.274 1.85393 499.748C34.9634 511.651 42.4129 520.659 54.7752 535.621C61.3314 543.57 69.514 553.454 83.587 566.292C105.784 586.521 143.326 594.087 170.924 596.88C201.362 599.94 230.806 598.341 242.241 596.608C247.525 595.802 253.415 594.198 260.174 592.327C279.581 586.996 303.724 580.346 327.75 589.724C359.604 602.161 397.761 599.672 451.491 581.632C496.061 566.67 515.679 575.176 551.275 590.645L555.168 592.327C571.095 599.211 585.8 600.764 601.356 602.414C624.682 604.875 648.825 607.427 682.246 628.311C713.384 647.775 732.505 649.678 756.699 652.106C776.603 654.106 801.387 656.581 841.019 670.368C897.041 689.85 949.592 700.67 985.743 700.67C994.853 700.67 1002.92 699.988 1009.77 698.578C1022.27 695.993 1030.48 691.154 1034.2 684.173C1044.32 665.119 1007.3 650.95 971.493 637.241C952.895 630.136 933.69 622.772 920.637 614.727C879.639 589.502 850.592 573.559 773.873 563.928Z" fill="#EEB7C7"/>
</g>
<mask id="mask12_426_17465" style="mask-type:luminance" maskUnits="userSpaceOnUse" x="0" y="381" width="382" height="169">
<path d="M0 381.024H381.337V549.713H0V381.024Z" fill="white"/>
</mask>
<g mask="url(#mask12_426_17465)">
<path d="M366.194 545.474C345.422 549.506 294.119 538.843 280.4 525.199C261.826 506.748 226.079 503.463 191.554 500.288C188.765 500.034 185.95 499.767 183.169 499.514C151.02 496.449 117.447 481.045 88.6104 456.102C62.0571 433.177 2.9841 446.536 2.37736 446.665C0.894213 447.015 0.203203 447.932 0.843652 448.743C1.47567 449.55 3.16106 449.932 4.64421 449.582C5.19196 449.457 59.7986 437.145 83.7059 457.784C113.445 483.487 148.408 499.403 182.183 502.624C184.998 502.891 187.779 503.145 190.593 503.398C225.329 506.587 258.11 509.601 275.318 526.705C282.397 533.751 298.239 540.4 318.784 544.967C331.981 547.902 344.984 549.46 355.458 549.46C360.329 549.46 364.627 549.123 368.166 548.441C376.956 546.727 380.874 542.953 379.163 537.829C375.27 526.12 354.38 523.042 332.276 519.803C315.152 517.296 297.489 514.697 286.517 507.951L281.706 504.988C259.071 491.007 247.728 483.994 204.961 472.304C190.509 468.35 177.077 457.342 161.495 444.601C130.358 419.137 87.7424 384.25 3.70882 381.25C2.1414 381.218 0.725673 381.854 0.632978 382.725C0.523426 383.6 1.73691 384.361 3.33803 384.407C84.5149 387.296 124.526 420.04 156.675 446.347C172.72 459.466 186.565 470.797 202.374 475.128C244.13 486.552 255.237 493.404 277.383 507.08L282.194 510.048C294.321 517.503 312.86 520.231 330.793 522.867C351.978 525.977 370.256 528.659 373.475 538.4C374.604 541.985 372.253 544.299 366.194 545.474Z" fill="#EEB7C7"/>
</g>
<path d="M143.707 554.597C145.477 557.311 147.887 561.007 152.614 566.182C156.878 570.827 165.996 573.891 178.991 575.047C182.909 575.398 187.055 575.554 191.319 575.554C213.979 575.554 239.808 570.859 252.457 563.956C258.052 560.896 260.344 557.993 259.51 555.072C257.766 549.155 243.111 545.142 227.623 540.889C222.743 539.557 217.67 538.161 213.145 536.732C180.499 526.484 158.766 520.549 131.901 524.406C118.552 526.323 115.038 529.88 114.432 532.511C113.244 537.686 122.294 542.953 131.235 545.667C139.561 548.22 140.606 549.823 143.707 554.597ZM120.179 532.94C120.878 529.926 127.721 528.323 133.384 527.498C138.398 526.77 143.277 526.438 148.089 526.438C167.007 526.438 185.286 531.654 210.271 539.511C214.94 540.985 220.072 542.382 225.036 543.745C238.561 547.441 252.516 551.28 253.788 555.597C254.344 557.436 252.575 559.436 248.361 561.735C234.727 569.195 202.755 573.955 179.951 571.937C172.198 571.255 162.103 569.449 157.814 564.785C153.229 559.786 150.988 556.325 149.168 553.551C145.915 548.552 144.263 546.063 134.016 542.934C125.429 540.303 119.479 536.018 120.179 532.94Z" fill="#EEB7C7"/>
<path d="M473.377 559.896C492.582 560.707 514.222 554.676 520.753 548.713C526.239 543.713 531.834 540.856 536.975 540.492C540.278 540.239 543.556 540.999 546.952 542.792C554.351 546.695 560.823 553.104 567.093 559.311C577.045 569.177 587.343 579.365 603.042 581.793C612.177 583.203 626.511 583.6 641.688 584.028C667.045 584.743 695.831 585.554 703.896 591.152C713.528 597.829 740.25 603.589 757.02 603.589C761.115 603.589 764.621 603.244 767.115 602.497C769.845 601.672 774.025 599.626 771.177 595.166C766.07 587.185 742.828 580.443 720.345 573.937C705.43 569.624 691.357 565.546 685.062 561.753C683.09 560.565 680.57 559.007 677.663 557.201C655.5 543.474 614.242 517.932 591.522 517.125C582.64 516.807 571.761 514.029 560.216 511.112C540.657 506.144 518.52 500.527 496.584 503.956C477.902 506.872 460.458 515.185 451.087 525.627C443.461 534.147 442.155 542.81 447.405 549.98C451.669 555.929 460.66 559.357 473.377 559.896ZM456.228 527.023C464.899 517.36 480.944 509.683 498.093 507.001C517.972 503.891 539.065 509.255 557.688 513.983C569.73 517.042 581.107 519.931 591.059 520.295C611.393 521.028 653.174 546.888 673.222 559.311C676.154 561.136 678.708 562.689 680.68 563.896C687.674 568.099 702.185 572.306 717.531 576.748C738.017 582.678 761.225 589.406 765.607 596.212C767.258 598.797 765.227 599.419 764.241 599.718C754.727 602.575 719.157 596.673 708.388 589.185C698.671 582.443 669.834 581.632 641.916 580.853C627.093 580.443 613.045 580.047 604.551 578.729C591.169 576.665 581.478 567.053 572.081 557.754C565.61 551.344 558.935 544.727 550.896 540.492C546.809 538.336 542.511 537.257 538.104 537.257C537.438 537.257 536.798 537.29 536.132 537.336C529.079 537.843 522.202 541.128 515.705 547.077C510.278 552.026 490.374 557.436 473.781 556.721C466.584 556.408 457.07 554.786 452.688 548.805C448.07 542.478 449.318 534.732 456.228 527.023Z" fill="#EEB7C7"/>
<path d="M934.094 670.399C935.401 670.478 937.608 670.574 940.162 670.574C946.541 670.574 955.162 669.989 957.917 667.003C959.165 665.672 959.569 663.437 954.496 660.391C934.069 648.06 897.159 654.852 895.592 655.152C894.142 655.423 893.333 656.262 893.738 657.073C897.682 664.944 916.836 669.432 934.094 670.399ZM950.198 662.497C952.372 663.815 953.299 664.925 952.726 665.561C951.589 666.801 944.864 667.814 934.676 667.243C920.662 666.464 905.139 662.976 900.353 657.677C909.058 656.423 935.401 653.566 950.198 662.497Z" fill="#EEB7C7"/>
<path d="M955.541 597.289C976.895 598.308 990.151 606.602 1000.8 613.284C1008.32 617.979 1014.99 622.168 1022.62 622.168C1024.27 622.168 1025.96 621.979 1027.73 621.55C1039.16 618.772 1052.94 611.302 1056.22 601.432C1058.43 594.801 1056.54 584.456 1035.01 572.844C1004.05 556.149 950.923 562.006 924.783 571.222C913.583 575.176 908.502 579.424 910.853 582.903C913.465 586.709 922.929 595.736 955.541 597.289ZM927.977 573.89C938.249 570.273 956.671 566.181 977.645 565.527C979.39 565.481 981.244 565.448 983.131 565.448C997.87 565.448 1016.55 567.338 1030.98 575.097C1046.82 583.631 1053.4 592.308 1050.56 600.861C1047.45 610.173 1033.82 616.601 1025.41 618.647C1019.69 620.043 1014.29 616.887 1005.18 611.205C994.449 604.478 979.735 595.276 956.064 594.151C926.755 592.755 918.513 585.074 916.339 581.839C915.092 579.936 919.651 576.825 927.977 573.89Z" fill="#EEB7C7"/>
<path d="M246.04 722.774C237.512 722.645 232.372 724.71 227.821 726.548C223.928 728.12 220.591 729.47 215.459 729.47C207.099 729.47 197.644 729.47 194.282 732.866C191.779 735.386 193.439 738.907 199.473 743.953C202.81 746.731 208.667 748.206 216.42 748.22C216.445 748.22 216.47 748.22 216.504 748.22C229.498 748.22 245.602 743.971 251.729 738.907C258.605 733.244 260.695 728.88 257.939 725.977C256.018 723.963 252.015 722.866 246.04 722.774ZM246.908 737.165C241.802 741.381 227.619 745.063 216.529 745.063C216.504 745.063 216.47 745.063 216.445 745.063C212.442 745.063 207.133 744.556 204.319 742.225C198.251 737.165 198.605 735.133 199.355 734.373C201.066 732.64 209.366 732.64 215.434 732.64C222.479 732.64 227.122 730.755 231.243 729.101C235.422 727.424 239.341 725.802 245.838 725.945C249.554 726.009 251.897 726.516 252.774 727.451C254.425 729.166 252.217 732.801 246.908 737.165Z" fill="#EEB7C7"/>
<path d="M449.174 274.317L443.781 275.22C423.379 278.648 398.023 282.897 377.68 278.616C368.023 276.584 358.534 277.109 350.174 280.137C338.132 284.519 330.59 293.352 330.042 303.794C329.52 313.517 333.809 319.074 337.61 323.972C342.051 329.718 345.91 334.686 341.267 345.505C335.815 358.163 336.658 365.859 344.056 371.236C351.219 376.443 364.483 379.139 385.837 379.724C386.992 379.756 388.129 379.775 389.259 379.775C434.983 379.775 440.031 353.168 442.761 338.713C443.486 334.856 445.315 332.433 448.332 331.29C453.177 329.465 461.823 330.7 471.834 332.161C479.318 333.239 487.82 334.478 496.559 334.667C506.857 334.907 515.764 332.29 521.739 327.322C532.391 318.47 532.037 303.983 520.871 291.274C506.419 274.805 481.643 268.953 449.174 274.317ZM516.868 325.562C513.472 328.387 507.236 331.718 496.761 331.479C488.663 331.304 480.48 330.115 473.284 329.083C461.882 327.433 452.048 326.023 445.028 328.672C440.528 330.368 437.891 333.543 436.989 338.381C433.391 357.417 426.194 377.664 386.124 376.535C366.624 375.996 354.733 373.697 348.7 369.301C342.548 364.813 341.992 357.689 346.93 346.201C352.003 334.382 347.621 328.719 342.978 322.705C339.236 317.881 335.377 312.899 335.874 303.859C336.363 294.592 343.096 286.5 353.427 282.754C357.455 281.298 361.812 280.551 366.363 280.551C369.388 280.551 372.514 280.883 375.624 281.533C397.846 286.215 424.281 281.773 445.517 278.201L450.885 277.298C480.624 272.395 502.441 277.538 515.646 292.592C525.944 304.379 526.441 317.613 516.868 325.562Z" fill="#EEB7C7"/>
<path d="M458.057 290.385C448.678 289.703 440.756 290.943 435.136 293.975C428.487 297.528 425.47 303.38 426.86 310.015C428.259 316.678 441.169 321.121 452.571 322.434C455.242 322.752 457.821 322.895 460.256 322.895C467.891 322.895 473.95 321.406 476.883 318.66C482.167 313.711 481.787 304.795 476.04 298.366C471.919 293.749 465.54 290.929 458.057 290.385ZM471.86 317.043C469.341 319.406 462.228 320.296 453.759 319.31C444.304 318.218 433.678 314.725 432.608 309.633C431.445 303.984 433.83 299.081 439.197 296.21C442.737 294.307 447.405 293.353 453.119 293.353C454.459 293.353 455.849 293.404 457.299 293.514C464.352 294.021 468.557 297.178 470.849 299.73C475.754 305.223 476.217 312.978 471.86 317.043Z" fill="#EEB7C7"/>
<path d="M670.616 342.538C667.077 342.124 663.479 341.695 659.847 341.267C561.689 329.498 565.17 317.471 570.951 297.542C572.459 292.353 574.136 286.482 574.136 280.091C574.136 270.207 567.673 262.609 554.906 257.512C529.456 247.361 485.409 249.868 452.687 255.609C405.909 263.811 360.681 264.161 318.226 256.655C299.83 253.406 287.586 257.752 280.541 261.973C267.858 269.571 263.333 282.202 267.892 288.022C269.223 289.722 271.136 291.45 273.37 293.464C282.538 301.73 296.384 314.218 282.252 339.299C264.926 370.066 305.67 394.562 353.687 405.175C361.751 406.953 369.007 407.778 375.85 407.778C397.499 407.778 414.968 399.64 440.004 387.991C451.667 382.568 464.931 376.412 481.237 369.762C527.366 350.962 583.566 355.657 653.004 384.107C677.72 394.244 699.858 397.862 716.981 394.609C730.119 392.102 739.608 385.503 744.428 375.49C747.588 368.938 746.686 363.606 741.698 359.182C730.936 349.566 702.993 346.312 670.616 342.538ZM738.858 374.684C734.501 383.743 726.495 389.438 715.119 391.609C700.119 394.466 679.313 390.894 656.543 381.568C585.774 352.565 525.656 347.741 477.841 367.223C461.392 373.937 448.069 380.126 436.322 385.581C403.971 400.622 386.156 408.921 355.92 402.239C288.344 387.296 277.002 359.5 287.847 340.239C302.737 313.789 288.083 300.574 278.392 291.814C276.277 289.897 274.448 288.247 273.285 286.768C269.923 282.469 273.311 271.064 284.889 264.115C289.33 261.447 296.291 258.719 306.075 258.719C309.235 258.719 312.715 259.005 316.516 259.673C360.125 267.396 406.583 267.032 454.541 258.623C485.906 253.121 527.889 250.614 551.569 260.07C562.768 264.525 568.423 271.272 568.423 280.091C568.423 286.229 566.83 291.722 565.288 297.035C559.431 317.31 555.167 331.94 658.684 344.363C662.316 344.792 665.914 345.22 669.479 345.63C700.523 349.266 727.363 352.39 736.886 360.846C740.914 364.495 741.58 369.016 738.858 374.684Z" fill="#EEB7C7"/>
<path d="M695.856 324.577C652.162 315.932 640.87 294.146 630.918 274.917C624.656 262.798 618.732 251.356 605.62 244.043C588.353 234.413 560.536 227.625 529.221 225.432C495.361 223.054 459.471 226.164 428.165 234.21C399.555 241.555 354.589 242.108 311.064 242.647C254.165 243.347 200.426 244.011 187.407 259.973C174.379 275.884 194.19 287.566 213.345 298.86C228.109 307.569 243.37 316.568 244.297 327.609C244.592 330.94 244.651 334.668 244.71 338.617C245.199 365.671 245.924 406.539 319.508 424.565C379.912 439.366 423.901 443.73 450.303 437.509C461.704 434.827 469.626 430.164 473.78 423.644L474.648 422.28C481.061 412.174 489.041 399.59 519.564 391.134C543.589 384.485 571.263 383.471 595.491 388.374C617.224 392.77 634.145 401.687 643.111 413.474C654.075 427.929 674.358 433.164 694.002 438.223C713.468 443.255 731.864 447.997 740.687 461.498C754.12 482.059 829.962 509.587 885.58 514.107C890.948 514.536 895.996 514.757 900.791 514.757C919.01 514.757 932.822 511.6 941.148 505.463C950.957 498.242 954.201 490.487 950.839 482.409C941.636 460.388 886.566 442.49 863.325 435.813C819.108 423.118 800.367 394.355 801.412 371.491C802.541 345.663 766.886 338.617 695.856 324.577ZM860.569 438.606C878.156 443.651 936.218 461.784 945.125 483.091C948.108 490.215 945.176 497.099 936.445 503.541C924.867 512.08 902.847 512.269 886.423 510.951C832.431 506.573 759.024 480.123 746.139 460.42C736.507 445.679 716.139 440.43 696.462 435.334C676.996 430.307 658.6 425.56 648.471 412.234C638.898 399.622 620.797 390.088 597.521 385.374C586.735 383.199 575.325 382.121 563.814 382.121C547.853 382.121 531.749 384.199 516.951 388.296C484.339 397.323 475.929 410.571 469.196 421.215L468.319 422.579C464.721 428.228 457.878 432.256 448.044 434.574C423.555 440.334 379.946 435.878 321.918 421.644C251.73 404.447 251.064 366.366 250.542 338.557C250.483 334.571 250.39 330.811 250.103 327.42C249.058 315.218 233.072 305.795 217.609 296.671C198.918 285.644 181.255 275.235 192.716 261.245C204.261 247.121 256.23 246.485 311.241 245.803C355.373 245.264 400.98 244.693 430.693 237.062C496.87 220.073 569.527 228.399 601.533 246.25C613.6 252.992 619.314 264.051 625.381 275.774C635.712 295.735 647.401 318.361 693.909 327.544C764.443 341.493 796.651 347.852 795.58 371.38C794.451 395.245 814.145 425.279 860.569 438.606Z" fill="#EEB7C7"/>
<mask id="mask13_426_17465" style="mask-type:luminance" maskUnits="userSpaceOnUse" x="1378" y="3" width="62" height="72">
<path d="M1378.01 3.53906H1440V74.3175H1378.01V3.53906Z" fill="white"/>
</mask>
<g mask="url(#mask13_426_17465)">
<path d="M1405.09 72.9164C1407.67 73.5846 1411.25 74.2343 1415.53 74.2343C1422.09 74.2343 1430.31 72.7091 1438.98 67.3961C1440.06 66.7463 1439.94 65.7464 1438.75 65.1566C1437.55 64.5714 1435.73 64.6359 1434.66 65.2856C1425.78 70.7138 1416.44 72.3635 1407.61 70.0456C1392.41 66.0644 1380.17 50.4664 1386 31.2696C1388.75 22.2103 1395.34 15.5933 1405.56 11.6304C1419.66 6.1377 1436.16 7.59842 1436.34 7.61225C1437.91 7.7551 1439.42 7.18371 1439.68 6.3128C1439.94 5.45572 1438.89 4.63089 1437.33 4.47422C1436.57 4.40971 1418.38 2.76005 1402.28 9.00846C1390.73 13.4828 1383.33 20.8003 1380.31 30.7443C1374.62 49.2775 1385.53 67.7923 1405.09 72.9164Z" fill="#EEB7C7"/>
</g>
<mask id="mask14_426_17465" style="mask-type:luminance" maskUnits="userSpaceOnUse" x="1319" y="0" width="121" height="121">
<path d="M1319.76 0H1440V120.323H1319.76V0Z" fill="white"/>
</mask>
<g mask="url(#mask14_426_17465)">
<path d="M1365.63 117.913C1370.45 119.024 1375.58 119.563 1381.13 119.563C1397.34 119.563 1416.61 114.803 1438.6 105.329C1439.85 104.79 1440.08 103.79 1439.1 103.108C1438.11 102.426 1436.28 102.302 1435.04 102.841C1407.33 114.757 1384.75 118.849 1367.92 114.978C1339.69 108.49 1331.05 80.8838 1327.01 60.6686C1320.57 28.399 1369.03 3.7095 1369.52 3.45606C1370.71 2.87085 1370.8 1.87092 1369.69 1.22119C1368.62 0.57147 1366.79 0.520782 1365.61 1.12443C1363.52 2.17044 1314.48 27.1134 1321.24 61.0188C1325.42 82.0404 1334.56 110.79 1365.63 117.913Z" fill="#EEB7C7"/>
</g>
<mask id="mask15_426_17465" style="mask-type:luminance" maskUnits="userSpaceOnUse" x="1255" y="0" width="185" height="150">
<path d="M1255.04 0H1440V149.814H1255.04V0Z" fill="white"/>
</mask>
<g mask="url(#mask15_426_17465)">
<path d="M1272.93 92.0808C1280.48 117.024 1285.06 132.064 1311.4 141.363C1328.09 147.247 1350.08 149.8 1372.1 149.8C1396.51 149.8 1420.94 146.662 1438.23 141.409C1439.62 140.981 1440.14 140.013 1439.36 139.253C1438.57 138.488 1436.81 138.202 1435.41 138.631C1404.02 148.169 1347.96 150.468 1314.56 138.681C1290.37 130.143 1286.22 116.439 1278.67 91.5416C1275.89 82.358 1272.72 71.9485 1267.94 59.8111C1250.82 16.4363 1274.55 3.45566 1274.87 3.29899C1276.04 2.71378 1276.12 1.71384 1275.05 1.05951C1273.97 0.409788 1272.12 0.363711 1270.95 0.967354C1269.85 1.52031 1244.32 14.9618 1262.28 60.4793C1267.01 72.5522 1270.15 82.9294 1272.93 92.0808Z" fill="#EEB7C7"/>
</g>
<mask id="mask16_426_17465" style="mask-type:luminance" maskUnits="userSpaceOnUse" x="1209" y="0" width="231" height="179">
<path d="M1209.74 0H1440V178.126H1209.74V0Z" fill="white"/>
</mask>
<g mask="url(#mask16_426_17465)">
<path d="M1234.9 131.765C1233.41 141.281 1232.22 148.787 1237.97 155.34C1244.41 162.685 1264.49 172.555 1299.82 176.232C1307.95 177.075 1317.67 177.679 1329.04 177.679C1356.2 177.679 1392.61 174.283 1438.03 162.795C1439.48 162.431 1440.11 161.478 1439.44 160.685C1438.78 159.892 1437.03 159.542 1435.58 159.911C1320.98 188.881 1255.49 167.97 1243.19 153.957C1238.14 148.202 1239.24 141.06 1240.67 132.033C1242.76 118.674 1245.63 100.38 1228.83 76.0411C1201.76 36.8872 1228.48 3.12458 1228.77 2.77437C1229.41 1.9818 1228.77 1.03256 1227.29 0.682356C1225.81 0.318326 1224.1 0.682356 1223.46 1.48875C1223.17 1.83896 1195.46 36.7443 1223.4 77.1701C1239.74 100.827 1237.04 117.978 1234.9 131.765Z" fill="#EEB7C7"/>
</g>
<mask id="mask17_426_17465" style="mask-type:luminance" maskUnits="userSpaceOnUse" x="1157" y="0" width="283" height="233">
<path d="M1157.97 0H1440V232.389H1157.97V0Z" fill="white"/>
</mask>
<g mask="url(#mask17_426_17465)">
<path d="M1182.06 119.914C1177.5 135.525 1173.21 150.28 1200.4 169.62C1242.58 199.604 1303.51 203.728 1363.05 203.728C1382.02 203.728 1399.73 208.364 1415.65 217.487C1427.7 224.386 1434.11 231.399 1434.17 231.463C1434.66 232.016 1435.7 232.353 1436.78 232.353C1437.21 232.353 1437.65 232.302 1438.05 232.191C1439.5 231.795 1440.08 230.86 1439.36 230.067C1439.1 229.763 1432.57 222.611 1419.95 215.358C1403.09 205.682 1383.42 200.558 1363.02 200.558C1304.93 200.558 1245.6 196.576 1204.95 167.684C1179.27 149.423 1183.19 135.982 1187.75 120.42C1190.87 109.647 1194.13 98.5095 1187.65 84.8331C1171.32 50.3885 1162.27 13.7874 1164.35 2.48863C1164.53 1.61772 1163.34 0.838973 1161.75 0.746812C1160.12 0.682301 1158.72 1.29977 1158.56 2.15685C1156.15 15.1836 1167.12 54.1947 1182.03 85.6257C1188.27 98.6524 1185.1 109.472 1182.06 119.914Z" fill="#EEB7C7"/>
</g>
<path d="M1385.94 270.921C1390.04 262.526 1384.47 250.103 1368.07 243.854C1356.78 239.555 1343.58 236.716 1331.95 234.21C1319.32 231.496 1307.43 228.924 1301.13 225.164C1290.43 218.754 1261.73 216.722 1249.57 220.118C1244.47 221.547 1242.23 223.832 1243.28 226.56C1245.16 231.56 1261.56 235.127 1280.54 239.251C1298.49 243.172 1318.86 247.596 1320.63 252.485C1324.75 263.811 1343.67 278.695 1369.11 278.695C1370.13 278.695 1371.18 278.663 1372.22 278.617C1378.72 278.313 1383.71 275.506 1385.94 270.921ZM1326.34 251.867C1323.97 245.296 1303.92 240.933 1282.71 236.302C1267.51 232.984 1250.27 229.224 1248.99 225.911C1248.67 225.035 1248.73 223.911 1252.25 222.943C1255.41 222.054 1260.11 221.644 1265.32 221.644C1276.76 221.644 1290.77 223.657 1296.87 227.307C1304.06 231.62 1316.59 234.32 1329.86 237.173C1341.75 239.73 1354.05 242.38 1364.76 246.471C1378.89 251.849 1383.85 262.94 1380.34 270.11C1379.42 272 1377.07 275.221 1371.72 275.474C1356.55 276.188 1332.35 268.382 1326.34 251.867Z" fill="#EEB7C7"/>
<mask id="mask18_426_17465" style="mask-type:luminance" maskUnits="userSpaceOnUse" x="1291" y="316" width="149" height="176">
<path d="M1291.72 316.144H1440V491.91H1291.72V316.144Z" fill="white"/>
</mask>
<g mask="url(#mask18_426_17465)">
<path d="M1296.32 439.637C1306.47 453.01 1326.06 459.037 1341.78 463.88C1351.73 466.94 1360.35 469.589 1364.24 473.317C1371.34 480.141 1387.57 488.376 1406.31 490.343C1408.95 490.611 1411.59 490.754 1414.14 490.754C1422.99 490.754 1431.35 489.118 1438.63 485.947C1439.88 485.408 1440.08 484.408 1439.1 483.708C1438.11 483.026 1436.28 482.915 1435 483.454C1426.85 487.012 1417.57 488.279 1407.39 487.215C1391.19 485.519 1375.96 478.142 1369.29 471.732C1364.62 467.257 1355.36 464.401 1344.66 461.101C1328.93 456.263 1311.12 450.775 1301.71 438.412C1289.59 422.436 1333.52 398.161 1362.59 382.088C1370.56 377.679 1377.47 373.872 1382.4 370.73C1396.88 361.495 1393.86 348.533 1391.45 338.11C1389.8 330.986 1388.35 324.83 1392.99 322.434C1404.86 316.296 1435.52 322.692 1435.84 322.77C1437.35 323.088 1439.01 322.673 1439.59 321.867C1440.17 321.056 1439.42 320.134 1437.93 319.816C1436.54 319.517 1403.53 312.646 1389.02 320.153C1382.26 323.641 1383.85 330.544 1385.71 338.525C1388.11 348.837 1390.82 360.514 1378.02 368.67C1373.23 371.73 1366.39 375.508 1358.49 379.867C1326.46 397.53 1282.71 421.722 1296.32 439.637Z" fill="#EEB7C7"/>
</g>
<mask id="mask19_426_17465" style="mask-type:luminance" maskUnits="userSpaceOnUse" x="1347" y="362" width="93" height="91">
<path d="M1347.81 362.149H1440V452.982H1347.81V362.149Z" fill="white"/>
</mask>
<g mask="url(#mask19_426_17465)">
<path d="M1380.14 405.985C1387.16 402.349 1393.77 398.907 1397.52 394.926C1408.37 383.314 1422.76 369.573 1437.91 366.209C1439.38 365.877 1440.11 364.956 1439.5 364.145C1438.89 363.338 1437.21 362.942 1435.73 363.274C1418.93 367.002 1404.37 380.632 1392.35 393.484C1389.07 396.986 1382.8 400.239 1376.16 403.681C1362.23 410.902 1346.48 419.072 1350.19 433.177C1352.31 441.254 1358.69 446.807 1369.17 449.678C1375 451.281 1381.59 451.899 1388.35 451.899C1411.67 451.899 1436.83 444.508 1438.19 444.093C1439.58 443.678 1440.11 442.711 1439.36 441.936C1438.6 441.158 1436.83 440.886 1435.41 441.3C1435 441.43 1394.96 453.198 1371.76 446.839C1363.08 444.457 1357.77 439.715 1355.91 432.734C1352.63 420.233 1366.61 412.98 1380.14 405.985Z" fill="#EEB7C7"/>
</g>
<path d="M918.454 781.871C891.15 770.116 860.198 756.804 809.215 752.155C760.01 747.666 732.125 749.141 721.448 756.804C710.974 764.31 719.586 776.194 728.502 786.742C729.167 787.535 730.878 787.885 732.353 787.521C733.811 787.157 734.443 786.203 733.777 785.41C723.622 773.37 718.398 764.214 726.092 758.726C735.083 752.284 762.732 751.122 808.288 755.283C857.813 759.785 888.133 772.844 914.914 784.364C917.265 785.364 919.558 786.364 921.85 787.332C922.372 787.553 923.013 787.664 923.619 787.664C924.487 787.664 925.33 787.456 925.912 787.046C926.897 786.346 926.67 785.364 925.423 784.825C923.097 783.857 920.779 782.871 918.454 781.871Z" fill="#EEB7C7"/>
<mask id="mask20_426_17465" style="mask-type:luminance" maskUnits="userSpaceOnUse" x="1069" y="756" width="371" height="32">
<path d="M1069.52 756.149H1440V788H1069.52V756.149Z" fill="white"/>
</mask>
<g mask="url(#mask20_426_17465)">
<path d="M1434.63 757.219C1434.13 757.518 1385.91 787.046 1331.07 782.489C1317.35 781.364 1302.61 777.968 1287 774.383C1236.57 762.803 1173.82 748.38 1071.25 784.742C1069.91 785.221 1069.51 786.203 1070.37 786.935C1070.93 787.392 1071.86 787.663 1072.82 787.663C1073.37 787.663 1073.91 787.585 1074.38 787.41C1174.36 751.965 1235.58 766.024 1284.74 777.319C1300.69 780.982 1315.78 784.442 1330.2 785.65C1354.25 787.631 1380.75 783.696 1406.74 774.273C1426.24 767.195 1438.49 759.642 1438.98 759.329C1440.02 758.675 1439.9 757.661 1438.72 757.09C1437.53 756.504 1435.67 756.564 1434.63 757.219Z" fill="#EEB7C7"/>
</g>
<mask id="mask21_426_17465" style="mask-type:luminance" maskUnits="userSpaceOnUse" x="918" y="1" width="522" height="757">
<path d="M918.504 1.17969H1440V757.329H918.504V1.17969Z" fill="white"/>
</mask>
<g mask="url(#mask21_426_17465)">
<path d="M996.648 327.876C994.592 334.811 992.443 341.981 991.196 348.916C988.153 365.795 1012.87 380.776 1039.07 396.641C1063.44 411.409 1088.65 426.671 1089.93 443.555C1092.55 478.492 1151.54 504.352 1203.55 527.166L1208.78 529.452C1249.6 547.377 1245.6 594.802 1243.42 620.279C1242.76 628.15 1242.29 633.831 1243.1 636.891C1243.95 640.002 1245.37 642.287 1246.76 644.494C1251.11 651.392 1254.85 657.374 1232.69 687.869C1216.58 710.015 1214.84 726.313 1227.38 737.672C1238.96 748.141 1262.28 754.252 1298.7 756.362C1301.8 756.537 1304.87 756.629 1307.92 756.629C1379.7 756.629 1436.75 708.858 1439.24 706.748C1440.11 706.02 1439.7 705.034 1438.37 704.559C1437.03 704.085 1435.24 704.292 1434.37 705.034C1434.23 705.163 1418.55 718.379 1394 730.866C1371.61 742.271 1337 755.408 1299.3 753.219C1264.8 751.22 1242.9 745.602 1232.34 736.036C1220.79 725.581 1222.68 710.222 1238.05 689.058C1261.04 657.457 1256.94 650.982 1252.25 643.476C1250.94 641.398 1249.6 639.273 1248.85 636.43C1248.09 633.67 1248.59 627.832 1249.22 620.441C1251.43 594.387 1255.52 545.921 1212.4 526.977L1207.18 524.692C1156.12 502.288 1098.23 476.902 1095.71 443.425C1094.34 425.404 1068.44 409.695 1043.37 394.512C1018.06 379.186 994.153 364.703 996.943 349.234C998.19 342.396 1000.22 335.59 1002.37 328.387C1010.14 302.334 1018.21 275.377 986.755 247.739C948.69 214.28 913.322 170.173 928.204 146.723C932.763 139.553 941.316 131.715 950.375 123.416C970.684 104.79 993.724 83.6766 975.875 64.1618C953.072 39.2189 956.064 16.1329 965.544 3.94945C966.184 3.13844 965.493 2.20303 964.01 1.87125C962.527 1.52105 960.816 1.90351 960.21 2.71451C956.611 7.34552 940.128 32.1917 970.684 65.5857C987.109 83.5614 965.898 102.998 945.387 121.798C936.159 130.24 927.479 138.221 922.718 145.695C907.17 170.191 943.061 215.345 981.825 249.421C1012.12 276.046 1004.26 302.399 996.648 327.876Z" fill="#EEB7C7"/>
</g>
<mask id="mask22_426_17465" style="mask-type:luminance" maskUnits="userSpaceOnUse" x="1002" y="0" width="438" height="655">
<path d="M1002.64 0H1440V654.701H1002.64V0Z" fill="white"/>
</mask>
<g mask="url(#mask22_426_17465)">
<path d="M1070.76 235.859C1164.65 250.789 1222.74 269.856 1243.37 292.495C1271.77 323.659 1278.88 338.492 1234.34 359.988C1210.87 371.319 1188.94 393.18 1178.43 415.676C1171.29 430.974 1163.63 459.516 1192.38 478.856C1206.66 488.468 1222.8 496.702 1238.38 504.651C1273.69 522.691 1304.18 538.271 1304.18 563.863C1304.18 583.599 1310.22 619.707 1350.57 639.876C1369.49 649.332 1393.78 654.106 1422.88 654.092C1427.49 654.092 1432.22 653.963 1437.09 653.723C1438.69 653.645 1439.88 652.871 1439.74 651.995C1439.59 651.125 1438.23 650.489 1436.57 650.553C1402.8 652.217 1375.18 647.839 1354.52 637.513C1315.81 618.168 1310.04 583.06 1310.04 563.845C1310.04 536.875 1277.17 520.088 1242.38 502.319C1226.94 494.435 1210.96 486.279 1196.94 476.842C1153.37 447.503 1191.83 384.724 1238.23 362.352C1285.61 339.492 1277.77 323.069 1248.62 291.072C1227.24 267.589 1167.95 247.996 1072.44 232.795C1025.29 225.293 1015.8 194.465 1008.99 157.943C1005.56 139.538 1025.2 121.609 1042.55 105.808C1060.95 89.0351 1076.82 74.566 1063.47 62.5899C1039.51 41.0569 1048.68 2.90286 1048.76 2.5204C1048.96 1.6495 1047.86 0.856924 1046.27 0.727902C1044.7 0.617311 1043.22 1.22095 1042.99 2.09186C1042.58 3.69543 1033.44 41.7435 1058.49 64.2396C1070.01 74.5845 1054.95 88.307 1037.54 104.186C1019.72 120.42 999.556 138.824 1003.18 158.274C1010.17 195.954 1020.13 227.795 1070.76 235.859Z" fill="#EEB7C7"/>
</g>
<path d="M1371.7 671.939C1361.83 670.276 1319.35 679.427 1298.11 690.311C1286.19 696.422 1281.4 702.435 1283.9 708.195C1287.23 715.886 1293.73 720.729 1303.24 722.549C1305.95 723.074 1308.87 723.328 1311.95 723.328C1321.96 723.328 1333.74 720.6 1346.07 715.365C1355.36 711.411 1364.3 704.32 1370.65 695.864C1376.42 688.187 1379.1 680.713 1377.61 676.335C1376.6 673.368 1373.84 672.303 1371.7 671.939ZM1342.51 712.872C1328.03 719.028 1314.76 721.411 1305.19 719.567C1297.67 718.125 1292.42 714.047 1289.55 707.481C1287.58 702.896 1291.78 697.91 1302.09 692.643C1322.2 682.349 1358.31 674.889 1368.33 674.889C1369.03 674.889 1369.57 674.921 1370.01 675.004C1371.2 675.206 1371.76 676.428 1371.92 676.953C1374.48 684.648 1361.19 704.923 1342.51 712.872Z" fill="#EEB7C7"/>
<mask id="mask23_426_17465" style="mask-type:luminance" maskUnits="userSpaceOnUse" x="1067" y="0" width="373" height="628">
<path d="M1067.36 0H1440V627.569H1067.36V0Z" fill="white"/>
</mask>
<g mask="url(#mask23_426_17465)">
<path d="M1075.46 185.102C1083.4 193.641 1097.77 199.622 1119.35 203.396C1130.67 205.364 1165.09 211.377 1211.19 254.973C1220.79 264.065 1247.11 271.272 1274.96 278.902C1306.96 287.676 1340.04 296.735 1349.85 309.029C1362.93 325.466 1313.35 358.735 1273.51 385.471C1257.96 395.894 1243.28 405.746 1232.95 414.026C1221.4 423.261 1217.71 432.163 1221.98 440.476C1231 458.056 1273.6 470.686 1318.25 481.727C1357.95 491.546 1355.36 505.873 1351.04 529.641C1348.66 542.699 1345.7 558.943 1349.65 578.268C1353.5 597.23 1365.4 610.888 1385.04 618.883C1400.88 625.343 1417.83 626.5 1428.02 626.5C1433.44 626.5 1436.92 626.168 1437.33 626.136C1438.9 625.975 1439.94 625.15 1439.68 624.297C1439.42 623.44 1437.88 622.851 1436.31 623.012C1436.05 623.044 1410.63 625.376 1388.47 616.316C1370.22 608.856 1359.1 595.945 1355.45 577.918C1351.59 558.929 1354.52 542.875 1356.87 529.958C1361.28 505.651 1364.21 489.597 1320.72 478.838C1277.34 468.115 1236.02 455.945 1227.64 439.619C1223.81 432.145 1227.12 424.371 1237.79 415.819C1247.97 407.649 1262.6 397.862 1278.07 387.485C1321.04 358.657 1369.75 325.991 1355.24 307.776C1344.62 294.431 1310.56 285.105 1277.63 276.078C1250.56 268.668 1224.99 261.655 1216.26 253.388C1195.98 234.223 1164.07 207.87 1121.18 200.382C1100.87 196.844 1087.99 191.531 1080.68 183.674C1069.51 171.698 1071.51 153.593 1086.74 128.318C1117.32 77.6768 1114.39 74.0918 1098.14 54.213C1082.94 35.6014 1111.11 3.1705 1111.37 2.83873C1112.07 2.04615 1111.47 1.11074 1110.02 0.728274C1108.56 0.345813 1106.85 0.682195 1106.16 1.47477C1104.93 2.85716 1076.53 35.5553 1092.83 55.5125C1108.3 74.442 1111.09 77.8519 1081.23 127.337C1065.45 153.436 1063.56 172.348 1075.46 185.102Z" fill="#EEB7C7"/>
</g>
<path d="M1046.65 346.22C1041.19 356.85 1042.26 365.845 1049.84 372.937C1059.32 381.821 1078.68 387.959 1110.71 392.244C1118.66 393.309 1125.56 393.861 1131.72 393.861C1161.23 393.861 1173.99 381.217 1204.25 351.293C1238.32 317.595 1198.97 297.827 1180.05 288.325C1177.53 287.072 1175.38 285.975 1173.67 285.026C1152.84 273.317 1115.47 259.53 1082.56 256.959C1072.04 256.134 1063.04 257.991 1056.48 262.304C1044.5 270.207 1042.35 285.786 1051.31 300.191C1061.97 317.328 1061.18 318.788 1051.69 336.538C1050.24 339.331 1048.53 342.519 1046.65 346.22ZM1057.29 337.428C1067.04 319.166 1068.06 317.263 1056.82 299.177C1048.5 285.754 1050.21 271.428 1060.98 264.336C1065.42 261.415 1071.04 259.94 1077.81 259.94C1079.08 259.94 1080.42 259.991 1081.78 260.101C1113.32 262.557 1149.39 275.884 1169.55 287.228C1171.35 288.247 1173.58 289.357 1176.17 290.657C1195.35 300.301 1231.06 318.245 1199.21 349.754C1162.47 386.106 1153.73 394.737 1112.13 389.166C1081.73 385.088 1063.53 379.425 1054.89 371.333C1048.04 364.923 1047.17 356.975 1052.27 347.077C1054.1 343.395 1055.81 340.22 1057.29 337.428Z" fill="#EEB7C7"/>
<path d="M1114.83 345.566C1118.77 346.741 1123.19 347.331 1127.68 347.331C1133.87 347.331 1140.22 346.234 1145.85 344.077C1154.12 340.902 1158.96 335.875 1159.48 329.908C1160.06 323.18 1154.92 316.439 1146.08 312.296C1134.73 306.997 1125.16 305.237 1117.64 307.048C1107.75 309.412 1102.44 317.439 1101.46 331.576C1100.99 337.81 1105.86 342.902 1114.83 345.566ZM1119.94 309.965C1121.12 309.679 1122.4 309.536 1123.79 309.536C1128.7 309.536 1134.88 311.269 1142.28 314.725C1149.82 318.245 1154.17 324.005 1153.68 329.765C1153.25 334.732 1149.27 338.889 1142.51 341.474C1134.59 344.506 1125.04 344.999 1117.62 342.778C1110.68 340.714 1106.88 336.668 1107.23 331.7C1108.33 315.996 1114.74 311.204 1119.94 309.965Z" fill="#EEB7C7"/>
</g>
</svg>
