<svg width="389" height="333" viewBox="0 0 389 333" fill="none" xmlns="http://www.w3.org/2000/svg">
<g clip-path="url(#clip0_565_5183)">
<path d="M154.389 92.5716C154.484 92.9224 154.232 93.1652 153.862 93.0968C146.696 90.1553 121.737 78.2846 121.298 71.1865C147.783 82.1688 166.702 40.041 163.619 25.347C161.965 33.5306 146.013 43.7529 138.83 42.1532C138.024 41.9737 128.963 52.567 131.71 54.4952C128.161 59.9472 124.613 86.6914 120.107 88.37C119.957 88.4257 119.745 88.3223 119.579 88.37C101.491 82.6465 86.3675 84.7968 75.2757 66.0494C67.9166 53.6112 73.785 56.9254 81.8684 51.6066C97.8955 41.061 92.3335 34.3176 100.592 19.8325C119.021 -12.4919 157.073 0.558615 166.52 17.7317C177.73 38.1094 161.902 66.065 179.705 88.1074C171.663 91.5143 156.125 90.934 154.125 91.5212C153.087 91.8259 154.375 92.5193 154.389 92.5716Z" fill="#383838"/>
<path d="M95.4214 41.1147C95.4214 21.1469 111.677 4.95969 131.73 4.95969C151.783 4.95969 168.039 21.1469 168.039 41.1147C168.039 57.3087 157.346 71.0142 142.608 75.6172L137.195 79.9603L146.914 113.832L135.589 121.809L99.8065 92.1161C99.8065 92.1161 107.537 82.3117 111.682 71.2563C101.884 64.7814 95.4214 53.7017 95.4214 41.1147Z" fill="#FFB6B6"/>
<path d="M257.628 133.75L231.614 223.767L205.307 205.586L236.308 127.048C233.604 122.062 232.933 115.509 234.986 109.031C238.579 97.6964 249.128 90.9086 258.548 93.8697C267.968 96.8308 272.692 108.419 269.099 119.754C267.045 126.231 262.716 131.213 257.628 133.75Z" fill="#FFB6B6"/>
<path d="M170.81 169.293H76.9717V278.124H170.81V169.293Z" fill="#FFB6B6"/>
<path d="M236.273 333H17.7831C17.0752 332.946 16.5522 332.333 16.598 331.628C16.5522 330.931 17.0752 330.318 17.7831 330.264H236.273C236.897 330.34 237.389 330.831 237.466 331.452C237.566 332.21 237.035 332.9 236.273 333Z" fill="#CCCCCC"/>
<path d="M108.471 82.5106L86.1641 133.237L88.3714 220.418H163.764L166.131 127.912L138.14 84.9516L108.471 82.5106Z" fill="#C9184A"/>
<path d="M63.6539 102.696C63.6539 102.696 57.1234 289.233 39.5884 320.016C39.5884 320.016 63.8215 324.221 69.9848 315.524C76.1481 306.827 99.9203 248.925 100.178 236.103C100.436 223.28 107.883 82.4479 107.883 82.4479L63.6539 102.696Z" fill="#383838"/>
<path d="M136.171 90.0776L138.14 84.9515L188.139 104.723C188.139 104.723 185.806 291.139 206.047 309.976C206.047 309.976 172.232 308.37 171.109 307.599C169.986 306.827 145.437 210.432 145.437 210.432C145.437 210.432 157.139 165.776 158.043 146.708C158.946 127.64 136.171 90.0776 136.171 90.0776Z" fill="#383838"/>
<path d="M71.2109 237.268L49.9267 301.671L48.6587 332.465H206.034L175.682 237.268H71.2109Z" fill="#383838"/>
<path d="M175.453 108.368L188.139 104.723L217.31 163.55L229.812 131.33L260.698 140.117C260.698 140.117 246.659 230.841 225.434 225.961C204.209 221.081 175.453 171.26 175.453 171.26L175.453 108.368Z" fill="#383838"/>
<path d="M50.3942 288.014L7.81982 226.384L27.3917 209.238L67.3983 276.313C72.5872 277.175 77.7733 280.403 81.3585 285.569C87.6316 294.609 86.6265 306.127 79.1136 311.297C71.6007 316.467 60.4251 313.329 54.152 304.29C50.5668 299.123 49.3689 293.151 50.3942 288.014Z" fill="#FFB6B6"/>
<path d="M71.2107 107.897L63.6542 102.696L1.83817 218.96C1.83817 218.96 -3.17943 225.971 3.36524 237.268C9.90991 248.564 43.5107 283.158 43.5107 283.158L69.9851 268.268L43.0205 218.228L68.4372 174.45L71.2107 107.897Z" fill="#383838"/>
<path d="M163.619 25.347C161.965 33.5306 128.963 52.567 131.71 54.4952C128.161 59.9472 124.613 86.6914 120.107 88.3701C119.957 88.4257 119.745 88.3223 119.579 88.3701C101.491 82.6465 86.3675 84.7968 75.2757 66.0494C67.9166 53.6112 73.785 56.9254 81.8684 51.6066C97.8955 41.061 92.3335 34.3176 100.592 19.8325C119.021 -12.4919 157.073 0.558615 166.52 17.7317C177.73 38.1094 166.702 40.041 163.619 25.347Z" fill="#383838"/>
<path d="M389 112.987H151.617V327.762H389V112.987Z" fill="#D6D6E3"/>
<path d="M372.318 312.421H165.747V162.641H372.318V312.421ZM166.841 311.331H371.224V163.731H166.841V311.331Z" fill="#383838"/>
<path d="M371.771 187.625H167.57V188.714H371.771V187.625Z" fill="#383838"/>
<path d="M196.195 162.551H195.101V311.241H196.195V162.551Z" fill="#383838"/>
<path d="M224.272 162.551H223.178V311.241H224.272V162.551Z" fill="#383838"/>
<path d="M252.35 162.551H251.256V311.24H252.35V162.551Z" fill="#383838"/>
<path d="M282.979 162.55H281.885V311.24H282.979V162.55Z" fill="#383838"/>
<path d="M312.333 162.55H311.239V311.24H312.333V162.55Z" fill="#383838"/>
<path d="M342.963 162.549H341.869V311.24H342.963V162.549Z" fill="#383838"/>
<path d="M372.409 212.205H168.208V213.294H372.409V212.205Z" fill="#383838"/>
<path d="M370.494 236.785H166.294V237.874H370.494V236.785Z" fill="#383838"/>
<path d="M369.856 261.364H165.655V262.454H369.856V261.364Z" fill="#383838"/>
<path d="M370.494 285.944H166.294V287.034H370.494V285.944Z" fill="#383838"/>
<path d="M218.064 270.045H198.373V275.492H218.064V270.045Z" fill="#C9184A"/>
<path d="M247.875 247.441H228.184V252.888H247.875V247.441Z" fill="#C9184A"/>
<path d="M305.857 194.607H286.165V200.054H305.857V194.607Z" fill="#C9184A"/>
<path d="M247.329 270.318H227.637V275.764H247.329V270.318Z" fill="#C9184A"/>
</g>
<defs>
<clipPath id="clip0_565_5183">
<rect width="389" height="333" fill="white"/>
</clipPath>
</defs>
</svg>