<svg width="1078" height="312" viewBox="0 0 1078 312" fill="none" xmlns="http://www.w3.org/2000/svg">
<g opacity="0.2">
<path d="M57.4074 16.6024C60.057 16.6024 62.7065 16.5203 65.312 16.3324C77.3675 15.4658 91.9654 12.085 93.0063 0.935637C93.0252 0.583513 92.0916 0.295246 90.8804 0.287948C89.707 0.287948 88.685 0.552497 88.6408 0.897323C87.8775 9.10199 79.4493 14.0135 64.2458 15.1063C47.7617 16.2941 27.5429 12.6944 22.8683 10.3007C22.2816 9.99964 21.8085 9.62379 22.2816 9.48513C32.167 6.62618 39.3777 1.29871 39.6805 1.0743C40.1158 0.745892 39.5543 0.388294 38.444 0.262406C37.3337 0.138341 36.0783 0.30072 35.643 0.621827C35.5736 0.671088 28.4513 5.92923 19.222 8.59844C18.1117 8.91955 16.6166 9.65481 19.0895 10.9228C23.5433 13.1906 40.57 16.6024 57.4074 16.6024Z" fill="#EEB7C7"/>
<path d="M178.89 9.1331C198.245 13.5483 216.88 15.8417 233.301 15.8417C235.692 15.8417 238.014 15.7924 240.291 15.6976C261.406 14.7999 278.458 9.88661 290.949 1.08534C291.403 0.766053 290.879 0.401158 289.75 0.269796C288.646 0.138433 287.384 0.28804 286.905 0.609148C275.045 8.9689 259.147 13.625 239.667 14.4533C198.788 16.1993 154.565 0.609148 154.13 0.452243C153.366 0.182221 151.997 0.138433 151.064 0.35737C150.13 0.578132 150.004 0.972219 150.742 1.24224C151.215 1.41192 162.318 5.35096 178.89 9.1331Z" fill="#EEB7C7"/>
<mask id="mask0_426_17710" style="mask-type:luminance" maskUnits="userSpaceOnUse" x="0" y="0" width="362" height="44">
<path d="M0 0H361.377V43.4371H0V0Z" fill="white"/>
</mask>
<g mask="url(#mask0_426_17710)">
<path d="M2.60602 43.2056C2.66911 43.2056 2.7385 43.2056 2.80158 43.2056C28.6286 42.5525 68.6561 39.6388 112.727 29.4491C142.03 22.6712 180.714 23.6254 221.656 24.6434C238.576 25.0649 256.088 25.4973 273.481 25.3969C298.482 25.2528 321.596 20.9744 340.294 13.0343C354.287 7.09196 360.822 1.29377 361.106 1.04929C361.472 0.715414 360.847 0.36329 359.693 0.25747C358.545 0.149826 357.327 0.332274 356.955 0.666153C356.696 0.897862 330.567 23.8078 273.399 24.1472C256.259 24.253 238.86 23.8133 222.029 23.3991C180.191 22.3628 140.687 21.3831 110.015 28.4748C66.7888 38.4638 27.6508 41.321 2.41046 41.9559C1.21184 41.9869 0.347573 42.2897 0.435892 42.6346C0.543136 42.9612 1.49572 43.2056 2.60602 43.2056Z" fill="#EEB7C7"/>
</g>
<mask id="mask1_426_17710" style="mask-type:luminance" maskUnits="userSpaceOnUse" x="0" y="0" width="531" height="61">
<path d="M0 0.466797H530.95V60.2512H0V0.466797Z" fill="white"/>
</mask>
<g mask="url(#mask1_426_17710)">
<path d="M181.628 41.9992C151.328 38.4251 122.309 41.8368 79.3418 49.381C38.4437 56.5676 2.54198 58.7096 2.16978 58.7351C0.996396 58.8026 0.239374 59.1365 0.47279 59.4759C0.693586 59.7714 1.58309 59.9776 2.60507 59.9776C2.73755 59.9776 2.88895 59.9721 3.04035 59.9648C3.40625 59.9466 40.0082 57.7609 81.6003 50.4557C123.325 43.1249 151.372 39.7879 179.975 43.1614C212.994 47.0567 282.955 49.3245 330.111 38.8155C377.936 28.1606 390.339 25.7924 419.705 29.5307L420.904 29.6803C437.735 31.8296 465.908 35.4165 489.799 31.3151C512.408 27.4253 526.205 17.3505 530.766 1.36813C530.873 1.0233 529.984 0.722263 528.785 0.691247C527.574 0.665704 526.552 0.915658 526.445 1.26778C521.991 16.8214 508.914 26.5714 487.584 30.2405C465.643 34.0153 439.779 30.7167 422.664 28.5382L421.446 28.3868C389.904 24.3729 375.918 27.0294 327.437 37.8285C281.757 48.0054 213.751 45.7868 181.628 41.9992Z" fill="#EEB7C7"/>
</g>
<path d="M417.731 10.2131C420.639 10.5653 423.831 10.7404 427.263 10.7404C441.905 10.7404 461.215 7.58225 484.891 1.31152C485.781 1.07981 485.844 0.678428 485.024 0.42665C484.216 0.169399 482.847 0.156628 481.958 0.388336C454.484 7.66982 432.846 10.6729 419.402 9.05825C405.151 7.35601 404.003 0.953924 404.003 0.891891C403.959 0.545241 402.937 0.28799 401.745 0.28799C400.546 0.300761 399.613 0.596326 399.657 0.941152C399.701 1.23672 400.918 8.20257 417.731 10.2131Z" fill="#EEB7C7"/>
<mask id="mask2_426_17710" style="mask-type:luminance" maskUnits="userSpaceOnUse" x="0" y="0" width="591" height="71">
<path d="M0 0H590.704V70.994H0V0Z" fill="white"/>
</mask>
<g mask="url(#mask2_426_17710)">
<path d="M2.51695 70.8083C2.93331 70.8156 5.10344 70.8393 8.53526 70.8393C23.6315 70.8393 63.2048 70.3504 86.0795 65.5192C107.276 61.0401 161.491 58.1829 220.249 61.7188C263.576 64.3186 315.949 54.6836 354.216 47.6411C357.932 46.9569 361.515 46.2965 364.991 45.6689C392.597 40.6625 442.643 47.9549 491.061 55.0102C510.453 57.8363 528.786 60.5073 545.598 62.3902C558.177 63.7987 568.321 63.5651 575.702 61.7005C603.094 54.7839 581.178 27.6959 580.963 27.4259C575.052 20.2393 573.79 1.04217 573.772 0.854247C573.753 0.509421 572.75 0.232101 571.557 0.239399C570.359 0.244872 569.406 0.533139 569.425 0.87979C569.469 1.67161 570.712 20.4035 576.724 27.7215C582.805 35.1033 593.952 55.4316 572.838 60.7573C566.756 62.2971 558.114 62.454 547.143 61.2225C530.527 59.3634 512.282 56.7051 492.972 53.8918C443.488 46.6796 392.32 39.2303 362.645 44.607C359.169 45.2346 355.566 45.9006 351.851 46.5866C314.233 53.5086 262.711 62.9941 221.113 60.4873C176.348 57.7998 112.903 58.2888 83.493 64.5084C56.644 70.1807 3.21088 69.564 2.69358 69.5585C1.47604 69.5458 0.472989 69.8103 0.435137 70.1625C0.390977 70.5 1.2994 70.7901 2.51695 70.8083Z" fill="#EEB7C7"/>
</g>
<mask id="mask3_426_17710" style="mask-type:luminance" maskUnits="userSpaceOnUse" x="0" y="0" width="675" height="107">
<path d="M0 0H674.683V106.491H0V0Z" fill="white"/>
</mask>
<g mask="url(#mask3_426_17710)">
<path d="M667.258 103.556C662.59 105.402 647.664 105.371 622.884 103.461C586.351 100.64 578.074 97.192 550.683 85.7398C538.52 80.6641 521.885 73.7037 497.206 64.6142C438.215 42.8792 365.516 53.213 307.086 61.5107C286.602 64.4208 267.248 67.1721 251.022 68.1646C224.482 69.7902 199.81 69.6534 175.938 69.5202C144.68 69.345 115.181 69.1808 89.7074 73.4775C47.352 80.6203 3.19244 79.6971 2.75715 79.6844C1.56484 79.6533 0.517627 79.9179 0.410381 80.2627C0.322063 80.6075 1.21787 80.9104 2.41018 80.9414C2.86439 80.9469 48.3298 81.9212 91.8964 74.5722C116.31 70.4507 143.897 70.6076 175.85 70.7827C199.961 70.9159 224.874 71.0528 251.918 69.4016C268.686 68.3781 288.255 65.5939 308.998 62.6492C337.714 58.566 370.272 53.941 402.2 53.0561C438.562 52.0508 468.515 56.0848 493.774 65.4005C518.364 74.4591 534.981 81.3994 547.1 86.4623C574.466 97.889 583.676 101.74 621.755 104.68C634.7 105.679 645.014 106.181 652.925 106.181C661.763 106.181 667.586 105.554 670.753 104.304C676.683 101.954 672.406 97.6627 657.221 90.81C620.909 74.3897 605.422 61.4615 611.156 52.3902C614.588 46.9752 619.496 36.1761 622.146 25.2785C624.272 16.4955 625.533 5.0943 619.427 0.627985C618.998 0.306878 617.736 0.149972 616.607 0.275862C615.478 0.40175 614.935 0.766645 615.389 1.09323C625.988 8.83813 614.109 40.8066 606.898 52.1713C600.943 61.5673 616.651 74.7984 653.575 91.4942C667.283 97.67 671.882 101.733 667.258 103.556Z" fill="#EEB7C7"/>
</g>
<mask id="mask4_426_17710" style="mask-type:luminance" maskUnits="userSpaceOnUse" x="0" y="0" width="724" height="126">
<path d="M0 0H723.132V125.174H0V0Z" fill="white"/>
</mask>
<g mask="url(#mask4_426_17710)">
<path d="M713.523 121.025C709.088 123.061 702.054 123.953 692.604 123.683C672.581 123.117 657.548 121.904 642.994 120.742C631.462 119.813 620.555 118.939 608.114 118.469C581.656 117.469 538.367 104.453 522.205 89.1638C513.518 80.9336 490.562 73.4587 460.779 69.1621C434.561 65.3799 407.15 64.6647 383.582 67.146C295.137 76.449 226.916 80.9026 180.845 80.3808C149.177 80.0177 117.117 83.3839 86.1166 86.626C55.9935 89.7786 27.5169 92.7635 2.81906 91.9078C1.62675 91.8713 0.541686 92.1158 0.409208 92.4606C0.27673 92.8073 1.12838 93.1211 2.32069 93.1594C28.0405 94.0443 56.9713 91.0175 87.5991 87.8064C118.202 84.6026 149.826 81.2857 180.694 81.6324C227.326 82.1523 296.095 77.6732 385.083 68.321C407.523 65.9656 433.716 66.6552 458.849 70.2859C487.559 74.4257 509.695 81.6196 518.06 89.5287C534.936 105.509 579.221 118.644 607.547 119.713C619.665 120.171 630.44 121.032 641.821 121.948C656.551 123.13 671.755 124.354 692.169 124.933C693.387 124.964 694.56 124.982 695.708 124.982C705.07 124.982 712.457 123.858 717.17 121.691C727.989 116.728 723.32 106.834 706.313 98.6803C665.389 79.069 648.514 62.6158 657.504 51.1016C669.95 35.1593 673.275 1.20579 673.319 0.866439C673.363 0.521613 672.404 0.231521 671.212 0.21875C669.995 0.21875 669.017 0.483299 668.973 0.828125C668.954 1.16748 665.629 34.9951 653.271 50.8261C643.909 62.8293 660.481 79.1511 702.597 99.328C718.583 106.978 723.365 116.509 713.523 121.025Z" fill="#EEB7C7"/>
</g>
<mask id="mask5_426_17710" style="mask-type:luminance" maskUnits="userSpaceOnUse" x="0" y="96" width="68" height="21">
<path d="M0 96.2158H67.4506V116.3H0V96.2158Z" fill="white"/>
</mask>
<g mask="url(#mask5_426_17710)">
<path d="M2.49913 114.969C1.30051 114.988 0.366856 115.283 0.436249 115.63C0.499335 115.962 1.45192 116.227 2.60638 116.227C2.65054 116.227 2.6947 116.227 2.71362 116.227C29.8844 115.818 48.6522 113.833 58.4682 110.315C69.3756 106.414 66.7008 101.645 65.294 99.0819L65.2057 98.9068C64.8335 98.2536 63.5781 97.719 61.4711 97.3177C49.0244 94.9623 6.83939 98.0402 2.08277 98.3977C0.93462 98.4853 0.215451 98.8247 0.518259 99.164C0.827376 99.4979 1.99445 99.7041 3.16783 99.6165C15.6145 98.6805 49.9139 96.6335 59.0991 98.3722C60.1841 98.5802 60.7708 98.8119 60.9286 99.1075L61.0106 99.2844C62.4237 101.822 64.7894 106.062 55.1058 109.523C46.0657 112.753 28.3893 114.581 2.49913 114.969Z" fill="#EEB7C7"/>
</g>
<mask id="mask6_426_17710" style="mask-type:luminance" maskUnits="userSpaceOnUse" x="0" y="78" width="887" height="234">
<path d="M0 78H886.245V312H0V78Z" fill="white"/>
</mask>
<g mask="url(#mask6_426_17710)">
<path d="M864.897 291.929C881.337 285.804 884.049 278.278 885.418 271.092C886.396 265.972 879.381 261.982 871.931 257.762C860.462 251.267 847.472 243.898 857.553 229.877C867.609 215.874 835.764 210.083 804.966 204.486C783.138 200.516 760.573 196.414 753.665 189.372C736.783 172.185 734.222 171.437 705.487 166.964C679.117 162.862 660.741 154.4 657.548 144.878C654.356 135.342 626.813 128.726 573.336 124.643C537.195 121.886 520.862 111.107 505.046 100.684C498.618 96.4439 492.537 92.4428 485.238 89.0073C473.359 83.4226 447.942 79.5784 415.491 78.46C385.91 77.442 355.345 78.8742 335.758 82.2093C312.731 86.1301 264.642 86.5753 222.223 86.9712C194.049 87.2358 167.44 87.4802 151.827 88.7373C115.748 91.6273 107.188 103.587 99.63 114.141C98.8036 115.296 97.9772 116.44 97.1318 117.551C89.2273 128.016 3.82265 123.776 2.95207 123.733C1.77869 123.671 0.649466 123.902 0.434976 124.242C0.214179 124.581 1.02167 124.908 2.18874 124.97C5.88553 125.159 92.5708 129.456 101.371 117.821C102.216 116.703 103.043 115.553 103.863 114.391C111.162 104.191 119.464 92.6253 152.975 89.9433C168.096 88.73 194.466 88.4855 222.349 88.2283C265.291 87.8251 313.968 87.3744 337.953 83.2912C377.873 76.5005 457.676 78.4473 481.522 89.666C488.67 93.0266 494.688 96.9912 501.053 101.188C517.279 111.884 534.047 122.941 572.207 125.856C623.728 129.788 650.205 136.046 653.202 144.991C656.526 154.922 675.774 163.76 703.399 168.064C730.462 172.273 732.683 172.618 749.451 189.704C756.813 197.212 780.098 201.444 802.619 205.54C833.531 211.156 862.701 216.465 853.251 229.62C842.867 244.073 856.229 251.65 868 258.333C875.47 262.573 881.942 266.235 881.009 271.023C878.775 282.694 875.041 302.23 755.204 301.176C683.918 300.546 657.656 293.995 636.547 288.731C622.164 285.144 609.742 282.041 587.391 281.614C573.185 281.338 560.523 281.469 548.272 281.588C513.91 281.935 486.758 282.21 453.418 273.059L447.292 271.375C407.22 260.369 403.025 259.218 370.095 257.855C360.777 257.472 353.548 256.783 347.157 256.173C330.263 254.564 318.075 253.402 287.643 259.351C264.686 263.843 226.09 272.241 225.371 278.039C225.201 279.371 227.024 280.477 230.759 281.325C237.711 282.902 250.87 281.971 267.556 280.791C294.746 278.868 331.998 276.237 357.345 284.151C375.375 289.78 388.604 294.498 400.268 298.669C415.1 303.965 426.834 308.149 441.513 311.71C441.93 311.811 442.428 311.854 442.908 311.854C443.532 311.854 444.144 311.78 444.579 311.628C445.336 311.365 445.229 310.969 444.314 310.743C429.937 307.262 418.336 303.117 403.656 297.877C391.947 293.693 378.655 288.957 360.537 283.298C333.43 274.836 294.771 277.574 266.534 279.567C251.608 280.621 238.733 281.532 233.452 280.333C230.822 279.736 229.604 279.001 229.737 278.078C230.191 274.301 252.763 267.687 290.122 260.38C318.769 254.777 329.544 255.801 345.832 257.354C352.393 257.976 359.825 258.685 369.533 259.087C401.095 260.393 404.369 261.285 444.359 272.272L450.484 273.956C485.149 283.467 514.497 283.172 548.487 282.827C560.631 282.706 573.185 282.575 587.171 282.845C608.071 283.247 619.407 286.08 633.765 289.661C655.378 295.056 682.29 301.772 755.141 302.413C808.77 302.909 844.671 299.473 864.897 291.929Z" fill="#EEB7C7"/>
</g>
<mask id="mask7_426_17710" style="mask-type:luminance" maskUnits="userSpaceOnUse" x="0" y="291" width="405" height="21">
<path d="M0 291.449H404.981V312H0V291.449Z" fill="white"/>
</mask>
<g mask="url(#mask7_426_17710)">
<path d="M349.505 304.719C334.283 304.373 331.911 301.804 329.154 298.833C326.504 295.956 323.483 292.689 307.478 291.76C288.578 290.66 273.204 295.064 258.303 299.322C248.027 302.262 238.299 305.046 227.852 306.031C149.002 313.469 108.974 308.476 92.118 304.838C50.0023 295.748 3.6474 291.809 3.19319 291.771C2.03873 291.678 0.84642 291.866 0.499453 292.2C0.17141 292.532 0.827496 292.876 1.97564 292.979C2.42986 293.015 48.0467 296.892 89.5126 305.843C107.038 309.625 148.485 314.838 229.196 307.224C240.62 306.144 251.156 303.13 261.363 300.215C275.437 296.188 289.991 292.023 306.633 292.99C319.988 293.769 322.398 296.383 324.965 299.153C327.722 302.148 330.87 305.547 349.158 305.962C380.587 306.679 400.182 311.647 400.377 311.698C400.787 311.804 401.311 311.855 401.834 311.855C402.421 311.855 403.027 311.785 403.462 311.647C404.263 311.389 404.175 310.994 403.285 310.762C402.44 310.554 382.48 305.473 349.505 304.719Z" fill="#EEB7C7"/>
</g>
<mask id="mask8_426_17710" style="mask-type:luminance" maskUnits="userSpaceOnUse" x="0" y="244" width="181" height="41">
<path d="M0 244.742H180.499V284.91H0V244.742Z" fill="white"/>
</mask>
<g mask="url(#mask8_426_17710)">
<path d="M113.99 258.358C123.112 257.478 132.562 256.566 146.333 256.668C165.183 256.8 176.047 258.823 176.135 262.215C176.198 265.254 167.246 268.453 158.389 268.546C144.334 268.697 137.123 270.261 119.699 274.037C112.078 275.696 102.565 277.756 89.5947 280.324C49.1509 288.347 4.38569 278.496 3.93147 278.396C2.97258 278.183 1.62887 278.234 0.890772 278.509C0.152677 278.786 0.323006 279.175 1.2819 279.388C1.60363 279.463 25.475 284.729 54.715 284.729C66.6822 284.729 79.539 283.849 92.074 281.361C105.126 278.774 114.665 276.701 122.33 275.043C139.47 271.322 145.873 269.934 158.559 269.803C169.7 269.684 180.563 265.92 180.475 262.207C180.349 256.126 154.389 255.473 146.441 255.417C131.868 255.311 121.655 256.303 112.621 257.17C90.4022 259.312 72.8709 260.996 3.9504 245.172C3.01674 244.959 1.64779 245.003 0.909698 245.273C0.171602 245.543 0.323006 245.939 1.25667 246.157C72.0003 262.397 90.5284 260.613 113.99 258.358Z" fill="#EEB7C7"/>
</g>
<mask id="mask9_426_17710" style="mask-type:luminance" maskUnits="userSpaceOnUse" x="0" y="259" width="94" height="19">
<path d="M0 259.222H93.2903V277.904H0V259.222Z" fill="white"/>
</mask>
<g mask="url(#mask9_426_17710)">
<path d="M64.468 277.63C82.2327 277.63 92.2065 272.932 92.5724 269.546C92.8121 267.271 88.8567 265.733 82.5166 265.62C80.561 265.589 78.3908 265.558 76.063 265.532C60.1466 265.331 36.0544 265.036 26.087 261.498C21.8918 260.017 17.438 259.307 12.7697 259.369C5.58431 259.477 0.979097 261.467 0.802459 261.549C0.474417 261.693 0.367172 261.869 0.499651 262.033C11.4449 275.74 37.7262 277.63 64.468 277.63ZM13.0094 260.619C16.1826 260.569 19.463 261.135 22.6993 262.29C33.9032 266.26 59.1436 266.574 75.8485 266.782C78.1511 266.813 80.3023 266.838 82.2327 266.869C87.8788 266.97 88.2952 268.749 88.2258 269.508C87.923 272.385 79.4948 276.375 64.468 276.375C41.3788 276.375 15.8798 275.262 4.95346 262.033C6.12684 261.606 9.14231 260.675 13.0094 260.619Z" fill="#EEB7C7"/>
</g>
<mask id="mask10_426_17710" style="mask-type:luminance" maskUnits="userSpaceOnUse" x="0" y="128" width="846" height="160">
<path d="M0 128.91H845.87V287.713H0V128.91Z" fill="white"/>
</mask>
<g mask="url(#mask10_426_17710)">
<path d="M1.77847 236.197C2.25792 236.253 50.1711 241.995 78.5594 248.835C94.3307 252.635 128.214 250.437 164.078 248.112C196.92 245.983 230.866 243.785 251.917 246.102C272.527 248.377 297.288 246.266 321.204 244.224C351.175 241.666 379.501 239.249 400.375 244.626C417.819 249.117 434.561 250.738 449.355 252.17C468.211 253.992 483.086 255.43 492.278 262.121C510.068 275.08 537.781 275.162 564.649 274.138C569.387 273.956 573.727 273.717 577.922 273.485C598.318 272.359 613.067 271.544 641.386 279.34C659.245 284.251 699.102 287.424 738.651 287.424C746.473 287.424 754.315 287.298 761.935 287.041C794.733 285.928 819.172 282.48 830.73 277.335C853.276 267.304 843.649 261.203 834.313 255.312C830.25 252.748 826.427 250.323 825.014 247.554C823.929 245.43 824.169 242.823 824.408 240.066C825.254 230.617 826.295 218.859 776.274 215.246C754.378 213.662 730.55 213.48 705.31 213.287C659.132 212.934 611.389 212.564 577.966 202.871C547.837 194.139 526.249 190.099 510.497 187.153C499.205 185.044 491.06 183.517 485.149 181.243C481.699 179.911 478.134 178.058 474.355 176.091C461.997 169.652 446.598 161.63 417.099 161.085C399.808 160.764 395.922 164.394 391.84 168.238C386.017 173.71 379.438 179.904 336.798 180.3C260.951 180.997 194.289 168.485 167.554 155.752C138.074 141.718 62.5547 129.487 2.62381 129.047C1.38734 129.052 0.434757 129.311 0.409523 129.656C0.390597 130.001 1.32426 130.291 2.51657 130.304C61.1605 130.731 135.033 142.685 163.838 156.405C191.204 169.444 259.45 182.28 336.931 181.557C382.674 181.136 390.364 173.9 395.985 168.609C400.003 164.821 402.918 162.077 416.815 162.34C443.948 162.849 458.698 170.532 470.558 176.708C474.4 178.711 478.027 180.608 481.673 182.002C488.039 184.458 496.467 186.036 508.131 188.215C523.726 191.13 545.08 195.126 574.882 203.768C609.522 213.814 658.154 214.19 705.184 214.549C730.185 214.743 753.772 214.919 775.208 216.47C821.866 219.844 820.888 230.574 820.043 240.041C819.778 242.854 819.538 245.518 820.693 247.742C822.194 250.688 826.339 253.301 830.338 255.833C839.568 261.675 848.299 267.196 827.058 276.651C816.22 281.475 792.891 284.722 761.418 285.791C716.344 287.324 664.936 284.089 644.364 278.428C614.411 270.187 597.945 271.097 577.096 272.246C572.97 272.473 568.687 272.712 564.062 272.889C537.87 273.887 512.951 273.781 496.296 261.65C486.367 254.419 469.839 252.823 450.724 250.971C436.347 249.583 420.033 247.999 403.265 243.684C380.586 237.842 349.769 240.468 319.967 243.011C296.727 244.996 272.704 247.045 253.457 244.921C231.194 242.465 196.592 244.708 163.119 246.881C128.321 249.136 95.4599 251.267 81.3225 247.86C52.4295 240.9 3.90444 235.091 3.4313 235.034C2.321 234.901 1.04037 235.053 0.586162 235.374C0.150875 235.693 0.668172 236.063 1.77847 236.197Z" fill="#EEB7C7"/>
</g>
<mask id="mask11_426_17710" style="mask-type:luminance" maskUnits="userSpaceOnUse" x="0" y="138" width="777" height="140">
<path d="M0 138.719H776.426V277.437H0V138.719Z" fill="white"/>
</mask>
<g mask="url(#mask11_426_17710)">
<path d="M579.33 223.282C524.553 219.644 514.933 211.233 504.719 202.324L503.59 201.339C492.386 191.62 482.412 186.703 452.832 183.229C437.06 181.375 422.425 183.7 408.262 185.947C394.749 188.097 381.981 190.125 368.058 188.938C351.763 187.557 337.102 190.478 322.92 193.298C309.389 195.986 295.403 198.77 279.568 198.117C262.365 197.407 251.35 193.756 239.686 189.894C229.302 186.456 218.571 182.9 202.888 181.375C163.883 177.588 137.753 170.589 118.14 158.684C94.9813 144.632 6.75044 139.299 3.0158 139.08C1.84242 139.011 0.694265 139.23 0.454543 139.569C0.21482 139.909 0.97815 140.242 2.15153 140.31C3.04103 140.361 91.9847 145.732 114.203 159.226C134.081 171.293 161.82 178.711 201.501 182.563C216.073 183.975 226.413 187.405 236.406 190.717C248.07 194.586 260.126 198.58 278.938 199.359C296.463 200.082 311.149 197.161 325.374 194.327C339.342 191.552 352.501 188.925 366.815 190.138C382.454 191.463 396.642 189.215 410.325 187.04C424.204 184.836 437.325 182.756 451.16 184.384C479.157 187.67 488.67 192.393 499.445 201.727L500.574 202.714C511.173 211.968 521.184 220.705 578.333 224.5C634.479 228.224 655.789 234.418 685.919 244.225C696.037 247.516 710.635 250.475 724.754 253.333C751.47 258.742 776.711 263.854 770.017 270.532C767.652 272.895 762.397 274.535 754.379 275.407C730.248 278.04 683.332 273.805 631.943 264.358C601.555 258.768 582.547 257.762 567.281 256.95C549.314 256.004 536.35 255.312 514.043 247.938C488.039 239.344 468.382 238.244 451.027 237.277C439.906 236.655 429.396 236.071 418.318 233.533L415.41 232.867C388.144 226.609 371.685 222.829 335.733 229.217C296.702 236.151 270.44 237.12 247.9 232.471C227.782 228.319 207.582 231.258 192.833 233.4C187.95 234.11 183.736 234.727 180.19 235.009C167.485 236.027 96.5269 238.149 66.3091 223.57C55.9064 218.551 49.8502 214.668 44.9611 211.552C35.3785 205.427 29.6062 201.727 3.77913 196.821C2.77607 196.633 1.43236 196.715 0.757351 197.004C0.107574 197.294 0.391457 197.682 1.3882 197.87C26.1743 202.583 31.7511 206.15 41.0057 212.074C45.9137 215.221 52.0392 219.135 62.5745 224.218C79.1911 232.227 107.296 235.223 127.956 236.328C150.742 237.54 172.784 236.907 181.345 236.221C185.3 235.901 189.71 235.267 194.769 234.526C209.298 232.415 227.372 229.782 245.357 233.495C269.203 238.419 297.768 237.434 337.991 230.291C371.357 224.367 386.043 227.735 412.691 233.86L415.605 234.526C427.528 237.252 438.537 237.866 450.182 238.52C467.644 239.494 485.718 240.505 510.737 248.773C534.047 256.48 548.361 257.233 566.473 258.195C581.374 258.987 599.927 259.966 629.596 265.425C671.535 273.139 710.875 277.423 737.939 277.423C744.758 277.423 750.795 277.153 755.924 276.595C765.286 275.571 771.43 273.655 774.213 270.891C781.789 263.347 754.076 257.737 727.271 252.309C713.348 249.496 698.971 246.58 689.199 243.395C658.508 233.407 636.763 227.095 579.33 223.282Z" fill="#EEB7C7"/>
</g>
<mask id="mask12_426_17710" style="mask-type:luminance" maskUnits="userSpaceOnUse" x="0" y="150" width="286" height="68">
<path d="M0 150.862H285.473V217.653H0V150.862Z" fill="white"/>
</mask>
<g mask="url(#mask12_426_17710)">
<path d="M274.137 215.974C258.586 217.571 220.18 213.349 209.91 207.946C196.006 200.641 169.245 199.34 143.399 198.083C141.311 197.983 139.204 197.877 137.122 197.777C113.055 196.564 87.9222 190.464 66.3345 180.588C46.4563 171.512 2.23368 176.801 1.77947 176.852C0.669174 176.991 0.151876 177.354 0.631323 177.675C1.10446 177.994 2.36616 178.145 3.47646 178.007C3.88651 177.958 44.7657 173.083 62.6629 181.254C84.9256 191.431 111.1 197.733 136.384 199.008C138.491 199.114 140.573 199.215 142.68 199.315C168.684 200.577 193.224 201.771 206.106 208.543C211.405 211.333 223.265 213.965 238.645 215.773C248.524 216.936 258.258 217.552 266.1 217.552C269.746 217.552 272.963 217.419 275.613 217.149C282.193 216.47 285.126 214.976 283.846 212.947C280.931 208.311 265.292 207.093 248.745 205.81C235.926 204.817 222.704 203.788 214.49 201.117L210.888 199.944C193.943 194.409 185.452 191.632 153.436 187.003C142.617 185.438 132.561 181.079 120.897 176.035C97.5868 165.952 65.6847 152.139 2.77622 150.952C1.60283 150.939 0.543003 151.191 0.47361 151.535C0.391598 151.882 1.30002 152.183 2.49864 152.201C63.2685 153.345 93.2213 166.31 117.288 176.726C129.3 181.92 139.665 186.407 151.499 188.122C182.758 192.645 191.073 195.358 207.651 200.773L211.254 201.948C220.332 204.9 234.21 205.98 247.635 207.023C263.494 208.255 277.178 209.317 279.587 213.174C280.433 214.593 278.673 215.509 274.137 215.974Z" fill="#EEB7C7"/>
</g>
<path d="M107.58 219.586C108.905 220.661 110.709 222.124 114.248 224.173C117.44 226.012 124.266 227.225 133.993 227.683C136.927 227.822 140.031 227.884 143.223 227.884C160.186 227.884 179.522 226.025 188.991 223.292C193.18 222.08 194.896 220.931 194.271 219.774C192.965 217.432 181.995 215.842 170.4 214.158C166.747 213.631 162.95 213.078 159.562 212.513C135.123 208.455 118.853 206.105 98.7415 207.632C88.7488 208.391 86.1182 209.8 85.664 210.842C84.7745 212.89 91.5498 214.976 98.2431 216.05C104.476 217.061 105.258 217.696 107.58 219.586ZM89.9664 211.011C90.49 209.818 95.6125 209.183 99.8518 208.857C103.605 208.568 107.258 208.437 110.86 208.437C125.023 208.437 138.706 210.502 157.411 213.613C160.906 214.197 164.747 214.75 168.463 215.29C178.588 216.753 189.035 218.273 189.988 219.982C190.404 220.71 189.079 221.502 185.925 222.412C175.718 225.366 151.783 227.251 134.713 226.452C128.909 226.182 121.351 225.467 118.14 223.62C114.708 221.641 113.03 220.27 111.668 219.172C109.233 217.193 107.996 216.207 100.325 214.969C93.8966 213.927 89.4428 212.23 89.9664 211.011Z" fill="#EEB7C7"/>
<path d="M354.375 221.685C368.752 222.006 384.953 219.618 389.842 217.257C393.949 215.278 398.137 214.147 401.986 214.002C404.459 213.902 406.913 214.203 409.455 214.913C414.994 216.458 419.839 218.996 424.532 221.454C431.983 225.36 439.692 229.394 451.444 230.355C458.283 230.914 469.013 231.07 480.375 231.24C499.357 231.523 520.907 231.844 526.945 234.061C534.155 236.704 554.159 238.985 566.713 238.985C569.779 238.985 572.404 238.848 574.271 238.553C576.315 238.226 579.444 237.416 577.312 235.65C573.489 232.49 556.09 229.821 539.259 227.244C528.093 225.537 517.557 223.922 512.845 222.421C511.369 221.95 509.483 221.333 507.306 220.618C490.715 215.183 459.828 205.07 442.821 204.751C436.171 204.625 428.027 203.524 419.384 202.37C404.742 200.403 388.17 198.179 371.749 199.536C357.763 200.691 344.704 203.982 337.689 208.117C331.98 211.49 331.002 214.92 334.932 217.759C338.125 220.114 344.856 221.472 354.375 221.685ZM341.537 208.669C348.029 204.844 360.04 201.804 372.878 200.742C387.76 199.511 403.55 201.634 417.492 203.506C426.507 204.718 435.023 205.862 442.474 206.006C457.696 206.296 488.974 216.535 503.982 221.454C506.177 222.176 508.088 222.791 509.565 223.269C514.801 224.933 525.664 226.599 537.152 228.357C552.488 230.706 569.861 233.369 573.142 236.064C574.378 237.088 572.858 237.334 572.12 237.452C564.997 238.584 538.369 236.246 530.307 233.282C523.033 230.612 501.446 230.291 480.545 229.983C469.449 229.821 458.932 229.664 452.574 229.142C442.556 228.325 435.301 224.519 428.267 220.837C423.422 218.299 418.426 215.679 412.407 214.002C409.348 213.149 406.13 212.722 402.831 212.722C402.333 212.722 401.853 212.734 401.355 212.753C396.074 212.953 390.927 214.254 386.063 216.61C382 218.569 367.1 220.711 354.678 220.428C349.291 220.304 342.168 219.662 338.888 217.294C335.431 214.789 336.364 211.722 341.537 208.669Z" fill="#EEB7C7"/>
<path d="M699.273 265.438C700.25 265.469 701.903 265.507 703.815 265.507C708.59 265.507 715.044 265.275 717.107 264.093C718.04 263.566 718.343 262.681 714.546 261.475C699.254 256.593 671.622 259.282 670.449 259.401C669.364 259.508 668.758 259.84 669.061 260.161C672.014 263.278 686.353 265.055 699.273 265.438ZM711.328 262.309C712.956 262.831 713.65 263.27 713.221 263.522C712.369 264.013 707.335 264.414 699.708 264.188C689.217 263.88 677.597 262.499 674.013 260.4C680.53 259.904 700.25 258.773 711.328 262.309Z" fill="#EEB7C7"/>
<path d="M715.329 236.49C731.314 236.894 741.238 240.178 749.212 242.823C754.839 244.682 759.829 246.341 765.544 246.341C766.781 246.341 768.043 246.266 769.367 246.096C777.928 244.996 788.242 242.039 790.697 238.131C792.349 235.505 790.936 231.409 774.818 226.812C751.641 220.202 711.872 222.52 692.303 226.169C683.919 227.735 680.115 229.417 681.875 230.794C683.83 232.301 690.915 235.876 715.329 236.49ZM694.694 227.226C702.384 225.794 716.174 224.173 731.876 223.914C733.182 223.896 734.57 223.883 735.983 223.883C747.016 223.883 761.002 224.631 771.803 227.704C783.663 231.083 788.589 234.518 786.463 237.904C784.136 241.592 773.928 244.137 767.633 244.947C763.349 245.5 759.312 244.25 752.492 242C744.455 239.337 733.44 235.693 715.72 235.248C693.779 234.695 687.609 231.654 685.982 230.373C685.048 229.619 688.461 228.388 694.694 227.226Z" fill="#EEB7C7"/>
<path d="M184.188 286.174C177.804 286.123 173.956 286.94 170.549 287.668C167.635 288.291 165.136 288.825 161.294 288.825C155.036 288.825 147.958 288.825 145.441 290.17C143.568 291.168 144.81 292.562 149.327 294.559C151.825 295.66 156.21 296.243 162.014 296.249C162.033 296.249 162.052 296.249 162.077 296.249C171.804 296.249 183.86 294.567 188.446 292.562C193.594 290.319 195.159 288.592 193.096 287.442C191.657 286.645 188.661 286.211 184.188 286.174ZM184.838 291.872C181.015 293.541 170.398 294.999 162.096 294.999C162.077 294.999 162.052 294.999 162.033 294.999C159.036 294.999 155.062 294.798 152.955 293.875C148.412 291.872 148.677 291.067 149.239 290.766C150.52 290.08 156.733 290.08 161.276 290.08C166.549 290.08 170.025 289.334 173.11 288.679C176.239 288.015 179.173 287.373 184.037 287.429C186.819 287.455 188.572 287.656 189.229 288.026C190.465 288.705 188.812 290.144 184.838 291.872Z" fill="#EEB7C7"/>
<path d="M336.256 108.613L332.219 108.97C316.946 110.328 297.963 112.01 282.735 110.315C275.505 109.51 268.402 109.718 262.144 110.917C253.129 112.652 247.483 116.15 247.073 120.284C246.681 124.133 249.892 126.334 252.738 128.273C256.062 130.548 258.951 132.515 255.475 136.799C251.394 141.811 252.025 144.858 257.564 146.987C262.926 149.048 272.855 150.116 288.841 150.348C289.705 150.36 290.557 150.368 291.402 150.368C325.632 150.368 329.411 139.833 331.455 134.11C331.998 132.583 333.367 131.623 335.625 131.17C339.253 130.448 345.725 130.937 353.22 131.515C358.822 131.942 365.187 132.433 371.729 132.508C379.438 132.603 386.106 131.566 390.579 129.6C398.553 126.095 398.288 120.359 389.929 115.327C379.11 108.806 360.563 106.489 336.256 108.613ZM386.932 128.903C384.39 130.021 379.722 131.34 371.88 131.245C365.818 131.176 359.692 130.705 354.305 130.297C345.769 129.643 338.407 129.085 333.152 130.134C329.783 130.806 327.809 132.063 327.134 133.978C324.44 141.515 319.053 149.532 289.056 149.085C274.458 148.872 265.556 147.961 261.04 146.221C256.434 144.444 256.018 141.623 259.715 137.074C263.513 132.395 260.232 130.152 256.756 127.771C253.955 125.861 251.066 123.889 251.438 120.309C251.804 116.64 256.844 113.437 264.579 111.953C267.594 111.377 270.856 111.081 274.262 111.081C276.527 111.081 278.867 111.213 281.195 111.47C297.831 113.323 317.621 111.565 333.518 110.151L337.537 109.793C359.799 107.852 376.132 109.888 386.018 115.849C393.727 120.516 394.099 125.755 386.932 128.903Z" fill="#EEB7C7"/>
<path d="M342.906 114.975C335.885 114.704 329.955 115.195 325.747 116.396C320.77 117.802 318.511 120.12 319.552 122.747C320.6 125.385 330.264 127.144 338.8 127.664C340.799 127.79 342.73 127.846 344.553 127.846C350.268 127.846 354.804 127.257 357 126.169C360.955 124.21 360.671 120.68 356.369 118.135C353.284 116.306 348.508 115.19 342.906 114.975ZM353.24 125.529C351.354 126.465 346.029 126.817 339.689 126.427C332.611 125.994 324.656 124.611 323.855 122.595C322.984 120.359 324.769 118.417 328.788 117.281C331.438 116.527 334.932 116.149 339.21 116.149C340.213 116.149 341.254 116.17 342.339 116.213C347.619 116.414 350.767 117.664 352.483 118.675C356.154 120.849 356.501 123.92 353.24 125.529Z" fill="#EEB7C7"/>
<path d="M502.03 135.624C499.381 135.46 496.687 135.29 493.968 135.121C420.487 130.461 423.092 125.699 427.42 117.808C428.549 115.754 429.804 113.429 429.804 110.899C429.804 106.985 424.966 103.977 415.408 101.959C396.357 97.9397 363.382 98.9322 338.886 101.206C303.868 104.453 270.01 104.592 238.227 101.62C224.456 100.333 215.29 102.054 210.016 103.725C200.522 106.734 197.134 111.735 200.547 114.039C201.543 114.712 202.976 115.396 204.647 116.194C211.511 119.467 221.876 124.411 211.296 134.342C198.326 146.524 228.828 156.223 264.774 160.424C270.811 161.129 276.243 161.455 281.365 161.455C297.572 161.455 310.649 158.233 329.392 153.621C338.123 151.473 348.052 149.036 360.259 146.403C394.792 138.959 436.864 140.819 488.846 152.083C507.349 156.097 523.921 157.529 536.74 156.241C546.575 155.248 553.678 152.636 557.287 148.671C559.652 146.077 558.977 143.966 555.243 142.214C547.187 138.407 526.268 137.118 502.03 135.624ZM553.117 148.352C549.855 151.939 543.862 154.194 535.346 155.053C524.117 156.184 508.541 154.77 491.495 151.078C438.516 139.594 393.511 137.684 357.717 145.398C345.403 148.056 335.429 150.506 326.635 152.667C302.417 158.622 289.08 161.908 266.445 159.262C215.858 153.345 207.366 142.34 215.485 134.714C226.632 124.241 215.662 119.009 208.407 115.54C206.824 114.781 205.455 114.128 204.584 113.543C202.067 111.84 204.603 107.325 213.271 104.573C216.596 103.517 221.806 102.437 229.131 102.437C231.496 102.437 234.102 102.55 236.947 102.815C269.593 105.873 304.372 105.728 340.274 102.399C363.754 100.22 395.183 99.2278 412.91 102.972C421.294 104.736 425.527 107.407 425.527 110.899C425.527 113.329 424.335 115.504 423.18 117.608C418.796 125.635 415.604 131.428 493.098 136.347C495.817 136.516 498.51 136.686 501.179 136.848C524.419 138.288 544.512 139.525 551.641 142.873C554.656 144.318 555.154 146.108 553.117 148.352Z" fill="#EEB7C7"/>
<path d="M520.925 128.513C488.215 125.09 479.762 116.464 472.311 108.85C467.624 104.052 463.189 99.5219 453.373 96.6264C440.447 92.8133 419.623 90.1258 396.18 89.2574C370.833 88.316 343.965 89.5475 320.529 92.733C299.111 95.6412 265.449 95.8602 232.865 96.0736C190.27 96.351 150.041 96.6137 140.294 102.934C130.541 109.234 145.373 113.859 159.712 118.33C170.764 121.779 182.189 125.342 182.883 129.713C183.104 131.032 183.148 132.508 183.192 134.072C183.558 144.783 184.101 160.965 239.187 168.102C284.406 173.962 317.336 175.69 337.101 173.227C345.636 172.165 351.566 170.319 354.677 167.737L355.326 167.197C360.127 163.196 366.101 158.213 388.951 154.866C406.936 152.233 427.653 151.831 445.79 153.773C462.06 155.513 474.727 159.044 481.44 163.711C489.647 169.434 504.832 171.507 519.537 173.51C534.109 175.502 547.881 177.38 554.486 182.725C564.542 190.866 621.318 201.766 662.955 203.555C666.973 203.725 670.752 203.813 674.341 203.813C687.98 203.813 698.32 202.563 704.553 200.133C711.896 197.274 714.325 194.203 711.808 191.005C704.919 182.286 663.693 175.199 646.294 172.556C613.193 167.529 599.163 156.141 599.945 147.088C600.79 136.862 574.099 134.072 520.925 128.513ZM644.231 173.661C657.397 175.659 700.862 182.838 707.53 191.275C709.764 194.095 707.568 196.821 701.033 199.372C692.365 202.753 675.881 202.827 663.585 202.306C623.167 200.572 568.213 190.1 558.568 182.298C551.357 176.462 536.109 174.384 521.379 172.366C506.806 170.375 493.035 168.496 485.452 163.22C478.285 158.226 464.735 154.451 447.311 152.585C439.236 151.724 430.694 151.297 422.077 151.297C410.128 151.297 398.073 152.12 386.995 153.742C362.581 157.316 356.285 162.561 351.245 166.776L350.589 167.316C347.895 169.553 342.772 171.147 335.41 172.065C317.078 174.345 284.431 172.581 240.991 166.945C188.447 160.136 187.949 145.059 187.558 134.048C187.514 132.47 187.444 130.981 187.23 129.639C186.447 124.807 174.48 121.076 162.904 117.464C148.912 113.098 135.689 108.976 144.269 103.437C152.911 97.8452 191.816 97.5934 232.998 97.3234C266.036 97.1099 300.177 96.8837 322.421 93.8624C371.962 87.1355 426.354 90.4323 450.314 97.5004C459.347 100.17 463.624 104.548 468.167 109.19C475.901 117.093 484.651 126.052 519.467 129.688C572.27 135.21 596.381 137.728 595.58 147.044C594.734 156.493 609.477 168.385 644.231 173.661Z" fill="#EEB7C7"/>
<mask id="mask13_426_17710" style="mask-type:luminance" maskUnits="userSpaceOnUse" x="1031" y="1" width="47" height="29">
<path d="M1031.59 1.40137H1078V29.4253H1031.59V1.40137Z" fill="white"/>
</mask>
<g mask="url(#mask13_426_17710)">
<path d="M1051.87 28.8703C1053.8 29.1348 1056.47 29.3921 1059.68 29.3921C1064.59 29.3921 1070.74 28.7882 1077.23 26.6845C1078.04 26.4273 1077.95 26.0314 1077.06 25.7978C1076.17 25.5661 1074.81 25.5917 1074 25.8489C1067.36 27.9982 1060.36 28.6513 1053.75 27.7336C1042.37 26.1573 1033.21 19.9814 1037.57 12.3806C1039.64 8.79372 1044.57 6.17378 1052.22 4.60473C1062.77 2.42995 1075.13 3.00831 1075.26 3.01378C1076.43 3.07034 1077.56 2.84411 1077.76 2.49928C1077.95 2.15993 1077.17 1.83335 1076 1.77132C1075.43 1.74577 1061.82 1.09261 1049.76 3.5666C1041.11 5.33817 1035.57 8.23543 1033.31 12.1727C1029.06 19.5107 1037.23 26.8414 1051.87 28.8703Z" fill="#EEB7C7"/>
</g>
<mask id="mask14_426_17710" style="mask-type:luminance" maskUnits="userSpaceOnUse" x="987" y="0" width="91" height="48">
<path d="M987.988 0H1078V47.6407H987.988V0Z" fill="white"/>
</mask>
<g mask="url(#mask14_426_17710)">
<path d="M1022.33 46.6863C1025.93 47.126 1029.78 47.3394 1033.93 47.3394C1046.06 47.3394 1060.49 45.4548 1076.95 41.7036C1077.88 41.4902 1078.06 41.0943 1077.32 40.8242C1076.59 40.5542 1075.22 40.505 1074.28 40.7184C1053.54 45.4365 1036.64 47.0566 1024.04 45.5241C1002.91 42.9552 996.436 32.0248 993.414 24.0208C988.594 11.244 1024.87 1.46846 1025.23 1.36811C1026.13 1.1364 1026.19 0.740492 1025.37 0.483241C1024.57 0.22599 1023.2 0.20592 1022.31 0.444927C1020.74 0.859083 984.033 10.735 989.093 24.1595C992.222 32.4827 999.066 43.8656 1022.33 46.6863Z" fill="#EEB7C7"/>
</g>
<mask id="mask15_426_17710" style="mask-type:luminance" maskUnits="userSpaceOnUse" x="939" y="0" width="139" height="60">
<path d="M939.538 0H1078V59.3174H939.538V0Z" fill="white"/>
</mask>
<g mask="url(#mask15_426_17710)">
<path d="M952.926 36.4586C958.579 46.3345 962.01 52.2896 981.731 55.9714C994.222 58.3013 1010.69 59.312 1027.17 59.312C1045.44 59.312 1063.73 58.0695 1076.67 55.9896C1077.71 55.82 1078.11 55.4368 1077.52 55.1358C1076.93 54.8329 1075.61 54.7198 1074.57 54.8895C1051.06 58.6662 1009.1 59.5766 984.097 54.9096C965.985 51.5288 962.875 46.1028 957.229 36.2452C955.147 32.609 952.775 28.4875 949.192 23.6818C936.379 6.50803 954.144 1.36848 954.383 1.30645C955.254 1.07474 955.317 0.678826 954.516 0.419751C953.708 0.162499 952.321 0.144255 951.45 0.383261C950.624 0.602198 931.515 5.92419 944.959 23.9464C948.498 28.7265 950.844 32.8352 952.926 36.4586Z" fill="#EEB7C7"/>
</g>
<mask id="mask16_426_17710" style="mask-type:luminance" maskUnits="userSpaceOnUse" x="905" y="0" width="173" height="71">
<path d="M905.625 0H1078V70.5269H905.625V0Z" fill="white"/>
</mask>
<g mask="url(#mask16_426_17710)">
<path d="M924.456 52.1707C923.346 55.9382 922.456 58.9103 926.759 61.5047C931.578 64.4129 946.612 68.321 973.063 69.7769C979.145 70.1108 986.425 70.3498 994.935 70.3498C1015.27 70.3498 1042.53 69.0051 1076.52 64.4567C1077.61 64.3126 1078.08 63.9349 1077.58 63.6211C1077.08 63.3073 1075.78 63.1686 1074.69 63.3146C988.897 74.7851 939.874 66.5056 930.664 60.9574C926.885 58.6786 927.711 55.8507 928.777 52.2765C930.342 46.9874 932.493 39.7442 919.914 30.1073C899.651 14.6047 919.655 1.2368 919.87 1.09814C920.349 0.784332 919.87 0.408489 918.759 0.269829C917.655 0.125696 916.375 0.269829 915.895 0.589113C915.681 0.727773 894.932 14.5482 915.851 30.5543C928.083 39.9212 926.058 46.7119 924.456 52.1707Z" fill="#EEB7C7"/>
</g>
<mask id="mask17_426_17710" style="mask-type:luminance" maskUnits="userSpaceOnUse" x="866" y="0" width="212" height="93">
<path d="M866.865 0H1078V92.012H866.865V0Z" fill="white"/>
</mask>
<g mask="url(#mask17_426_17710)">
<path d="M884.902 47.4786C881.49 53.6599 878.278 59.5019 898.63 67.1592C930.21 79.0311 975.821 80.664 1020.4 80.664C1034.6 80.664 1047.85 82.4994 1059.77 86.1118C1068.79 88.8431 1073.59 91.6199 1073.63 91.6455C1074 91.8644 1074.78 91.9976 1075.59 91.9976C1075.91 91.9976 1076.24 91.9775 1076.54 91.9337C1077.63 91.7768 1078.06 91.4065 1077.52 91.0927C1077.32 90.9723 1072.44 88.1407 1062.99 85.2689C1050.37 81.4375 1035.64 79.4087 1020.37 79.4087C976.887 79.4087 932.469 77.8324 902.036 66.3929C882.814 59.1625 885.748 53.8405 889.161 47.6792C891.501 43.4136 893.936 39.0039 889.091 33.5888C876.865 19.9509 870.09 5.45904 871.648 0.985428C871.781 0.640603 870.891 0.332266 869.699 0.295776C868.481 0.270234 867.434 0.514713 867.308 0.854066C865.504 6.01186 873.717 21.4579 884.877 33.9026C889.552 39.0604 887.18 43.3443 884.902 47.4786Z" fill="#EEB7C7"/>
</g>
<path d="M1037.53 107.268C1040.6 103.944 1036.43 99.0249 1024.15 96.551C1015.7 94.8487 1005.82 93.7248 997.111 92.7323C987.661 91.6577 978.754 90.6397 974.041 89.1509C966.029 86.613 944.543 85.8084 935.446 87.1531C931.623 87.7187 929.951 88.6236 930.733 89.7037C932.14 91.6833 944.416 93.0954 958.623 94.7283C972.067 96.2809 987.314 98.0324 988.639 99.9682C991.724 104.453 1005.89 110.346 1024.93 110.346C1025.7 110.346 1026.48 110.333 1027.26 110.315C1032.12 110.194 1035.86 109.083 1037.53 107.268ZM992.916 99.7237C991.137 97.122 976.129 95.3942 960.251 93.5606C948.87 92.247 935.963 90.7582 935.01 89.4464C934.771 89.0998 934.815 88.6546 937.445 88.2715C939.811 87.9194 943.331 87.757 947.236 87.757C955.797 87.757 966.288 88.5543 970.849 89.9993C976.236 91.707 985.617 92.7761 995.547 93.9055C1004.45 94.918 1013.66 95.9671 1021.68 97.5873C1032.26 99.7164 1035.97 104.108 1033.34 106.947C1032.65 107.695 1030.89 108.97 1026.89 109.071C1015.53 109.353 997.414 106.263 992.916 99.7237Z" fill="#EEB7C7"/>
<mask id="mask18_426_17710" style="mask-type:luminance" maskUnits="userSpaceOnUse" x="966" y="125" width="113" height="70">
<path d="M966.996 125.174H1078V194.767H966.996V125.174Z" fill="white"/>
</mask>
<g mask="url(#mask18_426_17710)">
<path d="M970.439 174.07C978.041 179.365 992.702 181.751 1004.47 183.669C1011.92 184.88 1018.37 185.929 1021.29 187.405C1026.6 190.107 1038.75 193.367 1052.78 194.146C1054.76 194.252 1056.73 194.309 1058.64 194.309C1065.27 194.309 1071.53 193.661 1076.98 192.406C1077.91 192.192 1078.06 191.797 1077.32 191.519C1076.59 191.249 1075.22 191.205 1074.26 191.419C1068.16 192.827 1061.21 193.329 1053.59 192.908C1041.46 192.236 1030.06 189.315 1025.06 186.777C1021.57 185.006 1014.64 183.875 1006.63 182.568C994.853 180.653 981.517 178.48 974.477 173.585C965.399 167.259 998.285 157.648 1020.05 151.284C1026.02 149.538 1031.19 148.031 1034.88 146.787C1045.72 143.13 1043.46 137.998 1041.66 133.871C1040.42 131.051 1039.33 128.613 1042.81 127.664C1051.69 125.234 1074.65 127.767 1074.89 127.798C1076.02 127.923 1077.26 127.759 1077.69 127.44C1078.13 127.119 1077.56 126.754 1076.45 126.628C1075.41 126.51 1050.7 123.789 1039.83 126.761C1034.77 128.142 1035.97 130.875 1037.36 134.035C1039.16 138.119 1041.18 142.742 1031.6 145.971C1028.02 147.183 1022.89 148.679 1016.98 150.405C993.005 157.398 960.251 166.976 970.439 174.07Z" fill="#EEB7C7"/>
</g>
<mask id="mask19_426_17710" style="mask-type:luminance" maskUnits="userSpaceOnUse" x="1008" y="143" width="70" height="37">
<path d="M1008.98 143.389H1078V179.353H1008.98V143.389Z" fill="white"/>
</mask>
<g mask="url(#mask19_426_17710)">
<path d="M1033.19 160.745C1038.44 159.305 1043.4 157.942 1046.2 156.366C1054.32 151.768 1065.09 146.328 1076.43 144.996C1077.54 144.864 1078.08 144.5 1077.63 144.178C1077.17 143.859 1075.91 143.702 1074.81 143.834C1062.23 145.31 1051.33 150.706 1042.33 155.795C1039.88 157.181 1035.18 158.47 1030.21 159.832C1019.78 162.691 1007.99 165.926 1010.77 171.511C1012.36 174.709 1017.13 176.908 1024.97 178.044C1029.34 178.679 1034.27 178.924 1039.33 178.924C1056.8 178.924 1075.63 175.997 1076.65 175.833C1077.69 175.669 1078.08 175.286 1077.52 174.979C1076.95 174.671 1075.63 174.563 1074.57 174.727C1074.26 174.779 1044.29 179.438 1026.91 176.92C1020.41 175.977 1016.44 174.1 1015.05 171.336C1012.6 166.386 1023.06 163.514 1033.19 160.745Z" fill="#EEB7C7"/>
</g>
<path d="M687.565 309.573C667.126 304.919 643.955 299.648 605.788 297.807C568.953 296.03 548.078 296.614 540.085 299.648C532.243 302.62 538.691 307.325 545.365 311.502C545.863 311.815 547.144 311.954 548.248 311.81C549.339 311.666 549.813 311.288 549.314 310.974C541.712 306.207 537.801 302.582 543.561 300.409C550.292 297.858 570.99 297.398 605.094 299.046C642.169 300.828 664.867 305.999 684.916 310.56C686.676 310.956 688.392 311.352 690.108 311.735C690.499 311.823 690.978 311.866 691.432 311.866C692.082 311.866 692.713 311.784 693.148 311.622C693.886 311.345 693.716 310.956 692.782 310.743C691.041 310.359 689.306 309.969 687.565 309.573Z" fill="#EEB7C7"/>
<mask id="mask20_426_17710" style="mask-type:luminance" maskUnits="userSpaceOnUse" x="800" y="299" width="278" height="13">
<path d="M800.651 299.389H1078V311.999H800.651V299.389Z" fill="white"/>
</mask>
<g mask="url(#mask20_426_17710)">
<path d="M1073.98 299.812C1073.61 299.931 1037.51 311.622 996.454 309.818C986.183 309.372 975.15 308.028 963.46 306.608C925.71 302.023 878.73 296.313 801.95 310.71C800.947 310.9 800.644 311.288 801.293 311.578C801.71 311.759 802.404 311.867 803.123 311.867C803.533 311.867 803.943 311.836 804.29 311.766C879.141 297.732 924.972 303.299 961.769 307.771C973.711 309.221 985.01 310.591 995.804 311.069C1013.81 311.854 1033.64 310.296 1053.1 306.565C1067.7 303.762 1076.87 300.772 1077.23 300.648C1078.02 300.389 1077.93 299.987 1077.04 299.761C1076.15 299.529 1074.76 299.553 1073.98 299.812Z" fill="#EEB7C7"/>
</g>
<mask id="mask21_426_17710" style="mask-type:luminance" maskUnits="userSpaceOnUse" x="687" y="0" width="391" height="300">
<path d="M687.603 0.466797H1078V299.856H687.603V0.466797Z" fill="white"/>
</mask>
<g mask="url(#mask21_426_17710)">
<path d="M746.102 129.819C744.563 132.565 742.954 135.404 742.02 138.15C739.743 144.833 758.246 150.764 777.859 157.046C796.103 162.893 814.978 168.936 815.937 175.621C817.893 189.454 862.052 199.693 900.995 208.726L904.906 209.631C935.464 216.728 932.468 235.505 930.84 245.593C930.342 248.709 929.995 250.959 930.601 252.17C931.231 253.402 932.298 254.307 933.338 255.181C936.594 257.912 939.395 260.28 922.803 272.354C910.748 281.123 909.442 287.576 918.829 292.073C927.497 296.218 944.959 298.638 972.218 299.473C974.539 299.543 976.842 299.579 979.126 299.579C1032.86 299.579 1075.56 280.665 1077.43 279.829C1078.08 279.541 1077.78 279.151 1076.78 278.963C1075.78 278.775 1074.43 278.857 1073.78 279.151C1073.68 279.202 1061.94 284.434 1043.57 289.379C1026.8 293.894 1000.89 299.096 972.672 298.229C946.845 297.437 930.449 295.213 922.545 291.426C913.896 287.286 915.309 281.205 926.822 272.825C944.025 260.313 940.959 257.749 937.445 254.777C936.467 253.954 935.464 253.113 934.903 251.988C934.335 250.895 934.707 248.583 935.181 245.657C936.833 235.341 939.899 216.151 907.619 208.651L903.707 207.746C865.484 198.875 822.151 188.824 820.258 175.57C819.236 168.434 799.844 162.214 781.076 156.203C762.132 150.135 744.235 144.4 746.323 138.275C747.256 135.568 748.777 132.873 750.385 130.021C756.202 119.706 762.245 109.033 738.696 98.0895C710.2 84.842 683.723 67.3781 694.864 58.0933C698.277 55.2545 704.68 52.151 711.462 48.8651C726.665 41.4906 743.913 33.1309 730.551 25.4042C713.481 15.5283 715.72 6.38769 722.817 1.56378C723.297 1.24267 722.779 0.872304 721.669 0.740942C720.559 0.602281 719.278 0.753713 718.824 1.07482C716.13 2.90842 703.791 12.746 726.665 25.968C738.961 33.0853 723.082 40.7809 707.727 48.2248C700.819 51.5672 694.322 54.7272 690.757 57.6865C679.118 67.3854 705.986 85.2635 735.005 98.7554C757.684 109.297 751.798 119.731 746.102 129.819Z" fill="#EEB7C7"/>
</g>
<mask id="mask22_426_17710" style="mask-type:luminance" maskUnits="userSpaceOnUse" x="750" y="0" width="328" height="260">
<path d="M750.587 0H1078V259.222H750.587V0Z" fill="white"/>
</mask>
<g mask="url(#mask22_426_17710)">
<path d="M801.579 93.3859C871.868 99.2972 915.353 106.847 930.796 115.811C952.062 128.149 957.38 134.022 924.04 142.534C906.471 147.02 890.05 155.675 882.183 164.582C876.84 170.64 871.105 181.941 892.63 189.598C903.316 193.404 915.397 196.664 927.062 199.811C953.494 206.954 976.325 213.123 976.325 223.256C976.325 231.07 980.842 245.367 1011.05 253.352C1025.22 257.096 1043.4 258.986 1065.18 258.981C1068.64 258.981 1072.18 258.93 1075.82 258.835C1077.02 258.804 1077.91 258.497 1077.8 258.151C1077.69 257.806 1076.67 257.554 1075.43 257.58C1050.15 258.238 1029.47 256.505 1014.01 252.416C985.031 244.757 980.709 230.857 980.709 223.248C980.709 212.57 956.1 205.923 930.058 198.888C918.501 195.766 906.534 192.537 896.043 188.801C863.421 177.184 892.22 152.327 926.954 143.47C962.421 134.418 956.554 127.916 934.726 115.247C918.722 105.949 874.341 98.1916 802.841 92.1726C767.545 89.2024 760.441 76.9966 755.338 62.5358C752.77 55.2489 767.475 48.1499 780.464 41.8937C794.236 35.2526 806.121 29.5238 796.128 24.782C778.187 16.2562 785.051 1.14953 785.114 0.998094C785.265 0.653269 784.439 0.339458 783.246 0.288373C782.073 0.244586 780.969 0.483592 780.792 0.828418C780.49 1.46334 773.645 16.528 792.394 25.4351C801.018 29.5311 789.744 34.9644 776.711 41.2515C763.375 47.6791 748.278 54.9661 750.991 62.6672C756.227 77.5859 763.677 90.1931 801.579 93.3859Z" fill="#EEB7C7"/>
</g>
<path d="M1026.87 266.047C1019.48 265.389 987.679 269.012 971.782 273.322C962.855 275.741 959.272 278.122 961.14 280.402C963.638 283.447 968.502 285.365 975.624 286.086C977.649 286.294 979.838 286.394 982.141 286.394C989.635 286.394 998.454 285.314 1007.68 283.241C1014.64 281.676 1021.33 278.868 1026.09 275.52C1030.41 272.481 1032.41 269.521 1031.3 267.788C1030.54 266.613 1028.47 266.192 1026.87 266.047ZM1005.02 282.254C994.177 284.692 984.248 285.635 977.081 284.905C971.454 284.334 967.524 282.719 965.373 280.12C963.896 278.304 967.044 276.33 974.76 274.245C989.812 270.169 1016.85 267.215 1024.34 267.215C1024.87 267.215 1025.28 267.228 1025.61 267.261C1026.5 267.341 1026.91 267.824 1027.04 268.032C1028.95 271.079 1019 279.107 1005.02 282.254Z" fill="#EEB7C7"/>
<mask id="mask23_426_17710" style="mask-type:luminance" maskUnits="userSpaceOnUse" x="799" y="0" width="279" height="249">
<path d="M799.035 0H1078V248.479H799.035V0Z" fill="white"/>
</mask>
<g mask="url(#mask23_426_17710)">
<path d="M805.098 73.2891C811.047 76.6698 821.803 79.038 837.959 80.5322C846.432 81.3113 872.196 83.6922 906.71 100.954C913.895 104.553 933.596 107.407 954.446 110.428C978.406 113.902 1003.17 117.489 1010.51 122.357C1020.31 128.864 983.188 142.037 953.361 152.623C941.722 156.75 930.732 160.65 922.998 163.929C914.355 167.585 911.592 171.11 914.784 174.402C921.541 181.362 953.43 186.363 986.859 190.734C1016.57 194.622 1014.64 200.295 1011.4 209.705C1009.62 214.876 1007.41 221.307 1010.36 228.959C1013.25 236.467 1022.16 241.874 1036.85 245.04C1048.71 247.598 1061.4 248.056 1069.03 248.056C1073.09 248.056 1075.7 247.924 1076 247.912C1077.17 247.848 1077.95 247.521 1077.76 247.184C1077.56 246.844 1076.41 246.611 1075.24 246.675C1075.04 246.687 1056.01 247.61 1039.42 244.024C1025.76 241.07 1017.44 235.958 1014.7 228.82C1011.82 221.302 1014 214.945 1015.76 209.831C1019.07 200.207 1021.26 193.85 988.701 189.59C956.231 185.345 925.301 180.526 919.024 174.062C916.153 171.103 918.633 168.025 926.626 164.639C934.246 161.404 945.198 157.529 956.774 153.42C988.941 142.006 1025.41 129.072 1014.55 121.86C1006.6 116.577 981.1 112.884 956.446 109.31C936.183 106.376 917.043 103.599 910.507 100.326C895.323 92.738 871.432 82.3038 839.328 79.339C824.125 77.9378 814.479 75.8342 809.01 72.7235C800.645 67.9817 802.146 60.8133 813.545 50.8061C836.439 30.7551 834.244 29.3356 822.081 21.4648C810.7 14.0958 831.79 1.2551 831.985 1.12374C832.509 0.809929 832.055 0.43956 830.97 0.288129C829.878 0.136698 828.598 0.269884 828.08 0.583694C827.166 1.13104 805.9 14.0775 818.106 21.9793C829.683 29.4743 831.771 30.8244 809.42 50.4174C797.604 60.7513 796.191 68.2389 805.098 73.2891Z" fill="#EEB7C7"/>
</g>
<path d="M783.53 137.082C779.448 141.291 780.249 144.852 785.92 147.66C793.018 151.178 807.508 153.608 831.487 155.305C837.442 155.726 842.609 155.945 847.214 155.945C869.306 155.945 878.864 150.939 901.518 139.09C927.017 125.748 897.562 117.921 883.4 114.159C881.513 113.663 879.905 113.228 878.624 112.853C863.029 108.217 835.051 102.758 810.416 101.74C802.537 101.413 795.8 102.148 790.892 103.856C781.921 106.985 780.312 113.154 787.024 118.857C794.998 125.642 794.412 126.221 787.308 133.248C786.223 134.354 784.943 135.617 783.53 137.082ZM791.497 133.601C798.796 126.37 799.559 125.617 791.15 118.456C784.917 113.141 786.198 107.469 794.26 104.661C797.585 103.504 801.793 102.92 806.858 102.92C807.811 102.92 808.814 102.94 809.83 102.984C833.442 103.956 860.443 109.233 875.539 113.725C876.883 114.128 878.555 114.568 880.491 115.082C894.85 118.901 921.585 126.005 897.739 138.481C870.24 152.874 863.698 156.292 832.553 154.086C809.792 152.471 796.172 150.229 789.699 147.025C784.57 144.487 783.921 141.34 787.744 137.421C789.113 135.963 790.393 134.706 791.497 133.601Z" fill="#EEB7C7"/>
<path d="M834.572 136.823C837.525 137.288 840.83 137.521 844.193 137.521C848.823 137.521 853.58 137.087 857.794 136.233C863.983 134.976 867.61 132.986 868.001 130.623C868.436 127.959 864.588 125.29 857.964 123.65C849.473 121.552 842.307 120.855 836.679 121.572C829.273 122.508 825.299 125.686 824.561 131.283C824.214 133.752 827.86 135.768 834.572 136.823ZM838.395 122.727C839.285 122.614 840.244 122.557 841.285 122.557C844.956 122.557 849.58 123.243 855.119 124.611C860.765 126.005 864.027 128.286 863.655 130.566C863.333 132.533 860.355 134.179 855.296 135.202C849.366 136.403 842.218 136.598 836.66 135.719C831.469 134.901 828.623 133.299 828.882 131.333C829.709 125.115 834.509 123.217 838.395 122.727Z" fill="#EEB7C7"/>
</g>
</svg>
