<svg width="101" height="60" viewBox="0 0 101 60" fill="none" xmlns="http://www.w3.org/2000/svg">
<path d="M99.6378 59.4129H1.36206C1.00092 59.4125 0.654696 59.2688 0.399348 59.0133C0.144001 58.7579 0.000381852 58.4116 0 58.0503L0 1.94934C0.000429579 1.58813 0.14407 1.24184 0.399412 0.986434C0.654754 0.731022 1.00095 0.587344 1.36206 0.586914H99.6387C99.9996 0.587535 100.346 0.731298 100.601 0.986688C100.856 1.24208 101 1.58826 101 1.94934V58.0503C101 58.4116 100.856 58.7579 100.601 59.0133C100.345 59.2687 99.9989 59.4124 99.6378 59.4127V59.4129Z" fill="#46081A"/>
<path d="M98.7317 2.86035H2.56152V57.1394H98.7317V2.86035Z" fill="#F9F9F9"/>
<path d="M88.6017 17.0702C89.6042 17.0702 90.4168 16.2573 90.4168 15.2546C90.4168 14.2518 89.6042 13.439 88.6017 13.439C87.5993 13.439 86.7866 14.2518 86.7866 15.2546C86.7866 16.2573 87.5993 17.0702 88.6017 17.0702Z" fill="#C9184A"/>
<path d="M88.407 15.2549L88.6209 15.4688L77.7746 26.3179L74.3712 22.9137L68.3965 28.8901L61.0607 21.5521L48.5818 34.0344L42.9095 28.3605L30.5064 40.7672L23.5484 33.8073L10.7984 46.5609L10.5845 46.3469L23.5485 33.3795L30.5065 40.3394L42.9097 27.9329L48.5819 33.6067L61.0609 21.1244L68.3969 28.4624L74.3716 22.4859L77.7749 25.8903L88.407 15.2549Z" fill="#C9184A"/>
<path d="M60.5307 23.3807C61.5332 23.3807 62.3458 22.5678 62.3458 21.5651C62.3458 20.5624 61.5332 19.7495 60.5307 19.7495C59.5282 19.7495 58.7156 20.5624 58.7156 21.5651C58.7156 22.5678 59.5282 23.3807 60.5307 23.3807Z" fill="#C9184A"/>
<path d="M23.624 35.3334C24.6264 35.3334 25.4391 34.5205 25.4391 33.5178C25.4391 32.515 24.6264 31.7021 23.624 31.7021C22.6215 31.7021 21.8088 32.515 21.8088 33.5178C21.8088 34.5205 22.6215 35.3334 23.624 35.3334Z" fill="#C9184A"/>
</svg>
