<svg width="114" height="122" viewBox="0 0 114 122" fill="none" xmlns="http://www.w3.org/2000/svg">
<g clip-path="url(#clip0_426_18085)">
<path d="M16.6583 77.6895C25.8584 77.6895 33.3166 69.6462 33.3166 59.7244C33.3166 49.8025 25.8584 41.7593 16.6583 41.7593C7.45817 41.7593 0 49.8025 0 59.7244C0 69.6462 7.45817 77.6895 16.6583 77.6895Z" fill="#F9F9F9"/>
<path d="M16.8071 60.4733C20.4758 60.4733 23.4499 57.2659 23.4499 53.3094C23.4499 49.3529 20.4758 46.1455 16.8071 46.1455C13.1384 46.1455 10.1643 49.3529 10.1643 53.3094C10.1643 57.2659 13.1384 60.4733 16.8071 60.4733Z" fill="#46081A"/>
<path d="M33.4069 18.497C33.401 22.0501 32.4183 25.5216 30.583 28.4724C28.7478 31.4233 26.1423 33.7209 23.0962 35.0748C20.05 36.4288 16.7 36.7781 13.4698 36.0787C10.2395 35.3794 7.27414 33.6627 4.94857 31.1458C2.623 28.6289 1.04172 25.4248 0.404687 21.9387C-0.232346 18.4526 0.103483 14.841 1.3697 11.5607C2.63593 8.28046 4.77567 5.47878 7.51835 3.50999C10.261 1.5412 13.4835 0.493729 16.7782 0.500028C18.9674 0.498087 21.1353 0.962732 23.1575 1.86726C25.1796 2.77179 27.0161 4.09837 28.5614 5.77076C30.1066 7.44315 31.3302 9.42838 32.1617 11.6124C32.9933 13.7964 33.4164 16.136 33.4069 18.497Z" fill="#F9F9F9"/>
<path d="M56.1878 77.6895C65.3879 77.6895 72.8461 69.6462 72.8461 59.7244C72.8461 49.8025 65.3879 41.7593 56.1878 41.7593C46.9877 41.7593 39.5295 49.8025 39.5295 59.7244C39.5295 69.6462 46.9877 77.6895 56.1878 77.6895Z" fill="#F9F9F9"/>
<path d="M56.1395 36.4302C65.3396 36.4302 72.7978 28.3869 72.7978 18.4651C72.7978 8.54325 65.3396 0.5 56.1395 0.5C46.9394 0.5 39.4812 8.54325 39.4812 18.4651C39.4812 28.3869 46.9394 36.4302 56.1395 36.4302Z" fill="#F9F9F9"/>
<path d="M96.7396 36.4302C105.94 36.4302 113.398 28.3869 113.398 18.4651C113.398 8.54325 105.94 0.5 96.7396 0.5C87.5395 0.5 80.0813 8.54325 80.0813 18.4651C80.0813 28.3869 87.5395 36.4302 96.7396 36.4302Z" fill="#F9F9F9"/>
<path d="M97.3416 77.6895C106.542 77.6895 114 69.6462 114 59.7244C114 49.8025 106.542 41.7593 97.3416 41.7593C88.1415 41.7593 80.6833 49.8025 80.6833 59.7244C80.6833 69.6462 88.1415 77.6895 97.3416 77.6895Z" fill="#F9F9F9"/>
<path d="M33.4069 103.535C33.4069 107.088 32.4299 110.561 30.5995 113.515C28.7691 116.47 26.1674 118.772 23.1235 120.132C20.0796 121.492 16.7301 121.848 13.4988 121.155C10.2674 120.461 7.29914 118.75 4.96944 116.238C2.63974 113.725 1.05319 110.524 0.410423 107.039C-0.23234 103.555 0.097551 99.9424 1.35838 96.6597C2.6192 93.377 4.75434 90.5712 7.49378 88.5972C10.2332 86.6231 13.4539 85.5695 16.7486 85.5695C18.939 85.559 21.1095 86.0165 23.135 86.9156C25.1605 87.8147 27.0007 89.1376 28.5495 90.8079C30.0984 92.4782 31.325 94.4629 32.1587 96.6472C32.9924 98.8316 33.4167 101.172 33.4069 103.535Z" fill="#F9F9F9"/>
<path d="M57.21 121.5C66.4102 121.5 73.8683 113.457 73.8683 103.535C73.8683 93.6131 66.4102 85.5698 57.21 85.5698C48.0099 85.5698 40.5518 93.6131 40.5518 103.535C40.5518 113.457 48.0099 121.5 57.21 121.5Z" fill="#F9F9F9"/>
<path d="M9.02757 12.6213C9.71639 10.2538 11.2828 8.08252 13.449 7.2822C15.6155 6.48188 18.7876 7.70103 20.4163 9.4515C23.3954 12.6535 24.1224 23.6534 22.0756 27.1294C21.6685 27.1062 20.2637 27.089 19.8517 27.0724L19.2688 24.9772V27.0517C18.6123 27.0298 17.9508 27.0147 17.2841 27.0064C15.0487 26.9765 12.9111 26.0131 11.3208 24.3188C9.73038 22.6244 8.81106 20.3311 8.75607 17.9209C8.70274 15.6152 8.75613 13.5542 9.02757 12.6213Z" fill="#46081A"/>
<path d="M16.5014 20.4674C19.1234 20.4674 21.2489 18.1751 21.2489 15.3475C21.2489 12.5198 19.1234 10.2275 16.5014 10.2275C13.8794 10.2275 11.7539 12.5198 11.7539 15.3475C11.7539 18.1751 13.8794 20.4674 16.5014 20.4674Z" fill="#9E616A"/>
<path d="M12.4043 10.8507L17.8706 7.89893C18.9881 8.44202 19.9506 9.29766 20.6582 10.3771C21.3658 11.4566 21.7927 12.7205 21.8947 14.0378L22.0309 15.7979L19.7419 15.1695L19.4911 12.9189L19.1024 14.994L18.046 14.7041L18.0561 11.2101L16.9991 14.7016L13.2262 13.7668L12.4043 10.8507Z" fill="#46081A"/>
<path d="M51.6136 52.9834C52.9125 52.9834 53.9655 51.8478 53.9655 50.447C53.9655 49.0462 52.9125 47.9106 51.6136 47.9106C50.3147 47.9106 49.2617 49.0462 49.2617 50.447C49.2617 51.8478 50.3147 52.9834 51.6136 52.9834Z" fill="#46081A"/>
<path d="M55.3765 62.6214C58.6671 62.6214 61.3346 59.7447 61.3346 56.196C61.3346 52.6473 58.6671 49.7705 55.3765 49.7705C52.086 49.7705 49.4185 52.6473 49.4185 56.196C49.4185 59.7447 52.086 62.6214 55.3765 62.6214Z" fill="#46081A"/>
<path d="M55.8694 62.6201C58.5434 62.6201 60.711 60.2824 60.711 57.3987C60.711 54.515 58.5434 52.1772 55.8694 52.1772C53.1955 52.1772 51.0278 54.515 51.0278 57.3987C51.0278 60.2824 53.1955 62.6201 55.8694 62.6201Z" fill="#9E616A"/>
<path d="M59.1576 52.0758C58.3092 51.518 57.3374 51.2163 56.3439 51.2022C55.3503 51.1881 54.3715 51.4621 53.5098 51.9955C52.648 52.529 51.935 53.3024 51.4453 54.2347C50.9555 55.1671 50.7071 56.2242 50.7258 57.2956C53.1929 57.9636 55.7847 58.4748 58.4156 57.4554L59.0369 55.8155L59.4032 57.4566C60.2044 57.8098 61.0077 58.1086 61.811 57.4532C61.8438 56.3849 61.616 55.3259 61.1503 54.3823C60.6847 53.4386 59.9976 52.6433 59.1576 52.0758Z" fill="#46081A"/>
<path d="M49.4238 43.5618C47.7975 42.7576 45.757 43.1349 44.4028 44.3959C43.0486 45.6569 42.4049 47.7092 42.6663 49.618C42.933 51.5652 44.0307 53.242 45.0425 54.8802C46.0543 56.5184 47.0428 58.3135 47.0416 60.2819C47.0408 61.6996 46.5187 63.0591 45.5898 64.0622C44.6609 65.0654 43.401 65.6303 42.0864 65.6331C43.6293 66.3494 45.2396 67.0798 46.9176 66.9949C48.5955 66.91 50.3542 65.7467 50.6279 63.9593C50.8251 62.6715 50.2393 61.4157 49.7506 60.2215C48.9547 58.2756 48.3794 56.2333 48.0372 54.1388C47.874 53.1391 47.7677 52.0881 48.07 51.1268C48.3106 50.4145 48.7571 49.8044 49.3437 49.3865C49.9303 48.9686 50.6259 48.7651 51.3279 48.8059L51.8823 48.268C52.1289 46.3569 51.0502 44.3659 49.4238 43.5618Z" fill="#46081A"/>
<path d="M89.9412 11.4384C89.7125 12.7631 89.3376 14.0535 88.8245 15.2821C85.8859 21.9862 94.2543 19.801 97.2449 19.801C100.515 19.801 103.643 21.6553 103.165 13.4161C102.961 9.89674 100.515 7.03125 97.2449 7.03125C94.452 7.03125 90.5252 8.37004 89.9412 11.4384Z" fill="#46081A"/>
<path d="M96.7549 19.7993C99.4119 19.7993 101.566 17.4763 101.566 14.6108C101.566 11.7453 99.4119 9.42236 96.7549 9.42236C94.0978 9.42236 91.9438 11.7453 91.9438 14.6108C91.9438 17.4763 94.0978 19.7993 96.7549 19.7993Z" fill="#FFB6B6"/>
<path d="M93.4879 9.32178C94.3309 8.76751 95.2966 8.46768 96.2838 8.45364C97.2711 8.4396 98.2437 8.71187 99.1 9.24198C99.9563 9.77208 100.665 10.5406 101.152 11.467C101.638 12.3935 101.885 13.444 101.866 14.5086C99.4149 15.1724 96.8395 15.6804 94.2252 14.6674L93.6078 13.0378L93.2438 14.6686C92.4477 15.0195 91.6494 15.3165 90.8512 14.6652C90.8186 13.6036 91.045 12.5513 91.5077 11.6137C91.9704 10.676 92.6532 9.88567 93.4879 9.32178Z" fill="#46081A"/>
<path d="M16.8098 61.4144C20.0872 61.4144 22.7441 58.5491 22.7441 55.0146C22.7441 51.48 20.0872 48.6147 16.8098 48.6147C13.5324 48.6147 10.8755 51.48 10.8755 55.0146C10.8755 58.5491 13.5324 61.4144 16.8098 61.4144Z" fill="#FFB8B8"/>
<path d="M56.8433 105.398C59.6344 105.398 61.897 102.958 61.897 99.9482C61.897 96.9382 59.6344 94.498 56.8433 94.498C54.0522 94.498 51.7896 96.9382 51.7896 99.9482C51.7896 102.958 54.0522 105.398 56.8433 105.398Z" fill="#9E616A"/>
<path d="M56.8184 20.2977C59.8184 20.2977 62.2504 17.675 62.2504 14.4396C62.2504 11.2043 59.8184 8.58154 56.8184 8.58154C53.8184 8.58154 51.3865 11.2043 51.3865 14.4396C51.3865 17.675 53.8184 20.2977 56.8184 20.2977Z" fill="#FFB8B8"/>
<path d="M61.601 10.5698C61.601 10.5698 63.0153 7.654 59.9038 7.38893C59.9038 7.38893 57.2512 4.79393 54.5475 6.91452C54.5475 6.91452 53.0728 6.91453 52.2664 8.71429C52.2664 8.71429 51.1065 8.23989 50.8516 9.50951C50.8516 9.50951 50.0029 12.1603 50.8516 14.5459C51.7003 16.9316 51.9822 17.1967 51.9822 17.1967C51.9822 17.1967 51.3867 14.2362 54.7814 13.9711C58.176 13.706 61.2903 11.4126 61.5732 14.3284C61.8561 17.2442 62.1671 15.927 62.1671 15.927C62.1671 15.927 64.8541 11.7626 61.601 10.5698Z" fill="#46081A"/>
<path d="M96.882 61.9498C99.8187 61.9498 102.199 59.3823 102.199 56.2151C102.199 53.048 99.8187 50.4805 96.882 50.4805C93.9452 50.4805 91.5645 53.048 91.5645 56.2151C91.5645 59.3823 93.9452 61.9498 96.882 61.9498Z" fill="#FFB6B6"/>
<path d="M23.5613 99.2365L23.4789 99.3967C24.2126 97.4468 23.5454 95.044 22.2367 93.5737C20.928 92.1034 19.1085 91.4312 17.317 91.1645C15.9871 90.9666 14.6066 90.9723 13.3421 91.4977C11.5108 92.2585 10.1117 94.0197 8.94354 95.8518C8.4092 96.6898 7.88385 97.6451 7.93708 98.6925C7.98649 99.6645 8.52148 100.489 8.95959 101.314C9.39775 102.139 9.76362 103.162 9.44918 104.062C9.2618 104.598 8.86578 104.984 8.54445 105.423C8.22313 105.862 7.9588 106.455 8.11402 107.006C8.18293 107.216 8.30132 107.404 8.45764 107.55C8.61396 107.697 8.80284 107.797 9.00584 107.841C9.39429 107.939 9.79728 107.875 10.1907 107.811L20.4024 106.147C21.0963 106.034 21.7545 105.742 22.321 105.295C22.8875 104.848 23.3454 104.261 23.6557 103.582C23.966 102.903 24.1195 102.153 24.103 101.397C24.0866 100.64 23.9008 99.8989 23.5613 99.2365Z" fill="#46081A"/>
<path d="M20.8939 101.548C21.3356 98.613 19.4873 95.8474 16.7655 95.371C14.0437 94.8947 11.4792 96.8881 11.0375 99.8234C10.5958 102.759 12.4442 105.524 15.166 106.001C17.8878 106.477 20.4523 104.484 20.8939 101.548Z" fill="#FFB9B9"/>
<path d="M29.257 115.397C26.371 118.938 22.3094 121.113 17.949 121.453C13.5886 121.793 9.27911 120.27 5.95093 117.213L7.37974 112.913C7.70263 112.15 8.21218 111.495 8.85375 111.02C9.49531 110.545 10.2447 110.267 11.0215 110.216L11.9305 110.156L14.098 108.14C14.098 108.14 19.9381 107.915 19.8514 107.808L23.389 110.102L23.386 110.087L24.7767 110.178C25.5536 110.229 26.303 110.507 26.9446 110.982C27.5862 111.457 28.0957 112.112 28.4185 112.875L29.257 115.397Z" fill="#C9184A"/>
<path d="M69.493 115.397C66.6071 118.938 62.5455 121.113 58.185 121.453C53.8246 121.793 49.5152 120.27 46.187 117.213L47.6158 112.913C47.9387 112.15 48.4483 111.495 49.0898 111.02C49.7314 110.545 50.4808 110.267 51.2576 110.216L52.1666 110.156L54.3341 108.14C54.3341 108.14 60.1742 107.915 60.0875 107.808L63.6251 110.102L63.6221 110.087L65.0128 110.178C65.7897 110.229 66.5391 110.507 67.1807 110.982C67.8223 111.457 68.3318 112.112 68.6545 112.875L69.493 115.397Z" fill="#C9184A"/>
<path d="M20.7014 95.6885C20.5726 94.9533 19.8772 94.617 19.2814 94.454C17.5533 93.9785 15.7556 93.872 13.9896 94.1406C12.7022 94.3386 11.3843 94.7752 10.4502 95.8589C9.69693 96.7714 9.27015 97.9437 9.24649 99.1651C9.20839 99.8954 9.3597 100.623 9.68345 101.265C10.0196 101.879 10.5926 102.324 11.184 102.309L11.244 102.533C13.7506 102.157 16.0791 100.475 17.5456 97.9811C17.2703 99.041 16.7226 99.9952 15.9657 100.734C17.658 100.003 19.1291 98.7806 20.215 97.2018C20.5116 96.7773 20.7995 96.2479 20.7014 95.6885Z" fill="#46081A"/>
<path d="M29.1102 71.5289C26.2242 75.0703 22.1626 77.2457 17.8022 77.5856C13.4418 77.9254 9.13238 76.4024 5.8042 73.3453L7.23301 69.0457C7.55591 68.282 8.06545 67.6275 8.70702 67.1524C9.34859 66.6773 10.098 66.3994 10.8748 66.3487L11.7838 66.2885L13.9512 64.2725C13.9512 64.2725 19.7913 64.0476 19.7047 63.9399L23.2422 66.2347L23.2393 66.2188L24.6299 66.3107C25.4068 66.3612 26.1563 66.639 26.7979 67.1141C27.4395 67.5893 27.949 68.2439 28.2717 69.0077L29.1102 71.5289Z" fill="#C9184A"/>
<path d="M68.7221 71.7442C65.8361 75.2856 61.7745 77.4611 57.4141 77.8009C53.0536 78.1408 48.7442 76.6178 45.416 73.5607L46.8448 69.261C47.1677 68.4973 47.6773 67.8428 48.3188 67.3677C48.9604 66.8926 49.7098 66.6148 50.4866 66.564L51.3956 66.5038L53.5631 64.4878C53.5631 64.4878 59.4032 64.263 59.3165 64.1553L62.8541 66.45L62.8511 66.4342L64.2418 66.526C65.0187 66.5765 65.7681 66.8543 66.4097 67.3294C67.0513 67.8046 67.5608 68.4592 67.8836 69.223L68.7221 71.7442Z" fill="#C9184A"/>
<path d="M109.839 71.7442C106.953 75.2856 102.891 77.4611 98.531 77.8009C94.1706 78.1408 89.8611 76.6178 86.533 73.5607L87.9618 69.261C88.2847 68.4973 88.7942 67.8428 89.4358 67.3677C90.0773 66.8926 90.8267 66.6148 91.6036 66.564L92.5126 66.5038L94.68 64.4878C94.68 64.4878 100.52 64.263 100.433 64.1553L103.971 66.45L103.968 66.4342L105.359 66.526C106.136 66.5765 106.885 66.8543 107.527 67.3294C108.168 67.8046 108.678 68.4592 109 69.223L109.839 71.7442Z" fill="#C9184A"/>
<path d="M29.1102 30.3536C26.2242 33.895 22.1626 36.0705 17.8022 36.4103C13.4418 36.7501 9.13238 35.2271 5.8042 32.17L7.23301 27.8704C7.55591 27.1067 8.06545 26.4522 8.70702 25.9771C9.34859 25.502 10.098 25.2242 10.8748 25.1734L11.7838 25.1132L13.9512 23.0972C13.9512 23.0972 19.7913 22.8723 19.7047 22.7646L23.2422 25.0594L23.2393 25.0435L24.6299 25.1354C25.4068 25.1859 26.1563 25.4637 26.7979 25.9388C27.4395 26.414 27.949 27.0686 28.2717 27.8324L29.1102 30.3536Z" fill="#C9184A"/>
<path d="M68.5751 30.4107C65.6891 33.9521 61.6275 36.1276 57.2671 36.4674C52.9067 36.8073 48.5972 35.2843 45.269 32.2272L46.6979 27.9275C47.0207 27.1638 47.5303 26.5093 48.1719 26.0342C48.8134 25.5591 49.5628 25.2813 50.3397 25.2305L51.2486 25.1704L53.4161 23.1543C53.4161 23.1543 59.2562 22.9295 59.1696 22.8218L62.7071 25.1165L62.7041 25.1007L64.0948 25.1925C64.8717 25.2431 65.6212 25.5208 66.2628 25.9959C66.9044 26.4711 67.4139 27.1257 67.7366 27.8895L68.5751 30.4107Z" fill="#C9184A"/>
<path d="M109.692 30.4107C106.806 33.9521 102.745 36.1276 98.3843 36.4674C94.0239 36.8073 89.7144 35.2843 86.3862 32.2272L87.815 27.9275C88.1379 27.1638 88.6475 26.5093 89.2891 26.0342C89.9306 25.5591 90.68 25.2813 91.4568 25.2305L92.3658 25.1704L94.5333 23.1543C94.5333 23.1543 100.373 22.9295 100.287 22.8218L103.824 25.1165L103.821 25.1007L105.212 25.1925C105.989 25.2431 106.738 25.5208 107.38 25.9959C108.022 26.4711 108.531 27.1257 108.854 27.8895L109.692 30.4107Z" fill="#C9184A"/>
<path d="M102.49 52.6588C102.041 50.9243 101.02 49.4263 99.619 48.446C98.5027 47.6759 97.1096 47.2828 95.8448 47.69C94.5801 48.0973 93.533 49.4359 93.6158 50.8821C93.1592 50.7146 92.6402 50.9375 92.3061 51.3183C91.9719 51.6991 91.7922 52.2114 91.6635 52.7213C91.2576 54.3429 91.2845 56.055 91.7411 57.6608L91.7159 57.8912C92.333 57.7812 92.801 57.2102 93.092 56.6019C93.3831 55.9936 93.5506 55.3187 93.866 54.7253C94.1814 54.1318 94.7052 53.6025 95.3301 53.5839L95.2751 54.614C95.8127 54.3153 96.3503 54.0166 96.8879 53.7179C96.76 54.0478 96.6321 54.3777 96.5043 54.7076C96.9738 54.496 97.4433 54.2843 97.9128 54.0727C97.8603 54.3899 97.8078 54.7071 97.7553 55.0244C98.221 53.8814 99.661 53.3793 100.641 54.0183C101.209 54.3895 101.583 55.0509 101.779 55.7455C101.975 56.4401 102.014 57.1749 102.052 57.9011C102.777 56.2672 102.933 54.4063 102.49 52.6588Z" fill="#46081A"/>
<path d="M52.2513 102.468C52.2414 102.438 52.2323 102.408 52.2225 102.378C52.2031 102.396 52.1844 102.415 52.1633 102.433L52.2513 102.468Z" fill="#46081A"/>
<path d="M62.897 98.0092C62.871 97.4561 62.7367 96.9153 62.5029 96.4224C62.269 95.9294 61.9409 95.4955 61.5402 95.1493C61.2457 94.8981 60.905 94.6859 60.71 94.3399C60.5988 94.0949 60.5045 93.8413 60.428 93.5814C60.04 92.5855 58.9344 92.0562 57.9426 92.207C56.9508 92.3578 56.0925 93.0773 55.5143 93.9594C55.2295 93.8122 54.9115 93.7561 54.598 93.7978C54.2845 93.8394 53.9886 93.9771 53.7454 94.1945C53.5022 94.4119 53.3219 94.6998 53.2258 95.0243C53.1296 95.3488 53.1217 95.6962 53.203 96.0254C52.6894 95.5792 51.8586 95.9361 51.538 96.5577C51.2174 97.1793 51.2683 97.9398 51.3636 98.6436C51.5363 99.9157 51.8239 101.166 52.2225 102.378C52.7226 101.903 52.6918 101.038 52.6307 100.307C52.5672 99.5475 52.6053 98.6201 53.2211 98.2453C53.8162 97.8832 54.5384 98.2808 55.1945 98.4864C55.7132 98.6448 56.2576 98.6801 56.7902 98.5897C57.3228 98.4994 57.8308 98.2856 58.2794 97.9631C58.6212 97.7137 58.9255 97.4013 59.2939 97.2009C59.6623 97.0005 60.1311 96.9309 60.4742 97.1782C60.7874 97.4042 60.9148 97.8255 61.0214 98.2154C61.274 99.1392 61.5266 100.063 61.7792 100.987C62.15 100.604 62.4414 100.141 62.6341 99.6273C62.8267 99.114 62.9163 98.5625 62.897 98.0092Z" fill="#46081A"/>
<path d="M23.0705 52.77C23.1122 52.2922 23.1312 51.8124 23.1277 51.3325C23.1519 50.3834 22.9907 49.4394 22.6544 48.5619C22.2409 47.5903 21.5035 46.822 20.5888 46.4098C19.6823 46.0155 18.6691 46.0164 17.7631 46.4125C16.9452 45.8552 16.0364 45.4134 15.0793 45.3586C14.1222 45.3039 13.1103 45.6869 12.5205 46.5298C12.3888 46.7523 12.2392 46.9619 12.0734 47.1561C11.5993 47.6296 10.8788 47.5613 10.2487 47.4645C10.5313 47.7257 10.814 47.987 11.0968 48.2482C10.7547 48.3446 10.4125 48.441 10.0703 48.5374C10.4696 48.7986 10.8689 49.0597 11.2681 49.3209C10.109 50.0712 9.58214 51.7088 9.72131 53.1961C9.85297 54.6043 10.4833 55.8919 11.2369 57.0364C11.5375 56.3523 11.4728 55.5337 11.4678 54.7632C11.465 54.5132 11.4792 54.2634 11.5101 54.0157C14.0568 54.6741 16.7178 55.0966 19.4164 54.051L19.9579 52.6216C20.0339 52.63 20.11 52.6379 20.1859 52.6466L20.4997 54.0523C21.211 54.3659 21.9238 54.6399 22.6369 54.3519C22.6716 54.5691 22.6925 54.7906 22.7085 55.0036C22.7697 54.7489 22.8228 54.4922 22.8707 54.2346C22.9649 54.18 23.0552 54.1179 23.1407 54.0486C23.1579 53.6209 23.1344 53.1925 23.0705 52.77Z" fill="#46081A"/>
</g>
<defs>
<clipPath id="clip0_426_18085">
<rect width="114" height="121" fill="white" transform="translate(0 0.5)"/>
</clipPath>
</defs>
</svg>
