<svg width="145" height="109" viewBox="0 0 145 109" fill="none" xmlns="http://www.w3.org/2000/svg">
<path d="M62.2771 68.1862C64.5801 71.3016 60.4059 64.7939 70.7592 80.8478L66.7147 82.8416L57.7507 68.7004C57.7507 68.7004 62.0808 67.9207 62.2771 68.1862Z" fill="#ED9DA0"/>
<path d="M68.6505 81.7024C68.6505 81.7024 68.6285 78.8406 71.0193 79.9169L75.8003 82.0709C75.8003 82.0709 81.1519 80.9161 79.601 83.6637C78.0501 86.4112 70.7255 87.289 70.7255 87.289C70.7255 87.289 65.1505 87.7773 65.3255 86.5309C65.5005 85.2844 65.2248 81.2214 65.9962 81.7535C66.7677 82.2856 68.6505 81.7024 68.6505 81.7024Z" fill="#46081A"/>
<path d="M51.2167 82.5722C49.745 85.9529 53.1222 79.415 44.8168 95.5889L41.248 93.2045L48.6384 79.0864C48.6384 79.0864 51.3421 82.2839 51.2167 82.5722Z" fill="#ED9DA0"/>
<path d="M129.775 66.1153C129.775 65.0933 129.432 64.264 129.01 64.2622H14.1396C13.7164 64.2641 13.3751 65.0935 13.3731 66.1153V108.184C13.3731 108.279 13.3378 108.37 13.2741 108.441C13.2103 108.511 13.1226 108.555 13.0282 108.564C12.72 108.594 12.4117 108.621 12.1032 108.647C12.0957 108.647 12.0879 108.649 12.0804 108.649C11.9126 108.664 11.7448 108.675 11.5763 108.689H11.5749C11.4886 108.529 11.4033 108.368 11.3189 108.206C11.2904 108.151 11.2755 108.09 11.2755 108.029V63.7118C11.2755 63.4296 11.287 63.1455 11.3059 62.8658C11.3331 62.4809 11.3808 62.0977 11.4489 61.7179C11.7711 59.9467 12.4995 58.7476 13.3268 58.7437H129.821C129.942 58.7445 130.061 58.7697 130.172 58.818C130.334 58.8901 130.481 58.993 130.604 59.1212C130.771 59.295 130.914 59.4906 131.029 59.7026C131.437 60.4214 131.729 61.4929 131.832 62.7399C131.832 62.7514 131.834 62.7628 131.834 62.7743C131.86 63.0832 131.874 63.3977 131.872 63.7124L131.898 67.7988L131.916 70.2354L131.968 77.8809L131.987 80.5959L132.071 108.47C132.071 108.572 132.031 108.668 131.959 108.74C131.888 108.811 131.791 108.852 131.69 108.852H130.157C130.056 108.852 129.959 108.811 129.887 108.74C129.816 108.668 129.775 108.572 129.775 108.47L129.775 66.1153Z" fill="#F9F9F9"/>
<path d="M98.5605 39.6245H86.1828C86.0078 39.6248 85.84 39.6946 85.7163 39.8185C85.5927 39.9425 85.5233 40.1105 85.5234 40.2855V59.8386H99.2215V40.2857C99.2215 40.1989 99.2045 40.1129 99.1712 40.0327C99.138 39.9525 99.0893 39.8796 99.028 39.8182C98.9666 39.7569 98.8937 39.7082 98.8135 39.675C98.7333 39.6417 98.6473 39.6247 98.5605 39.6247V39.6245ZM92.4133 50.7343C92.0262 50.7325 91.6555 50.5779 91.3818 50.3042C91.1081 50.0305 90.9536 49.6598 90.9518 49.2727V47.0176C90.9518 46.6299 91.1057 46.2582 91.3798 45.9841C91.6539 45.71 92.0257 45.556 92.4133 45.556C92.801 45.556 93.1727 45.71 93.4468 45.9841C93.7209 46.2582 93.8749 46.6299 93.8749 47.0176V49.2729C93.8731 49.6599 93.7186 50.0307 93.4448 50.3044C93.1711 50.5781 92.8004 50.7326 92.4133 50.7344V50.7343Z" fill="#46081A"/>
<path d="M85.481 59.2129V61.0993C85.4811 61.1971 85.5201 61.2908 85.5892 61.3599C85.6583 61.4291 85.7521 61.468 85.8498 61.4682H98.8953C98.993 61.4677 99.0866 61.4287 99.1556 61.3596C99.2247 61.2905 99.2637 61.197 99.2642 61.0993V59.2129H85.481Z" fill="#46081A"/>
<path d="M69.5776 12.395C69.4352 12.7536 69.2158 13.0766 68.935 13.3413C68.6542 13.6059 68.3187 13.8058 67.9523 13.9268C67.5859 14.0479 67.1974 14.0871 66.8142 14.0417C66.431 13.9963 66.0624 13.8675 65.7344 13.6643L48.2627 25.8358L47.7803 20.9854L64.959 9.85544C65.337 9.32688 65.8956 8.95534 66.5292 8.81122C67.1628 8.66711 67.8272 8.76044 68.3966 9.07352C68.9659 9.3866 69.4007 9.89769 69.6183 10.5099C69.836 11.1221 69.8215 11.7929 69.5776 12.3952V12.395Z" fill="#FFB6B6"/>
<path d="M30.46 20.0692C30.46 20.0692 28.5681 22.8646 31.5369 25.3384C34.5056 27.8123 46.5381 27.3201 48.48 27.2988C50.4219 27.2776 59.331 18.0613 59.331 18.0613L59.2733 12.7383L48.5165 19.1209L30.46 20.0692Z" fill="#C9184A"/>
<path d="M29.389 38.6287L29.5797 42.2512C29.5797 42.2512 29.0169 45.4601 29.4798 46.1526C29.9392 46.8416 42.553 47.8666 42.553 47.8666C42.553 47.8666 42.157 42.464 42.8709 38.5562L29.389 38.6287Z" fill="#ED9DA0"/>
<path d="M68.1015 75.5125L63.246 79.7629L53.7296 60.3001C44.2927 61.9231 35.3899 62.4423 27.6893 60.4801C25.0821 59.8245 23.4884 57.1317 24.1296 54.4674C24.1596 54.3429 24.1943 54.2196 24.2337 54.0977C25.1552 51.2858 27.5676 49.2962 29.4685 46.2036L43.3518 46.4144L41.8011 51.7648L55.2878 50.0195C58 49.6685 60.4771 51.6318 60.8204 54.4042C60.8385 54.5507 60.8505 54.6977 60.8564 54.8453L68.1015 75.5125Z" fill="#46081A"/>
<path d="M34.8105 14.2502C37.9239 14.2502 40.4479 11.7263 40.4479 8.61291C40.4479 5.4995 37.9239 2.97559 34.8105 2.97559C31.6971 2.97559 29.1732 5.4995 29.1732 8.61291C29.1732 11.7263 31.6971 14.2502 34.8105 14.2502Z" fill="#ED9DA0"/>
<path d="M31.5044 16.2856L36.6733 16.8938C36.8913 16.9194 37.0958 17.0124 37.2584 17.1598C37.421 17.3072 37.5336 17.5017 37.5805 17.7161L38.4024 21.4785L43.5267 27.5129C43.5267 27.5129 45.3669 30.963 44.6768 34.8732C44.2616 37.2279 43.5432 39.5188 42.5396 41.689C42.5396 41.689 29.9383 46.843 29.4778 46.1535C29.0173 45.464 28.8684 42.3291 28.8684 42.3291L27.2473 24.2908C27.1545 23.3404 27.2732 22.3814 27.5947 21.4823C27.9163 20.5832 28.4328 19.7664 29.1073 19.0905C29.5163 18.6882 29.9201 18.4065 30.2486 18.4065C30.9908 18.3807 30.8958 16.7109 31.5044 16.2856Z" fill="#C9184A"/>
<path d="M47.9406 91.3846L43.0127 89.5137L49.7762 69.1997C40.5876 66.5057 33.6567 62.1663 27.605 57.0156C25.5527 55.2798 24.0123 53.0508 25.7608 50.9394C25.8426 50.8406 25.9279 50.7451 26.0168 50.653C28.0815 48.5332 33.3213 48.9412 36.3889 47L43.2487 54.3243L42.8188 56.2865L55.698 60.6524C58.2881 61.5303 59.6489 64.3831 58.7374 67.024C58.6894 67.1634 58.6354 67.3007 58.5754 67.4357L47.9406 91.3846Z" fill="#46081A"/>
<path d="M34.4521 60.3846C34.1288 60.1739 33.8556 59.895 33.6518 59.5673C33.4479 59.2396 33.3184 58.8712 33.2724 58.4881C33.2263 58.105 33.2648 57.7164 33.3852 57.3498C33.5055 56.9831 33.7048 56.6473 33.969 56.366L25.4983 36.8301L30.3482 37.3177L37.8561 56.3604C38.2993 56.8355 38.5528 57.4567 38.5686 58.1063C38.5844 58.7558 38.3613 59.3886 37.9417 59.8846C37.5221 60.3807 36.9351 60.7056 36.2919 60.7977C35.6488 60.8899 34.9941 60.7429 34.4521 60.3846Z" fill="#ED9DA0"/>
<path d="M34.6751 20.5217C34.6751 20.5217 32.3096 18.1137 29.297 20.5339C26.2843 22.9541 24.384 34.8455 24.0204 36.7537C23.6568 38.6619 30.9263 49.219 30.9263 49.219L36.1552 50.2158L32.0291 38.4083L34.6751 20.5217Z" fill="#C9184A"/>
<path d="M119.056 9.10986H66.1465C65.6919 9.11058 65.2562 9.29148 64.9347 9.61293C64.6133 9.93437 64.4324 10.3701 64.4316 10.8247V46.5281C64.4321 46.9828 64.6129 47.4187 64.9344 47.7402C65.2559 48.0617 65.6918 48.2425 66.1465 48.243H119.056C119.51 48.2425 119.946 48.0617 120.268 47.7402C120.589 47.4187 120.77 46.9828 120.771 46.5281V10.8247C120.77 10.3701 120.589 9.93437 120.268 9.61293C119.946 9.29148 119.51 9.11058 119.056 9.10986Z" fill="#46081A"/>
<path d="M118.615 10.3481H66.5891C66.3459 10.3487 66.1128 10.4456 65.9409 10.6177C65.769 10.7898 65.6724 11.023 65.6721 11.2662V46.0855C65.6724 46.3286 65.7691 46.5617 65.941 46.7336C66.1129 46.9055 66.346 47.0023 66.5891 47.0025H118.615C118.858 47.0023 119.091 46.9055 119.263 46.7336C119.435 46.5617 119.532 46.3286 119.532 46.0855V11.267C119.532 11.0237 119.435 10.7905 119.263 10.6184C119.091 10.4463 118.858 10.3494 118.615 10.3489V10.3481Z" fill="#F9F9F9"/>
<path d="M108.481 62.1242H77.5285C77.4437 62.1244 77.36 62.1056 77.2834 62.0692C77.2068 62.0328 77.1393 61.9798 77.0858 61.914C77.0323 61.8482 76.9942 61.7713 76.9742 61.6889C76.9543 61.6065 76.953 61.5206 76.9704 61.4377L77.4507 59.1566C77.4781 59.029 77.5482 58.9146 77.6496 58.8323C77.7509 58.7501 77.8774 58.705 78.0079 58.7046H107.999C108.13 58.7051 108.256 58.7502 108.357 58.8324C108.459 58.9146 108.529 59.029 108.556 59.1566L109.037 61.4377C109.054 61.5206 109.053 61.6065 109.033 61.6889C109.013 61.7713 108.975 61.8482 108.921 61.914C108.868 61.9798 108.8 62.0328 108.724 62.0692C108.647 62.1056 108.563 62.1244 108.479 62.1242H108.481Z" fill="#46081A"/>
<path d="M79.0953 59.1152H78.3176C78.2691 59.1152 78.2297 59.1546 78.2297 59.2031V59.5993C78.2297 59.6478 78.2691 59.6872 78.3176 59.6872H79.0953C79.1438 59.6872 79.1831 59.6478 79.1831 59.5993V59.2031C79.1831 59.1546 79.1438 59.1152 79.0953 59.1152Z" fill="#46081A"/>
<path d="M81.0015 59.1152H80.2238C80.1753 59.1152 80.136 59.1546 80.136 59.2031V59.5993C80.136 59.6478 80.1753 59.6872 80.2238 59.6872H81.0015C81.05 59.6872 81.0894 59.6478 81.0894 59.5993V59.2031C81.0894 59.1546 81.05 59.1152 81.0015 59.1152Z" fill="#46081A"/>
<path d="M82.9075 59.1152H82.1298C82.0813 59.1152 82.042 59.1546 82.042 59.2031V59.5993C82.042 59.6478 82.0813 59.6872 82.1298 59.6872H82.9075C82.956 59.6872 82.9954 59.6478 82.9954 59.5993V59.2031C82.9954 59.1546 82.956 59.1152 82.9075 59.1152Z" fill="#46081A"/>
<path d="M84.8148 59.1152H84.0371C83.9886 59.1152 83.9492 59.1546 83.9492 59.2031V59.5993C83.9492 59.6478 83.9886 59.6872 84.0371 59.6872H84.8148C84.8633 59.6872 84.9026 59.6478 84.9026 59.5993V59.2031C84.9026 59.1546 84.8633 59.1152 84.8148 59.1152Z" fill="#46081A"/>
<path d="M86.72 59.1152H85.9423C85.8938 59.1152 85.8545 59.1546 85.8545 59.2031V59.5993C85.8545 59.6478 85.8938 59.6872 85.9423 59.6872H86.72C86.7685 59.6872 86.8079 59.6478 86.8079 59.5993V59.2031C86.8079 59.1546 86.7685 59.1152 86.72 59.1152Z" fill="#46081A"/>
<path d="M88.627 59.1152H87.8493C87.8008 59.1152 87.7615 59.1546 87.7615 59.2031V59.5993C87.7615 59.6478 87.8008 59.6872 87.8493 59.6872H88.627C88.6755 59.6872 88.7149 59.6478 88.7149 59.5993V59.2031C88.7149 59.1546 88.6755 59.1152 88.627 59.1152Z" fill="#46081A"/>
<path d="M90.5342 59.1152H89.7566C89.708 59.1152 89.6687 59.1546 89.6687 59.2031V59.5993C89.6687 59.6478 89.708 59.6872 89.7566 59.6872H90.5342C90.5828 59.6872 90.6221 59.6478 90.6221 59.5993V59.2031C90.6221 59.1546 90.5828 59.1152 90.5342 59.1152Z" fill="#46081A"/>
<path d="M92.4405 59.1152H91.6628C91.6143 59.1152 91.575 59.1546 91.575 59.2031V59.5993C91.575 59.6478 91.6143 59.6872 91.6628 59.6872H92.4405C92.489 59.6872 92.5283 59.6478 92.5283 59.5993V59.2031C92.5283 59.1546 92.489 59.1152 92.4405 59.1152Z" fill="#46081A"/>
<path d="M94.3465 59.1152H93.5688C93.5203 59.1152 93.481 59.1546 93.481 59.2031V59.5993C93.481 59.6478 93.5203 59.6872 93.5688 59.6872H94.3465C94.395 59.6872 94.4343 59.6478 94.4343 59.5993V59.2031C94.4343 59.1546 94.395 59.1152 94.3465 59.1152Z" fill="#46081A"/>
<path d="M96.2537 59.1152H95.476C95.4275 59.1152 95.3882 59.1546 95.3882 59.2031V59.5993C95.3882 59.6478 95.4275 59.6872 95.476 59.6872H96.2537C96.3022 59.6872 96.3416 59.6478 96.3416 59.5993V59.2031C96.3416 59.1546 96.3022 59.1152 96.2537 59.1152Z" fill="#46081A"/>
<path d="M98.16 59.1152H97.3823C97.3338 59.1152 97.2944 59.1546 97.2944 59.2031V59.5993C97.2944 59.6478 97.3338 59.6872 97.3823 59.6872H98.16C98.2085 59.6872 98.2478 59.6478 98.2478 59.5993V59.2031C98.2478 59.1546 98.2085 59.1152 98.16 59.1152Z" fill="#46081A"/>
<path d="M100.067 59.1152H99.2895C99.241 59.1152 99.2017 59.1546 99.2017 59.2031V59.5993C99.2017 59.6478 99.241 59.6872 99.2895 59.6872H100.067C100.116 59.6872 100.155 59.6478 100.155 59.5993V59.2031C100.155 59.1546 100.116 59.1152 100.067 59.1152Z" fill="#46081A"/>
<path d="M101.974 59.1152H101.196C101.148 59.1152 101.109 59.1546 101.109 59.2031V59.5993C101.109 59.6478 101.148 59.6872 101.196 59.6872H101.974C102.023 59.6872 102.062 59.6478 102.062 59.5993V59.2031C102.062 59.1546 102.023 59.1152 101.974 59.1152Z" fill="#46081A"/>
<path d="M103.88 59.1152H103.103C103.054 59.1152 103.015 59.1546 103.015 59.2031V59.5993C103.015 59.6478 103.054 59.6872 103.103 59.6872H103.88C103.929 59.6872 103.968 59.6478 103.968 59.5993V59.2031C103.968 59.1546 103.929 59.1152 103.88 59.1152Z" fill="#46081A"/>
<path d="M105.787 59.1152H105.009C104.96 59.1152 104.921 59.1546 104.921 59.2031V59.5993C104.921 59.6478 104.96 59.6872 105.009 59.6872H105.787C105.835 59.6872 105.875 59.6478 105.875 59.5993V59.2031C105.875 59.1546 105.835 59.1152 105.787 59.1152Z" fill="#46081A"/>
<path d="M107.694 59.1152H106.916C106.867 59.1152 106.828 59.1546 106.828 59.2031V59.5993C106.828 59.6478 106.867 59.6872 106.916 59.6872H107.694C107.742 59.6872 107.782 59.6478 107.782 59.5993V59.2031C107.782 59.1546 107.742 59.1152 107.694 59.1152Z" fill="#46081A"/>
<path d="M79.0721 60.0688H78.2944C78.2459 60.0688 78.2065 60.1082 78.2065 60.1567V60.5529C78.2065 60.6014 78.2459 60.6408 78.2944 60.6408H79.0721C79.1206 60.6408 79.1599 60.6014 79.1599 60.5529V60.1567C79.1599 60.1082 79.1206 60.0688 79.0721 60.0688Z" fill="#46081A"/>
<path d="M80.9791 60.0688H80.2014C80.1529 60.0688 80.1135 60.1082 80.1135 60.1567V60.5529C80.1135 60.6014 80.1529 60.6408 80.2014 60.6408H80.9791C81.0276 60.6408 81.0669 60.6014 81.0669 60.5529V60.1567C81.0669 60.1082 81.0276 60.0688 80.9791 60.0688Z" fill="#46081A"/>
<path d="M82.8853 60.0688H82.1076C82.0591 60.0688 82.0198 60.1082 82.0198 60.1567V60.5529C82.0198 60.6014 82.0591 60.6408 82.1076 60.6408H82.8853C82.9338 60.6408 82.9732 60.6014 82.9732 60.5529V60.1567C82.9732 60.1082 82.9338 60.0688 82.8853 60.0688Z" fill="#46081A"/>
<path d="M84.7916 60.0688H84.0139C83.9654 60.0688 83.926 60.1082 83.926 60.1567V60.5529C83.926 60.6014 83.9654 60.6408 84.0139 60.6408H84.7916C84.8401 60.6408 84.8794 60.6014 84.8794 60.5529V60.1567C84.8794 60.1082 84.8401 60.0688 84.7916 60.0688Z" fill="#46081A"/>
<path d="M86.6988 60.0688H85.9211C85.8726 60.0688 85.8333 60.1082 85.8333 60.1567V60.5529C85.8333 60.6014 85.8726 60.6408 85.9211 60.6408H86.6988C86.7473 60.6408 86.7866 60.6014 86.7866 60.5529V60.1567C86.7866 60.1082 86.7473 60.0688 86.6988 60.0688Z" fill="#46081A"/>
<path d="M88.6048 60.0688H87.8271C87.7786 60.0688 87.7393 60.1082 87.7393 60.1567V60.5529C87.7393 60.6014 87.7786 60.6408 87.8271 60.6408H88.6048C88.6533 60.6408 88.6926 60.6014 88.6926 60.5529V60.1567C88.6926 60.1082 88.6533 60.0688 88.6048 60.0688Z" fill="#46081A"/>
<path d="M90.512 60.0688H89.7343C89.6858 60.0688 89.6465 60.1082 89.6465 60.1567V60.5529C89.6465 60.6014 89.6858 60.6408 89.7343 60.6408H90.512C90.5605 60.6408 90.5999 60.6014 90.5999 60.5529V60.1567C90.5999 60.1082 90.5605 60.0688 90.512 60.0688Z" fill="#46081A"/>
<path d="M92.4183 60.0688H91.6406C91.5921 60.0688 91.5527 60.1082 91.5527 60.1567V60.5529C91.5527 60.6014 91.5921 60.6408 91.6406 60.6408H92.4183C92.4668 60.6408 92.5061 60.6014 92.5061 60.5529V60.1567C92.5061 60.1082 92.4668 60.0688 92.4183 60.0688Z" fill="#46081A"/>
<path d="M94.3243 60.0688H93.5466C93.4981 60.0688 93.4587 60.1082 93.4587 60.1567V60.5529C93.4587 60.6014 93.4981 60.6408 93.5466 60.6408H94.3243C94.3728 60.6408 94.4121 60.6014 94.4121 60.5529V60.1567C94.4121 60.1082 94.3728 60.0688 94.3243 60.0688Z" fill="#46081A"/>
<path d="M96.2305 60.0688H95.4528C95.4043 60.0688 95.365 60.1082 95.365 60.1567V60.5529C95.365 60.6014 95.4043 60.6408 95.4528 60.6408H96.2305C96.279 60.6408 96.3184 60.6014 96.3184 60.5529V60.1567C96.3184 60.1082 96.279 60.0688 96.2305 60.0688Z" fill="#46081A"/>
<path d="M98.1378 60.0688H97.3601C97.3115 60.0688 97.2722 60.1082 97.2722 60.1567V60.5529C97.2722 60.6014 97.3115 60.6408 97.3601 60.6408H98.1378C98.1863 60.6408 98.2256 60.6014 98.2256 60.5529V60.1567C98.2256 60.1082 98.1863 60.0688 98.1378 60.0688Z" fill="#46081A"/>
<path d="M100.045 60.0688H99.267C99.2185 60.0688 99.1792 60.1082 99.1792 60.1567V60.5529C99.1792 60.6014 99.2185 60.6408 99.267 60.6408H100.045C100.093 60.6408 100.133 60.6014 100.133 60.5529V60.1567C100.133 60.1082 100.093 60.0688 100.045 60.0688Z" fill="#46081A"/>
<path d="M101.951 60.0688H101.173C101.125 60.0688 101.085 60.1082 101.085 60.1567V60.5529C101.085 60.6014 101.125 60.6408 101.173 60.6408H101.951C102 60.6408 102.039 60.6014 102.039 60.5529V60.1567C102.039 60.1082 102 60.0688 101.951 60.0688Z" fill="#46081A"/>
<path d="M103.857 60.0688H103.08C103.031 60.0688 102.992 60.1082 102.992 60.1567V60.5529C102.992 60.6014 103.031 60.6408 103.08 60.6408H103.857C103.906 60.6408 103.945 60.6014 103.945 60.5529V60.1567C103.945 60.1082 103.906 60.0688 103.857 60.0688Z" fill="#46081A"/>
<path d="M105.764 60.0688H104.987C104.938 60.0688 104.899 60.1082 104.899 60.1567V60.5529C104.899 60.6014 104.938 60.6408 104.987 60.6408H105.764C105.813 60.6408 105.852 60.6014 105.852 60.5529V60.1567C105.852 60.1082 105.813 60.0688 105.764 60.0688Z" fill="#46081A"/>
<path d="M107.671 60.0688H106.894C106.845 60.0688 106.806 60.1082 106.806 60.1567V60.5529C106.806 60.6014 106.845 60.6408 106.894 60.6408H107.671C107.72 60.6408 107.759 60.6014 107.759 60.5529V60.1567C107.759 60.1082 107.72 60.0688 107.671 60.0688Z" fill="#46081A"/>
<path d="M94.8967 61.2129H87.446C87.3975 61.2129 87.3582 61.2522 87.3582 61.3007V61.697C87.3582 61.7455 87.3975 61.7848 87.446 61.7848H94.8967C94.9452 61.7848 94.9845 61.7455 94.9845 61.697V61.3007C94.9845 61.2522 94.9452 61.2129 94.8967 61.2129Z" fill="#46081A"/>
<path d="M143.454 108.941L0.616753 109C0.276155 109 0 108.898 0 108.773C0 108.648 0.276155 108.546 0.616753 108.546L143.454 108.487C143.795 108.487 144.071 108.589 144.071 108.714C144.071 108.84 143.795 108.941 143.454 108.941Z" fill="#F9F9F9"/>
<path d="M119.532 11.267V46.0856C119.531 46.3287 119.435 46.5618 119.263 46.7337C119.091 46.9056 118.858 47.0023 118.615 47.0026H100.269C98.2398 45.1205 96.5748 42.8802 95.3578 40.3942C95.2777 40.2341 95.2015 40.0721 95.129 39.9082C94.0201 37.5018 93.3486 34.9172 93.1461 32.2753C93.1327 32.1133 93.1212 31.9513 93.1137 31.7873C93.0888 31.3679 93.0777 30.9427 93.0777 30.5157C93.074 27.6752 93.6104 24.86 94.6582 22.22C94.7212 22.056 94.7878 21.894 94.8563 21.7319C96.9651 16.7772 100.776 12.7396 105.6 10.3477H118.615C118.858 10.3482 119.091 10.4451 119.263 10.6172C119.435 10.7893 119.531 11.0225 119.532 11.2658V11.267Z" fill="#C9184A"/>
<path d="M115.999 15.145H67.3191C67.2678 15.145 67.2185 15.1246 67.1822 15.0883C67.1459 15.052 67.1255 15.0028 67.1255 14.9514C67.1255 14.9001 67.1459 14.8508 67.1822 14.8145C67.2185 14.7782 67.2678 14.7578 67.3191 14.7578H115.999C116.051 14.7578 116.1 14.7782 116.136 14.8145C116.172 14.8508 116.193 14.9001 116.193 14.9514C116.193 15.0028 116.172 15.052 116.136 15.0883C116.1 15.1246 116.051 15.145 115.999 15.145Z" fill="#CACACA"/>
<path d="M70.6335 13.7704C71.2601 13.7704 71.768 13.2511 71.768 12.6106C71.768 11.97 71.2601 11.4507 70.6335 11.4507C70.0069 11.4507 69.499 11.97 69.499 12.6106C69.499 13.2511 70.0069 13.7704 70.6335 13.7704Z" fill="#46081A"/>
<path d="M74.5532 13.7704C75.1797 13.7704 75.6877 13.2511 75.6877 12.6106C75.6877 11.97 75.1797 11.4507 74.5532 11.4507C73.9266 11.4507 73.4187 11.97 73.4187 12.6106C73.4187 13.2511 73.9266 13.7704 74.5532 13.7704Z" fill="#46081A"/>
<path d="M78.4712 13.7704C79.0977 13.7704 79.6056 13.2511 79.6056 12.6106C79.6056 11.97 79.0977 11.4507 78.4712 11.4507C77.8446 11.4507 77.3367 11.97 77.3367 12.6106C77.3367 13.2511 77.8446 13.7704 78.4712 13.7704Z" fill="#46081A"/>
<path d="M113.64 11.7378H110.856C110.8 11.7378 110.747 11.76 110.707 11.7995C110.667 11.8391 110.645 11.8927 110.645 11.9486C110.645 12.0045 110.667 12.0581 110.707 12.0977C110.747 12.1372 110.8 12.1594 110.856 12.1594H113.64C113.696 12.1594 113.75 12.1372 113.789 12.0977C113.829 12.0581 113.851 12.0045 113.851 11.9486C113.851 11.8927 113.829 11.8391 113.789 11.7995C113.75 11.76 113.696 11.7378 113.64 11.7378H113.64Z" fill="#46081A"/>
<path d="M113.64 12.5288H110.856C110.8 12.5288 110.747 12.551 110.707 12.5906C110.667 12.6301 110.645 12.6837 110.645 12.7396C110.645 12.7955 110.667 12.8491 110.707 12.8887C110.747 12.9282 110.8 12.9504 110.856 12.9504H113.64C113.696 12.9504 113.75 12.9282 113.789 12.8887C113.829 12.8491 113.851 12.7955 113.851 12.7396C113.851 12.6837 113.829 12.6301 113.789 12.5906C113.75 12.551 113.696 12.5288 113.64 12.5288H113.64Z" fill="#46081A"/>
<path d="M113.64 13.3193H110.856C110.8 13.3193 110.747 13.3415 110.707 13.3811C110.667 13.4206 110.645 13.4742 110.645 13.5301C110.645 13.586 110.667 13.6397 110.707 13.6792C110.747 13.7187 110.8 13.7409 110.856 13.7409H113.64C113.696 13.7409 113.75 13.7187 113.789 13.6792C113.829 13.6397 113.851 13.586 113.851 13.5301C113.851 13.4742 113.829 13.4206 113.789 13.3811C113.75 13.3415 113.696 13.3193 113.64 13.3193H113.64Z" fill="#46081A"/>
<path d="M81.9087 26.4551H75.7335C75.3021 26.4551 74.9524 26.8048 74.9524 27.2362V27.3285C74.9524 27.7599 75.3021 28.1096 75.7335 28.1096H81.9087C82.3401 28.1096 82.6898 27.7599 82.6898 27.3285V27.2362C82.6898 26.8048 82.3401 26.4551 81.9087 26.4551Z" fill="#C9184A"/>
<path d="M85.8382 29.7646H71.8041C71.3727 29.7646 71.0229 30.1144 71.0229 30.5458V30.6381C71.0229 31.0695 71.3727 31.4192 71.8041 31.4192H85.8382C86.2696 31.4192 86.6193 31.0695 86.6193 30.6381V30.5458C86.6193 30.1144 86.2696 29.7646 85.8382 29.7646Z" fill="#F9F9F9"/>
<path d="M85.8382 33.0732H71.8041C71.3727 33.0732 71.0229 33.423 71.0229 33.8543V33.9467C71.0229 34.3781 71.3727 34.7278 71.8041 34.7278H85.8382C86.2696 34.7278 86.6193 34.3781 86.6193 33.9467V33.8543C86.6193 33.423 86.2696 33.0732 85.8382 33.0732Z" fill="#F9F9F9"/>
<path d="M72.2966 45.0065C72.2977 45.688 72.1763 46.3642 71.9381 47.0028H66.5901C66.347 47.0025 66.1139 46.9058 65.942 46.7339C65.7701 46.5619 65.6734 46.3289 65.6731 46.0857V39.3591C65.9719 39.311 66.2741 39.2869 66.5768 39.2871C67.328 39.2871 68.0718 39.435 68.7658 39.7225C69.4598 40.0099 70.0903 40.4313 70.6215 40.9625C71.1526 41.4936 71.5739 42.1242 71.8613 42.8182C72.1487 43.5123 72.2966 44.2561 72.2966 45.0072V45.0065Z" fill="#C9184A"/>
<path opacity="0.2" d="M119.58 22.2215V21.7335H111.399V16.0762H110.912V21.7331H101.536V16.0762H101.05V21.7331H94.8568C94.7883 21.8951 94.7215 22.0572 94.6588 22.2212H101.05V31.7885H93.1143C93.1218 31.9525 93.1333 32.1145 93.1467 32.2765H101.05V39.9094H95.1294C95.2014 40.0733 95.2777 40.2353 95.3582 40.3954H101.049V46.8112H101.535V40.3949H110.912V46.8106H111.398V40.3949H119.579V39.9088H111.399V32.276H119.58V31.7879H111.399V22.2215H119.58ZM110.912 39.909H101.536V32.2762H110.912V39.909ZM110.912 31.7888H101.536V22.2215H110.912V31.7888Z" fill="#46081A"/>
<path d="M112.992 43.3904C112.888 43.3952 112.784 43.3678 112.696 43.3119C112.608 43.256 112.539 43.1744 112.498 43.0779C112.458 42.9815 112.448 42.8751 112.471 42.773C112.493 42.6709 112.546 42.5781 112.623 42.5072L112.658 42.3684L112.644 42.3351C112.539 42.0867 112.363 41.875 112.138 41.7264C111.912 41.5778 111.648 41.4991 111.379 41.5001C111.109 41.5011 110.846 41.5818 110.622 41.732C110.398 41.8822 110.223 42.0953 110.12 42.3444C109.707 43.3387 109.182 44.3346 109.052 45.3857C108.995 45.8503 109.019 46.3214 109.123 46.7778C108.154 44.6629 107.65 42.3642 107.647 40.0377C107.647 39.4538 107.679 38.8704 107.744 38.2902C107.798 37.8146 107.873 37.3423 107.968 36.8735C108.487 34.3294 109.603 31.945 111.223 29.9159C112.007 29.488 112.642 28.8301 113.04 28.0307C113.185 27.7433 113.287 27.4366 113.343 27.12C113.255 27.1315 113.165 27.138 113.077 27.1446L112.993 27.149H112.982C112.885 27.1535 112.788 27.1298 112.704 27.0807C112.62 27.0316 112.552 26.9591 112.508 26.8721C112.464 26.7851 112.447 26.6873 112.457 26.5905C112.468 26.4937 112.506 26.4021 112.568 26.3266L112.683 26.1857C112.741 26.1137 112.8 26.0417 112.858 25.9696C112.865 25.9627 112.871 25.9554 112.876 25.9479C112.943 25.8652 113.01 25.784 113.076 25.7014C112.955 25.5124 112.791 25.3541 112.598 25.2388C111.929 24.8472 111.007 25.1183 110.524 25.723C110.041 26.3277 109.948 27.176 110.117 27.9315C110.282 28.5744 110.556 29.1844 110.926 29.7355C110.89 29.7819 110.852 29.8267 110.816 29.8732C110.153 30.7253 109.575 31.6404 109.091 32.6052C109.209 31.5243 109.068 30.4309 108.681 29.4149C108.289 28.468 107.553 27.6707 106.905 26.8521C106.127 25.8688 104.531 26.298 104.394 27.5443C104.393 27.5563 104.391 27.5683 104.39 27.5803C104.486 27.6345 104.58 27.6921 104.673 27.7531C104.788 27.8305 104.878 27.941 104.93 28.0702C104.982 28.1994 104.994 28.3413 104.963 28.4772C104.933 28.6131 104.863 28.7368 104.761 28.832C104.66 28.9272 104.532 28.9895 104.394 29.0107L104.38 29.0129C104.414 29.3597 104.475 29.7034 104.561 30.041C104.812 30.9835 105.254 31.8642 105.861 32.6277C106.467 33.3913 107.225 34.0213 108.086 34.4783C108.143 34.5073 108.198 34.5362 108.255 34.5638C107.768 35.9424 107.463 37.3785 107.347 38.8358C107.281 39.6956 107.285 40.5593 107.358 41.4184L107.354 41.388C107.168 40.4326 106.659 39.5706 105.911 38.9475C104.801 38.0353 103.232 37.6994 102.034 36.9663C101.907 36.8846 101.759 36.8409 101.608 36.8405C101.456 36.8401 101.308 36.883 101.18 36.9642C101.053 37.0453 100.951 37.1613 100.887 37.2984C100.823 37.4355 100.799 37.5881 100.819 37.7381C100.821 37.7488 100.823 37.7594 100.824 37.7701C101.003 37.8429 101.177 37.9267 101.345 38.0211C101.441 38.0753 101.535 38.1329 101.628 38.1939C101.743 38.2713 101.833 38.3818 101.885 38.511C101.937 38.6402 101.948 38.7821 101.918 38.918C101.888 39.0539 101.818 39.1776 101.716 39.2728C101.614 39.368 101.486 39.4303 101.349 39.4515L101.335 39.4537L101.306 39.458C101.611 40.1865 102.039 40.857 102.572 41.4402C103.23 42.1462 104.025 42.7104 104.909 43.0981C105.792 43.4859 106.746 43.689 107.711 43.6951H107.712C107.974 44.8335 108.354 45.9415 108.845 47.0014H112.891C112.905 46.9564 112.918 46.9099 112.931 46.8651C112.557 46.8887 112.181 46.8663 111.812 46.7985C112.112 46.4302 112.412 46.059 112.712 45.6906C112.718 45.6837 112.724 45.6765 112.73 45.6689C112.882 45.4804 113.036 45.2933 113.188 45.1049C113.196 44.527 113.129 43.9505 112.99 43.3896L112.992 43.3904ZM108.359 34.2765L108.361 34.2736L108.359 34.2794V34.2765ZM107.463 42.3551L107.428 42.2767C107.43 42.2202 107.43 42.1637 107.428 42.1055C107.428 42.0895 107.425 42.0737 107.425 42.0577C107.439 42.1578 107.45 42.2578 107.465 42.3578L107.463 42.3551Z" fill="#46081A"/>
<path d="M31.8221 16.5762L31.7771 16.1358L32.3799 13.1034L36.7487 13.3806L36.8702 17.3389L31.8221 16.5762Z" fill="#ED9DA0"/>
<path d="M40.3891 8.20731C39.9914 6.26219 39.8008 5.26578 38.3549 3.88971C38.0119 3.93832 38.4449 5.71691 36.5547 8.19453C33.8061 11.7962 34.0801 8.4939 33.2673 9.60336C33.0909 9.84423 33.0527 10.7132 33.1107 11.0122C33.3399 12.1935 34.6949 11.0401 33.2673 15.0823C33.0547 15.3966 32.8043 15.3203 32.4846 15.3163C32.4599 15.3163 32.622 15.2852 32.0149 15.1597C31.7253 15.0999 31.3197 15.0292 30.8336 14.9473C25.1864 13.9958 23.1923 6.8703 27.5573 3.16315C28.5504 2.31976 29.5251 1.68051 30.3713 1.38419C32.9208 0.492915 38.7277 1.0724 39.8422 3.96802C40.3673 5.31542 40.5548 6.7708 40.3885 8.20731H40.3891Z" fill="#46081A" stroke="#46081A" stroke-width="2"/>
<path d="M28.7585 19.645C30.9829 19.645 32.7861 17.8418 32.7861 15.6174C32.7861 13.3931 30.9829 11.5898 28.7585 11.5898C26.5342 11.5898 24.731 13.3931 24.731 15.6174C24.731 17.8418 26.5342 19.645 28.7585 19.645Z" fill="#46081A" stroke="#46081A" stroke-width="2"/>
<path d="M34.0905 14.6073C34.689 14.6073 35.2631 14.3695 35.6864 13.9462C36.1097 13.5229 36.3474 12.9489 36.3474 12.3503C36.3474 11.7517 36.1097 11.1776 35.6864 10.7543C35.2631 10.3311 34.689 10.0933 34.0905 10.0933V10.3944C34.5746 10.3948 35.0413 10.5749 35.4002 10.8998C35.7591 11.2246 35.9846 11.6712 36.0331 12.1528C36.0816 12.6345 35.9496 13.117 35.6626 13.5069C35.3757 13.8968 34.9542 14.1663 34.4799 14.2631C34.0056 14.36 33.5122 14.2774 33.0954 14.0313C32.6785 13.7852 32.3678 13.3931 32.2235 12.931C32.0793 12.4689 32.1116 11.9697 32.3144 11.5301C32.5172 11.0905 32.8759 10.7418 33.321 10.5516L33.2024 10.2747C32.7244 10.4793 32.3316 10.8426 32.0905 11.3033C31.8494 11.764 31.7747 12.2938 31.8791 12.8032C31.9835 13.3125 32.2605 13.7703 32.6634 14.099C33.0663 14.4277 33.5703 14.6072 34.0903 14.6073H34.0905Z" fill="#C9184A"/>
<path d="M43.1076 94.2543C43.1076 94.2543 45.4577 92.8746 45.7072 95.3576L46.2065 100.325C46.2065 100.325 49.7056 104.188 46.7019 104.217C43.6983 104.246 39.4886 98.6238 39.4886 98.6238C39.4886 98.6238 36.4327 94.2586 37.5436 93.8097C38.6546 93.3609 41.8737 91.1998 41.802 92.0892C41.7304 92.9787 43.1076 94.2543 43.1076 94.2543Z" fill="#46081A"/>
</svg>
