<svg width="122" height="118" viewBox="0 0 122 118" fill="none" xmlns="http://www.w3.org/2000/svg">
<g clip-path="url(#clip0_426_18658)">
<path d="M71.3313 115.297H68.1687L66.3354 98.502H71.2224L71.3313 115.297Z" fill="#ED9DA0"/>
<path d="M65.0908 117.998C64.7581 117.998 64.4616 117.991 64.2392 117.97C63.3998 117.893 62.5982 117.277 62.1959 116.917C62.1078 116.838 62.0465 116.734 62.0205 116.619C61.9945 116.504 62.0051 116.384 62.0507 116.275C62.084 116.197 62.1345 116.127 62.1987 116.07C62.2628 116.014 62.3388 115.972 62.4212 115.949L64.64 115.319L68.2337 112.908L68.2745 112.98C68.47 113.327 68.6325 113.69 68.7601 114.066C68.7839 114.132 68.7931 114.202 68.7871 114.271C68.7811 114.341 68.76 114.408 68.7253 114.469C68.6843 114.53 68.6266 114.578 68.559 114.607C68.624 114.675 68.8282 114.812 69.4559 114.911C70.3741 115.056 70.5647 114.111 70.5737 114.072L70.5798 114.041L70.607 114.023C71.0441 113.743 71.3119 113.617 71.4041 113.644C71.4615 113.661 71.5584 113.691 71.8184 116.262C71.9454 116.662 71.9744 117.087 71.9031 117.501C71.7685 118.118 69.0626 117.906 68.5212 117.856C68.506 117.857 66.4809 118 65.0923 118L65.0908 117.998Z" fill="#46081A"/>
<path d="M63.0571 115.297H59.896L58.0627 98.502H62.9497L63.0571 115.297Z" fill="#ED9DA0"/>
<path d="M56.2354 117.999C55.8746 117.999 55.553 117.991 55.3118 117.969C54.4013 117.885 53.5317 117.217 53.0953 116.827C52.9997 116.741 52.9332 116.628 52.905 116.503C52.8768 116.378 52.8882 116.248 52.9377 116.13C52.9739 116.045 53.0287 115.969 53.0983 115.908C53.1679 115.846 53.2504 115.801 53.3398 115.776L55.7467 115.092L59.6448 112.477L59.6892 112.555C59.9012 112.93 60.0775 113.325 60.2158 113.733C60.2416 113.804 60.2516 113.88 60.2451 113.955C60.2385 114.031 60.2157 114.104 60.178 114.17C60.1335 114.236 60.0708 114.288 59.9975 114.32C60.068 114.393 60.2895 114.542 60.9705 114.649C61.9663 114.806 62.1731 113.782 62.183 113.739L62.1895 113.705L62.2191 113.685C62.6913 113.382 62.9837 113.245 63.0838 113.274C63.1461 113.292 63.2513 113.325 63.5333 116.114C63.6708 116.549 63.7021 117.009 63.6247 117.458C63.4788 118.127 60.5435 117.897 59.9561 117.843C59.9396 117.845 57.7427 118 56.2367 118L56.2354 117.999Z" fill="#46081A"/>
<path d="M121.823 6.31935H0.176562C0.129735 6.31935 0.0848234 6.30085 0.0517115 6.26793C0.0185996 6.23501 0 6.19036 0 6.1438C0 6.09725 0.0185996 6.0526 0.0517115 6.01968C0.0848234 5.98676 0.129735 5.96826 0.176562 5.96826H121.823C121.87 5.96826 121.915 5.98676 121.948 6.01968C121.981 6.0526 122 6.09725 122 6.1438C122 6.19036 121.981 6.23501 121.948 6.26793C121.915 6.30085 121.87 6.31935 121.823 6.31935Z" fill="#CACACA"/>
<path d="M4.15044 3.86194C5.22308 3.86194 6.09263 2.99742 6.09263 1.93097C6.09263 0.864526 5.22308 0 4.15044 0C3.0778 0 2.20825 0.864526 2.20825 1.93097C2.20825 2.99742 3.0778 3.86194 4.15044 3.86194Z" fill="#46081A"/>
<path d="M10.8597 3.86194C11.9323 3.86194 12.8019 2.99742 12.8019 1.93097C12.8019 0.864526 11.9323 0 10.8597 0C9.78703 0 8.91748 0.864526 8.91748 1.93097C8.91748 2.99742 9.78703 3.86194 10.8597 3.86194Z" fill="#46081A"/>
<path d="M17.5689 3.86194C18.6415 3.86194 19.5111 2.99742 19.5111 1.93097C19.5111 0.864526 18.6415 0 17.5689 0C16.4963 0 15.6267 0.864526 15.6267 1.93097C15.6267 2.99742 16.4963 3.86194 17.5689 3.86194Z" fill="#46081A"/>
<path d="M117.804 1.18118H113.036C112.943 1.18118 112.853 1.14419 112.787 1.07835C112.721 1.0125 112.683 0.923205 112.683 0.830091C112.683 0.736977 112.721 0.647676 112.787 0.581834C112.853 0.515993 112.943 0.479004 113.036 0.479004H117.804C117.897 0.479004 117.987 0.515993 118.053 0.581834C118.119 0.647676 118.157 0.736977 118.157 0.830091C118.157 0.923205 118.119 1.0125 118.053 1.07835C117.987 1.14419 117.897 1.18118 117.804 1.18118Z" fill="#46081A"/>
<path d="M117.804 2.49758H113.036C112.943 2.49758 112.853 2.46059 112.787 2.39475C112.721 2.32891 112.683 2.23961 112.683 2.1465C112.683 2.05338 112.721 1.96408 112.787 1.89824C112.853 1.8324 112.943 1.79541 113.036 1.79541H117.804C117.897 1.79541 117.987 1.8324 118.053 1.89824C118.119 1.96408 118.157 2.05338 118.157 2.1465C118.157 2.23961 118.119 2.32891 118.053 2.39475C117.987 2.46059 117.897 2.49758 117.804 2.49758Z" fill="#46081A"/>
<path d="M117.804 3.81399H113.036C112.943 3.81399 112.853 3.777 112.787 3.71116C112.721 3.64532 112.683 3.55602 112.683 3.4629C112.683 3.36979 112.721 3.28049 112.787 3.21465C112.853 3.14881 112.943 3.11182 113.036 3.11182H117.804C117.897 3.11182 117.987 3.14881 118.053 3.21465C118.119 3.28049 118.157 3.36979 118.157 3.4629C118.157 3.55602 118.119 3.64532 118.053 3.71116C117.987 3.777 117.897 3.81399 117.804 3.81399Z" fill="#46081A"/>
<path d="M115.144 14.2578H3.66479V72.9799H115.144V14.2578Z" fill="#F0F0F0"/>
<path d="M115.144 25.2488V24.6733H93.4431V14.2573H92.8642V24.6733H71.1633V14.2573H70.5844V24.6733H48.8835V14.2573H48.3046V24.6733H26.6038V14.2573H26.0249V24.6733H3.66479V25.2488H26.0246V36.7557H3.66479V37.3313H26.0246V48.8382H3.66479V49.4138H26.0246V60.9186H3.66479V61.4941H26.0246V72.978H26.6035V61.4959H48.3043V72.9798H48.8832V61.4959H70.5841V72.9798H71.163V61.4959H92.8639V72.9798H93.4428V61.4959H115.143V60.9204H93.4431V49.4151H115.144V48.8396H93.4431V37.3324H115.144V36.7568H93.4431V25.2488H115.144ZM48.3043 60.9193H26.6038V49.4151H48.3043V60.9193ZM48.3043 48.8387H26.6038V37.3324H48.3043V48.8387ZM48.3043 36.7559H26.6038V25.2488H48.3043V36.7559ZM70.5841 60.9195H48.8835V49.4151H70.5841V60.9195ZM70.5841 48.8388H48.8835V37.3324H70.5841V48.8388ZM70.5841 36.7561H48.8835V25.2488H70.5841V36.7561ZM92.8639 60.9196H71.1633V49.4151H92.8639V60.9196ZM92.8639 48.839H71.1633V37.3324H92.8639V48.839ZM92.8639 36.7562H71.1633V25.2496H92.8639V36.7562Z" fill="#F9F9F9"/>
<path d="M38.3786 28.0479H30.9207V35.2263H38.3786V28.0479Z" fill="#CACACA"/>
<path d="M107.042 51.292H99.584V58.4705H107.042V51.292Z" fill="#CACACA"/>
<path d="M40.6955 63.2285H33.2375V70.407H40.6955V63.2285Z" fill="#CACACA"/>
<path d="M42.8996 26.7158H35.4417V33.8943H42.8996V26.7158Z" fill="#C9184A"/>
<path d="M77.958 56.5559L86.8082 48.7163L89.4192 50.0025L78.8046 61.0714L77.958 56.5559Z" fill="#ED9DA0"/>
<path d="M87.9732 51.4108C89.1365 51.4108 90.0795 50.4733 90.0795 49.3168C90.0795 48.1602 89.1365 47.2227 87.9732 47.2227C86.8099 47.2227 85.8669 48.1602 85.8669 49.3168C85.8669 50.4733 86.8099 51.4108 87.9732 51.4108Z" fill="#ED9DA0"/>
<path d="M71.4329 69.657C71.4329 69.657 76.6986 69.2677 75.0129 77.8307C73.3273 86.3937 71.9932 110.22 71.9932 110.22H66.6741L64.8047 78.9733L63.3904 110.22L58.1551 109.818L55.4256 76.2739C55.4256 76.2739 54.1604 73.5768 55.4256 71.7149C56.6908 69.853 71.4329 69.657 71.4329 69.657Z" fill="#46081A"/>
<path d="M68.063 46.8314L69.5255 46.0528C69.5255 46.0528 73.1274 45.7473 74.5973 49.9541L78.4957 55.8082L84.8145 50.3636L87.5527 52.2483L79.5886 61.6976C79.5886 61.6976 78.8955 64.3165 76.2773 62.1182C73.6592 59.9199 69.1161 52.9042 69.1161 52.9042L68.063 46.8314Z" fill="#46081A"/>
<path d="M62.758 29.8418C56.7515 29.8418 55.0703 36.4019 55.0703 40.1028C55.0703 43.8037 58.5123 43.244 62.758 43.244C64.5805 43.244 66.2536 43.3462 67.572 43.1712L68.2057 41.6327L68.7158 42.9076C69.7974 42.5125 70.4466 41.7095 70.4466 40.1028C70.4457 36.4019 68.9718 29.8418 62.758 29.8418Z" fill="#46081A"/>
<path d="M60.6277 41.5684H65.0913L65.9956 47.4317H60.6277V41.5684Z" fill="#ED9DA0"/>
<path d="M62.7323 43.2378C65.5893 43.2378 67.9054 40.935 67.9054 38.0945C67.9054 35.2539 65.5893 32.9512 62.7323 32.9512C59.8752 32.9512 57.5591 35.2539 57.5591 38.0945C57.5591 40.935 59.8752 43.2378 62.7323 43.2378Z" fill="#ED9DA0"/>
<path d="M56.7551 37.5896H58.8012L59.7038 35.0767L59.8844 37.5896H60.8622L61.3887 36.1237L61.494 37.5896H68.7606C68.7606 36.1456 68.1837 34.7607 67.1567 33.7397C66.1297 32.7186 64.7368 32.145 63.2844 32.145H62.2313C60.7789 32.145 59.386 32.7186 58.3591 33.7397C57.3321 34.7607 56.7551 36.1456 56.7551 37.5896Z" fill="#46081A"/>
<path d="M91.343 41.3745H83.885V48.553H91.343V41.3745Z" fill="#C9184A"/>
<path d="M73.0696 67.7623C72.2753 67.7724 69.8829 53.6587 69.8829 53.6587L69.5248 46.0524L66.9106 45.9657V45.7949C66.9106 45.4516 66.7734 45.1224 66.5293 44.8796C66.2851 44.6369 65.954 44.5005 65.6087 44.5005H60.6302C60.2995 44.5006 59.9813 44.626 59.7403 44.8511C59.4992 45.0762 59.3534 45.3841 59.3326 45.7122L57.2827 45.6434L53.7332 56.858C53.7332 56.858 57.0047 67.2785 55.4257 71.8703C55.4257 71.8703 70.8091 73.1838 73.7542 70.2685C73.7533 70.2688 73.8639 67.7521 73.0696 67.7623Z" fill="#46081A"/>
<path d="M58.1636 47.041L57.2824 45.6438C57.2824 45.6438 54.4159 44.9392 53.2357 46.8278C52.0555 48.7163 45.096 56.7636 48.5865 58.9495C52.0771 61.1353 52.1665 60.2066 52.1665 60.2066L56.2301 54.5423L58.1636 47.041Z" fill="#46081A"/>
<path d="M67.1213 54.3579H59.6633V61.5364H67.1213V54.3579Z" fill="#C9184A"/>
<path d="M53.9412 56.9523L51.3466 56.6797C51.1827 57.0272 51.1005 57.4072 51.1062 57.791C51.1119 58.1748 51.2053 58.5522 51.3794 58.8948C51.5534 59.2374 51.8036 59.5361 52.1109 59.7684C52.4182 60.0007 52.7746 60.1604 53.1532 60.2355L63.4197 62.2727L62.3487 58.9935L53.9412 56.9523Z" fill="#ED9DA0"/>
<path d="M63.4507 62.3103C64.614 62.3103 65.557 61.3727 65.557 60.2162C65.557 59.0596 64.614 58.1221 63.4507 58.1221C62.2875 58.1221 61.3445 59.0596 61.3445 60.2162C61.3445 61.3727 62.2875 62.3103 63.4507 62.3103Z" fill="#ED9DA0"/>
<path d="M60.8213 62.3743L52.9998 60.5974C52.4331 60.4671 51.9097 60.1935 51.4805 59.8031C51.0513 59.4127 50.7307 58.9188 50.5498 58.3691L50.2336 57.3997L52.2636 55.8115L61.5632 58.3957L60.8213 62.3743Z" fill="#46081A"/>
<path d="M83.1263 118H44.3645C44.3082 118 44.2627 117.906 44.2627 117.791C44.2627 117.675 44.3084 117.581 44.3645 117.581H83.1263C83.1825 117.581 83.228 117.675 83.228 117.791C83.228 117.906 83.1822 118 83.1263 118Z" fill="#F9F9F9"/>
</g>
<defs>
<clipPath id="clip0_426_18658">
<rect width="122" height="118" fill="white"/>
</clipPath>
</defs>
</svg>
