<svg width="126" height="82" viewBox="0 0 126 82" fill="none" xmlns="http://www.w3.org/2000/svg">
<g clip-path="url(#clip0_426_18047)">
<path d="M125.054 53.5516H76.411C76.1602 53.5514 75.9198 53.4501 75.7424 53.2702C75.5651 53.0902 75.4654 52.8462 75.4651 52.5916V1.46001C75.4654 1.20548 75.5651 0.961467 75.7424 0.781493C75.9198 0.601519 76.1602 0.500284 76.411 0.5H125.054C125.305 0.500284 125.545 0.601518 125.723 0.781493C125.9 0.961467 126 1.20548 126 1.46001V52.5916C126 52.8462 125.9 53.0902 125.723 53.2702C125.545 53.4501 125.305 53.5514 125.054 53.5516ZM76.411 0.834711C76.2476 0.8349 76.091 0.90084 75.9755 1.01806C75.86 1.13529 75.7951 1.29422 75.7949 1.46001V52.5916C75.7951 52.7574 75.86 52.9164 75.9755 53.0336C76.091 53.1508 76.2476 53.2167 76.411 53.2169H125.054C125.218 53.2167 125.374 53.1508 125.49 53.0336C125.605 52.9164 125.67 52.7574 125.67 52.5916V1.46001C125.67 1.29422 125.605 1.13529 125.49 1.01806C125.374 0.90084 125.218 0.8349 125.054 0.834711H76.411Z" fill="#46081A"/>
<path d="M109.901 21.9894C110.988 24.0266 111.386 26.3696 111.034 28.6585C110.682 30.9475 109.6 33.0559 107.953 34.6602C106.306 36.2644 104.186 37.2758 101.918 37.539C99.6504 37.8022 97.3601 37.3027 95.399 36.1172C93.4379 34.9317 91.9144 33.1257 91.0624 30.9765C90.2103 28.8272 90.0769 26.4536 90.6825 24.22C91.2881 21.9864 92.5994 20.0162 94.4149 18.612C96.2304 17.2078 98.4498 16.4471 100.732 16.4468C100.815 16.4468 100.898 16.4481 100.98 16.45L100.87 11.9305C100.824 11.9301 100.778 11.9287 100.732 11.9287C97.4482 11.9297 94.2566 13.034 91.6558 15.0694C89.055 17.1048 87.1913 19.9568 86.3554 23.1802C85.5196 26.4037 85.7586 29.8173 87.0353 32.8883C88.3119 35.9594 90.5544 38.5151 93.4127 40.1568C96.271 41.7984 99.5844 42.4335 102.836 41.963C106.087 41.4926 109.094 39.943 111.386 37.556C113.678 35.1691 115.128 32.0792 115.508 28.7684C115.888 25.4576 115.177 22.1122 113.487 19.2542L109.901 21.9894Z" fill="#C9184A"/>
<path d="M109.901 21.9896L113.487 19.2544C112.178 17.0396 110.33 15.2031 108.121 13.9208C105.911 12.6384 103.415 11.9532 100.87 11.9307L100.98 16.4502C102.816 16.4938 104.608 17.0292 106.175 18.0019C107.741 18.9747 109.027 20.3504 109.901 21.9896Z" fill="#F9F9F9"/>
<path d="M108.305 39.9849L108.121 40.1699L113.344 45.5215L113.528 45.3365L108.305 39.9849Z" fill="#46081A"/>
<path d="M111.658 7.22576L108.027 13.7959L108.253 13.9245L111.884 7.3544L111.658 7.22576Z" fill="#46081A"/>
<path d="M117.345 47.496H109.636C109.499 47.4959 109.368 47.4406 109.271 47.3422C109.174 47.2439 109.119 47.1106 109.119 46.9715V45.8697C109.119 45.7306 109.174 45.5973 109.271 45.499C109.368 45.4007 109.499 45.3454 109.636 45.3452H117.345C117.482 45.3454 117.613 45.4007 117.71 45.499C117.807 45.5973 117.862 45.7306 117.862 45.8697V46.9715C117.862 47.1106 117.807 47.2439 117.71 47.3422C117.613 47.4406 117.482 47.4958 117.345 47.496Z" fill="#C9184A"/>
<path d="M115.391 7.38426H107.682C107.545 7.38409 107.413 7.32878 107.316 7.23046C107.219 7.13215 107.165 6.99885 107.165 6.85981V5.75785C107.165 5.61881 107.219 5.48551 107.316 5.38719C107.413 5.28888 107.545 5.23357 107.682 5.2334H115.391C115.528 5.23357 115.659 5.28888 115.756 5.38719C115.853 5.48551 115.907 5.61881 115.907 5.75785V6.85981C115.907 6.99885 115.853 7.13215 115.756 7.23047C115.659 7.32878 115.528 7.38409 115.391 7.38426Z" fill="#F9F9F9"/>
<path d="M67.6892 24.9127H12.7177C12.4788 24.9124 12.2497 24.816 12.0808 24.6445C11.9118 24.4731 11.8168 24.2406 11.8165 23.9981V1.58205C11.8168 1.33958 11.9118 1.10711 12.0808 0.935656C12.2497 0.764201 12.4788 0.667756 12.7177 0.66748H67.6892C67.9281 0.667764 68.1571 0.764211 68.326 0.935666C68.495 1.10712 68.59 1.33958 68.5903 1.58205V23.9981C68.59 24.2406 68.495 24.473 68.326 24.6445C68.1571 24.8159 67.9281 24.9124 67.6892 24.9127ZM12.7177 1.00219C12.5662 1.00236 12.421 1.0635 12.3138 1.17221C12.2067 1.28092 12.1465 1.42831 12.1463 1.58205V23.9981C12.1465 24.1518 12.2067 24.2992 12.3138 24.4079C12.421 24.5167 12.5662 24.5778 12.7177 24.578H67.6892C67.8406 24.5778 67.9859 24.5166 68.093 24.4079C68.2001 24.2992 68.2603 24.1518 68.2605 23.9981V1.58205C68.2603 1.42832 68.2001 1.28093 68.093 1.17223C67.9859 1.06352 67.8406 1.00237 67.6892 1.00219H12.7177Z" fill="#46081A"/>
<path d="M34.1463 19.3494H28.8202C28.6841 19.3491 28.5525 19.2998 28.4489 19.2103C28.3452 19.1208 28.2762 18.9968 28.2542 18.8605C27.9068 16.5704 27.9068 14.2399 28.2542 11.9498C28.2762 11.8135 28.3452 11.6895 28.4489 11.6C28.5525 11.5105 28.6841 11.4612 28.8202 11.4609H34.1463C34.2326 11.4607 34.3178 11.4804 34.3955 11.5186C34.4732 11.5568 34.5412 11.6124 34.5945 11.6813C34.6489 11.7512 34.6869 11.8328 34.7056 11.9198C34.7243 12.0069 34.7232 12.0971 34.7024 12.1836C34.2042 14.3015 34.2041 16.5087 34.7023 18.6267C34.7232 18.7132 34.7243 18.8034 34.7056 18.8905C34.6869 18.9775 34.6489 19.0591 34.5945 19.129C34.5412 19.1979 34.4732 19.2535 34.3955 19.2917C34.3178 19.3299 34.2326 19.3496 34.1463 19.3494Z" fill="#F9F9F9"/>
<path d="M51.9791 19.3494H46.653C46.5169 19.3491 46.3853 19.2998 46.2817 19.2103C46.178 19.1208 46.109 18.9968 46.087 18.8605C45.7396 16.5704 45.7396 14.2399 46.087 11.9498C46.109 11.8135 46.178 11.6895 46.2817 11.6C46.3853 11.5105 46.5169 11.4612 46.653 11.4609H51.9791C52.0654 11.4607 52.1507 11.4804 52.2283 11.5186C52.306 11.5568 52.374 11.6125 52.4273 11.6814C52.4817 11.7513 52.5197 11.8328 52.5384 11.9199C52.5571 12.0069 52.556 12.0971 52.5351 12.1836C52.0369 14.3016 52.0369 16.5087 52.5351 18.6267C52.556 18.7132 52.5571 18.8034 52.5384 18.8904C52.5197 18.9775 52.4817 19.059 52.4273 19.1289C52.374 19.1978 52.306 19.2535 52.2283 19.2917C52.1506 19.3299 52.0654 19.3496 51.9791 19.3494Z" fill="#F9F9F9"/>
<path d="M25.087 14.1189H19.7609C19.6248 14.1186 19.4932 14.0694 19.3895 13.9798C19.2859 13.8903 19.2169 13.7664 19.1949 13.6301C18.8475 11.34 18.8475 9.00939 19.1949 6.7193C19.2169 6.58299 19.2859 6.45904 19.3895 6.36952C19.4932 6.28001 19.6248 6.23073 19.7609 6.23047H25.087C25.1733 6.2302 25.2585 6.2499 25.3362 6.28809C25.4138 6.32628 25.4819 6.38195 25.5352 6.45086C25.5896 6.52075 25.6276 6.60232 25.6463 6.68936C25.665 6.77641 25.6639 6.86663 25.6431 6.95317C25.1448 9.07107 25.1448 11.2783 25.643 13.3962C25.6639 13.4827 25.665 13.573 25.6463 13.66C25.6276 13.747 25.5896 13.8286 25.5352 13.8985C25.4819 13.9674 25.4138 14.0231 25.3362 14.0613C25.2585 14.0995 25.1733 14.1192 25.087 14.1189Z" fill="#C9184A"/>
<path d="M43.0991 14.1189H37.773C37.6867 14.1192 37.6014 14.0995 37.5238 14.0613C37.4461 14.023 37.3781 13.9674 37.3248 13.8984C37.2704 13.8285 37.2324 13.747 37.2137 13.66C37.195 13.5729 37.1961 13.4827 37.217 13.3962C37.7152 11.2783 37.7152 9.07108 37.217 6.95317C37.1961 6.86665 37.195 6.77644 37.2137 6.68941C37.2324 6.60238 37.2704 6.52082 37.3248 6.45094C37.378 6.38201 37.4461 6.32632 37.5238 6.28811C37.6014 6.24991 37.6867 6.23019 37.773 6.23047H43.0991C43.2352 6.23073 43.3668 6.28001 43.4704 6.36953C43.5741 6.45905 43.643 6.583 43.6651 6.7193C44.0125 9.00939 44.0125 11.34 43.6651 13.6301C43.643 13.7664 43.5741 13.8903 43.4704 13.9798C43.3668 14.0694 43.2352 14.1186 43.0991 14.1189Z" fill="#C9184A"/>
<path d="M60.646 14.1189H55.3199C55.2336 14.1192 55.1483 14.0995 55.0707 14.0613C54.993 14.023 54.9249 13.9674 54.8717 13.8984C54.8172 13.8285 54.7792 13.747 54.7606 13.66C54.7419 13.5729 54.743 13.4827 54.7639 13.3962C55.2621 11.2783 55.2621 9.07108 54.7638 6.95317C54.743 6.86665 54.7419 6.77644 54.7605 6.6894C54.7792 6.60237 54.8172 6.52082 54.8717 6.45094C54.9249 6.38201 54.993 6.32632 55.0707 6.28811C55.1483 6.24991 55.2336 6.23019 55.3199 6.23047H60.646C60.7821 6.23075 60.9137 6.28003 61.0173 6.36955C61.121 6.45906 61.1899 6.583 61.212 6.7193C61.5594 9.0094 61.5594 11.34 61.212 13.6301C61.19 13.7664 61.121 13.8903 61.0173 13.9798C60.9137 14.0693 60.7821 14.1186 60.646 14.1189Z" fill="#66454C"/>
<path d="M30.9902 53.9642C30.7365 53.9118 30.4971 53.8035 30.2891 53.647C30.081 53.4905 29.9093 53.2896 29.786 53.0585C29.6627 52.8273 29.5909 52.5716 29.5755 52.3092C29.5601 52.0468 29.6017 51.7842 29.6971 51.5399L22.3865 35.6091L26.0951 34.5513L32.1216 50.5628C32.5154 50.7528 32.8268 51.0827 32.9969 51.4902C33.167 51.8976 33.184 52.3542 33.0445 52.7735C32.9051 53.1928 32.6189 53.5456 32.2403 53.765C31.8617 53.9845 31.4169 54.0554 30.9902 53.9642Z" fill="#A0616A"/>
<path d="M16.8325 79.3851H18.8541L19.8158 71.4712H16.8322L16.8325 79.3851Z" fill="#A0616A"/>
<path d="M22.7529 81.29L16.3993 81.2903L16.3992 78.7989L20.298 78.7988C20.9491 78.7987 21.5735 79.0612 22.0339 79.5284C22.4942 79.9956 22.7529 80.6293 22.7529 81.29Z" fill="#46081A"/>
<path d="M6.32446 77.1735L8.18269 77.9814L12.1372 71.0912L9.39451 69.8989L6.32446 77.1735Z" fill="#A0616A"/>
<path d="M11.0276 81.2905L5.18717 78.7517L6.15367 76.4615L9.73757 78.0194C10.336 78.2796 10.8082 78.7704 11.0501 79.3838C11.292 79.9973 11.2839 80.6831 11.0276 81.2905Z" fill="#46081A"/>
<path d="M21.8308 28.1354C24.0676 28.1354 25.8808 26.2951 25.8808 24.025C25.8808 21.7548 24.0676 19.9146 21.8308 19.9146C19.594 19.9146 17.7808 21.7548 17.7808 24.025C17.7808 26.2951 19.594 28.1354 21.8308 28.1354Z" fill="#A0616A"/>
<path d="M18.9048 77.4506L16.6794 77.0203C16.4964 76.986 16.333 76.8828 16.2219 76.7313C16.1108 76.5799 16.0601 76.3915 16.08 76.2038L17.5558 61.6005C17.5699 61.4612 17.5343 61.3214 17.4555 61.2064C17.3768 61.0914 17.26 61.0089 17.1264 60.9737C16.9928 60.9386 16.8512 60.9532 16.7274 61.0149C16.6035 61.0767 16.5055 61.1814 16.4511 61.3101L10.0084 76.5674C9.96968 76.6591 9.9134 76.742 9.84283 76.8114C9.77226 76.8808 9.6888 76.9353 9.59732 76.9718C9.50583 77.0082 9.40812 77.0258 9.30987 77.0236C9.21162 77.0213 9.11479 76.9993 9.02499 76.9588L7.21495 76.1423C7.04597 76.0668 6.91094 75.9299 6.83643 75.7585C6.76192 75.5871 6.75332 75.3935 6.81233 75.216L11.2187 61.7996C11.2311 61.7619 11.2397 61.7229 11.2443 61.6834L12.6747 49.4251C12.6903 49.2913 12.7409 49.1642 12.8214 49.057C12.9019 48.9498 13.0093 48.8666 13.1323 48.8158L17.6485 46.9538C17.7821 46.8987 17.9287 46.8843 18.0702 46.9124C18.2118 46.9405 18.3422 47.0098 18.4455 47.1119L24.1461 52.7453C24.2349 52.8326 24.3007 52.9413 24.3374 53.0612C24.3741 53.1811 24.3806 53.3084 24.3562 53.4315L19.7715 76.8575C19.7375 77.0283 19.6465 77.1819 19.5138 77.2924C19.3811 77.4029 19.2148 77.4634 19.0432 77.4638C18.9967 77.4639 18.9504 77.4594 18.9048 77.4506Z" fill="#46081A"/>
<path d="M16.3677 50.1009C15.5787 49.1738 15.0029 48.7529 14.6091 48.8193C14.2184 48.8834 13.993 49.4374 13.7543 50.0239C13.4285 50.8246 13.0593 51.7321 12.1491 51.8031C12.0074 51.8278 11.8617 51.8115 11.7287 51.7562C11.5957 51.7009 11.4807 51.6086 11.3968 51.4901C10.6809 50.4095 12.3981 46.8336 12.555 46.5123L12.4744 29.5992C12.4733 29.4628 12.5089 29.3286 12.5772 29.2111C12.6456 29.0936 12.7442 28.9972 12.8624 28.9323C17.5812 26.3497 23.9529 30.8412 25.1822 31.768C25.2806 31.8419 25.3594 31.9395 25.4115 32.0519C25.4636 32.1643 25.4874 32.288 25.4808 32.4121C25.3324 35.2447 24.5925 49.5359 24.5925 52.7239C24.5925 53.6064 24.2926 54.1671 23.701 54.3904C23.5013 54.4623 23.2905 54.4974 23.0786 54.494C21.2737 54.494 18.3176 52.3923 16.3677 50.1009Z" fill="#CCCCCC"/>
<path d="M22.9529 41.8885C22.8543 41.8234 22.7725 41.7352 22.7144 41.6314C22.6564 41.5275 22.6238 41.411 22.6194 41.2916L22.2998 33.7162C22.2801 33.2498 22.4245 32.7915 22.7073 32.4233C22.9901 32.0551 23.3928 31.8011 23.8432 31.7067C24.2937 31.6122 24.7625 31.6836 25.1659 31.9079C25.5693 32.1322 25.8809 32.4949 26.0449 32.931L28.4371 39.2933C28.507 39.4799 28.5012 39.6871 28.4208 39.8694C28.3404 40.0516 28.1921 40.194 28.0084 40.2654L23.6253 41.963C23.5155 42.0062 23.3972 42.0219 23.2802 42.0089C23.1632 41.996 23.0509 41.9547 22.9529 41.8885Z" fill="#CCCCCC"/>
<path d="M11.8146 53.7252C11.5998 53.5785 11.4192 53.3857 11.2856 53.1606C11.1521 52.9354 11.0688 52.6832 11.0417 52.4218C11.0145 52.1604 11.0442 51.8962 11.1286 51.6477C11.2129 51.3992 11.35 51.1725 11.53 50.9836L10.7566 33.4272L14.5825 33.8845L14.1384 51.0185C14.431 51.3465 14.595 51.7721 14.5992 52.2145C14.6034 52.657 14.4475 53.0857 14.1611 53.4194C13.8746 53.753 13.4776 53.9684 13.0451 54.0248C12.6126 54.0811 12.1748 53.9745 11.8146 53.7252Z" fill="#A0616A"/>
<path d="M9.15794 38.1023C9.08859 38.0059 9.04312 37.8938 9.02537 37.7758C9.00761 37.6577 9.0181 37.537 9.05593 37.4239L11.4185 30.2306C11.5639 29.7877 11.8599 29.4118 12.2535 29.1701C12.647 28.9285 13.1125 28.8368 13.5665 28.9116C14.0205 28.9864 14.4335 29.2227 14.7316 29.5783C15.0297 29.9338 15.1933 30.3855 15.1933 30.8523V37.6621C15.1931 37.8617 15.1148 38.0531 14.9757 38.1943C14.8366 38.3355 14.648 38.4149 14.4513 38.4152H9.75992C9.64222 38.4158 9.5261 38.3877 9.42134 38.3333C9.31657 38.2788 9.22623 38.1996 9.15794 38.1023Z" fill="#CCCCCC"/>
<path d="M19.2153 26.7897C19.0637 26.9102 18.8743 26.9713 18.6819 26.9615C18.4896 26.9518 18.3071 26.872 18.168 26.7367C17.3 25.9132 16.5675 24.9286 16.1967 23.7882C15.7719 22.4815 15.8804 20.9511 16.694 19.8503C17.3817 18.9198 18.4702 18.3941 19.5424 17.9832C19.961 17.8035 20.4032 17.687 20.855 17.6372C21.3114 17.5892 21.7687 17.7195 22.1337 18.0016C22.3116 18.1458 22.4426 18.341 22.5095 18.5618C22.5764 18.7827 22.5762 19.0188 22.5089 19.2396C23.0588 18.7327 23.7296 18.3805 24.4549 18.2178C24.914 18.0943 25.3992 18.1147 25.8467 18.2764C26.4685 18.5359 26.8724 19.1698 27.0585 19.8255C27.2125 20.3257 27.2249 20.8597 27.0945 21.3667C27.0276 21.6188 26.9092 21.8538 26.7472 22.0565C26.5851 22.2592 26.3829 22.4252 26.1536 22.5436C25.5847 22.8156 24.9096 22.7129 24.3148 22.5058C23.7199 22.2988 23.156 21.9932 22.5407 21.8611C21.9255 21.729 21.2151 21.8061 20.7798 22.2667C20.4732 22.591 20.3525 23.0473 20.2428 23.4827L19.6725 25.7477C19.6095 26.0776 19.4891 26.3935 19.3168 26.6805C19.288 26.7214 19.2538 26.7581 19.2153 26.7897Z" fill="#46081A"/>
<path d="M35.6405 59.4724H30.3143C30.1782 59.4721 30.0467 59.4229 29.943 59.3333C29.8394 59.2438 29.7704 59.1199 29.7484 58.9836C29.4009 56.6935 29.4009 54.3629 29.7484 52.0728C29.7704 51.9365 29.8394 51.8126 29.943 51.7231C30.0467 51.6335 30.1782 51.5843 30.3143 51.584H35.6405C35.7268 51.5837 35.812 51.6034 35.8897 51.6416C35.9674 51.6798 36.0354 51.7355 36.0887 51.8045C36.1431 51.8743 36.1811 51.9559 36.1998 52.0429C36.2185 52.13 36.2173 52.2202 36.1965 52.3067C35.6983 54.4246 35.6983 56.6318 36.1965 58.7497C36.2173 58.8362 36.2185 58.9264 36.1998 59.0135C36.1811 59.1005 36.1431 59.1821 36.0887 59.2519C36.0354 59.3209 35.9674 59.3766 35.8897 59.4148C35.812 59.453 35.7268 59.4727 35.6405 59.4724Z" fill="#C9184A"/>
<path d="M26.7133 81.5002H0.164897C0.121163 81.5002 0.0792212 81.4826 0.048297 81.4512C0.0173729 81.4198 0 81.3773 0 81.3329C0 81.2885 0.0173729 81.2459 0.048297 81.2145C0.0792212 81.1832 0.121163 81.1655 0.164897 81.1655H26.7133C26.757 81.1655 26.799 81.1832 26.8299 81.2145C26.8608 81.2459 26.8782 81.2885 26.8782 81.3329C26.8782 81.3773 26.8608 81.4198 26.8299 81.4512C26.799 81.4826 26.757 81.5002 26.7133 81.5002Z" fill="#46081A"/>
</g>
<defs>
<clipPath id="clip0_426_18047">
<rect width="126" height="81" fill="white" transform="translate(0 0.5)"/>
</clipPath>
</defs>
</svg>
