<svg width="503" height="230" viewBox="0 0 503 230" fill="none" xmlns="http://www.w3.org/2000/svg">
<g clip-path="url(#clip0_398_2906)">
<path d="M462.437 129.919C474.891 129.919 484.987 119.833 484.987 107.392C484.987 94.9503 474.891 84.8645 462.437 84.8645C449.983 84.8645 439.887 94.9503 439.887 107.392C439.887 119.833 449.983 129.919 462.437 129.919Z" fill="#F2F2F2"/>
<path d="M462.437 113.32C465.715 113.32 468.372 110.666 468.372 107.392C468.372 104.118 465.715 101.463 462.437 101.463C459.16 101.463 456.503 104.118 456.503 107.392C456.503 110.666 459.16 113.32 462.437 113.32Z" fill="#E6E6E6"/>
<path d="M461.353 107.518C463.853 109.556 464.614 112.766 464.149 115.867C463.578 119.267 461.812 122.353 459.168 124.57C456.196 127.209 452.57 128.993 449.071 130.819C445.857 132.458 442.767 134.331 439.829 136.424C428.577 144.594 420.076 156.226 415.211 169.207C410.354 182.166 409.051 196.875 412.742 210.306C414.568 216.951 418.262 224.12 425.143 226.621C430.629 228.614 438.118 227.33 440.911 221.682C443.911 215.616 439.725 208.796 434.333 205.784C427.344 201.88 418.995 204.733 412.708 208.685C405.787 213.035 400.223 219.279 392.997 223.178C389.745 224.989 386.125 226.044 382.408 226.264C378.995 226.398 375.588 225.872 372.374 224.715C365.706 222.289 359.966 217.838 355.959 211.987C351.369 205.322 349.315 197.152 348.94 189.148C348.102 171.241 355.183 154.489 360.864 137.883C363.918 129.235 366.205 120.336 367.7 111.289C369.122 102.196 369.628 92.9828 369.211 83.7887C368.835 75.659 368.032 67.1577 364.44 59.7327C361.282 53.2037 355.51 47.8602 348.212 46.513C344.922 45.868 341.514 46.2592 338.456 47.6324C337.415 48.1068 338.319 49.6401 339.355 49.1681C345.813 46.225 353.446 49.0886 358.216 53.8406C363.786 59.3897 365.832 67.5844 366.74 75.1458C368.781 93.0657 367.173 111.213 362.012 128.496C357.058 145.303 349.267 161.41 347.469 179.019C346.649 187.055 347.07 195.362 349.641 203.067C351.847 209.931 355.983 216.015 361.556 220.594C366.804 224.832 373.259 227.719 380.054 228.041C387.682 228.402 394.372 225.005 400.29 220.485C406.628 215.645 412.46 209.673 420.138 206.959C423.638 205.722 427.625 205.145 431.219 206.336C434.303 207.388 436.918 209.489 438.609 212.271C440.17 214.864 440.746 218.106 439.321 220.891C437.982 223.51 435.368 225.025 432.538 225.543C429.541 226.073 426.454 225.549 423.8 224.06C420.7 222.291 418.432 219.323 416.843 216.187C413.673 209.933 412.609 202.488 412.447 195.547C412.306 188.766 413.175 182.002 415.027 175.478C418.713 162.279 426.152 150.432 436.444 141.373C439.036 139.117 441.81 137.077 444.736 135.274C447.929 133.308 451.337 131.737 454.592 129.882C457.794 128.057 460.95 125.877 463.156 122.873C465.036 120.299 466.051 117.196 466.056 114.01C466.09 112.545 465.798 111.09 465.203 109.75C464.607 108.41 463.723 107.219 462.612 106.261C461.731 105.543 460.465 106.794 461.353 107.518Z" fill="#CCCCCC"/>
<path d="M250.833 211.135C258.718 216.227 267.84 219.083 277.223 219.399C277.055 219.796 276.867 220.184 276.659 220.561C275.567 222.576 274.023 224.31 272.149 225.63C269.93 227.19 267.324 228.112 264.617 228.294C261.909 228.476 259.203 227.912 256.795 226.663C254.386 225.414 252.367 223.528 250.958 221.211C249.549 218.895 248.804 216.236 248.804 213.525V211.135H250.833Z" fill="#3F3D56"/>
<path d="M306.182 211.835V213.525C306.183 216.814 305.087 220.01 303.068 222.607C301.048 225.205 298.219 227.056 295.029 227.869C291.838 228.681 288.467 228.409 285.449 227.094C282.431 225.779 279.937 223.497 278.362 220.609C278.145 220.222 277.949 219.825 277.775 219.417C278.208 219.429 278.635 219.435 279.068 219.435C288.635 219.446 298.018 216.816 306.182 211.835Z" fill="#3F3D56"/>
<path d="M326.145 33.1703C325.7 33.1051 325.249 33.0636 324.798 33.0339C329.923 44.8328 330.278 58.1552 325.789 70.2098C326.24 70.1564 326.685 70.0853 327.13 70.0023C331.476 69.1611 335.382 66.8065 338.153 63.3578C340.924 59.909 342.38 55.5899 342.262 51.1692C342.143 46.7486 340.459 42.5133 337.507 39.2173C334.556 35.9213 330.53 33.7785 326.145 33.1703Z" fill="#3F3D56"/>
<path d="M233.339 33.0339C232.888 33.0636 232.437 33.1051 231.992 33.1703C227.607 33.7784 223.581 35.9213 220.629 39.2173C217.678 42.5133 215.993 46.7486 215.875 51.1692C215.757 55.5899 217.213 59.909 219.984 63.3578C222.755 66.8065 226.661 69.1611 231.007 70.0023C231.452 70.0853 231.897 70.1564 232.348 70.2098C227.859 58.1552 228.214 44.8328 233.339 33.0339Z" fill="#3F3D56"/>
<path d="M326.145 33.1703C321.256 21.5035 312.201 12.0686 300.738 6.69858C289.275 1.32857 276.223 0.406872 264.118 4.11255C252.013 7.81823 241.719 15.8867 235.236 26.7504C228.753 37.6142 226.544 50.4975 229.037 62.8975C231.531 75.2975 238.55 86.3288 248.73 93.8483C258.91 101.368 271.525 104.839 284.123 103.586C296.722 102.334 308.404 96.4483 316.902 87.0723C325.399 77.6964 330.104 65.4998 330.103 52.852C330.101 46.0944 328.755 39.4045 326.145 33.1703ZM325.789 70.2098C321.448 81.867 312.896 91.4788 301.817 97.1534C290.738 102.828 277.934 104.154 265.925 100.872C253.917 97.5886 243.573 89.9342 236.93 79.4149C230.287 68.8956 227.826 56.2732 230.031 44.0322C232.237 31.7912 238.949 20.8183 248.847 13.273C258.744 5.72772 271.111 2.1567 283.512 3.26277C295.913 4.36885 307.45 10.0719 315.853 19.2494C324.256 28.427 328.916 40.4143 328.916 52.852C328.914 58.7776 327.855 64.6554 325.789 70.2098Z" fill="#3F3D56"/>
<path d="M305.179 41.292H252.958C250.203 41.292 247.562 42.385 245.614 44.3306C243.667 46.2762 242.573 48.9149 242.573 51.6664C242.573 54.4178 243.667 57.0566 245.614 59.0022C247.562 60.9477 250.203 62.0408 252.958 62.0408H305.179C307.933 62.0408 310.575 60.9477 312.522 59.0022C314.47 57.0566 315.564 54.4178 315.564 51.6664C315.564 48.9149 314.47 46.2762 312.522 44.3306C310.575 42.385 307.933 41.292 305.179 41.292Z" fill="#3F3D56"/>
<path d="M279.068 113.913C265.117 113.919 251.722 119.379 241.748 129.124C231.775 138.87 226.015 152.127 225.7 166.061C225.385 179.994 230.541 193.498 240.064 203.683C249.587 213.868 262.722 219.926 276.659 220.561C277.223 220.591 277.793 220.609 278.362 220.609C278.6 220.621 278.831 220.621 279.068 220.621C293.233 220.621 306.818 214.999 316.834 204.994C326.85 194.988 332.477 181.417 332.477 167.267C332.477 153.116 326.85 139.545 316.834 129.54C306.818 119.534 293.233 113.913 279.068 113.913ZM306.182 211.835C298.018 216.816 288.635 219.446 279.068 219.435C278.635 219.435 278.208 219.429 277.775 219.417C277.591 219.417 277.407 219.411 277.223 219.399C264.683 218.964 252.718 214.035 243.516 205.514C234.314 196.992 228.489 185.447 227.105 172.989C225.721 160.53 228.871 147.99 235.98 137.661C243.088 127.331 253.68 119.902 265.82 116.731C277.959 113.56 290.836 114.859 302.096 120.391C313.356 125.922 322.247 135.316 327.145 146.857C332.043 158.398 332.62 171.313 328.771 183.244C324.922 195.175 316.904 205.323 306.182 211.835Z" fill="#3F3D56"/>
<path d="M316.553 154.126H293.212C291.585 154.126 290.026 153.48 288.876 152.332C287.726 151.183 287.08 149.625 287.08 148C287.08 146.375 287.726 144.817 288.876 143.668C290.026 142.519 291.585 141.874 293.212 141.874H316.553C318.18 141.874 319.739 142.519 320.889 143.668C322.039 144.817 322.685 146.375 322.685 148C322.685 149.625 322.039 151.183 320.889 152.332C319.739 153.48 318.18 154.126 316.553 154.126Z" fill="#3F3D56"/>
<path d="M294.768 151.109C296.487 151.109 297.88 149.717 297.88 148C297.88 146.283 296.487 144.891 294.768 144.891C293.049 144.891 291.656 146.283 291.656 148C291.656 149.717 293.049 151.109 294.768 151.109Z" fill="#F2F2F2"/>
<path d="M304.882 151.109C306.601 151.109 307.995 149.717 307.995 148C307.995 146.283 306.601 144.891 304.882 144.891C303.164 144.891 301.77 146.283 301.77 148C301.77 149.717 303.164 151.109 304.882 151.109Z" fill="#F2F2F2"/>
<path d="M314.997 151.109C316.716 151.109 318.109 149.717 318.109 148C318.109 146.283 316.716 144.891 314.997 144.891C313.278 144.891 311.885 146.283 311.885 148C311.885 149.717 313.278 151.109 314.997 151.109Z" fill="#C9184A"/>
<path d="M97.6931 226.779C103.029 222.274 106.271 215.158 105.421 208.23C104.571 201.303 99.3058 194.935 92.4763 193.463C85.6467 191.992 77.8616 196.065 75.7872 202.729C74.6456 189.88 73.3301 176.493 66.4917 165.55C60.2997 155.642 49.5751 148.553 37.952 147.285C26.329 146.016 14.0914 150.807 6.84248 159.971C-0.406405 169.136 -2.18127 182.459 2.89566 192.981C6.63566 200.732 13.5261 206.5 20.7455 211.193C43.7779 226.165 72.3496 231.224 99.536 227.227L97.6931 226.779Z" fill="#F2F2F2"/>
<path d="M18.3363 151.072C27.9268 158.876 36.7251 167.603 44.6038 177.129C52.4838 186.645 59.4214 196.902 65.3189 207.756C68.6154 213.845 71.5766 220.108 74.1895 226.519C74.7223 227.824 72.6024 228.391 72.0756 227.102C67.4475 215.799 61.7217 204.976 54.9803 194.79C48.2716 184.64 40.5931 175.164 32.0527 166.495C27.2223 161.594 22.1257 156.962 16.7862 152.621C15.6917 151.73 17.2509 150.189 18.3363 151.072Z" fill="white"/>
<path d="M95.8838 39.6263C106.044 39.6263 114.28 31.3984 114.28 21.2488C114.28 11.0992 106.044 2.87134 95.8838 2.87134C85.7238 2.87134 77.4875 11.0992 77.4875 21.2488C77.4875 31.3984 85.7238 39.6263 95.8838 39.6263Z" fill="#2F2E41"/>
<path d="M164.494 88.5407C164.141 89.0704 163.712 89.5444 163.219 89.9473C162.509 90.5319 161.684 90.96 160.797 91.2037C159.91 91.4474 158.981 91.5011 158.072 91.3613C157.163 91.2215 156.294 90.8914 155.521 90.3925C154.749 89.8937 154.09 89.2374 153.589 88.4667C153.473 88.2871 153.367 88.1015 153.271 87.9107L124.282 85.1167C121.994 84.8875 119.841 83.9274 118.143 82.3789C116.444 80.8304 115.291 78.7761 114.854 76.521L113.209 67.8556L124.522 66.0974L126.552 73.0385L154.816 79.974C155.035 79.7821 155.267 79.6057 155.51 79.4463C156.771 78.6289 158.276 78.2711 159.77 78.4333C161.264 78.5954 162.657 79.2676 163.712 80.3363C164.768 81.405 165.422 82.8048 165.565 84.2995C165.707 85.7943 165.329 87.2922 164.494 88.5407Z" fill="#FFB8B8"/>
<path d="M127.247 71.9909L114.609 75.4013C113.926 75.5849 113.197 75.4902 112.583 75.1378C111.969 74.7854 111.52 74.2042 111.335 73.5216L106.909 57.1527C106.435 55.3993 106.627 53.5327 107.449 51.9126C108.271 50.2926 109.664 49.034 111.36 48.3794C113.056 47.7249 114.934 47.7207 116.633 48.3678C118.332 49.0149 119.731 50.2674 120.56 51.8838L128.927 68.199C129.109 68.5527 129.209 68.9425 129.22 69.3398C129.232 69.7371 129.154 70.1319 128.993 70.4954C128.832 70.8588 128.591 71.1817 128.289 71.4405C127.987 71.6992 127.631 71.8873 127.247 71.9909Z" fill="#2F2E41"/>
<path d="M119.927 222.294H127.202L130.663 194.261L119.925 194.262L119.927 222.294Z" fill="#FFB8B8"/>
<path d="M141.233 229.042L118.368 229.043L118.367 220.218L132.398 220.217C134.741 220.217 136.988 221.147 138.645 222.802C140.302 224.457 141.233 226.702 141.233 229.042Z" fill="#2F2E41"/>
<path d="M55.083 215.211L61.8896 217.778L75.0412 192.774L64.9956 188.985L55.083 215.211Z" fill="#FFB8B8"/>
<path d="M72.6295 229.043L51.2384 220.975L54.3589 212.718L67.4853 217.669C69.6773 218.496 71.4507 220.159 72.4154 222.292C73.3801 224.425 73.4572 226.853 72.6295 229.043Z" fill="#2F2E41"/>
<path d="M119.697 215.783C119.133 215.783 118.584 215.604 118.128 215.272C117.672 214.94 117.333 214.473 117.16 213.937L98.604 156.691C98.549 156.522 98.4442 156.372 98.3032 156.263C98.1622 156.153 97.9916 156.089 97.8134 156.078C97.6352 156.066 97.4577 156.109 97.304 156.2C97.1503 156.29 97.0274 156.425 96.9514 156.586L71.2356 211.245C70.957 211.836 70.4713 212.305 69.8704 212.562C69.2695 212.819 68.5949 212.848 67.9745 212.642L57.8465 209.269C57.2033 209.053 56.666 208.602 56.3434 208.005C56.0209 207.409 55.9371 206.713 56.1091 206.057L71.8613 146.451C73.5096 140.137 74.7002 133.712 75.4239 127.227C76.5286 116.548 81.5403 106.653 89.4981 99.4375C92.9727 96.2574 95.2314 91.9686 95.8868 87.3067L95.9293 87.0085L118.998 90.6471L133.61 209.762C133.686 210.399 133.53 211.043 133.171 211.575C132.812 212.107 132.273 212.493 131.654 212.662L120.394 215.69C120.167 215.752 119.932 215.783 119.697 215.783Z" fill="#2F2E41"/>
<path d="M103.192 39.5389C111.241 39.5389 117.767 33.02 117.767 24.9785C117.767 16.9371 111.241 10.4182 103.192 10.4182C95.1422 10.4182 88.6166 16.9371 88.6166 24.9785C88.6166 33.02 95.1422 39.5389 103.192 39.5389Z" fill="#FFB8B8"/>
<path d="M117.564 93.1869C117.519 93.1869 117.473 93.1857 117.427 93.1834L94.5589 92.0412C93.9206 92.0124 93.3141 91.7547 92.8506 91.3153C92.3871 90.8759 92.0978 90.2843 92.0356 89.6491L88.9116 59.2206C88.6829 56.9923 89.0031 54.7419 89.8444 52.6656C90.6857 50.5892 92.0225 48.7499 93.7383 47.3078C95.4542 45.8658 97.497 44.8648 99.6888 44.3921C101.881 43.9194 104.155 43.9893 106.313 44.5958C108.102 45.0851 109.768 45.9415 111.207 47.1103C127.293 60.3079 122.106 84.2199 120.133 91.2342C119.979 91.796 119.644 92.2915 119.179 92.6444C118.715 92.9972 118.148 93.1878 117.564 93.1869Z" fill="#C9184A"/>
<path d="M97.6698 113.619C97.0331 113.619 96.4 113.524 95.7913 113.338C94.911 113.071 94.0969 112.622 93.4025 112.019C92.7081 111.416 92.1491 110.674 91.762 109.84C91.3749 109.007 91.1684 108.101 91.1563 107.182C91.1441 106.263 91.3264 105.352 91.6912 104.508C91.7766 104.313 91.8724 104.121 91.978 103.935L78.2489 78.2773C77.1726 76.2474 76.7802 73.9249 77.13 71.6546C77.4797 69.3843 78.553 67.2872 80.1904 65.6746L86.5008 59.5061L94.2329 67.9417L89.5727 73.4751L99.4485 100.824C99.7297 100.9 100.005 100.995 100.273 101.11C101.653 101.705 102.784 102.759 103.477 104.091C104.169 105.424 104.38 106.954 104.074 108.424C103.769 109.894 102.964 111.214 101.798 112.16C100.631 113.107 99.1728 113.622 97.6698 113.619Z" fill="#FFB8B8"/>
<path d="M90.8308 73.4726L80.9882 64.8508C80.4564 64.3839 80.1317 63.7253 80.0853 63.0196C80.039 62.3138 80.2748 61.6185 80.7409 61.0862L91.9312 48.3376C93.1298 46.972 94.7921 46.0981 96.5975 45.8843C98.4029 45.6706 100.224 46.1322 101.709 47.1801C103.193 48.2281 104.237 49.7881 104.639 51.5594C105.041 53.3307 104.772 55.1879 103.884 56.7728L94.9217 72.7697C94.7274 73.1166 94.458 73.4157 94.1332 73.6452C93.8083 73.8747 93.4362 74.0287 93.0441 74.0961C92.652 74.1635 92.2497 74.1425 91.8668 74.0346C91.4838 73.9267 91.1299 73.7347 90.8308 73.4726Z" fill="#2F2E41"/>
<path d="M93.8127 39.122C95.1425 39.593 96.7728 40.0083 97.8193 39.0314C98.8409 38.0776 98.6548 36.3334 98.0529 35.0485C97.4511 33.7636 96.5177 32.6201 96.2316 31.2215C95.8214 29.2171 96.8819 27.1348 98.3956 25.828C99.9094 24.5212 101.815 23.8347 103.675 23.1742L113.878 19.551C116.403 18.6541 119.125 17.6006 120.538 15.2404C122.583 11.8254 120.714 6.94386 117.359 4.95113C114.005 2.9584 109.768 3.32963 106.149 4.73083C104.147 5.5058 102.243 6.57371 100.173 7.11925C96.088 8.19591 91.4429 7.23003 87.8529 9.53113C84.7278 11.5342 83.2783 15.6214 83.3836 19.4457C83.4888 23.2699 84.8983 26.912 86.3851 30.4095C87.2696 32.4902 88.2144 34.5949 89.7126 36.2499C91.2108 37.9048 93.3758 39.0626 95.5384 38.7581L93.8127 39.122Z" fill="#2F2E41"/>
<path d="M80.4547 24.2129C87.0095 24.2129 92.3232 18.9046 92.3232 12.3564C92.3232 5.80831 87.0095 0.5 80.4547 0.5C73.8999 0.5 68.5862 5.80831 68.5862 12.3564C68.5862 18.9046 73.8999 24.2129 80.4547 24.2129Z" fill="#2F2E41"/>
<path d="M176.715 80.798L176.505 80.7691L177.298 75.0052C177.42 74.1204 177.185 73.2236 176.644 72.512C176.104 71.8003 175.303 71.3322 174.418 71.2106L162.193 69.5319C161.308 69.4103 160.41 69.6451 159.697 70.1847C158.985 70.7243 158.516 71.5246 158.395 72.4093L154.043 104.031C153.922 104.916 154.157 105.812 154.697 106.524C155.237 107.236 156.038 107.704 156.924 107.825L169.148 109.504C170.034 109.626 170.932 109.391 171.644 108.851C172.356 108.312 172.825 107.511 172.947 106.627L175.94 84.8719L176.151 84.9008L176.715 80.798Z" fill="#3F3D56"/>
<path d="M174.033 72.9015L172.511 72.6925C172.558 72.8736 172.559 73.0633 172.515 73.2448C172.47 73.4264 172.382 73.5944 172.258 73.7338C172.133 73.8733 171.976 73.98 171.801 74.0446C171.625 74.1092 171.436 74.1297 171.251 74.1042L164.571 73.1869C164.386 73.1614 164.209 73.0908 164.058 72.9813C163.906 72.8718 163.784 72.7267 163.702 72.5588C163.62 72.391 163.58 72.2055 163.586 72.0187C163.593 71.832 163.645 71.6496 163.739 71.4878L162.317 71.2926C162.005 71.2497 161.687 71.2687 161.382 71.3485C161.077 71.4283 160.791 71.5673 160.539 71.7576C160.288 71.948 160.077 72.1859 159.918 72.4578C159.758 72.7297 159.654 73.0302 159.611 73.3423L155.467 103.46C155.38 104.09 155.548 104.729 155.932 105.236C156.317 105.743 156.888 106.077 157.519 106.163L169.235 107.772C169.866 107.859 170.505 107.691 171.013 107.307C171.52 106.923 171.854 106.353 171.941 105.722L176.085 75.6045C176.172 74.9742 176.004 74.3354 175.62 73.8285C175.235 73.3216 174.664 72.9882 174.033 72.9015Z" fill="white"/>
<path d="M165.724 97.9066C169.329 97.9066 172.252 94.987 172.252 91.3855C172.252 87.7841 169.329 84.8645 165.724 84.8645C162.119 84.8645 159.196 87.7841 159.196 91.3855C159.196 94.987 162.119 97.9066 165.724 97.9066Z" fill="#C9184A"/>
<path d="M165.077 93.873C164.93 93.8733 164.787 93.8259 164.67 93.7379L164.662 93.7324L163.128 92.5591C163.057 92.5049 162.997 92.4371 162.952 92.3596C162.907 92.2821 162.877 92.1965 162.865 92.1077C162.853 92.0188 162.859 91.9285 162.882 91.8419C162.905 91.7553 162.945 91.674 163 91.6029C163.054 91.5317 163.122 91.472 163.2 91.4273C163.278 91.3825 163.364 91.3534 163.453 91.3418C163.542 91.3303 163.632 91.3363 163.719 91.3597C163.805 91.3831 163.886 91.4234 163.957 91.4782L164.951 92.2393L167.299 89.1801C167.354 89.1092 167.421 89.0496 167.499 89.0049C167.576 88.9602 167.662 88.9311 167.751 88.9194C167.839 88.9077 167.93 88.9136 168.016 88.9367C168.103 88.9598 168.184 88.9997 168.255 89.0541C168.398 89.1641 168.492 89.3267 168.516 89.5057C168.539 89.6846 168.491 89.8656 168.381 90.009L165.619 93.6073C165.555 93.6903 165.473 93.7574 165.379 93.8034C165.285 93.8495 165.182 93.8733 165.077 93.873Z" fill="white"/>
<path d="M502.293 229.5H4.2341C4.04706 229.5 3.86787 229.425 3.7358 229.293C3.60373 229.16 3.52956 228.981 3.52956 228.794C3.52956 228.607 3.60373 228.428 3.7358 228.296C3.86787 228.164 4.04706 228.089 4.2341 228.088H502.293C502.481 228.088 502.661 228.163 502.793 228.295C502.926 228.428 503 228.607 503 228.794C503 228.981 502.926 229.161 502.793 229.293C502.661 229.426 502.481 229.5 502.293 229.5Z" fill="#CCCCCC"/>
</g>
<defs>
<clipPath id="clip0_398_2906">
<rect width="503" height="229" fill="white" transform="translate(0 0.5)"/>
</clipPath>
</defs>
</svg>
