<svg width="308" height="625" viewBox="0 0 308 625" fill="none" xmlns="http://www.w3.org/2000/svg">
<path d="M70.3084 213.955C63.9809 207.517 55.53 205.563 51.4335 209.59C47.3369 213.617 49.1446 222.098 55.4753 228.537C57.9678 231.143 61.0482 233.115 64.4589 234.288L91.6121 261.226L103.983 248.217L75.9009 223.042C74.7878 219.609 72.8686 216.494 70.3038 213.955H70.3084Z" fill="#ED9DA0"/>
<path d="M157.147 191.719L128.678 254.865L83.2129 230.263L66.9463 238.898C66.9463 238.898 104.11 301.017 129.556 293.946C155.002 286.874 200.187 222.752 192.048 202.963C183.909 183.174 157.149 191.716 157.149 191.716L157.147 191.719Z" fill="#E6E6E6"/>
<path d="M169.63 612.559H148.871L138.997 532.503H169.635L169.63 612.559Z" fill="#ED9DA0"/>
<path d="M98.5079 612.088C97.8619 613.176 97.5205 616.689 97.5205 617.955C97.5205 619.823 98.2628 621.615 99.5841 622.936C100.905 624.257 102.697 624.999 104.566 624.999H168.854C169.485 624.999 170.11 624.875 170.693 624.633C171.276 624.392 171.806 624.038 172.252 623.592C172.699 623.145 173.053 622.616 173.294 622.033C173.536 621.45 173.66 620.825 173.66 620.193V617.518C173.66 617.518 176.84 609.473 170.293 599.562C170.293 599.562 162.155 607.324 149.995 595.166L146.409 588.671L120.453 607.65L106.066 609.423C102.918 609.814 100.129 609.363 98.5087 612.089L98.5079 612.088Z" fill="#383838"/>
<path d="M153.922 195.771L153.503 167.778L170.767 157.016L189.541 179.979L153.922 195.771Z" fill="#ED9DA0"/>
<path d="M153.868 176.488C170.827 176.488 184.575 162.743 184.575 145.787C184.575 128.832 170.827 115.086 153.868 115.086C136.909 115.086 123.161 128.832 123.161 145.787C123.161 162.743 136.909 176.488 153.868 176.488Z" fill="#ED9DA0"/>
<path d="M111.99 380.877L140.595 575.49H176.483L171.711 464.399L169.199 405.986L176.483 378.181C178.796 373.752 180.839 369.188 182.601 364.513C185.755 356.059 188.245 345.924 184.548 341.117C183.187 339.345 179.65 338.034 174.843 337.056C171.521 336.41 168.167 335.933 164.797 335.626C143.573 333.526 113.384 334.838 113.384 334.838L112.617 360.159L112.192 374.296L111.989 380.873L111.99 380.877Z" fill="#383838"/>
<path d="M206.197 603.041L185.66 606.058L164.24 528.29L194.55 523.838L206.197 603.041Z" fill="#ED9DA0"/>
<path d="M135.764 612.919C135.283 614.091 135.456 617.615 135.64 618.867C135.912 620.716 136.907 622.38 138.407 623.495C139.906 624.61 141.787 625.084 143.636 624.812L207.24 615.463C208.501 615.277 209.637 614.599 210.397 613.576C211.158 612.553 211.481 611.27 211.296 610.01L210.905 607.362C210.905 607.362 212.882 598.942 204.961 590.087C204.961 590.087 198.039 598.95 184.24 588.69L179.748 582.787L156.83 605.337L142.855 609.182C139.797 610.023 136.971 609.986 135.765 612.919H135.764Z" fill="#383838"/>
<path d="M111.539 348.42L115.463 382.206L136.86 453.394L172.081 570.592L207.585 565.376L175.721 398.733L178.876 370.159C178.876 370.159 179.903 367.318 181.081 363.16C183.419 354.934 186.351 341.537 183.126 334.703C182.724 333.813 182.161 333.003 181.467 332.316C180.199 331.085 177.62 330.338 174.165 329.942C159.724 328.31 129.984 332.977 116.748 335.269L111.537 348.42H111.539Z" fill="#383838"/>
<path d="M185.595 174.055L150.711 190.797C150.711 190.797 113.734 300.311 113.734 305.892C113.734 311.472 103.266 314.959 109.548 321.237C115.829 327.515 97.861 332.833 107.541 337.845C117.222 342.858 177.614 370.29 184.328 367.816C202.848 360.994 183.547 335.926 183.547 335.926C183.547 335.926 197.459 324.724 195.366 319.143C193.273 313.563 207.924 206.838 207.924 206.838L185.599 174.054L185.595 174.055Z" fill="#E6E6E6"/>
<path d="M155.743 153.141L151.793 161.039C151.793 161.039 147.844 146.824 141.525 143.664C135.206 140.504 134.416 135.766 134.416 135.766C134.416 135.766 126.517 146.032 120.987 143.664C115.458 141.295 113.088 139.715 119.408 130.238C125.728 120.761 124.147 125.499 124.147 125.499C124.147 125.499 129.676 117.601 128.887 119.971C128.097 122.341 133.626 113.653 133.626 116.022C133.626 118.391 137.576 111.283 137.576 113.653C137.576 116.023 154.163 108.125 151.793 111.284C149.423 114.444 166.011 104.966 173.911 117.602C176.787 122.202 184.843 135.767 184.843 135.767L185.209 158.67L177.703 164.987C177.703 164.987 164.431 143.664 155.743 153.141Z" fill="#383838"/>
<path d="M102.786 250.926L64.7767 293.896L9.20115 244.748L47.2122 201.777L102.786 250.926Z" fill="#C9184A"/>
<path d="M52.1519 227.427L35.2815 246.518C34.3149 247.612 34.4183 249.282 35.5124 250.249C36.6066 251.215 38.2772 251.112 39.2438 250.018L56.1142 230.927C57.0809 229.833 56.9775 228.163 55.8833 227.196C54.7891 226.23 53.1185 226.333 52.1519 227.427Z" fill="white"/>
<path d="M62.4478 236.532L45.5774 255.623C44.6108 256.717 44.7142 258.387 45.8083 259.354C46.9025 260.32 48.5731 260.217 49.5397 259.123L66.4101 240.032C67.3768 238.938 67.2734 237.268 66.1792 236.301C65.085 235.335 63.4144 235.438 62.4478 236.532Z" fill="white"/>
<path d="M72.7427 245.637L55.8723 264.728C54.9057 265.821 55.0091 267.492 56.1032 268.458C57.1974 269.425 58.868 269.322 59.8347 268.228L76.7051 249.137C77.6717 248.043 77.5683 246.373 76.4741 245.406C75.38 244.44 73.7093 244.543 72.7427 245.637Z" fill="white"/>
<path d="M79.3006 270.555C70.6435 267.997 62.3059 270.391 60.6787 275.899C59.0515 281.408 64.751 287.945 73.412 290.505C76.8576 291.574 80.5091 291.802 84.0611 291.171L120.88 301.543L125.38 284.165L88.6053 275.785C85.9658 273.325 82.7752 271.532 79.3006 270.558V270.555Z" fill="#ED9DA0"/>
<path d="M144.424 208.966L150.195 277.99L98.5036 278.546L88.4717 293.99C88.4717 293.99 151.123 330.261 169.937 311.728C188.751 293.194 197.122 215.206 180.394 201.857C163.665 188.508 144.424 208.966 144.424 208.966Z" fill="#E6E6E6"/>
<path d="M292.247 76.0744C291.166 77.8032 289.932 79.4317 288.56 80.9402C286.646 82.7646 284.498 84.3267 282.172 85.5855C277.699 88.0257 274.548 88.011 270.375 90.5302C269.899 90.5779 269.428 90.5945 268.956 90.6039C268.014 90.6178 266.615 92.692 265.674 92.6115C265.666 92.6133 265.661 92.6099 265.653 92.6123C265.2 92.848 264.81 93.1893 264.517 93.6074L264.511 93.6173C262.835 95.4988 259.845 99.5889 257.9 101.898C257.66 102.174 257.439 102.429 257.236 102.646C256.695 103.241 256.301 103.591 256.127 103.556C253.971 103.141 253.806 101.76 251.749 100.82C250.642 100.318 244.905 97.8963 243.844 97.2336C240.833 95.3523 239.845 93.3081 238.096 90.6858C237.971 90.5065 237.85 90.322 237.718 90.1319C237.667 90.066 237.63 90.0025 237.581 89.939C237.067 89.2047 241.081 81.3108 242.194 78.0697C242.194 78.0667 242.194 78.0635 242.195 78.0605C242.195 78.0575 242.197 78.0547 242.199 78.0523C242.43 77.3782 242.535 76.9092 242.447 76.7464L242.381 76.6244C242.103 76.1053 241.851 75.569 241.613 75.0281C241.717 69.2886 239.36 62.2938 241.028 54.3099C241.84 51.4864 243.034 48.7871 244.576 46.2866C246.523 43.1361 249.073 40.4011 252.08 38.239C255.087 36.0769 258.491 34.5303 262.098 33.688C265.705 32.8457 269.442 32.7243 273.096 33.3309C276.75 33.9374 280.247 35.26 283.388 37.2225C286.529 39.185 289.25 41.7487 291.397 44.7664C293.543 47.7841 295.072 51.1961 295.895 54.8065C296.718 58.4169 296.819 62.1544 296.193 65.8042C295.567 69.454 294.226 72.9445 292.247 76.0744Z" fill="#E6E6E6"/>
<path d="M288.561 80.9411C286.647 82.7654 284.499 84.3275 282.173 85.5863C277.7 88.0265 274.549 88.0118 270.376 90.5311C267.599 92.2109 264.371 95.0166 259.992 100.412C259.733 100.73 259.578 101.182 259.317 101.492C258.734 102.176 258.955 102.125 258.072 102.52C257.79 102.506 257.766 102.262 257.9 101.898C258.298 101.021 258.8 100.196 259.397 99.4389C260.898 97.329 262.611 95.3783 264.51 93.6175L264.516 93.6076C264.897 93.2572 265.279 92.9276 265.651 92.6132C272.191 87.1628 278.287 86.6508 282.414 84.2373C304.064 71.6021 298.919 39.1818 274.223 33.9098C272.897 33.6292 272.813 33.8941 272.736 33.8869C270.813 33.5978 269.403 33.1166 267.311 33.1954C254.595 33.6903 243.887 43.6983 241.726 56.1047C240.557 62.8211 243.233 68.6929 242.381 76.6226C242.337 77.0863 242.276 77.5622 242.199 78.0505C242.197 78.0529 242.195 78.0557 242.195 78.0588C242.194 78.0618 242.194 78.0649 242.194 78.068C241.459 82.3304 239.942 86.4201 237.718 90.1306C237.682 90.1997 237.649 90.2633 237.61 90.3262C237.776 90.4501 237.94 90.5664 238.096 90.6844C240.54 92.5226 241.954 93.9811 243.1 94.0748L243.993 94.7678C244.032 95.4076 249.684 98.1888 250.539 98.7091L250.757 98.8457C252.848 100.227 255.011 101.495 257.237 102.644C257.351 102.701 257.471 102.756 257.588 102.809C257.709 102.93 257.779 103.093 257.784 103.265C257.789 103.436 257.728 103.603 257.613 103.731C257.297 104.385 255.172 105.526 254.702 105.511C253.34 105.471 236.908 95.6155 236.04 93.5519C235.786 92.9527 235.742 92.2849 235.917 91.6577C236.091 91.0305 236.473 90.4812 237.001 90.0995C237.057 89.9448 236.702 89.1823 236.756 89.0404C237.5 87.2025 240.468 83.2229 241.432 77.2442C241.547 76.5101 241.608 75.7686 241.615 75.0255C241.718 69.2873 239.36 62.2938 241.031 54.3057C241.958 50.0362 243.849 46.0351 246.56 42.6089C253.137 34.0034 266.65 29.9346 276.922 33.1952C298.424 40.0157 303.566 66.5905 288.561 80.9411Z" fill="#383838"/>
<path d="M254.619 106.161C255.244 108.59 254.11 108.572 252.324 109.833C251.545 109.062 235.414 100.362 233.745 98.2237C233.488 97.8677 233.325 97.4522 233.272 97.0159C233.219 96.5797 233.277 96.1372 233.442 95.7297C233.606 95.3223 233.872 94.9633 234.213 94.6864C234.554 94.4096 234.96 94.2239 235.393 94.1468C241.336 98.8524 247.784 102.882 254.619 106.161Z" fill="#383838"/>
<path d="M252.783 111.02C252.546 112.748 250.867 112.851 249.677 113.585L248.463 113.127L231.531 102.247C230.625 101.405 230.874 99.5596 231.206 98.4389C231.268 98.2993 231.371 98.1819 231.502 98.1024C231.632 98.0229 231.784 97.985 231.937 97.9937L233.61 98.439C238.965 102.42 244.537 106.102 250.299 109.468C250.813 109.484 251.314 109.636 251.75 109.909C252.187 110.181 252.543 110.565 252.783 111.02Z" fill="#383838"/>
<path d="M249.766 84.698L249.318 84.4182L253.891 77.1034L256.56 54.4861L257.084 54.5476L254.403 77.2799L249.766 84.698Z" fill="#383838"/>
<path d="M291.17 24.4953C292.474 24.4437 287.927 31.7503 287.499 31.8127C285.87 32.0436 290.733 24.5127 291.17 24.4953Z" fill="#383838"/>
<path d="M283.421 20.5536C284.429 20.5387 281.767 28.4837 281.436 28.7743C279.553 30.4273 282.947 20.5593 283.421 20.5536Z" fill="#383838"/>
<path d="M298.109 29.7326C299.106 30.0432 293.466 35.8592 293.1 36.0643C289.639 37.9983 297.567 29.5645 298.109 29.7326Z" fill="#383838"/>
<path d="M256.73 89.0657L261.444 80.7083L261.471 80.6822L277.099 65.4224L277.468 65.8003L261.867 81.0335L257.19 89.3252L256.73 89.0657Z" fill="#383838"/>
<path d="M91.8632 78.8483L60.7772 92.0417C60.114 92.3243 59.3955 92.4533 58.6754 92.4189C57.9553 92.3845 57.2524 92.1876 56.6192 91.8431C55.9957 91.5099 55.4559 91.0398 55.0402 90.4681C54.6245 89.8964 54.3437 89.238 54.219 88.5423C51.6492 74.3086 45.7531 60.8832 37.0108 49.3595C36.3919 48.5438 36.054 47.5496 36.0477 46.5257C36.0415 45.5019 36.3672 44.5035 36.9761 43.6802C45.4548 32.348 57.5647 27.4443 72.9693 29.1075C73.6958 29.1788 74.3965 29.4152 75.0177 29.7985C75.6389 30.1819 76.1643 30.7021 76.5537 31.3195C84.6739 44.2844 90.7664 58.4129 94.6206 73.2169C94.921 74.33 94.8075 75.5143 94.3011 76.5503C93.7947 77.5862 92.9297 78.4034 91.8666 78.8503L91.8632 78.8483Z" fill="#E6E6E6"/>
<path d="M64.5407 54.8676L53.847 59.4061C53.2558 59.657 52.5891 59.6628 51.9936 59.4223C51.3981 59.1818 50.9226 58.7146 50.6717 58.1236C50.4208 57.5325 50.415 56.866 50.6556 56.2706C50.8962 55.6753 51.3636 55.1998 51.9548 54.9489L62.6484 50.4104C63.2397 50.1595 63.9063 50.1537 64.5018 50.3942C65.0973 50.6347 65.5728 51.1019 65.8237 51.6929C66.0747 52.284 66.0805 52.9505 65.8398 53.5458C65.5992 54.1412 65.1319 54.6166 64.5407 54.8676Z" fill="#383838"/>
<path d="M81.3543 58.1263L57.5862 68.2136C56.995 68.4645 56.3283 68.4704 55.7329 68.2299C55.1374 67.9894 54.6619 67.5222 54.411 66.9312C54.16 66.3401 54.1542 65.6736 54.3949 65.0783C54.6355 64.4829 55.1028 64.0075 55.694 63.7566L79.4621 53.6693C80.0533 53.4184 80.72 53.4125 81.3155 53.653C81.911 53.8935 82.3865 54.3607 82.6374 54.9517C82.8883 55.5428 82.8941 56.2093 82.6535 56.8046C82.4129 57.4 81.9455 57.8754 81.3543 58.1263Z" fill="#383838"/>
<path d="M61.2126 91.8436C60.4769 92.1581 59.6794 92.3014 58.8802 92.2627C58.081 92.224 57.3011 92.0043 56.5993 91.6201C55.9053 91.2498 55.3047 90.7264 54.8431 90.0895C54.3816 89.4526 54.0712 88.7189 53.9355 87.9442C52.661 80.8933 50.5617 74.0167 47.681 67.4561C44.7987 60.8952 41.1548 54.6958 36.8243 48.9858C36.1358 48.0791 35.7597 46.9739 35.7522 45.8355C35.7448 44.6971 36.1064 43.587 36.783 42.6713C40.6399 37.3583 45.851 33.1763 51.8735 30.5607C58.0816 27.9259 65.2779 27.0268 73.2646 27.8879C74.0709 27.965 74.8487 28.2264 75.5379 28.6518C76.227 29.0772 76.8092 29.6553 77.2393 30.3414C85.391 43.3514 91.5054 57.531 95.3708 72.3888C95.7022 73.6233 95.576 74.9361 95.0156 76.085C94.4551 77.234 93.498 78.1417 92.3209 78.6407L61.2126 91.8436ZM52.2883 31.5378C46.4397 34.0806 41.3799 38.1445 37.6356 43.3063C37.0963 44.0375 36.8082 44.9235 36.8144 45.8319C36.8207 46.7404 37.121 47.6223 37.6704 48.3459C42.0512 54.1219 45.7375 60.393 48.6534 67.0298C51.567 73.6671 53.69 80.6238 54.9787 87.7568C55.0871 88.3743 55.3348 88.9591 55.703 89.4666C56.0713 89.974 56.5504 90.391 57.1039 90.6856C57.6656 90.9935 58.29 91.1697 58.9299 91.201C59.5698 91.2322 60.2084 91.1176 60.7975 90.8658L91.9037 77.6639C92.8456 77.2647 93.6114 76.5384 94.0596 75.619C94.5078 74.6995 94.6083 73.6491 94.3425 72.6614C90.5044 57.9075 84.4329 43.827 76.3383 30.9079C75.9934 30.3585 75.5267 29.8956 74.9743 29.5553C74.4218 29.215 73.7985 29.0062 73.1525 28.9451C65.3456 28.1019 58.3282 28.9743 52.2883 31.5378Z" fill="#383838"/>
<path d="M164.39 52.5888C178.749 52.5888 190.389 40.9511 190.389 26.5952C190.389 12.2393 178.749 0.601562 164.39 0.601562C150.032 0.601562 138.392 12.2393 138.392 26.5952C138.392 40.9511 150.032 52.5888 164.39 52.5888Z" fill="#E6E6E6"/>
<path d="M177.913 11.3753C177.273 11.0093 176.516 10.909 175.803 11.0958C175.09 11.2826 174.479 11.7417 174.101 12.3742L164.831 30.7387C162.315 26.8323 159.141 23.3911 155.45 20.5673C154.259 19.6472 152.329 20.3861 151.638 21.5662C150.797 23.0049 151.443 24.456 152.638 25.3769C156.92 28.7606 160.312 33.1385 162.519 38.1304C163.37 40.0096 166.44 39.8908 167.329 38.1304L178.913 15.1875C179.268 14.5457 179.363 13.7917 179.177 13.082C178.991 12.3723 178.538 11.7616 177.914 11.3768L177.913 11.3753Z" fill="#383838"/>
<path d="M164.39 4.58478e-05C170.527 0.00361805 176.474 2.12812 181.224 6.01364C185.974 9.89916 189.234 15.3068 190.452 21.3204C191.671 27.3341 190.773 33.5839 187.91 39.0112C185.047 44.4386 180.396 48.7096 174.744 51.1008C168.25 53.8121 160.946 53.8405 154.431 51.1797C147.916 48.519 142.72 43.3859 139.982 36.9041C137.243 30.4222 137.185 23.1197 139.819 16.5949C142.454 10.0701 147.566 4.85464 154.038 2.0901C157.313 0.704292 160.834 -0.00657658 164.39 4.58478e-05ZM164.39 51.9873C170.248 51.9809 175.923 49.9511 180.455 46.2416C184.987 42.5321 188.098 37.3707 189.261 31.6312C190.424 25.8917 189.567 19.9267 186.837 14.7461C184.106 9.56544 179.668 5.48739 174.276 3.20229C168.087 0.673403 161.15 0.685873 154.97 3.237C148.79 5.78812 143.865 10.6722 141.264 16.83C138.662 22.9877 138.594 29.9227 141.073 36.1308C143.552 42.3389 148.379 47.3195 154.507 49.9925C157.634 51.3154 160.995 51.9938 164.39 51.9873Z" fill="#383838"/>
</svg>
