<svg width="135" height="134" viewBox="0 0 135 134" fill="none" xmlns="http://www.w3.org/2000/svg">
<rect x="0.5" width="134" height="134" rx="67" fill="#C9184A"/>
<path d="M82.6424 49.4917C81.9432 49.1031 81.1742 48.856 80.3795 48.7646C79.5847 48.6732 78.7797 48.7392 78.0105 48.9589C77.2412 49.1787 76.5228 49.5478 75.8963 50.0452C75.2697 50.5427 74.7473 51.1587 74.3588 51.858L63.051 72.2077L56.5794 65.7362C56.0176 65.1544 55.3455 64.6904 54.6024 64.3712C53.8593 64.052 53.06 63.8839 52.2513 63.8769C51.4425 63.8699 50.6405 64.024 49.8919 64.3302C49.1434 64.6365 48.4633 65.0888 47.8914 65.6607C47.3195 66.2326 46.8672 66.9126 46.561 67.6612C46.2547 68.4097 46.1006 69.2118 46.1077 70.0205C46.1147 70.8293 46.2827 71.6285 46.6019 72.3716C46.9211 73.1147 47.3852 73.7868 47.9669 74.3487L60.1487 86.5305C61.2999 87.6847 62.8531 88.3182 64.455 88.3182L65.2986 88.2573C66.2322 88.1267 67.1227 87.7812 67.9001 87.248C68.6774 86.7147 69.3204 86.0084 69.7785 85.1844L85.0057 57.7753C85.3945 57.0763 85.6417 56.3075 85.7334 55.5128C85.825 54.7182 85.7592 53.9133 85.5398 53.144C85.3203 52.3748 84.9515 51.6564 84.4544 51.0297C83.9573 50.403 83.3416 49.8804 82.6424 49.4917Z" fill="#F9F9F9"/>
</svg>
