<svg width="429" height="434" viewBox="0 0 429 434" fill="none" xmlns="http://www.w3.org/2000/svg">
<path d="M306.529 204.313H226.53V244.823H306.529V204.313Z" fill="#F9F9F9"/>
<path d="M297.078 214.682H235.982V216.764H297.078V214.682Z" fill="#A1133B"/>
<path d="M297.078 223.526H235.982V225.607H297.078V223.526Z" fill="#A1133B"/>
<path d="M297.078 232.372H235.982V234.453H297.078V232.372Z" fill="#A1133B"/>
<path d="M307.159 245.456H225.902V203.678H307.159V245.456ZM227.16 244.19H305.9V204.945H227.16V244.19Z" fill="#46081A"/>
<path d="M93.6807 215.27C76.7445 215.285 60.1403 210.549 45.7372 201.596L45.3716 201.368L45.5979 201L93.4431 123.193H184.884V123.628C184.884 174.158 143.971 215.27 93.6807 215.27Z" fill="#A1133B"/>
<path d="M35.0131 182.232L34.7193 182.049C18.5772 172.019 6.94033 156.084 2.26101 137.602C-2.41831 119.12 0.225453 99.5342 9.63513 82.9724L9.80686 82.6712L73.6803 119.348L35.0131 182.232Z" fill="#F9F9F9"/>
<path d="M184.883 110.916H93.1445L112.921 20.8862L113.341 20.979C133.625 25.4841 151.771 36.8105 164.78 53.0853C177.789 69.3601 184.88 89.6087 184.883 110.483V110.916Z" fill="#D6D6E3"/>
<path d="M78.5334 96.7365L16.375 61.0449L16.5419 60.7518C24.0776 47.524 35.62 37.0599 49.4872 30.884C63.3544 24.7081 78.8219 23.1432 93.636 26.4174L93.9643 26.4901L78.5334 96.7365Z" fill="#F9F9F9"/>
<path d="M316.612 0.631104H236.613V41.1413H316.612V0.631104Z" fill="#F9F9F9"/>
<path d="M307.161 11.0009H246.065V13.0819H307.161V11.0009Z" fill="#D6D6E3"/>
<path d="M307.161 19.8455H246.065V21.9265H307.161V19.8455Z" fill="#D6D6E3"/>
<path d="M307.161 28.6899H246.065V30.771H307.161V28.6899Z" fill="#D6D6E3"/>
<path d="M317.24 41.7746H235.98V0H317.24V41.7746ZM237.241 40.5086H315.98V1.26435H237.241V40.5086Z" fill="#D6D6E3"/>
<path d="M225.902 224.293H182.696L182.574 224.115L149 175.155L149.674 174.688L183.126 223.471H225.902V224.293Z" fill="#46081A"/>
<path d="M235.982 19.4748H192.776L192.654 19.6528L159.081 68.6125L159.754 69.0797L193.206 20.2964H235.981L235.982 19.4748Z" fill="#D6D6E3"/>
<path d="M373.792 153.192L362.08 153.648L362.664 168.779L374.376 168.323L373.792 153.192Z" fill="#A1133B"/>
<path d="M320.959 206.187C320.959 206.187 304.739 198.4 304.999 205.125C305.258 211.85 321.349 216.275 321.349 216.275L320.959 206.187Z" fill="#FFB9B9"/>
<path d="M329.858 263.091C329.858 263.091 322.206 281.911 319.378 295.492C316.55 309.073 312.245 327.763 317.783 341.019C323.322 354.276 339.069 393.231 339.231 397.434C339.393 401.637 337.881 405.906 341.229 405.775C344.577 405.645 362.785 399.884 363.524 397.329C364.263 394.774 357.311 388.31 357.311 388.31L340.144 334.254L358.056 299.037L370.975 351.574L373.505 417.145C373.505 417.145 385.926 413.292 387.727 416.591C387.727 416.591 393.289 408.797 393.998 405.402C394.707 402.007 391.371 337.309 391.371 337.309C391.371 337.309 402.77 263.618 393.568 263.976C384.366 264.335 348.321 242.165 329.858 263.091Z" fill="#46081A"/>
<path d="M341.099 402.411C341.099 402.411 332.61 421.264 331.806 422.137C331.002 423.01 325.47 431.645 329.653 431.482C333.836 431.318 343.713 426.724 350.984 419.706C358.255 412.689 367.838 400.527 366.968 399.719C366.098 398.911 360.146 396.618 360.146 396.618L341.099 402.411Z" fill="#46081A"/>
<path d="M375.017 412.876C375.017 412.876 374.505 421.315 372.961 424.743C371.417 428.171 371.611 433.215 375.795 433.052C379.979 432.889 390.788 430.784 390.788 430.784C390.788 430.784 391.43 425.708 390.562 424.9C389.693 424.092 385.989 414.975 387.565 412.387C389.141 409.8 375.017 412.876 375.017 412.876Z" fill="#46081A"/>
<path d="M381.205 139.011C381.205 139.011 390.122 152.977 393.598 156.209C397.074 159.441 387.294 166.557 387.294 166.557L369.791 168.923C369.791 168.923 370.011 152.918 369.109 151.27C368.207 149.621 381.205 139.011 381.205 139.011Z" fill="#FFB9B9"/>
<path d="M365.991 157.285C365.991 157.285 369.597 163.879 372.943 163.749C376.29 163.619 393.598 156.207 394.338 153.656C395.077 151.106 400.071 171.955 400.071 171.955L357.718 246.852L347.387 239.676L352.393 195.701L356.504 171.967L365.991 157.285Z" fill="#A1133B"/>
<path d="M395.901 224.314C394.212 227.866 393.156 231.569 393.302 235.36C393.309 235.529 393.315 235.697 393.33 235.864C393.731 243.645 396.583 252.643 397.607 259.187C398.349 263.882 398.138 267.308 395.404 268.113C388.776 270.055 396.37 271.443 370.728 280.02C345.086 288.596 340.611 281.193 340.546 279.512C340.481 277.83 344.178 265.057 343.308 264.249C342.439 263.441 331.149 274.826 327.737 273.275C324.326 271.724 327.348 263.187 327.348 263.187C327.348 263.187 335.032 245.208 334.87 241.004C334.708 236.801 346.511 216.977 346.511 216.977L354.539 164.465C354.539 164.465 357.626 157.609 361.775 156.606C365.925 155.603 369.369 157.994 369.369 157.994L362.424 173.419L355.096 200.646L356.321 210.701C356.321 210.701 364.843 192.689 370.439 185.735C376.035 178.782 387.968 162.32 387.968 162.32C387.968 162.32 390.754 152.875 388.65 150.052C386.547 147.222 397.423 146.797 402.06 158.404C404.518 164.555 408.508 173.728 411.008 182.268C413.235 189.834 414.287 196.908 412.081 200.951C408.71 207.128 400.226 215.247 395.901 224.314Z" fill="#D6D6E3"/>
<path opacity="0.1" d="M412.082 200.953C408.709 207.129 400.225 215.247 395.9 224.315C394.77 220.225 393.392 215.993 393.392 215.993C393.392 215.993 388.106 187.574 403.742 180.23C406.333 179.978 408.924 180.705 411.009 182.27C413.236 189.836 414.288 196.909 412.082 200.953Z" fill="#46081A"/>
<path d="M350.013 199.161L336.758 203.046L318.353 203.763L316.459 219.833L346.706 222.022C346.706 222.022 354.261 200.68 350.013 199.161Z" fill="#D6D6E3"/>
<path d="M371.628 253.195C371.628 253.195 353.895 256.151 357.942 261.513C361.989 266.876 377.699 261.238 377.699 261.238L371.628 253.195Z" fill="#FFB9B9"/>
<path opacity="0.1" d="M392.612 232.065C393.012 239.845 395.865 248.844 396.888 255.387C391.239 260.76 385.867 265.499 383.842 265.578C379.659 265.741 372.934 265.161 370.457 266.099C367.98 267.037 366.527 251.098 366.527 251.098C366.527 251.098 368.005 245.989 374.601 243.206C379.052 241.326 387.586 236.22 392.612 232.065Z" fill="#46081A"/>
<path d="M403.548 175.185C403.548 175.185 417.705 172.95 416.94 196.553C416.175 220.157 418.432 235.224 412.738 239.655C407.044 244.086 388.549 264.171 384.366 264.334C380.183 264.497 373.458 263.917 370.981 264.856C368.503 265.794 367.05 249.854 367.05 249.854C367.05 249.854 368.529 244.745 375.124 241.963C381.719 239.18 397.258 229.313 397.128 225.95C396.998 222.588 393.198 210.949 393.198 210.949C393.198 210.949 387.912 182.53 403.548 175.185Z" fill="#D6D6E3"/>
<path d="M368.721 159.69C378.893 159.69 387.14 151.404 387.14 141.182C387.14 130.96 378.893 122.674 368.721 122.674C358.549 122.674 350.302 130.96 350.302 141.182C350.302 151.404 358.549 159.69 368.721 159.69Z" fill="#FFB9B9"/>
<path d="M356.32 114.654C355.875 115.038 355.343 115.307 354.771 115.435C354.483 115.486 354.187 115.421 353.947 115.254C353.708 115.087 353.543 114.832 353.49 114.543C353.069 115.421 352.593 116.357 351.733 116.808C350.872 117.259 349.542 116.881 349.418 115.914C349.293 116.648 348.969 117.333 348.483 117.896C347.949 118.408 346.982 118.536 346.516 117.962C346.894 120.031 346.66 122.159 346.778 124.257C346.896 126.355 347.454 128.583 349.033 129.964C351.335 131.978 354.798 131.484 357.827 131.1C358.285 131.003 358.761 131.029 359.205 131.176C360.339 131.661 360.288 133.248 360.303 134.486C360.396 136.659 361.252 138.73 362.719 140.329C364.187 141.929 366.171 142.954 368.32 143.222C369.522 143.409 370.749 143.108 371.731 142.386C372.591 141.653 373.03 140.46 374.015 139.909C375.619 139.014 377.563 140.32 378.735 141.737C379.906 143.154 381.062 144.898 382.878 145.156C385.279 145.499 387.108 143.039 388.008 140.775C389.246 137.602 389.839 134.211 389.752 130.803C389.665 127.396 388.901 124.04 387.503 120.934C382.487 109.955 365.358 108.218 356.32 114.654Z" fill="#46081A"/>
<path d="M428.938 433.056H292.397V431.737H429L428.938 433.056Z" fill="#CBCBCB"/>
</svg>