<svg width="406" height="298" viewBox="0 0 406 298" fill="none" xmlns="http://www.w3.org/2000/svg">
<g clip-path="url(#clip0_565_5059)">
<path d="M80.4395 241.167C80.2202 240.498 78.5588 240.792 78.3993 240.193C78.2403 239.596 79.8346 239.096 81.0573 237.413C81.2778 237.11 82.6674 235.198 82.1344 234.394C81.1243 232.87 74.096 236.666 72.409 234.536C72.0387 234.068 71.8864 233.266 70.7834 231.772C70.3447 231.178 70.0632 230.891 69.7268 230.899C69.2496 230.911 69.0788 231.508 68.3287 232.588C67.2038 234.207 66.7978 234.004 66.0568 235.331C65.5066 236.316 65.4414 236.946 65.0447 236.983C64.4834 237.035 64.2514 235.809 63.5654 235.761C62.8654 235.713 62.165 236.924 61.8178 237.871C61.1662 239.648 61.5697 241.006 61.6591 242.36C61.7563 243.831 61.5281 245.984 59.9276 248.748L44.8315 272.765C48.0736 267.869 57.2764 254.517 60.9842 249.62C62.0546 248.206 63.2049 246.787 64.9753 246.52C66.6798 246.263 68.7538 247.105 71.6486 247.056C71.9866 247.05 72.9275 247.022 73.1564 246.524C73.3456 246.112 72.8758 245.754 73.0467 245.367C73.2759 244.848 74.3073 245.071 75.7128 244.726C76.7039 244.483 77.3772 244.082 77.9562 243.736C78.1308 243.632 80.7313 242.059 80.4395 241.167Z" fill="#F9F9F9"/>
<path d="M40.9003 246.775C40.5078 246.689 40.1734 247.588 39.8329 247.494C39.4936 247.399 39.7076 246.474 39.2335 245.389C39.148 245.193 38.6093 243.961 38.0603 243.99C37.0197 244.045 36.8576 248.585 35.3238 248.797C34.9872 248.844 34.5487 248.687 33.4964 248.796C33.0777 248.84 32.8555 248.895 32.7626 249.063C32.6308 249.3 32.8746 249.556 33.189 250.235C33.6605 251.253 33.4434 251.394 33.8818 252.14C34.2073 252.694 34.4979 252.907 34.4016 253.112C34.2655 253.403 33.5957 253.163 33.3744 253.485C33.1486 253.814 33.5421 254.507 33.9073 254.95C34.5927 255.782 35.3766 255.977 36.0677 256.323C36.8187 256.7 37.8112 257.433 38.7077 259.015L46.1568 273.343C44.6857 270.342 40.7787 261.979 39.4415 258.749C39.0554 257.816 38.6896 256.843 39.0692 255.898C39.4346 254.989 40.4469 254.215 41.258 252.782C41.3528 252.615 41.6105 252.146 41.4318 251.89C41.2841 251.678 40.9726 251.805 40.8317 251.61C40.6427 251.348 41.0497 250.907 41.2858 250.118C41.4523 249.562 41.4491 249.116 41.4464 248.733C41.4456 248.617 41.4228 246.889 40.9003 246.775Z" fill="#F9F9F9"/>
<path d="M48.332 250.271L48.5662 248.112L48.7098 247.977C49.3742 247.35 49.7898 246.685 49.9458 246.002C49.9706 245.893 49.9898 245.783 50.0094 245.671C50.0872 245.227 50.1837 244.675 50.611 244.102C50.8502 243.783 51.4828 243.061 52.1353 243.313C52.3114 243.379 52.4303 243.493 52.5128 243.614C52.5336 243.593 52.5548 243.572 52.5775 243.55C52.8594 243.276 53.0565 243.176 53.2465 243.079C53.3924 243.005 53.5431 242.929 53.7981 242.725C53.91 242.636 53.9996 242.555 54.0751 242.488C54.304 242.284 54.5968 242.045 54.998 242.139C55.4232 242.255 55.569 242.66 55.6657 242.929C55.8384 243.407 55.8916 243.736 55.9268 243.954C55.9395 244.034 55.9542 244.123 55.9653 244.153C56.0584 244.387 57.2267 244.447 57.6663 244.473C58.6544 244.526 59.5094 244.573 59.7151 245.248C59.8626 245.731 59.5551 246.259 58.7748 246.857C58.5317 247.043 58.2887 247.171 58.0769 247.267C58.2072 247.39 58.3109 247.557 58.3173 247.785C58.3316 248.324 57.7779 248.738 56.6717 249.016C56.3968 249.087 56.027 249.179 55.5432 249.156C55.3153 249.145 55.1157 249.11 54.9455 249.077C54.9202 249.174 54.8736 249.275 54.7897 249.37C54.5435 249.652 54.1459 249.723 53.6062 249.565C53.0104 249.399 52.5396 249.173 52.1242 248.975C51.7613 248.802 51.4484 248.655 51.1859 248.615C50.6976 248.546 50.2423 248.847 49.6974 249.248L48.332 250.271Z" fill="#F9F9F9"/>
<path d="M52.2287 237.976L50.0783 238.297L49.9105 238.193C49.1346 237.71 48.3857 237.477 47.6838 237.5C47.5722 237.503 47.4609 237.513 47.3474 237.522C46.8977 237.56 46.3388 237.606 45.6753 237.339C45.3053 237.189 44.4458 236.761 44.5245 236.067C44.5436 235.88 44.6239 235.736 44.7201 235.626C44.6945 235.611 44.6688 235.596 44.6411 235.58C44.3047 235.377 44.1576 235.212 44.016 235.053C43.907 234.931 43.7948 234.804 43.5328 234.61C43.4179 234.524 43.3173 234.458 43.2328 234.402C42.977 234.233 42.6712 234.011 42.6611 233.599C42.6657 233.159 43.0211 232.916 43.2563 232.754C43.6758 232.466 43.9809 232.331 44.1832 232.242C44.2572 232.21 44.3404 232.173 44.3659 232.154C44.5691 232.005 44.3315 230.861 44.2445 230.43C44.0457 229.462 43.8737 228.625 44.4761 228.255C44.9068 227.989 45.4955 228.153 46.2727 228.755C46.5146 228.942 46.7006 229.145 46.8472 229.325C46.9333 229.168 47.069 229.025 47.288 228.961C47.8065 228.811 48.3476 229.241 48.8984 230.238C49.036 230.486 49.2196 230.82 49.3196 231.293C49.3665 231.516 49.3834 231.718 49.395 231.89C49.4952 231.89 49.6045 231.91 49.7184 231.966C50.0534 232.133 50.2236 232.499 50.2068 233.06C50.1974 233.678 50.0984 234.19 50.0117 234.641C49.9366 235.036 49.8729 235.375 49.9005 235.639C49.9583 236.128 50.3654 236.491 50.8917 236.916L52.2287 237.976Z" fill="#F9F9F9"/>
<path d="M52.5186 231.527L52.7527 229.368L52.8963 229.233C53.5607 228.606 53.9764 227.941 54.1323 227.258C54.1571 227.149 54.1763 227.039 54.196 226.927C54.2737 226.483 54.3702 225.931 54.7976 225.358C55.0367 225.039 55.6694 224.317 56.3218 224.57C56.4979 224.635 56.6168 224.749 56.6994 224.87C56.7201 224.849 56.7413 224.828 56.764 224.806C57.0459 224.532 57.2431 224.432 57.433 224.336C57.5789 224.261 57.7296 224.185 57.9846 223.981C58.0965 223.892 58.1861 223.812 58.2616 223.744C58.4905 223.54 58.7834 223.301 59.1845 223.396C59.6097 223.512 59.7555 223.917 59.8522 224.185C60.0249 224.663 60.0781 224.992 60.1133 225.21C60.126 225.29 60.1407 225.38 60.1518 225.409C60.2449 225.643 61.4132 225.703 61.8528 225.729C62.8409 225.782 63.696 225.829 63.9016 226.504C64.0491 226.988 63.7416 227.515 62.9613 228.113C62.7182 228.299 62.4752 228.427 62.2635 228.523C62.3937 228.646 62.4974 228.813 62.5038 229.041C62.5181 229.58 61.9644 229.994 60.8582 230.273C60.5833 230.343 60.2136 230.435 59.7297 230.412C59.5018 230.401 59.3022 230.366 59.1321 230.333C59.1067 230.43 59.0602 230.531 58.9763 230.626C58.7301 230.908 58.3324 230.979 57.7927 230.821C57.1969 230.655 56.7261 230.429 56.3107 230.231C55.9478 230.059 55.635 229.911 55.3724 229.871C54.8842 229.803 54.4288 230.104 53.884 230.504L52.5186 231.527Z" fill="#F9F9F9"/>
<path d="M45.5453 272.888L45.1651 272.513L44.6367 272.457C44.6392 272.407 44.6357 272.291 44.6318 272.11C44.6115 271.117 44.5484 268.095 44.9698 263.451C45.2641 260.209 45.7559 256.919 46.4315 253.669C47.1082 250.415 47.8105 247.993 48.3746 246.047C48.8003 244.579 49.23 243.186 49.6494 241.83C50.7688 238.206 51.8257 234.783 52.4803 230.879C52.6268 230.008 52.931 228.193 52.3082 226.052C51.9469 224.81 51.3281 223.641 50.4686 222.578L51.3005 221.908C52.249 223.082 52.9331 224.376 53.3345 225.755C54.025 228.13 53.6936 230.106 53.5343 231.056C52.8681 235.029 51.8007 238.485 50.6703 242.144C50.253 243.495 49.8247 244.882 49.4008 246.344C48.8418 248.272 48.1458 250.672 47.4779 253.885C46.81 257.096 46.3245 260.346 46.0335 263.547C45.6176 268.132 45.6801 271.109 45.7005 272.088C45.7111 272.61 45.7134 272.719 45.5453 272.888Z" fill="#F9F9F9"/>
<path d="M48.1866 223.807C48.1438 223.798 48.1008 223.787 48.0577 223.774C47.1803 223.529 46.4765 222.815 45.9653 221.652C45.7261 221.106 45.6696 220.531 45.557 219.384C45.5393 219.207 45.4612 218.312 45.5572 217.126C45.6196 216.351 45.7031 216.04 45.9143 215.795C46.1488 215.523 46.4648 215.367 46.7987 215.289C46.8077 215.186 46.8414 215.086 46.9081 214.991C47.1827 214.596 47.6425 214.758 47.892 214.843C48.0177 214.888 48.1744 214.945 48.3506 214.975C48.6275 215.023 48.7928 214.974 49.0431 214.902C49.2825 214.832 49.5803 214.746 49.9919 214.753C50.804 214.764 51.4051 215.129 51.6034 215.249C52.6474 215.875 53.0079 216.875 53.425 218.032C53.5079 218.264 53.783 219.102 53.8471 220.182C53.8933 220.961 53.7911 221.279 53.6739 221.507C53.4345 221.976 53.068 222.193 52.1582 222.651C51.2077 223.13 50.7309 223.369 50.3399 223.492C49.43 223.778 48.8587 223.957 48.1866 223.807Z" fill="#F9F9F9"/>
<path d="M168.894 158.217C171.731 155.823 170.978 150.274 167.212 145.822C165.563 143.874 163.61 142.458 161.698 141.684L159.499 139.15L131.112 103.633C131.112 103.633 115.392 68.3001 110.751 64.4829C106.11 60.6658 100.651 62.6532 100.651 62.6532L96.3906 67.9161L122.937 117.249L150.105 144.551L153.772 148.369C154.218 150.382 155.289 152.541 156.938 154.489C160.704 158.941 166.057 160.61 168.894 158.217Z" fill="#FFB6B6"/>
<path d="M115.309 71.0525L122.423 81.4706L132.636 96.5637L114.285 102.903L98.0835 75.1413L115.309 71.0525Z" fill="#F9F9F9"/>
<path d="M406 271.927H0V273.163H406V271.927Z" fill="#46081A"/>
<path d="M287.426 186.013H255.057V175.037C255.057 157.382 269.412 143.047 287.093 143.047H287.426V186.013Z" fill="#46081A"/>
<path d="M262.271 180.265L267.636 162.731L281.399 162.043L287.426 186.013L262.271 180.265Z" fill="#A0616A"/>
<path opacity="0.1" d="M262.271 180.265L267.636 162.731L281.399 162.043L287.426 186.013L262.271 180.265Z" fill="#383838"/>
<path d="M274.794 173.005C283.733 173.005 290.979 165.769 290.979 156.844C290.979 147.918 283.733 140.682 274.794 140.682C265.856 140.682 258.61 147.918 258.61 156.844C258.61 165.769 265.856 173.005 274.794 173.005Z" fill="#A0616A"/>
<path d="M240.491 247.177L236.207 251.455C236.207 251.455 213.318 236.124 204.539 241.841C195.76 247.559 195.378 258.63 205.7 264.738C216.023 270.847 242.403 285.736 242.403 285.736C242.403 285.736 277.576 291.844 301.279 273.137C324.983 254.431 329.38 255.385 325.174 245.459C320.969 235.533 311.793 237.824 311.793 237.824L294.207 248.132L286.943 246.604L240.491 247.177Z" fill="#46081A"/>
<path d="M241.447 251.949L259.798 259.966L252.916 276.382L225.772 269.892" fill="#46081A"/>
<path d="M288.353 251.949L263.622 263.402L273.179 283.254L300.706 271.419" fill="#46081A"/>
<path d="M263.621 177.091L239.727 187.621L247.373 229.616L240.491 247.177L277.194 252.904L296.015 247.072L294.398 238.778L296.015 207.825L302.426 189.53L285.222 177.695L263.621 177.091Z" fill="#F9F9F9"/>
<path d="M257.504 261.493L269.356 264.929L263.621 278.96L247.946 272.947L257.504 261.493Z" fill="#A0616A"/>
<path d="M273.976 261.493L259.416 268.747V279.826L275.856 277.91L273.976 261.493Z" fill="#A0616A"/>
<path d="M252.917 282.491C252.917 282.491 278.149 299.289 287.707 292.417C297.265 285.545 302.618 276.764 300.706 275.619C298.794 274.474 293.06 272.565 293.06 272.565L260.945 279.055L252.917 282.491Z" fill="#46081A"/>
<path d="M220.802 269.892C220.802 269.892 207.803 289.744 220.037 292.799C232.272 295.853 263.102 283.254 263.102 283.254L260.945 266.838L255.211 272.565L220.802 269.892Z" fill="#46081A"/>
<path d="M301.816 132.482C298.24 129.181 297.047 124.663 299.151 122.391C301.255 120.119 305.859 120.953 309.436 124.256C310.883 125.555 311.997 127.182 312.686 129L327.661 143.177L320.849 150.053L306.809 135.346C304.94 134.804 303.228 133.822 301.816 132.482Z" fill="#A0616A"/>
<path d="M297.743 176.443L324.84 163.238L310.823 139.165L315.211 130.262C315.211 130.262 349.324 149.251 345.93 163.069C342.535 176.886 308.699 202.27 297.892 198.212C294.612 196.98 292.711 194.781 291.655 192.316C289.076 186.298 291.851 179.314 297.743 176.443Z" fill="#F9F9F9"/>
<path d="M243.809 169.918C244.633 167.419 246.258 165.231 246.985 162.701C247.95 159.343 250.006 166.793 250.206 163.305C250.587 156.676 260.72 139.622 266.505 136.346C272.289 133.071 275.612 134.058 281.505 137.135C281.505 137.135 284.366 137.316 287.927 139.072C291.489 140.828 294.694 143.64 296.08 147.357C297.178 150.303 297.056 153.539 297.423 156.661C298.445 165.36 303.328 173.633 302.28 182.328C301.953 185.041 300.92 187.846 298.699 189.442C296.478 191.038 292.889 190.864 291.427 188.554C290.928 187.766 290.717 186.831 290.289 186.002C289.862 185.173 289.089 184.4 288.155 184.426C286.752 184.465 286.038 186.345 286.592 187.633C287.145 188.921 288.445 189.699 289.666 190.391C286.758 191.697 283.152 191.29 280.61 189.369C278.067 187.449 276.694 184.094 277.162 180.945C277.821 176.507 284.295 177.426 285.058 173.005C285.613 169.787 287.563 164.402 287.031 161.18C286.5 157.957 283.95 161.859 286.637 159.997C283.681 161.42 277.358 151.686 274.264 150.596C271.169 149.505 268.546 147.144 267.139 144.184C263.857 148.935 260.97 147.645 259.794 153.296C258.619 158.947 260.57 176.378 265.41 179.534C263.473 180.853 261.064 178.148 260.156 180.306C259.641 181.529 259.307 182.867 258.452 183.883C256.82 185.822 253.807 185.94 251.405 185.125C248.426 184.113 245.88 181.892 244.475 179.081C243.071 176.27 242.827 172.903 243.809 169.918Z" fill="#46081A"/>
<path d="M202.41 166.131C201.535 161.347 198.354 157.92 195.305 158.476C192.257 159.033 190.495 163.361 191.371 168.147C191.694 170.063 192.473 171.874 193.641 173.428L197.603 193.651L207.067 191.592L202.156 171.875C202.699 170.008 202.786 168.038 202.41 166.131Z" fill="#A0616A"/>
<path d="M241.762 186.253L216.077 202.023L203.233 177.305L193.355 176.234C193.355 176.234 191.13 215.171 204.632 219.713C218.134 224.255 257.728 209.329 260.088 198.044C260.804 194.618 259.964 191.837 258.445 189.626C254.738 184.227 247.347 182.824 241.762 186.253Z" fill="#F9F9F9"/>
<path d="M381.894 215.696L289.888 244.734V132.865L381.894 103.827V215.696Z" fill="#F9F9F9"/>
<path d="M289.269 245.578V132.413L382.513 102.983V216.148L289.269 245.578ZM290.506 133.318V243.89L381.275 215.243V104.67L290.506 133.318Z" fill="#46081A"/>
<path d="M156.583 240.512L230.37 263.8V174.084L156.583 150.796V240.512Z" fill="#F9F9F9"/>
<path d="M230.988 264.643L230.183 264.389L155.963 240.964V149.952L156.769 150.207L230.988 173.631V264.643ZM157.201 240.059L229.751 262.956V174.537L157.201 151.64V240.059Z" fill="#46081A"/>
<path d="M312.249 139.779C311.198 145.252 313.116 151.203 317.168 155.036C321.219 158.87 327.273 160.462 332.69 159.119C337.832 157.844 342.642 152.414 340.466 147.589C338.915 144.15 334.184 142.848 330.789 144.502C327.394 146.156 325.506 150.132 325.702 153.899C325.898 157.667 327.905 161.169 330.584 163.829C337.569 170.768 348.759 172.567 354.916 180.249C360.293 186.957 360.128 197.486 354.543 204.022C348.958 210.558 338.572 212.378 331.092 208.132C328.008 206.381 325.356 203.574 324.59 200.116C323.824 196.658 325.367 192.602 328.607 191.162C334.718 188.446 340.87 195.741 347.558 195.848C351.388 195.909 355.109 193.264 356.303 189.629C357.498 185.994 356.071 181.662 352.949 179.445" fill="#C9184A"/>
<path d="M182.769 218.052C183.951 221.518 181.5 225.746 177.901 226.448C174.301 227.15 170.437 224.154 170.227 220.497C170.017 216.841 173.511 213.423 177.168 213.708C183.059 214.169 186.538 222.221 192.435 221.844C196.47 221.587 199.018 217.466 200.508 213.712C202.223 209.39 203.477 204.887 204.242 200.301C204.881 196.476 205.174 192.516 204.253 188.749C203.332 184.981 201.05 181.405 197.589 179.645C192.333 176.971 185.138 179.579 182.628 184.91C180.119 190.24 182.536 197.283 187.689 200.15C194.134 203.735 203.01 201.153 208.864 205.634C213.557 209.225 214.363 215.849 214.792 221.737C215.065 225.492 215.335 229.306 214.564 232.992C213.794 236.678 211.834 240.286 208.581 242.191C206.118 243.634 202.829 243.92 200.458 242.33C198.088 240.74 197.198 237.059 199.041 234.881C200.55 233.098 203.298 232.814 205.506 233.58C207.715 234.345 209.512 235.95 211.246 237.516" fill="#C9184A"/>
<path d="M122.532 35.5958L117.38 55.2107L97.7368 51.352C97.7368 51.352 105.465 37.2036 103.533 30.7725L122.532 35.5958Z" fill="#FFB6B6"/>
<path d="M101.796 290.92L113.625 290.919L119.252 245.358L101.794 245.359L101.796 290.92Z" fill="#FFB6B6"/>
<path d="M142.324 290.652C142.692 291.272 142.886 293.271 142.886 293.991C142.886 296.205 141.089 298 138.871 298H102.239C100.726 298 99.5001 296.776 99.5001 295.265V293.742C99.5001 293.742 97.6879 289.165 101.419 283.523C101.419 283.523 106.056 287.941 112.985 281.022L115.028 277.325L129.819 288.127L138.017 289.135C139.811 289.355 141.401 289.1 142.324 290.652Z" fill="#46081A"/>
<path d="M134.641 159.067L118.341 269.825H97.891L100.61 206.601L102.041 173.358L97.891 157.534C97.891 157.534 95.9986 154.017 94.4045 149.753C92.6075 144.942 91.1883 139.174 93.2953 136.438C94.0705 135.43 96.0861 134.684 98.8252 134.128C100.499 133.787 102.447 133.521 104.55 133.314C116.644 132.119 133.846 132.866 133.846 132.866L134.283 147.276L134.525 155.323L134.641 159.067Z" fill="#46081A"/>
<path d="M80.9595 285.503L92.6626 287.22L104.866 242.961L87.5937 240.427L80.9595 285.503Z" fill="#FFB6B6"/>
<path d="M121.094 291.125C121.369 291.791 121.27 293.797 121.165 294.51C120.842 296.7 118.802 298.215 116.609 297.893L80.3658 292.572C78.8692 292.353 77.8344 290.963 78.0544 289.469L78.2762 287.962C78.2762 287.962 77.1501 283.17 81.6631 278.13C81.6631 278.13 85.6074 283.174 93.4705 277.335L96.0305 273.975L109.09 286.81L117.055 288.998C118.797 289.477 120.408 289.456 121.094 291.125Z" fill="#46081A"/>
<path d="M134.897 140.595L132.662 159.821L120.47 200.335L100.399 267.035L80.1689 264.066L98.3255 169.229L96.5277 152.967C96.5277 152.967 95.9422 151.35 95.2711 148.984C93.939 144.302 92.2682 136.678 94.1063 132.789C94.3545 132.26 94.6661 131.801 95.0515 131.43C95.7745 130.73 97.2439 130.304 99.2126 130.079C107.441 129.15 124.388 131.806 131.928 133.11L134.897 140.595Z" fill="#46081A"/>
<path d="M119.312 49.4227L141.531 77.3979L137.542 106.564L134.124 136.242L93.8725 130.133C93.8725 130.133 102.567 109.232 103.533 108.267C104.499 107.302 106.926 109.685 105.229 106.564C103.533 103.444 101.601 103.444 103.211 101.836C104.821 100.228 90.6523 79.3273 90.6523 68.0728C90.6523 56.8184 97.4147 47.8149 97.4147 47.8149L119.312 49.4227Z" fill="#F9F9F9"/>
<path d="M114.128 39.3001C122.395 39.3001 129.096 32.6083 129.096 24.3536C129.096 16.099 122.395 9.4072 114.128 9.4072C105.861 9.4072 99.1602 16.099 99.1602 24.3536C99.1602 32.6083 105.861 39.3001 114.128 39.3001Z" fill="#FFB6B6"/>
<path d="M113.428 52.9307C113.428 52.9307 115.668 35.234 116.065 30.0877C116.461 24.9413 123.736 16.9064 123.736 16.9064L128.889 21.0631C128.889 21.0631 133.25 21.0631 130.277 14.7291C127.304 8.39516 121.754 7.40548 121.754 7.40548C121.754 7.40548 121.159 -0.907835 110.851 0.0818506C100.544 1.07153 95.985 9.38484 95.985 9.38484C95.985 9.38484 95.3903 -1.10576 88.8491 6.61374C82.3078 14.3332 78.5417 17.5002 85.4794 20.0734C92.417 22.6466 97.5708 20.6672 97.5708 20.6672C97.5708 20.6672 90.8313 22.0527 92.0206 26.8032C93.2099 31.5537 76.3613 53.1287 84.0918 55.5039C91.8224 57.8792 109.067 63.6193 111.05 59.8585C113.032 56.0977 113.428 52.9307 113.428 52.9307Z" fill="#46081A"/>
<path d="M175.129 159.699C177.986 157.329 177.279 151.774 173.55 147.291C171.918 145.328 169.977 143.897 168.071 143.106L165.894 140.554L137.806 104.801C137.806 104.801 122.383 69.3377 117.774 65.4818C113.166 61.626 107.69 63.5676 107.69 63.5676L103.386 68.7947L129.517 118.348L156.455 145.876L160.09 149.725C160.519 151.741 161.572 153.909 163.204 155.872C166.933 160.355 172.272 162.068 175.129 159.699Z" fill="#FFB6B6"/>
<path d="M101.755 60.8189C101.755 60.8189 108.631 96.4503 116.456 101.703L132.048 89.5625C132.048 89.5625 133.412 89.504 130.873 86.6395C128.333 83.7751 128.984 77.624 128.984 77.624C128.984 77.624 130.126 79.1004 127.64 77.0509C125.153 75.0015 127.468 60.9068 127.468 60.9068L101.755 60.8189Z" fill="#F9F9F9"/>
</g>
<defs>
<clipPath id="clip0_565_5059">
<rect width="406" height="298" fill="white"/>
</clipPath>
</defs>
</svg>