<svg width="544" height="400" viewBox="0 0 544 400" fill="none" xmlns="http://www.w3.org/2000/svg">
<path d="M234.871 249.216C243.556 260.726 227.814 236.683 266.86 295.994L251.606 303.36L217.8 251.116C217.8 251.116 234.13 248.235 234.871 249.216Z" fill="#ED9DA0"/>
<path d="M258.909 299.15C258.909 299.15 258.826 288.578 267.843 292.554L285.873 300.512C285.873 300.512 306.056 296.245 300.207 306.396C294.358 316.547 266.734 319.79 266.734 319.79C266.734 319.79 245.709 321.594 246.369 316.989C247.029 312.384 245.989 297.373 248.899 299.339C251.808 301.305 258.909 299.15 258.909 299.15Z" fill="#383838"/>
<path d="M193.152 302.364C187.601 314.855 200.338 290.7 169.015 350.454L155.556 341.645L183.428 289.487C183.428 289.487 193.625 301.3 193.152 302.364Z" fill="#ED9DA0"/>
<path d="M489.421 241.564C489.421 237.788 488.127 234.724 486.538 234.718H53.3168C51.7207 234.725 50.4334 237.789 50.426 241.564V396.985C50.4261 397.335 50.293 397.673 50.0525 397.933C49.812 398.193 49.4814 398.355 49.1251 398.389C47.9628 398.499 46.8 398.6 45.6368 398.694C45.6083 398.694 45.5791 398.702 45.5506 398.702C44.9179 398.758 44.2851 398.8 43.6496 398.849H43.6442C43.3188 398.26 42.9969 397.665 42.6788 397.066C42.5713 396.864 42.5152 396.639 42.5151 396.411V232.685C42.5151 231.642 42.5586 230.592 42.6299 229.559C42.7324 228.137 42.9124 226.721 43.1689 225.318C44.3842 218.775 47.1311 214.344 50.2515 214.33H489.594C490.05 214.333 490.5 214.426 490.917 214.605C491.53 214.871 492.083 215.251 492.547 215.725C493.177 216.367 493.717 217.089 494.15 217.873C495.689 220.528 496.789 224.487 497.178 229.094C497.178 229.136 497.185 229.178 497.185 229.221C497.286 230.362 497.336 231.524 497.329 232.687L497.43 247.784L497.497 256.786L497.692 285.031L497.764 295.062L498.08 398.043C498.08 398.416 497.928 398.775 497.659 399.039C497.389 399.303 497.023 399.451 496.642 399.451H490.861C490.48 399.451 490.114 399.303 489.844 399.039C489.575 398.775 489.423 398.416 489.423 398.043L489.421 241.564Z" fill="#F9F9F9"/>
<path d="M371.71 143.695H325.029C324.369 143.696 323.736 143.954 323.27 144.412C322.804 144.87 322.542 145.491 322.542 146.137V218.375H374.203V146.138C374.203 145.817 374.139 145.5 374.014 145.203C373.888 144.907 373.705 144.638 373.473 144.411C373.242 144.184 372.967 144.004 372.664 143.882C372.362 143.759 372.038 143.696 371.71 143.696V143.695ZM348.527 184.74C347.067 184.733 345.669 184.162 344.637 183.151C343.604 182.139 343.022 180.77 343.015 179.34V171.008C343.015 169.576 343.595 168.203 344.629 167.19C345.663 166.178 347.065 165.609 348.527 165.609C349.989 165.609 351.391 166.178 352.425 167.19C353.458 168.203 354.039 169.576 354.039 171.008V179.341C354.032 180.771 353.449 182.14 352.417 183.151C351.385 184.163 349.987 184.734 348.527 184.74V184.74Z" fill="#46081A"/>
<path d="M322.385 216.065V223.034C322.386 223.395 322.533 223.742 322.794 223.997C323.054 224.252 323.408 224.396 323.776 224.397H372.976C373.344 224.395 373.697 224.251 373.958 223.996C374.218 223.741 374.365 223.395 374.367 223.034V216.065H322.385Z" fill="#46081A"/>
<path d="M262.402 43.0984C261.865 44.4232 261.038 45.6166 259.979 46.5944C258.92 47.5722 257.655 48.3106 256.273 48.7577C254.891 49.2048 253.426 49.3497 251.98 49.1821C250.535 49.0145 249.145 48.5386 247.908 47.7878L182.016 92.7548L180.196 74.835L244.984 33.7162C246.409 31.7634 248.516 30.3908 250.906 29.8584C253.295 29.3259 255.801 29.6707 257.948 30.8274C260.095 31.9841 261.735 33.8722 262.556 36.134C263.377 38.3958 263.322 40.8741 262.402 43.099V43.0984Z" fill="#FFB6B6"/>
<path d="M114.875 71.4505C114.875 71.4505 107.741 81.7777 118.937 90.9172C130.133 100.057 175.512 98.2383 182.836 98.1598C190.159 98.0814 223.759 64.0322 223.759 64.0322L223.541 44.3666L182.974 67.9469L114.875 71.4505Z" fill="#B51643"/>
<path d="M110.823 140.017L111.542 153.4C111.542 153.4 109.419 165.255 111.165 167.813C112.898 170.359 160.469 174.146 160.469 174.146C160.469 174.146 158.975 154.186 161.668 139.749L110.823 140.017Z" fill="#ED9DA0"/>
<path d="M256.827 276.282L238.515 291.985L202.625 220.081C167.036 226.077 133.459 227.995 104.418 220.746C94.585 218.324 88.5745 208.376 90.9929 198.532C91.106 198.072 91.2368 197.617 91.3853 197.166C94.8607 186.778 103.959 179.428 111.128 168.002L163.487 168.781L157.639 188.548L208.502 182.1C218.731 180.803 228.073 188.056 229.368 198.299C229.436 198.84 229.481 199.383 229.503 199.928L256.827 276.282Z" fill="#383838"/>
<path d="M131.266 49.9514C143.008 49.9514 152.526 40.6269 152.526 29.1246C152.526 17.6223 143.008 8.29779 131.266 8.29779C119.524 8.29779 110.005 17.6223 110.005 29.1246C110.005 40.6269 119.524 49.9514 131.266 49.9514Z" fill="#ED9DA0"/>
<path d="M118.805 57.4713L138.299 59.7179C139.121 59.8127 139.892 60.1563 140.506 60.7009C141.119 61.2455 141.543 61.9639 141.72 62.756L144.82 76.656L164.146 98.95C164.146 98.95 171.085 111.696 168.483 126.142C166.917 134.841 164.208 143.305 160.423 151.323C160.423 151.323 112.898 170.364 111.162 167.816C109.425 165.269 108.864 153.688 108.864 153.688L102.75 87.0458C102.4 83.5349 102.847 79.9916 104.06 76.67C105.273 73.3485 107.221 70.3309 109.764 67.8338C111.307 66.3474 112.83 65.3066 114.069 65.3066C116.868 65.2115 116.51 59.0422 118.805 57.4713Z" fill="#B51643"/>
<path d="M182.322 333.112L163.737 326.2L189.245 251.151C154.592 241.198 128.452 225.166 105.629 206.137C97.8893 199.725 92.0797 191.49 98.6741 183.689C98.9823 183.324 99.3041 182.972 99.6395 182.631C107.426 174.8 127.187 176.307 138.756 169.135L164.627 196.195L163.006 203.444L211.578 219.573C221.347 222.817 226.479 233.356 223.041 243.113C222.86 243.628 222.657 244.135 222.43 244.634L182.322 333.112Z" fill="#383838"/>
<path d="M129.925 220.394C128.706 219.616 127.675 218.585 126.907 217.374C126.138 216.164 125.649 214.803 125.476 213.387C125.302 211.972 125.447 210.536 125.901 209.182C126.355 207.827 127.107 206.587 128.103 205.547L96.1567 133.373L114.448 135.175L142.763 205.527C144.434 207.282 145.39 209.577 145.45 211.977C145.509 214.376 144.668 216.714 143.086 218.547C141.503 220.379 139.289 221.58 136.864 221.92C134.438 222.261 131.969 221.718 129.925 220.394Z" fill="#ED9DA0"/>
<path d="M130.766 73.1208C130.766 73.1208 121.845 64.2248 110.483 73.166C99.1216 82.1073 91.9549 126.039 90.5835 133.089C89.2121 140.139 116.628 179.142 116.628 179.142L136.348 182.824L120.787 139.202L130.766 73.1208Z" fill="#B51643"/>
<path d="M449.008 30.961H249.467C247.753 30.9636 246.11 31.632 244.897 32.8195C243.685 34.0071 243.003 35.617 243 37.2965V169.201C243.002 170.88 243.684 172.491 244.896 173.679C246.109 174.867 247.753 175.535 249.467 175.536H449.008C450.723 175.535 452.367 174.867 453.58 173.679C454.792 172.491 455.474 170.88 455.476 169.201V37.2965C455.473 35.617 454.791 34.0071 453.579 32.8195C452.366 31.632 450.723 30.9636 449.008 30.961Z" fill="#46081A"/>
<path d="M447.332 35.5374H251.123C250.206 35.5393 249.327 35.8974 248.679 36.5332C248.03 37.169 247.666 38.0306 247.665 38.9292V167.567C247.666 168.465 248.031 169.327 248.679 169.962C249.328 170.597 250.207 170.954 251.123 170.955H447.332C448.249 170.954 449.128 170.597 449.776 169.962C450.425 169.327 450.79 168.465 450.791 167.567V38.9319C450.79 38.0333 450.425 37.1716 449.777 36.5358C449.129 35.9001 448.25 35.5419 447.332 35.54V35.5374Z" fill="#F9F9F9"/>
<path d="M409.106 226.821H292.374C292.054 226.821 291.738 226.752 291.449 226.617C291.16 226.483 290.906 226.287 290.704 226.044C290.502 225.801 290.359 225.517 290.283 225.212C290.208 224.908 290.203 224.591 290.269 224.284L292.08 215.857C292.184 215.386 292.448 214.963 292.83 214.659C293.213 214.355 293.69 214.189 294.182 214.187H407.29C407.783 214.189 408.259 214.355 408.642 214.659C409.024 214.963 409.288 215.386 409.392 215.857L411.203 224.284C411.269 224.591 411.264 224.908 411.189 225.212C411.113 225.517 410.97 225.801 410.768 226.044C410.566 226.287 410.312 226.483 410.023 226.617C409.734 226.752 409.418 226.821 409.098 226.821H409.106Z" fill="#46081A"/>
<path d="M298.293 215.705H295.36C295.177 215.705 295.029 215.85 295.029 216.03V217.493C295.029 217.673 295.177 217.818 295.36 217.818H298.293C298.476 217.818 298.624 217.673 298.624 217.493V216.03C298.624 215.85 298.476 215.705 298.293 215.705Z" fill="#46081A"/>
<path d="M305.485 215.705H302.553C302.37 215.705 302.221 215.85 302.221 216.03V217.493C302.221 217.673 302.37 217.818 302.553 217.818H305.485C305.668 217.818 305.817 217.673 305.817 217.493V216.03C305.817 215.85 305.668 215.705 305.485 215.705Z" fill="#46081A"/>
<path d="M312.667 215.705H309.734C309.551 215.705 309.402 215.85 309.402 216.03V217.493C309.402 217.673 309.551 217.818 309.734 217.818H312.667C312.85 217.818 312.998 217.673 312.998 217.493V216.03C312.998 215.85 312.85 215.705 312.667 215.705Z" fill="#46081A"/>
<path d="M319.859 215.705H316.926C316.743 215.705 316.595 215.85 316.595 216.03V217.493C316.595 217.673 316.743 217.818 316.926 217.818H319.859C320.042 217.818 320.19 217.673 320.19 217.493V216.03C320.19 215.85 320.042 215.705 319.859 215.705Z" fill="#46081A"/>
<path d="M327.041 215.705H324.108C323.925 215.705 323.776 215.85 323.776 216.03V217.493C323.776 217.673 323.925 217.818 324.108 217.818H327.041C327.224 217.818 327.372 217.673 327.372 217.493V216.03C327.372 215.85 327.224 215.705 327.041 215.705Z" fill="#46081A"/>
<path d="M334.249 215.705H331.316C331.133 215.705 330.985 215.85 330.985 216.03V217.493C330.985 217.673 331.133 217.818 331.316 217.818H334.249C334.432 217.818 334.58 217.673 334.58 217.493V216.03C334.58 215.85 334.432 215.705 334.249 215.705Z" fill="#46081A"/>
<path d="M341.441 215.705H338.508C338.325 215.705 338.177 215.85 338.177 216.03V217.493C338.177 217.673 338.325 217.818 338.508 217.818H341.441C341.624 217.818 341.772 217.673 341.772 217.493V216.03C341.772 215.85 341.624 215.705 341.441 215.705Z" fill="#46081A"/>
<path d="M348.633 215.705H345.7C345.517 215.705 345.369 215.85 345.369 216.03V217.493C345.369 217.673 345.517 217.818 345.7 217.818H348.633C348.816 217.818 348.965 217.673 348.965 217.493V216.03C348.965 215.85 348.816 215.705 348.633 215.705Z" fill="#46081A"/>
<path d="M355.815 215.705H352.882C352.699 215.705 352.551 215.85 352.551 216.03V217.493C352.551 217.673 352.699 217.818 352.882 217.818H355.815C355.998 217.818 356.146 217.673 356.146 217.493V216.03C356.146 215.85 355.998 215.705 355.815 215.705Z" fill="#46081A"/>
<path d="M363.007 215.705H360.074C359.891 215.705 359.743 215.85 359.743 216.03V217.493C359.743 217.673 359.891 217.818 360.074 217.818H363.007C363.19 217.818 363.339 217.673 363.339 217.493V216.03C363.339 215.85 363.19 215.705 363.007 215.705Z" fill="#46081A"/>
<path d="M370.199 215.705H367.266C367.083 215.705 366.935 215.85 366.935 216.03V217.493C366.935 217.673 367.083 217.818 367.266 217.818H370.199C370.382 217.818 370.531 217.673 370.531 217.493V216.03C370.531 215.85 370.382 215.705 370.199 215.705Z" fill="#46081A"/>
<path d="M377.381 215.705H374.448C374.265 215.705 374.117 215.85 374.117 216.03V217.493C374.117 217.673 374.265 217.818 374.448 217.818H377.381C377.564 217.818 377.712 217.673 377.712 217.493V216.03C377.712 215.85 377.564 215.705 377.381 215.705Z" fill="#46081A"/>
<path d="M384.573 215.705H381.64C381.457 215.705 381.309 215.85 381.309 216.03V217.493C381.309 217.673 381.457 217.818 381.64 217.818H384.573C384.756 217.818 384.905 217.673 384.905 217.493V216.03C384.905 215.85 384.756 215.705 384.573 215.705Z" fill="#46081A"/>
<path d="M391.765 215.705H388.832C388.649 215.705 388.501 215.85 388.501 216.03V217.493C388.501 217.673 388.649 217.818 388.832 217.818H391.765C391.948 217.818 392.097 217.673 392.097 217.493V216.03C392.097 215.85 391.948 215.705 391.765 215.705Z" fill="#46081A"/>
<path d="M398.947 215.705H396.014C395.831 215.705 395.683 215.85 395.683 216.03V217.493C395.683 217.673 395.831 217.818 396.014 217.818H398.947C399.13 217.818 399.278 217.673 399.278 217.493V216.03C399.278 215.85 399.13 215.705 398.947 215.705Z" fill="#46081A"/>
<path d="M406.155 215.705H403.222C403.039 215.705 402.891 215.85 402.891 216.03V217.493C402.891 217.673 403.039 217.818 403.222 217.818H406.155C406.338 217.818 406.487 217.673 406.487 217.493V216.03C406.487 215.85 406.338 215.705 406.155 215.705Z" fill="#46081A"/>
<path d="M298.207 219.227H295.274C295.091 219.227 294.942 219.372 294.942 219.551V221.015C294.942 221.194 295.091 221.34 295.274 221.34H298.207C298.39 221.34 298.538 221.194 298.538 221.015V219.551C298.538 219.372 298.39 219.227 298.207 219.227Z" fill="#46081A"/>
<path d="M305.399 219.227H302.466C302.283 219.227 302.134 219.372 302.134 219.551V221.015C302.134 221.194 302.283 221.34 302.466 221.34H305.399C305.582 221.34 305.73 221.194 305.73 221.015V219.551C305.73 219.372 305.582 219.227 305.399 219.227Z" fill="#46081A"/>
<path d="M312.591 219.227H309.658C309.475 219.227 309.327 219.372 309.327 219.551V221.015C309.327 221.194 309.475 221.34 309.658 221.34H312.591C312.774 221.34 312.922 221.194 312.922 221.015V219.551C312.922 219.372 312.774 219.227 312.591 219.227Z" fill="#46081A"/>
<path d="M319.783 219.227H316.85C316.667 219.227 316.519 219.372 316.519 219.551V221.015C316.519 221.194 316.667 221.34 316.85 221.34H319.783C319.966 221.34 320.115 221.194 320.115 221.015V219.551C320.115 219.372 319.966 219.227 319.783 219.227Z" fill="#46081A"/>
<path d="M326.964 219.227H324.032C323.849 219.227 323.7 219.372 323.7 219.551V221.015C323.7 221.194 323.849 221.34 324.032 221.34H326.964C327.147 221.34 327.296 221.194 327.296 221.015V219.551C327.296 219.372 327.147 219.227 326.964 219.227Z" fill="#46081A"/>
<path d="M334.157 219.227H331.224C331.041 219.227 330.893 219.372 330.893 219.551V221.015C330.893 221.194 331.041 221.34 331.224 221.34H334.157C334.34 221.34 334.488 221.194 334.488 221.015V219.551C334.488 219.372 334.34 219.227 334.157 219.227Z" fill="#46081A"/>
<path d="M341.349 219.227H338.416C338.233 219.227 338.085 219.372 338.085 219.551V221.015C338.085 221.194 338.233 221.34 338.416 221.34H341.349C341.532 221.34 341.681 221.194 341.681 221.015V219.551C341.681 219.372 341.532 219.227 341.349 219.227Z" fill="#46081A"/>
<path d="M348.542 219.227H345.609C345.426 219.227 345.277 219.372 345.277 219.551V221.015C345.277 221.194 345.426 221.34 345.609 221.34H348.542C348.725 221.34 348.873 221.194 348.873 221.015V219.551C348.873 219.372 348.725 219.227 348.542 219.227Z" fill="#46081A"/>
<path d="M355.739 219.227H352.806C352.623 219.227 352.475 219.372 352.475 219.551V221.015C352.475 221.194 352.623 221.34 352.806 221.34H355.739C355.922 221.34 356.071 221.194 356.071 221.015V219.551C356.071 219.372 355.922 219.227 355.739 219.227Z" fill="#46081A"/>
<path d="M362.921 219.227H359.988C359.805 219.227 359.656 219.372 359.656 219.551V221.015C359.656 221.194 359.805 221.34 359.988 221.34H362.921C363.103 221.34 363.252 221.194 363.252 221.015V219.551C363.252 219.372 363.103 219.227 362.921 219.227Z" fill="#46081A"/>
<path d="M370.102 219.227H367.169C366.986 219.227 366.838 219.372 366.838 219.551V221.015C366.838 221.194 366.986 221.34 367.169 221.34H370.102C370.285 221.34 370.433 221.194 370.433 221.015V219.551C370.433 219.372 370.285 219.227 370.102 219.227Z" fill="#46081A"/>
<path d="M377.305 219.227H374.372C374.189 219.227 374.041 219.372 374.041 219.551V221.015C374.041 221.194 374.189 221.34 374.372 221.34H377.305C377.488 221.34 377.637 221.194 377.637 221.015V219.551C377.637 219.372 377.488 219.227 377.305 219.227Z" fill="#46081A"/>
<path d="M384.497 219.227H381.564C381.381 219.227 381.233 219.372 381.233 219.551V221.015C381.233 221.194 381.381 221.34 381.564 221.34H384.497C384.68 221.34 384.828 221.194 384.828 221.015V219.551C384.828 219.372 384.68 219.227 384.497 219.227Z" fill="#46081A"/>
<path d="M391.69 219.227H388.757C388.574 219.227 388.425 219.372 388.425 219.551V221.015C388.425 221.194 388.574 221.34 388.757 221.34H391.69C391.873 221.34 392.021 221.194 392.021 221.015V219.551C392.021 219.372 391.873 219.227 391.69 219.227Z" fill="#46081A"/>
<path d="M398.871 219.227H395.938C395.755 219.227 395.607 219.372 395.607 219.551V221.015C395.607 221.194 395.755 221.34 395.938 221.34H398.871C399.054 221.34 399.203 221.194 399.203 221.015V219.551C399.203 219.372 399.054 219.227 398.871 219.227Z" fill="#46081A"/>
<path d="M406.052 219.227H403.119C402.936 219.227 402.788 219.372 402.788 219.551V221.015C402.788 221.194 402.936 221.34 403.119 221.34H406.052C406.235 221.34 406.384 221.194 406.384 221.015V219.551C406.384 219.372 406.235 219.227 406.052 219.227Z" fill="#46081A"/>
<path d="M357.9 223.453H329.801C329.618 223.453 329.469 223.598 329.469 223.777V225.241C329.469 225.42 329.618 225.566 329.801 225.566H357.9C358.083 225.566 358.231 225.42 358.231 225.241V223.777C358.231 223.598 358.083 223.453 357.9 223.453Z" fill="#46081A"/>
<path d="M541.02 399.783L2.32601 400C1.04149 400 0 399.624 0 399.161C0 398.698 1.04149 398.323 2.32601 398.323L541.02 398.107C542.304 398.107 543.346 398.482 543.346 398.945C543.346 399.408 542.304 399.783 541.02 399.783Z" fill="#F9F9F9"/>
<path d="M450.803 38.9311V167.566C450.802 168.465 450.437 169.326 449.789 169.961C449.14 170.596 448.261 170.953 447.345 170.954H378.158C370.504 164.001 364.224 155.725 359.634 146.54C359.333 145.949 359.045 145.35 358.772 144.744C354.589 135.854 352.057 126.305 351.293 116.545C351.243 115.947 351.2 115.348 351.171 114.742C351.077 113.193 351.035 111.622 351.035 110.044C351.021 99.5505 353.044 89.1499 356.996 79.3963C357.234 78.7904 357.485 78.1918 357.743 77.5933C365.696 59.2884 380.067 44.3714 398.262 35.5346H447.345C448.262 35.5365 449.141 35.8946 449.789 36.5304C450.438 37.1662 450.802 38.0279 450.803 38.9265V38.9311Z" fill="#B51643"/>
<path d="M437.484 53.258H253.893C253.7 53.258 253.514 53.1827 253.377 53.0485C253.24 52.9144 253.163 52.7324 253.163 52.5427C253.163 52.353 253.24 52.1711 253.377 52.037C253.514 51.9028 253.7 51.8275 253.893 51.8275H437.484C437.678 51.8275 437.864 51.9028 438.001 52.037C438.138 52.1711 438.214 52.353 438.214 52.5427C438.214 52.7324 438.138 52.9144 438.001 53.0485C437.864 53.1827 437.678 53.258 437.484 53.258Z" fill="#CACACA"/>
<path d="M266.382 48.1792C268.745 48.1792 270.661 46.2607 270.661 43.8941C270.661 41.5275 268.745 39.609 266.382 39.609C264.019 39.609 262.104 41.5275 262.104 43.8941C262.104 46.2607 264.019 48.1792 266.382 48.1792Z" fill="#383838"/>
<path d="M281.157 48.1792C283.519 48.1792 285.435 46.2607 285.435 43.8941C285.435 41.5275 283.519 39.609 281.157 39.609C278.794 39.609 276.878 41.5275 276.878 43.8941C276.878 46.2607 278.794 48.1792 281.157 48.1792Z" fill="#383838"/>
<path d="M295.947 48.1792C298.31 48.1792 300.225 46.2607 300.225 43.8941C300.225 41.5275 298.31 39.609 295.947 39.609C293.584 39.609 291.668 41.5275 291.668 43.8941C291.668 46.2607 293.584 48.1792 295.947 48.1792Z" fill="#383838"/>
<path d="M428.568 40.6704H418.07C417.86 40.6704 417.657 40.7525 417.508 40.8985C417.359 41.0446 417.275 41.2427 417.275 41.4492C417.275 41.6558 417.359 41.8539 417.508 41.9999C417.657 42.146 417.86 42.228 418.07 42.228H428.57C428.781 42.228 428.983 42.146 429.132 41.9999C429.281 41.8539 429.365 41.6558 429.365 41.4492C429.365 41.2427 429.281 41.0446 429.132 40.8985C428.983 40.7525 428.781 40.6704 428.57 40.6704H428.568Z" fill="#383838"/>
<path d="M428.568 43.5934H418.07C417.86 43.5934 417.657 43.6755 417.508 43.8215C417.359 43.9676 417.275 44.1657 417.275 44.3722C417.275 44.5788 417.359 44.7769 417.508 44.9229C417.657 45.069 417.86 45.151 418.07 45.151H428.57C428.781 45.151 428.983 45.069 429.132 44.9229C429.281 44.7769 429.365 44.5788 429.365 44.3722C429.365 44.1657 429.281 43.9676 429.132 43.8215C428.983 43.6755 428.781 43.5934 428.57 43.5934H428.568Z" fill="#383838"/>
<path d="M428.568 46.5131H418.07C417.86 46.5131 417.657 46.5952 417.508 46.7412C417.359 46.8873 417.275 47.0854 417.275 47.2919C417.275 47.4985 417.359 47.6966 417.508 47.8426C417.657 47.9887 417.86 48.0707 418.07 48.0707H428.57C428.781 48.0707 428.983 47.9887 429.132 47.8426C429.281 47.6966 429.365 47.4985 429.365 47.2919C429.365 47.0854 429.281 46.8873 429.132 46.7412C428.983 46.5952 428.781 46.5131 428.57 46.5131H428.568Z" fill="#383838"/>
<path d="M308.909 95.0419H285.62C283.993 95.0419 282.674 96.3339 282.674 97.9277V98.2689C282.674 99.8626 283.993 101.155 285.62 101.155H308.909C310.536 101.155 311.855 99.8626 311.855 98.2689V97.9277C311.855 96.3339 310.536 95.0419 308.909 95.0419Z" fill="#B51643"/>
<path d="M323.736 107.268H270.808C269.181 107.268 267.862 108.56 267.862 110.154V110.495C267.862 112.089 269.181 113.381 270.808 113.381H323.736C325.363 113.381 326.682 112.089 326.682 110.495V110.154C326.682 108.56 325.363 107.268 323.736 107.268Z" fill="#F9F9F9"/>
<path d="M323.736 119.493H270.808C269.181 119.493 267.862 120.785 267.862 122.379V122.72C267.862 124.314 269.181 125.606 270.808 125.606H323.736C325.363 125.606 326.682 124.314 326.682 122.72V122.379C326.682 120.785 325.363 119.493 323.736 119.493Z" fill="#F9F9F9"/>
<path d="M272.645 163.581C272.649 166.098 272.191 168.596 271.293 170.956H251.123C250.207 170.955 249.328 170.597 248.679 169.962C248.031 169.327 247.666 168.466 247.665 167.568V142.717C248.792 142.539 249.932 142.45 251.073 142.451C253.906 142.45 256.711 142.997 259.329 144.059C261.946 145.121 264.324 146.678 266.327 148.64C268.33 150.602 269.919 152.932 271.003 155.496C272.087 158.06 272.645 160.808 272.645 163.583V163.581Z" fill="#B51643"/>
<path opacity="0.2" d="M450.971 79.401V77.598H420.117V56.6974H418.283V77.5967H382.92V56.6974H381.087V77.5967H357.732C357.473 78.1953 357.221 78.7938 356.985 79.3997H381.087V114.746H351.16C351.188 115.352 351.232 115.95 351.282 116.549H381.087V144.748H358.76C359.031 145.354 359.319 145.952 359.622 146.544H381.086V170.246H382.919V146.542H418.282V170.244H420.115V146.542H450.97V144.746H420.117V116.547H450.971V114.744H420.117V79.401H450.971ZM418.283 144.747H382.92V116.547H418.283V144.747ZM418.283 114.747H382.92V79.401H418.283V114.747Z" fill="#383838"/>
<path d="M426.139 157.61C425.745 157.628 425.355 157.527 425.022 157.32C424.689 157.114 424.429 156.812 424.277 156.456C424.125 156.1 424.088 155.706 424.172 155.329C424.256 154.952 424.457 154.609 424.746 154.347L424.878 153.835L424.826 153.712C424.429 152.794 423.765 152.012 422.916 151.463C422.067 150.914 421.072 150.623 420.055 150.627C419.037 150.631 418.044 150.929 417.199 151.484C416.355 152.039 415.696 152.826 415.307 153.746C413.75 157.419 411.768 161.099 411.28 164.982C411.065 166.699 411.156 168.439 411.548 170.125C407.892 162.311 405.993 153.819 405.981 145.224C405.981 143.067 406.103 140.912 406.348 138.768C406.55 137.011 406.831 135.266 407.19 133.534C409.15 124.135 413.358 115.326 419.468 107.829C422.425 106.249 424.817 103.818 426.321 100.865C426.865 99.8031 427.25 98.6699 427.464 97.5001C427.13 97.5427 426.791 97.5666 426.458 97.5913L426.141 97.6072H426.101C425.734 97.6241 425.37 97.5365 425.053 97.355C424.736 97.1735 424.479 96.9059 424.314 96.5845C424.149 96.2631 424.082 95.9018 424.122 95.5441C424.162 95.1865 424.307 94.8478 424.54 94.5692L424.972 94.0484C425.191 93.7824 425.415 93.5163 425.634 93.2503C425.658 93.2247 425.681 93.1979 425.702 93.1698C425.954 92.8646 426.205 92.5646 426.457 92.2594C425.998 91.5611 425.38 90.9761 424.652 90.5501C422.131 89.1036 418.653 90.1052 416.832 92.3392C415.011 94.5731 414.659 97.707 415.295 100.498C415.919 102.873 416.951 105.127 418.347 107.163C418.211 107.335 418.067 107.5 417.931 107.672C415.432 110.82 413.253 114.2 411.427 117.765C411.871 113.772 411.341 109.732 409.88 105.978C408.4 102.48 405.626 99.5346 403.182 96.5105C400.247 92.8779 394.229 94.4634 393.712 99.0677C393.708 99.1121 393.703 99.1564 393.698 99.2007C394.06 99.4011 394.415 99.614 394.763 99.8392C395.2 100.125 395.538 100.533 395.734 101.011C395.93 101.488 395.974 102.012 395.86 102.514C395.746 103.017 395.481 103.473 395.097 103.825C394.714 104.177 394.231 104.407 393.712 104.485L393.66 104.493C393.789 105.775 394.017 107.044 394.343 108.292C395.287 111.774 396.955 115.027 399.243 117.848C401.531 120.669 404.389 122.997 407.638 124.685C407.851 124.792 408.059 124.899 408.272 125.001C406.437 130.094 405.286 135.4 404.848 140.784C404.6 143.96 404.615 147.151 404.892 150.325L404.876 150.213C404.176 146.683 402.254 143.498 399.434 141.196C395.247 137.826 389.331 136.585 384.813 133.877C384.333 133.575 383.775 133.414 383.204 133.412C382.633 133.411 382.074 133.569 381.593 133.869C381.111 134.169 380.727 134.597 380.485 135.104C380.244 135.61 380.156 136.174 380.231 136.728C380.237 136.768 380.243 136.807 380.249 136.847C380.923 137.115 381.579 137.425 382.213 137.774C382.575 137.974 382.93 138.187 383.279 138.412C383.715 138.698 384.054 139.106 384.249 139.584C384.445 140.061 384.489 140.585 384.375 141.087C384.262 141.59 383.996 142.046 383.613 142.398C383.229 142.75 382.747 142.98 382.228 143.058L382.175 143.066L382.066 143.082C383.216 145.774 384.831 148.251 386.84 150.405C389.321 153.014 392.32 155.098 395.653 156.531C398.986 157.963 402.582 158.714 406.222 158.736H406.227C407.215 162.942 408.646 167.035 410.498 170.951H425.756C425.811 170.785 425.86 170.613 425.91 170.447C424.497 170.535 423.079 170.452 421.688 170.201C422.819 168.841 423.952 167.469 425.082 166.109C425.106 166.083 425.129 166.056 425.15 166.028C425.724 165.332 426.304 164.641 426.878 163.944C426.908 161.809 426.657 159.68 426.131 157.608L426.139 157.61ZM408.666 123.939L408.674 123.929L408.666 123.95V123.939ZM405.287 153.785L405.156 153.496C405.161 153.287 405.161 153.078 405.156 152.864C405.156 152.804 405.145 152.746 405.145 152.687C405.194 153.056 405.238 153.426 405.293 153.795L405.287 153.785Z" fill="#383838"/>
<path d="M120.016 58.5455L119.847 56.9184L122.12 45.7152L138.597 46.7396L139.054 61.3631L120.016 58.5455Z" fill="#ED9DA0"/>
<path d="M152.322 27.627C150.822 20.4409 150.103 16.7597 144.65 11.6759C143.357 11.8555 144.99 18.4264 137.861 27.5798C127.495 40.886 128.528 28.6858 125.463 32.7847C124.798 33.6746 124.654 36.8849 124.872 37.9896C125.737 42.3538 130.847 38.0926 125.463 53.0262C124.661 54.1874 123.717 53.9054 122.511 53.8908C122.418 53.8908 123.029 53.7758 120.74 53.3122C119.647 53.0914 118.118 52.83 116.285 52.5274C94.9869 49.0125 87.4664 22.6875 103.928 8.99165C107.674 5.87577 111.35 3.5141 114.541 2.41938C124.156 -0.873399 146.056 1.26748 150.259 11.9652C152.24 16.9431 152.947 22.3199 152.32 27.627H152.322Z" fill="#383838" stroke="#383838" stroke-width="2"/>
<path d="M108.456 69.8832C116.845 69.8832 123.646 63.2214 123.646 55.0035C123.646 46.7857 116.845 40.1238 108.456 40.1238C100.067 40.1238 93.2666 46.7857 93.2666 55.0035C93.2666 63.2214 100.067 69.8832 108.456 69.8832Z" fill="#383838" stroke="#383838" stroke-width="2"/>
<path d="M128.557 51.271C130.815 51.271 132.98 50.3925 134.576 48.8288C136.172 47.265 137.069 45.1441 137.069 42.9327C137.069 40.7212 136.172 38.6003 134.576 37.0366C132.98 35.4728 130.815 34.5943 128.557 34.5943V35.707C130.383 35.7084 132.143 36.3737 133.497 37.5739C134.85 38.7741 135.701 40.4237 135.884 42.2032C136.067 43.9827 135.569 45.7653 134.486 47.2057C133.404 48.6461 131.815 49.6418 130.026 49.9997C128.237 50.3576 126.376 50.0523 124.804 49.1431C123.232 48.2338 122.06 46.7852 121.516 45.078C120.972 43.3708 121.094 41.5265 121.859 39.9025C122.624 38.2785 123.977 36.9903 125.655 36.2876L125.208 35.2647C123.405 36.0204 121.924 37.3627 121.015 39.0646C120.105 40.7666 119.824 42.7239 120.217 44.6058C120.611 46.4877 121.656 48.1788 123.175 49.3932C124.695 50.6076 126.595 51.2709 128.556 51.271H128.557Z" fill="#B51643"/>
<path d="M162.571 345.523C162.571 345.523 171.433 340.425 172.374 349.599L174.257 367.95C174.257 367.95 187.454 382.222 176.126 382.329C164.798 382.435 148.922 361.666 148.922 361.666C148.922 361.666 137.397 345.539 141.587 343.88C145.776 342.222 157.917 334.238 157.647 337.524C157.376 340.81 162.571 345.523 162.571 345.523Z" fill="#383838"/>
</svg>