<svg width="59" height="57" viewBox="0 0 59 57" fill="none" xmlns="http://www.w3.org/2000/svg">
<line x1="13.3223" y1="44.7283" x2="24.6443" y2="44.7283" stroke="#C9184A" stroke-width="3.77402"/>
<line x1="23.1348" y1="34.9159" x2="34.4568" y2="34.9159" stroke="#C9184A" stroke-width="3.77402"/>
<line x1="25.0218" y1="35.2933" x2="25.0218" y2="46.6153" stroke="#C9184A" stroke-width="3.77402"/>
<line x1="34.8343" y1="25.4808" x2="34.8343" y2="36.8029" stroke="#C9184A" stroke-width="3.77402"/>
<line x1="32.9473" y1="23.5938" x2="44.2693" y2="23.5938" stroke="#C9184A" stroke-width="3.77402"/>
<path d="M20.1153 14.9135H53.3267C54.9872 14.9135 56.3459 16.2722 56.3459 17.9327V51.1441C56.3459 52.8047 54.9872 54.1633 53.3267 54.1633H5.01922C3.35865 54.1633 2 52.8047 2 51.1441V17.9327C2 16.2722 3.35865 14.9135 5.01922 14.9135H20.1153Z" stroke="#C9184A" stroke-width="3.77402" stroke-linecap="round" stroke-linejoin="round"/>
<path d="M20.1152 14.9135V5.85588C20.1152 4.19531 21.4739 2.83667 23.1345 2.83667H35.2113C36.8719 2.83667 38.2305 4.19531 38.2305 5.85588V14.9135" stroke="#C9184A" stroke-width="3.77402" stroke-linecap="round" stroke-linejoin="round"/>
</svg>
