<svg width="189" height="57" viewBox="0 0 189 57" fill="none" xmlns="http://www.w3.org/2000/svg">
<line x1="13.3223" y1="44.7282" x2="24.6443" y2="44.7282" stroke="#FF4D6D" stroke-width="3.77402"/>
<line x1="23.1348" y1="34.9158" x2="34.4568" y2="34.9158" stroke="#FF4D6D" stroke-width="3.77402"/>
<line x1="25.0218" y1="35.2932" x2="25.0218" y2="46.6153" stroke="#FF4D6D" stroke-width="3.77402"/>
<line x1="34.8343" y1="25.4807" x2="34.8343" y2="36.8028" stroke="#FF4D6D" stroke-width="3.77402"/>
<line x1="32.9473" y1="23.5937" x2="44.2693" y2="23.5937" stroke="#FF4D6D" stroke-width="3.77402"/>
<path d="M20.1153 14.9135H53.3267C54.9872 14.9135 56.3459 16.2722 56.3459 17.9327V51.1441C56.3459 52.8047 54.9872 54.1633 53.3267 54.1633H5.01922C3.35865 54.1633 2 52.8047 2 51.1441V17.9327C2 16.2722 3.35865 14.9135 5.01922 14.9135H20.1153Z" stroke="#FF4D6D" stroke-width="3.77402" stroke-linecap="round" stroke-linejoin="round"/>
<path d="M20.1152 14.9135V5.85589C20.1152 4.19532 21.4739 2.83667 23.1345 2.83667H35.2113C36.8719 2.83667 38.2305 4.19532 38.2305 5.85589V14.9135" stroke="#FF4D6D" stroke-width="3.77402" stroke-linecap="round" stroke-linejoin="round"/>
<path d="M89.6483 18.9246V38H85.0017V30.147H77.7737V38H73.1271V18.9246H77.7737V26.3972H85.0017V18.9246H89.6483ZM107.296 30.1742C107.296 30.609 107.268 31.0618 107.214 31.5328H96.6981C96.7706 32.4748 97.0695 33.1994 97.5949 33.7067C98.1383 34.1958 98.7995 34.4403 99.5785 34.4403C100.738 34.4403 101.544 33.9512 101.997 32.973H106.942C106.689 33.9693 106.227 34.8661 105.557 35.6631C104.904 36.4602 104.08 37.0852 103.084 37.5381C102.087 37.9909 100.973 38.2174 99.7415 38.2174C98.2561 38.2174 96.9336 37.9004 95.7743 37.2663C94.6149 36.6323 93.7091 35.7265 93.057 34.549C92.4048 33.3715 92.0787 31.9948 92.0787 30.4187C92.0787 28.8427 92.3958 27.466 93.0298 26.2885C93.682 25.111 94.5877 24.2052 95.7471 23.5712C96.9065 22.9371 98.2379 22.6201 99.7415 22.6201C101.209 22.6201 102.513 22.9281 103.654 23.544C104.796 24.1599 105.683 25.0385 106.317 26.1798C106.97 27.321 107.296 28.6525 107.296 30.1742ZM102.54 28.9514C102.54 28.1543 102.269 27.5203 101.725 27.0493C101.182 26.5783 100.502 26.3428 99.6872 26.3428C98.9082 26.3428 98.247 26.5692 97.7035 27.0221C97.1782 27.475 96.8521 28.1181 96.7253 28.9514H102.54ZM114.393 25.3646C114.937 24.5313 115.616 23.8791 116.431 23.4081C117.247 22.919 118.152 22.6745 119.149 22.6745V27.5928H117.872C116.712 27.5928 115.843 27.8464 115.263 28.3536C114.683 28.8427 114.393 29.7123 114.393 30.9622V38H109.747V22.8375H114.393V25.3646ZM132.429 38L126.016 29.5764V38H121.37V18.9246H126.016V27.2939L132.375 18.9246H137.836L130.445 28.2721L138.108 38H132.429ZM139.393 30.3916C139.393 28.8337 139.682 27.466 140.262 26.2885C140.86 25.111 141.666 24.2052 142.68 23.5712C143.695 22.9371 144.827 22.6201 146.077 22.6201C147.146 22.6201 148.079 22.8375 148.876 23.2723C149.691 23.707 150.316 24.2777 150.751 24.9842V22.8375H155.397V38H150.751V35.8533C150.298 36.5598 149.664 37.1305 148.849 37.5652C148.052 38 147.119 38.2174 146.05 38.2174C144.818 38.2174 143.695 37.9004 142.68 37.2663C141.666 36.6142 140.86 35.6994 140.262 34.5219C139.682 33.3263 139.393 31.9495 139.393 30.3916ZM150.751 30.4187C150.751 29.2594 150.425 28.3445 149.773 27.6743C149.139 27.004 148.36 26.6689 147.436 26.6689C146.512 26.6689 145.724 27.004 145.072 27.6743C144.438 28.3264 144.121 29.2322 144.121 30.3916C144.121 31.551 144.438 32.4748 145.072 33.1632C145.724 33.8335 146.512 34.1686 147.436 34.1686C148.36 34.1686 149.139 33.8335 149.773 33.1632C150.425 32.493 150.751 31.5781 150.751 30.4187ZM163.406 25.3646C163.949 24.5313 164.628 23.8791 165.444 23.4081C166.259 22.919 167.165 22.6745 168.161 22.6745V27.5928H166.884C165.724 27.5928 164.855 27.8464 164.275 28.3536C163.695 28.8427 163.406 29.7123 163.406 30.9622V38H158.759V22.8375H163.406V25.3646ZM172.719 21.2615C171.904 21.2615 171.233 21.026 170.708 20.555C170.201 20.0659 169.947 19.4681 169.947 18.7616C169.947 18.0369 170.201 17.4391 170.708 16.9681C171.233 16.479 171.904 16.2345 172.719 16.2345C173.516 16.2345 174.168 16.479 174.675 16.9681C175.2 17.4391 175.463 18.0369 175.463 18.7616C175.463 19.4681 175.2 20.0659 174.675 20.555C174.168 21.026 173.516 21.2615 172.719 21.2615ZM175.028 22.8375V38H170.382V22.8375H175.028ZM183.042 25.3646C183.586 24.5313 184.265 23.8791 185.08 23.4081C185.895 22.919 186.801 22.6745 187.798 22.6745V27.5928H186.52C185.361 27.5928 184.492 27.8464 183.912 28.3536C183.332 28.8427 183.042 29.7123 183.042 30.9622V38H178.396V22.8375H183.042V25.3646Z" fill="#FF4D6D"/>
</svg>
