<svg width="132" height="110" viewBox="0 0 132 110" fill="none" xmlns="http://www.w3.org/2000/svg">
<g clip-path="url(#clip0_426_18313)">
<path d="M129.307 37.6372C129.461 38.2344 129.605 38.8346 129.74 39.4379H84.0037V37.6372H129.307Z" fill="#F9F9F9"/>
<path d="M127.849 32.8906C127.113 30.8235 126.254 28.8014 125.278 26.835C124.978 26.2288 124.666 25.6285 124.342 25.0344C124.289 24.9324 124.232 24.8305 124.176 24.7285V38.1287H128.128V33.6881L127.849 32.8906Z" fill="#F9F9F9"/>
<path d="M125.278 26.8348H124.176V25.0342H124.342C124.666 25.6277 124.978 26.2279 125.278 26.8348Z" fill="#CCCCCC"/>
<path d="M127.849 32.8906H124.176V34.6913H128.128V33.6881L127.849 32.8906Z" fill="#CCCCCC"/>
<path d="M122.035 22.5796H118.084V38.1289H122.035V22.5796Z" fill="#F9F9F9"/>
<path d="M122.035 25.0347H118.084V26.8351H122.035V25.0347Z" fill="#CCCCCC"/>
<path d="M122.035 32.8911H118.084V34.6916H122.035V32.8911Z" fill="#CCCCCC"/>
<path d="M104.015 22.4893H89.8402C89.6218 22.4896 89.4123 22.576 89.2579 22.7296C89.1034 22.8832 89.0164 23.0914 89.0161 23.3086V37.4006C89.0164 37.4808 89.0281 37.5605 89.0509 37.6373C89.1023 37.8057 89.2068 37.9532 89.3489 38.0581C89.491 38.163 89.6632 38.2197 89.8402 38.2199H104.015C104.192 38.2197 104.365 38.163 104.507 38.0581C104.649 37.9532 104.753 37.8057 104.805 37.6373C104.828 37.5605 104.839 37.4808 104.839 37.4006V23.3086C104.839 23.0914 104.752 22.8832 104.598 22.7296C104.443 22.576 104.234 22.4896 104.015 22.4893Z" fill="#F9F9F9"/>
<path d="M103.008 23.4902H90.8476C90.6291 23.4906 90.4197 23.577 90.2652 23.7306C90.1107 23.8841 90.0238 24.0923 90.0234 24.3095V36.3989C90.0238 36.616 90.1107 36.8242 90.2652 36.9778C90.4197 37.1314 90.6291 37.2178 90.8476 37.2182H103.008C103.227 37.2178 103.436 37.1314 103.59 36.9778C103.745 36.8242 103.832 36.616 103.832 36.3989V24.3095C103.832 24.0923 103.745 23.8841 103.59 23.7306C103.436 23.577 103.227 23.4906 103.008 23.4902Z" fill="#F9F9F9"/>
<path d="M100.887 25.5986H92.9684C92.7499 25.599 92.5405 25.6854 92.386 25.839C92.2316 25.9925 92.1446 26.2007 92.1443 26.4179V34.2906C92.1446 34.5077 92.2316 34.716 92.386 34.8695C92.5405 35.0231 92.7499 35.1095 92.9684 35.1099H100.887C101.106 35.1087 101.315 35.0221 101.469 34.8687C101.623 34.7152 101.71 34.5075 101.712 34.2906V26.4179C101.711 26.2007 101.624 25.9925 101.47 25.839C101.315 25.6854 101.106 25.599 100.887 25.5986Z" fill="#CCCCCC"/>
<path d="M100.399 32.902L98.7266 30.0219C98.6944 29.9665 98.6482 29.9205 98.5925 29.8886C98.5368 29.8566 98.4737 29.8398 98.4094 29.8398C98.3451 29.8398 98.2819 29.8566 98.2262 29.8886C98.1705 29.9205 98.1243 29.9665 98.0921 30.0219L96.8708 32.1249L95.269 29.3671C95.2369 29.3118 95.1906 29.2658 95.1349 29.2338C95.0793 29.2019 95.0161 29.1851 94.9518 29.1851C94.8875 29.1851 94.8244 29.2019 94.7687 29.2338C94.713 29.2658 94.6668 29.3118 94.6346 29.3671L92.9619 32.2473L90.9722 35.6736H94.8099L94.4297 36.3283H102.389L100.399 32.902Z" fill="#F9F9F9"/>
<path d="M99.8087 28.4721C100.445 28.4721 100.961 27.9592 100.961 27.3264C100.961 26.6936 100.445 26.1807 99.8087 26.1807C99.1722 26.1807 98.6562 26.6936 98.6562 27.3264C98.6562 27.9592 99.1722 28.4721 99.8087 28.4721Z" fill="#F9F9F9"/>
<path d="M131.056 50.3602C131.043 49.6538 131.015 48.951 130.972 48.2519C130.954 47.9169 130.932 47.5837 130.904 47.2505H123.172C122.954 47.2508 122.744 47.3372 122.59 47.4908C122.435 47.6444 122.348 47.8526 122.348 48.0698V62.1619C122.347 62.2263 122.355 62.2906 122.372 62.353C122.415 62.5318 122.517 62.6908 122.663 62.8048C122.808 62.9187 122.987 62.9808 123.172 62.9812H130.3C130.337 62.7736 130.371 62.5624 130.402 62.353C130.423 62.2292 130.443 62.1036 130.461 61.9798C130.505 61.683 130.547 61.3862 130.586 61.0895C130.641 60.6853 130.69 60.2793 130.734 59.8714C130.895 58.4094 130.999 56.9317 131.045 55.4381V55.4363C131.062 54.8737 131.07 54.3087 131.071 53.7412V51.5564C131.071 51.1558 131.067 50.7571 131.056 50.3602Z" fill="#F9F9F9"/>
<path d="M131.056 50.3598C131.043 49.6534 131.015 48.9506 130.972 48.2515H124.179C123.961 48.2518 123.751 48.3382 123.597 48.4918C123.442 48.6454 123.355 48.8536 123.355 49.0708V61.1601C123.355 61.3773 123.442 61.5855 123.597 61.7391C123.751 61.8926 123.961 61.9791 124.179 61.9794H130.461C130.505 61.6826 130.547 61.3858 130.585 61.0891C130.64 60.6849 130.69 60.2789 130.734 59.871C130.895 58.409 130.999 56.9313 131.045 55.4377V55.4359C131.062 54.8733 131.07 54.3083 131.071 53.7408V51.556C131.071 51.1554 131.067 50.7567 131.056 50.3598Z" fill="#F9F9F9"/>
<path d="M131.056 50.3599H126.3C126.081 50.3602 125.872 50.4466 125.718 50.6002C125.563 50.7538 125.476 50.962 125.476 51.1792V59.0518C125.476 59.269 125.563 59.4772 125.718 59.6308C125.872 59.7843 126.081 59.8708 126.3 59.8711H130.734C130.895 58.4091 130.999 56.9313 131.045 55.4377V55.4359C131.062 54.8733 131.07 54.3083 131.071 53.7409V51.556C131.071 51.1555 131.067 50.7568 131.056 50.3599Z" fill="#CCCCCC"/>
<path d="M131.045 55.4379C130.999 56.9308 130.896 58.4086 130.734 59.8712C130.69 60.279 130.64 60.6851 130.585 61.0893H127.761L128.142 60.4356H124.304L125.476 58.4165L126.293 57.0091L127.967 54.1288C127.998 54.0732 128.045 54.027 128.1 53.9949C128.156 53.9627 128.219 53.9458 128.283 53.9458C128.348 53.9458 128.411 53.9627 128.467 53.9949C128.522 54.027 128.568 54.0732 128.6 54.1288L130.203 56.8871L131.045 55.4379Z" fill="#F9F9F9"/>
<path d="M117.169 14.724H84.0037V12.9233H115.524C116.085 13.5114 116.633 14.1116 117.169 14.724Z" fill="#F9F9F9"/>
<path d="M101.62 2.23584C102.971 2.97504 104.289 3.76703 105.572 4.61182V13.413H101.62V2.23584Z" fill="#F9F9F9"/>
<path d="M105.571 8.17578H101.62V9.97623H105.571V8.17578Z" fill="#CCCCCC"/>
<path d="M111.663 9.23611V13.4128H107.711V6.0918C108.632 6.75999 109.533 7.45489 110.413 8.17647C110.834 8.5224 111.251 8.87562 111.663 9.23611Z" fill="#F9F9F9"/>
<path d="M111.663 9.23639V9.97559H107.711V8.17676H110.413C110.834 8.52269 111.251 8.8759 111.663 9.23639Z" fill="#CCCCCC"/>
<path d="M97.5854 0.229407C98.6311 0.697311 99.6591 1.19618 100.669 1.72601L99.8563 3.35733L97.155 8.78478L96.351 10.3979L95.0928 12.9232L94.8163 13.4785L93.69 12.9232L91.2761 11.7343L92.809 8.65369H92.8109L93.613 7.04057L96.3163 1.61312L97.1111 0.0182079L97.1202 0L97.5854 0.229407Z" fill="#F9F9F9"/>
<path d="M100.66 1.74239L99.8563 3.35733L96.3162 1.61312L97.111 0.0182068L97.1202 0L97.5853 0.229406L100.66 1.74239Z" fill="#CCCCCC"/>
<path d="M93.6131 7.04125L92.8096 8.65479L96.3507 10.3977L97.1543 8.78418L93.6131 7.04125Z" fill="#CCCCCC"/>
<path d="M130.402 62.353C130.371 62.5624 130.337 62.7736 130.3 62.9812C130.236 63.3744 130.166 63.7641 130.091 64.1537H84.0037V62.353H130.402Z" fill="#F9F9F9"/>
<path d="M105.571 47.2949H101.62V62.8443H105.571V47.2949Z" fill="#F9F9F9"/>
<path d="M105.571 49.75H101.62V51.5504H105.571V49.75Z" fill="#CCCCCC"/>
<path d="M105.571 57.6064H101.62V59.4069H105.571V57.6064Z" fill="#CCCCCC"/>
<path d="M111.663 47.2949H107.712V62.8443H111.663V47.2949Z" fill="#F9F9F9"/>
<path d="M111.663 49.75H107.712V51.5504H111.663V49.75Z" fill="#CCCCCC"/>
<path d="M111.663 57.6064H107.712V59.4069H111.663V57.6064Z" fill="#CCCCCC"/>
<path d="M98.2152 47.2305L91.2754 61.1655L94.8166 62.9085L101.756 48.9734L98.2152 47.2305Z" fill="#F9F9F9"/>
<path d="M97.1195 49.4309L96.3159 51.0444L99.8571 52.7874L100.661 51.1738L97.1195 49.4309Z" fill="#CCCCCC"/>
<path d="M93.6131 56.4714L92.8096 58.085L96.3507 59.8279L97.1543 58.2144L93.6131 56.4714Z" fill="#CCCCCC"/>
<path d="M53.6941 69.292C53.8593 69.3864 54.0167 69.4937 54.1648 69.6128L70.4697 64.5684L71.3891 60.5469L77.6754 61.1331L76.7437 68.4097C76.6684 68.9975 76.4034 69.5452 75.9883 69.9706C75.5733 70.3959 75.0307 70.676 74.4419 70.7686L55.2537 73.7888C54.9737 74.4633 54.4939 75.0371 53.8779 75.4339C53.2619 75.8306 52.539 76.0316 51.8053 76.0099C51.0717 75.9883 50.362 75.7451 49.7708 75.3128C49.1796 74.8804 48.7347 74.2793 48.4955 73.5895C48.2562 72.8997 48.2339 72.1538 48.4315 71.451C48.6291 70.7483 49.0372 70.122 49.6015 69.6555C50.1659 69.189 50.8598 68.9043 51.5908 68.8393C52.3219 68.7744 53.0555 68.9323 53.6941 69.292Z" fill="#FFB8B8"/>
<path d="M80.5808 63.5455L80.4728 61.7103V61.7085L80.4434 61.206L80.1248 55.8022C80.2201 54.6756 79.8626 53.5574 79.1304 52.6924C78.3983 51.8274 77.3512 51.286 76.2184 51.1868C75.8925 51.1577 75.5644 51.1663 75.2405 51.2123C74.2782 51.3475 73.3901 51.802 72.7203 52.5019C72.0504 53.2019 71.6381 54.1063 71.5501 55.0684L70.889 57.8031L69.7333 62.586C69.6515 62.9207 69.6854 63.273 69.8296 63.5861C69.9738 63.8993 70.2199 64.155 70.5282 64.312C70.7062 64.4051 70.9011 64.4621 71.1014 64.4795L73.0281 64.6507L74.8833 64.8145L77.0242 65.0039L77.1781 65.0166L77.5736 65.0531L78.8977 65.1696H78.9014C79.1226 65.1873 79.345 65.1582 79.554 65.0841C79.763 65.01 79.9538 64.8927 80.1138 64.7399C80.2304 64.627 80.3286 64.4968 80.405 64.3539C80.5386 64.1061 80.5995 63.826 80.5808 63.5455Z" fill="#C9184A"/>
<path d="M98.4727 41.2915C98.4727 47.5228 92.6769 46.5803 85.5274 46.5803C78.3779 46.5803 72.582 47.5228 72.582 41.2915C72.582 35.0601 75.4131 24.0146 85.5274 24.0146C95.99 24.0146 98.4727 35.0602 98.4727 41.2915Z" fill="#46081A"/>
<path d="M91.6438 44.0337C95.0456 40.6517 95.0456 35.1686 91.6438 31.7867C88.2419 28.4047 82.7265 28.4047 79.3246 31.7867C75.9228 35.1686 75.9228 40.6517 79.3246 44.0337C82.7265 47.4156 88.242 47.4156 91.6438 44.0337Z" fill="#FFB8B8"/>
<path d="M97.7465 50.2106C97.5788 50.05 97.4008 49.9004 97.2136 49.7627C96.0293 48.8732 94.541 48.4816 93.0691 48.6721L77.0168 50.6913C75.5464 50.8728 74.205 51.6164 73.2768 52.7645C72.3486 53.9126 71.9066 55.375 72.0446 56.8415C72.0903 57.3513 72.1417 57.8884 72.1984 58.4474C72.2717 59.1483 72.3541 59.8839 72.4493 60.6449C72.6068 61.9249 72.7991 63.2758 73.028 64.6504C73.2276 65.8339 73.4548 67.0337 73.7148 68.219C73.7899 68.5612 73.8681 68.9023 73.9492 69.2422C73.9491 69.2432 73.9492 69.2442 73.9495 69.2451C73.9498 69.2461 73.9504 69.2469 73.9511 69.2476C73.9602 69.2895 73.9693 69.3314 73.9803 69.3714C73.9798 69.3746 73.9805 69.3778 73.9822 69.3806C74.0958 69.8539 74.2148 70.3218 74.3394 70.7843C74.3869 70.9554 74.4327 71.1248 74.4803 71.2923C74.6085 71.7474 74.7441 72.1935 74.8832 72.6323C75.929 75.8968 77.3117 78.6769 79.1376 80.1553C79.1614 80.1772 79.1853 80.1954 79.2108 80.2154L79.2842 80.2718L79.3903 80.2391L79.8408 80.1062L80.2255 79.9896L85.2363 78.4912L86.4834 78.118L90.4906 76.9182H90.4924L94.157 75.8221L94.6039 75.6874L97.7521 74.7461L97.8528 73.5772L97.9884 72.026L98.0689 71.0938L98.7063 63.7419L99.078 59.4524L99.4809 54.7951C99.5558 53.9506 99.4388 53.1001 99.1386 52.3066C98.8384 51.5131 98.3626 50.7968 97.7465 50.2106Z" fill="#46081A"/>
<path d="M106.722 85.7848C106.68 85.6628 106.64 85.5409 106.598 85.4207C104.715 79.9587 101.939 75.8275 97.8526 73.5772C97.8508 73.5772 97.8508 73.5753 97.849 73.5753L97.7794 73.5371L94.2191 74.7624L93.7796 74.9135L93.3218 75.0719L93.3162 75.0738L89.9831 76.2208L89.9776 76.2226L87.3624 77.122H87.3605L84.9412 77.9541H84.9394L84.3771 78.1489L80.1484 79.6036L79.6575 79.7729L79.218 79.9241L79.1502 79.9477L79.1375 80.1553L78.8353 85.4207L78.8152 85.7848L78.4379 92.3557L65.9092 110H74.4801C77.3521 110.001 80.2199 109.783 83.0585 109.35L91.1002 100.734C91.1676 100.665 91.2528 100.615 91.3465 100.591C91.4403 100.566 91.5391 100.567 91.6322 100.594C91.7253 100.621 91.8093 100.673 91.875 100.744C91.9407 100.815 91.9856 100.902 92.005 100.997L93.1862 106.823C99.0057 104.777 104.45 101.799 109.303 98.007C108.739 93.4827 107.914 89.3588 106.722 85.7848Z" fill="#46081A"/>
<path d="M75.4194 37.0604H78.8648L80.3848 32.8293L80.6887 37.0604H82.3354L83.2221 34.5922L83.3994 37.0604H95.6354C95.6354 35.8565 95.3969 34.6644 94.9335 33.5522C94.4701 32.44 93.7908 31.4294 92.9346 30.5781C92.0783 29.7268 91.0617 29.0516 89.9429 28.5909C88.8242 28.1302 87.6251 27.8931 86.4141 27.8931H84.6407C82.1951 27.8931 79.8496 28.8589 78.1203 30.5781C76.391 32.2973 75.4194 34.629 75.4194 37.0604Z" fill="#46081A"/>
<path d="M54.2273 82.9425C53.6648 83.1774 53.0573 83.2869 52.4477 83.2632C51.838 83.2395 51.241 83.0832 50.6987 82.8054C50.1564 82.5275 49.6819 82.1348 49.3088 81.6549C48.9357 81.175 48.6729 80.6196 48.539 80.0278L33.8025 78.3686L38.7424 72.4878L51.9791 74.965C52.994 74.8073 54.0318 75.0252 54.8959 75.5774C55.76 76.1296 56.3903 76.9777 56.6674 77.961C56.9445 78.9444 56.8492 79.9946 56.3995 80.9127C55.9497 81.8308 55.1769 82.553 54.2273 82.9425Z" fill="#A0616A"/>
<path d="M46.282 72.0569L40.0533 70.9499L39.601 70.8698C39.2396 70.8056 38.8958 70.6661 38.5924 70.4605C38.2891 70.2548 38.0329 69.9877 37.8407 69.6766C37.6485 69.3656 37.5247 69.0176 37.4775 68.6556C37.4302 68.2936 37.4605 67.9257 37.5664 67.5762L40.6248 57.4732L40.7163 57.1728C41.0982 55.8887 41.0302 54.5138 40.5235 53.2731C40.0168 52.0324 39.1013 50.9995 37.9271 50.3435C37.1323 49.9047 36.2463 49.6541 35.3382 49.6111C34.43 49.5682 33.5242 49.7341 32.691 50.0959C31.8579 50.4577 31.1199 51.0057 30.5345 51.6972C29.9491 52.3888 29.5321 53.2053 29.3158 54.0831L25.4149 69.9103L25.2703 70.4966C24.9978 71.6009 24.9681 72.7507 25.1831 73.8676C25.3982 74.9844 25.853 76.042 26.5165 76.9682C27.18 77.8944 28.0366 78.6676 29.0279 79.2348C30.0192 79.8021 31.1218 80.1502 32.2607 80.2554C32.2735 80.2572 32.2845 80.2572 32.2974 80.2591L34.6324 80.4648L37.6615 80.7324L41.4709 81.0693L45.0257 81.3842C45.4913 81.4262 45.9558 81.2926 46.3269 81.01C46.698 80.7274 46.9488 80.3163 47.0293 79.8585C47.0347 79.833 47.0384 79.8075 47.042 79.782L47.7966 74.1816L47.8039 74.1307C47.869 73.6565 47.7469 73.1756 47.4631 72.789C47.1794 72.4024 46.7561 72.14 46.282 72.0569Z" fill="#CCCCCC"/>
<path d="M36.6858 29.6225C34.1993 34.4824 32.2397 39.495 26.7551 39.495C24.1213 39.495 21.5954 38.4549 19.7331 36.6034C17.8707 34.752 16.8245 32.2409 16.8245 29.6225C16.8245 24.1701 21.271 19.8183 26.7551 19.75C32.329 19.6807 41.3138 20.5767 36.6858 29.6225Z" fill="#46081A"/>
<path d="M42.9234 93.2006L42.698 90.9648L42.5295 90.974L12.9175 92.3923L12.9944 94.6554L13.1245 98.5316C17.7065 102.001 22.7948 104.755 28.2134 106.697L28.4058 105.215C28.4226 105.095 28.4808 104.983 28.5707 104.9C28.6606 104.817 28.7765 104.768 28.8989 104.76C29.0213 104.752 29.1426 104.787 29.2423 104.858C29.342 104.929 29.4139 105.032 29.446 105.15L30.0302 107.315C34.7504 108.828 39.6521 109.71 44.6064 109.938L42.9234 93.2006Z" fill="#46081A"/>
<path d="M33.4033 37.1508C36.8052 33.7689 36.8052 28.2858 33.4033 24.9038C30.0015 21.5219 24.486 21.5219 21.0841 24.9038C17.6823 28.2858 17.6823 33.7689 21.0841 37.1508C24.486 40.5328 30.0015 40.5328 33.4033 37.1508Z" fill="#A0616A"/>
<path d="M44.6246 91.116L42.8976 85.785L42.8682 85.694L42.7803 85.4209L42.2877 83.9024C42.1283 83.409 41.9763 82.9138 41.8353 82.4168C41.7053 81.9689 41.5838 81.5198 41.4709 81.0695C41.3097 80.4431 41.1632 79.8144 41.0314 79.1832C40.5844 77.0622 40.2864 74.9129 40.1394 72.7508C40.0991 72.1518 40.0704 71.5515 40.0533 70.9501C39.9461 67.2637 40.2799 63.5777 41.0478 59.9696C41.7163 56.8495 41.3593 53.5985 40.0292 50.6954C38.6992 47.7922 36.4665 45.3905 33.6599 43.8438C31.8183 42.832 29.78 42.2242 27.6822 42.0614C27.5375 42.0505 27.3928 42.0414 27.2463 42.0323C25.0303 41.8931 22.8112 42.2504 20.7527 43.0779C18.6942 43.9055 16.849 45.182 15.3532 46.8134C14.552 47.681 13.8562 48.6391 13.2799 49.6682C11.6812 52.5318 11.081 55.841 11.5731 59.0793L13.6316 72.82L13.1628 78.6043L12.6097 85.4209L12.5804 85.785L11.9906 93.0532C11.9627 93.392 12.0452 93.7307 12.226 94.0192C12.4067 94.3078 12.6761 94.5308 12.9942 94.6554C13.1806 94.7296 13.3796 94.7673 13.5803 94.7664C13.6097 94.7664 13.6371 94.7664 13.6664 94.7646L42.9232 93.2007L43.1906 93.1861C43.4347 93.1735 43.6725 93.1053 43.8858 92.9867C44.0991 92.8681 44.2821 92.7024 44.4207 92.5023C44.5593 92.3022 44.6498 92.0731 44.6851 91.8328C44.7205 91.5924 44.6998 91.3471 44.6246 91.116Z" fill="#CCCCCC"/>
<path d="M36.4875 26.1334C34.4969 27.4974 32.1343 28.2233 29.7167 28.2137C30.5791 28.8081 31.5608 29.2097 32.5943 29.3906C29.38 30.0761 26.0579 30.0946 22.8361 29.4451C22.1199 29.331 21.4288 29.095 20.7933 28.7476C20.1746 28.3743 19.6571 27.7798 19.5323 27.0712C19.3183 25.8553 20.2713 24.7506 21.2617 24.0061C22.7781 22.8836 24.5265 22.1102 26.3804 21.742C28.2344 21.3737 30.1474 21.4196 31.9813 21.8766C33.1788 22.1843 34.3783 22.7042 35.1561 23.6602C35.9339 24.6162 36.1643 26.09 35.4232 27.0745L36.4875 26.1334Z" fill="#46081A"/>
<path d="M36.933 81.1409C36.3757 81.3879 35.7708 81.5104 35.1608 81.4999C34.5507 81.4893 33.9504 81.3459 33.4022 81.0798C32.854 80.8136 32.3711 80.4312 31.9876 79.9595C31.6041 79.4877 31.3293 78.9381 31.1826 78.3494L16.4133 77.0077L21.224 71.022L34.5116 73.2137C35.5228 73.0342 36.5651 73.2297 37.441 73.7631C38.3169 74.2966 38.9656 75.1309 39.2641 76.1081C39.5625 77.0852 39.4901 78.1373 39.0604 79.0648C38.6308 79.9924 37.8738 80.7311 36.933 81.1409Z" fill="#A0616A"/>
<path d="M28.7537 70.4295L25.4151 69.9106L22.0471 69.3862C21.6844 69.3299 21.3377 69.1979 21.03 68.9989C20.7222 68.7999 20.4602 68.5385 20.2613 68.2317C20.0624 67.9249 19.931 67.5798 19.8758 67.219C19.8206 66.8582 19.8428 66.4898 19.941 66.1381L22.8639 55.6692C23.2176 54.3772 23.1196 53.004 22.5859 51.7746C22.0523 50.5452 21.1145 49.5323 19.9263 48.9017C19.1236 48.476 18.2322 48.242 17.3227 48.2183C16.4132 48.1946 15.5107 48.3818 14.6867 48.7652C13.8601 49.1425 13.1329 49.7054 12.5625 50.4097C11.992 51.1139 11.5938 51.9402 11.3992 52.8235L7.71264 69.3207C7.46429 70.4335 7.46071 71.5865 7.70212 72.7008C7.94353 73.8151 8.42424 74.8645 9.11137 75.777C9.79849 76.6895 10.6758 77.4437 11.6833 77.9879C12.6907 78.5321 13.8046 78.8536 14.9486 78.9302L27.7007 79.7805C28.167 79.8121 28.6282 79.6686 28.9931 79.3783C29.358 79.088 29.6 78.6721 29.6712 78.2129C29.6768 78.1874 29.6785 78.1619 29.6822 78.1364L30.3141 72.5214L30.3195 72.4704C30.374 71.9951 30.2414 71.5172 29.9496 71.1368C29.6578 70.7564 29.2293 70.503 28.7537 70.4295Z" fill="#CCCCCC"/>
<path d="M85.2485 61.7262L84.4843 62.1407L75.0687 67.248L74.3044 67.6625C73.9336 67.8642 73.6584 68.2039 73.5392 68.6071C73.4199 69.0102 73.4665 69.444 73.6685 69.8131L80.6801 82.5884C80.8829 82.957 81.2246 83.2306 81.6302 83.3492C82.0357 83.4677 82.472 83.4214 82.8433 83.2206L82.8452 83.2195L93.7854 77.2853L93.7873 77.2843C94.1582 77.0826 94.4334 76.7429 94.5526 76.3397C94.6718 75.9365 94.6253 75.5028 94.4233 75.1337L87.4117 62.3584C87.2088 61.9898 86.8671 61.7162 86.4616 61.5976C86.0561 61.4791 85.6198 61.5253 85.2485 61.7262Z" fill="#F9F9F9"/>
<path d="M85.4683 62.1272L84.5631 62.6182L75.4294 67.5725L74.5242 68.0635C74.2601 68.2071 74.0642 68.449 73.9793 68.7361C73.8944 69.0232 73.9275 69.3321 74.0714 69.595L81.0829 82.3703C81.2274 82.6328 81.4707 82.8276 81.7595 82.912C82.0483 82.9964 82.359 82.9635 82.6234 82.8205L82.6254 82.8194L93.5655 76.8852L93.5675 76.8841C93.8315 76.7405 94.0275 76.4986 94.1124 76.2115C94.1973 75.9244 94.1642 75.6156 94.0203 75.3527L87.0087 62.5774C86.8643 62.3149 86.621 62.12 86.3322 62.0356C86.0434 61.9512 85.7327 61.9842 85.4683 62.1272Z" fill="#F9F9F9"/>
<path d="M85.7252 65.7336C85.6912 65.6723 85.6342 65.6268 85.5666 65.607C85.4991 65.5872 85.4264 65.5948 85.3644 65.628L85 65.8264L81.284 67.8419C81.2226 67.8757 81.177 67.9323 81.1573 67.9994C81.1377 68.0664 81.1455 68.1385 81.1792 68.1998C81.2128 68.2612 81.2694 68.3068 81.3368 68.3267C81.4041 68.3466 81.4767 68.3393 81.5385 68.3062L85.619 66.0923C85.6806 66.0584 85.7264 66.0018 85.7463 65.9346C85.7662 65.8675 85.7586 65.7952 85.7252 65.7336Z" fill="#F9F9F9"/>
<path d="M87.1151 65.9942C87.0986 65.9638 87.0761 65.937 87.049 65.9153C87.022 65.8936 86.9908 65.8775 86.9575 65.8678C86.9241 65.8582 86.8891 65.8552 86.8545 65.8591C86.82 65.863 86.7866 65.8736 86.7562 65.8904L81.7143 68.6251C81.6837 68.6417 81.6568 68.6641 81.6349 68.6911C81.6131 68.7181 81.5969 68.7491 81.5871 68.7823C81.5773 68.8155 81.5742 68.8503 81.578 68.8847C81.5817 68.9191 81.5923 68.9525 81.609 68.9828C81.6257 69.0132 81.6483 69.04 81.6754 69.0617C81.7025 69.0834 81.7337 69.0996 81.7671 69.1093C81.8005 69.119 81.8355 69.1221 81.8702 69.1183C81.9048 69.1146 81.9383 69.1041 81.9689 69.0875L82.2033 68.9601L83.6702 68.1644H83.6721L87.0089 66.3529C87.0398 66.3365 87.0671 66.3141 87.0892 66.2871C87.1113 66.2602 87.1278 66.2291 87.1377 66.1957C87.1476 66.1623 87.1507 66.1273 87.1468 66.0927C87.1429 66.0581 87.1322 66.0246 87.1151 65.9942Z" fill="#F9F9F9"/>
<path d="M81.6357 70.3527L80.035 67.4341C80.0183 67.4048 79.9907 67.3832 79.9582 67.374C79.9256 67.3648 79.8907 67.3688 79.861 67.385L79.0845 67.8056L78.6816 68.024L76.5187 69.1965L76.0993 69.4241C76.0698 69.4407 76.0481 69.4681 76.0388 69.5005C76.0296 69.5329 76.0335 69.5676 76.0499 69.5971L76.1524 69.7846L77.6505 72.5157C77.6668 72.5448 77.6941 72.5663 77.7263 72.5756C77.7586 72.5848 77.7932 72.5809 77.8226 72.5648L80.4049 71.1647L80.8079 70.9462L81.5843 70.5257C81.5992 70.5177 81.6123 70.5069 81.6229 70.4939C81.6336 70.4809 81.6415 70.4659 81.6463 70.4498C81.6511 70.4337 81.6526 70.4169 81.6508 70.4002C81.6489 70.3835 81.6438 70.3674 81.6357 70.3527Z" fill="#F9F9F9"/>
<path d="M87.7487 69.4372C87.7151 69.3759 87.6585 69.3304 87.5912 69.3106C87.5239 69.2908 87.4515 69.2984 87.3898 69.3316L81.8552 72.3339C81.8064 72.3605 81.7672 72.4017 81.7432 72.4517C81.7192 72.5017 81.7116 72.5579 81.7215 72.6125C81.7254 72.6407 81.7348 72.6679 81.7491 72.6926C81.763 72.7177 81.781 72.7404 81.8022 72.7599L81.804 72.7617C81.845 72.7984 81.8964 72.8215 81.9511 72.8281C82.0058 72.8346 82.0613 72.8241 82.1098 72.7982L87.6444 69.7959C87.675 69.7792 87.702 69.7566 87.7238 69.7296C87.7456 69.7025 87.7618 69.6714 87.7715 69.6381C87.7812 69.6048 87.7842 69.5698 87.7803 69.5354C87.7764 69.5009 87.7656 69.4675 87.7487 69.4372Z" fill="#F9F9F9"/>
<path d="M89.1406 69.6976C89.1238 69.6673 89.1011 69.6405 89.0738 69.6188C89.0466 69.5972 89.0153 69.5811 88.9818 69.5714C88.9483 69.5618 88.9132 69.5588 88.8786 69.5627C88.8439 69.5665 88.8103 69.5771 88.7798 69.5939L82.2838 73.1169C82.235 73.1425 82.1956 73.1831 82.1716 73.2325C82.1475 73.282 82.14 73.3378 82.1501 73.3918V73.3936C82.154 73.4218 82.1633 73.4491 82.1776 73.4737C82.1917 73.4998 82.2103 73.5232 82.2325 73.5429C82.2731 73.5803 82.3245 73.604 82.3795 73.6106C82.4344 73.6171 82.49 73.6062 82.5383 73.5793L89.0344 70.0563C89.0961 70.0226 89.142 69.966 89.1619 69.8988C89.1818 69.8316 89.1741 69.7593 89.1406 69.6976Z" fill="#F9F9F9"/>
<path d="M80.0016 75.2562C80.6237 75.2562 81.128 74.7548 81.128 74.1364C81.128 73.5179 80.6237 73.0166 80.0016 73.0166C79.3795 73.0166 78.8752 73.5179 78.8752 74.1364C78.8752 74.7548 79.3795 75.2562 80.0016 75.2562Z" fill="#F9F9F9"/>
<path d="M88.5449 56.8107L87.7806 57.2252L78.3651 62.3325L77.6008 62.747C77.23 62.9487 76.9548 63.2884 76.8356 63.6915C76.7163 64.0947 76.7629 64.5284 76.9649 64.8975L83.9765 77.6728C84.1793 78.0415 84.521 78.3151 84.9266 78.4336C85.3321 78.5522 85.7684 78.5059 86.1397 78.3051L86.1416 78.304L97.0817 72.3698L97.0837 72.3687C97.4546 72.167 97.7298 71.8273 97.849 71.4242C97.9682 71.021 97.9217 70.5873 97.7197 70.2182L90.7081 57.4429C90.5052 57.0742 90.1635 56.8006 89.758 56.6821C89.3525 56.5636 88.9162 56.6098 88.5449 56.8107Z" fill="#CCCCCC"/>
<path d="M88.7647 57.2112L87.8595 57.7022L78.7258 62.6565L77.8206 63.1475C77.5565 63.2911 77.3605 63.533 77.2756 63.8201C77.1907 64.1072 77.2239 64.4161 77.3677 64.6789L84.3793 77.4543C84.5238 77.7168 84.7671 77.9116 85.0559 77.996C85.3447 78.0804 85.6554 78.0475 85.9198 77.9045L85.9218 77.9034L96.8619 71.9692L96.8638 71.9681C97.1279 71.8245 97.3239 71.5826 97.4088 71.2955C97.4937 71.0084 97.4606 70.6995 97.3167 70.4367L90.3051 57.6614C90.1607 57.3989 89.9173 57.204 89.6285 57.1196C89.3398 57.0352 89.0291 57.0681 88.7647 57.2112Z" fill="#F9F9F9"/>
<path d="M89.0216 60.8181C88.9876 60.7567 88.9306 60.7113 88.863 60.6915C88.7955 60.6717 88.7228 60.6792 88.6608 60.7125L86.7818 61.732L86.2579 62.0161L84.5804 62.9264C84.5189 62.9602 84.4734 63.0168 84.4537 63.0838C84.4341 63.1509 84.4419 63.223 84.4755 63.2843C84.5092 63.3456 84.5658 63.3913 84.6332 63.4112C84.7005 63.4311 84.7731 63.4237 84.8349 63.3907L86.8129 62.3183L87.2268 62.0925L88.9154 61.1767C88.977 61.1429 89.0228 61.0863 89.0427 61.0191C89.0626 60.9519 89.055 60.8797 89.0216 60.8181Z" fill="#CCCCCC"/>
<path d="M90.4118 61.0782C90.3952 61.0478 90.3727 61.021 90.3457 60.9993C90.3186 60.9776 90.2875 60.9615 90.2541 60.9518C90.2207 60.9422 90.1857 60.9392 90.1512 60.9431C90.1166 60.9469 90.0832 60.9576 90.0528 60.9744L87.4321 62.3963L87.0291 62.6148L85.0109 63.7091C84.9803 63.7257 84.9534 63.7481 84.9316 63.7751C84.9097 63.8021 84.8935 63.833 84.8837 63.8663C84.8739 63.8995 84.8708 63.9343 84.8746 63.9687C84.8783 64.0031 84.8889 64.0365 84.9056 64.0668C84.9223 64.0972 84.9449 64.124 84.972 64.1457C84.9992 64.1674 85.0303 64.1835 85.0637 64.1933C85.0972 64.203 85.1322 64.2061 85.1668 64.2023C85.2014 64.1986 85.2349 64.1881 85.2655 64.1715L87.2837 63.0773L87.6866 62.8588L90.3055 61.4368C90.3364 61.4205 90.3637 61.3981 90.3858 61.3711C90.4079 61.3441 90.4244 61.3131 90.4343 61.2797C90.4442 61.2463 90.4473 61.2113 90.4434 61.1767C90.4396 61.1421 90.4288 61.1086 90.4118 61.0782Z" fill="#CCCCCC"/>
<path d="M84.9321 65.4372L83.6555 63.1103L83.4358 62.7098L83.3314 62.5186C83.3147 62.4893 83.2871 62.4677 83.2546 62.4585C83.222 62.4493 83.1871 62.4532 83.1574 62.4694L80.566 63.875L79.3957 64.5086C79.3662 64.5252 79.3445 64.5526 79.3352 64.585C79.326 64.6174 79.3299 64.6521 79.3463 64.6816L79.4506 64.8709L79.5642 65.0803L79.6704 65.2715V65.2733L80.9469 67.6001C80.9632 67.6293 80.9905 67.6508 81.0227 67.66C81.055 67.6693 81.0896 67.6654 81.119 67.6493L84.8807 65.6101C84.8956 65.6022 84.9087 65.5914 84.9193 65.5784C84.93 65.5654 84.9379 65.5504 84.9427 65.5343C84.9475 65.5182 84.949 65.5013 84.9472 65.4847C84.9453 65.468 84.9402 65.4518 84.9321 65.4372Z" fill="#C9184A"/>
<path d="M91.0454 64.5212C91.0118 64.4599 90.9551 64.4144 90.8878 64.3946C90.8205 64.3748 90.7481 64.3824 90.6864 64.4156L89.0326 65.3132L88.6297 65.5317L87.0327 66.3965L85.1518 67.4179C85.1212 67.4345 85.0941 67.457 85.0722 67.484C85.0502 67.511 85.0339 67.542 85.024 67.5754C85.0141 67.6087 85.011 67.6436 85.0147 67.6781C85.0184 67.7126 85.0289 67.7461 85.0456 67.7766C85.0623 67.807 85.0849 67.834 85.1121 67.8558C85.1393 67.8776 85.1705 67.8938 85.204 67.9036C85.2375 67.9134 85.2726 67.9166 85.3074 67.9129C85.3421 67.9092 85.3758 67.8988 85.4064 67.8822L88.8843 65.9959L89.2872 65.7774L90.941 64.8799C90.9716 64.8632 90.9986 64.8406 91.0204 64.8136C91.0422 64.7865 91.0584 64.7554 91.0681 64.7221C91.0778 64.6887 91.0808 64.6538 91.0769 64.6194C91.073 64.5849 91.0623 64.5515 91.0454 64.5212Z" fill="#CCCCCC"/>
<path d="M92.4371 64.7816C92.4203 64.7513 92.3976 64.7245 92.3704 64.7028C92.3431 64.6812 92.3119 64.6651 92.2784 64.6554C92.2448 64.6458 92.2097 64.6428 92.1751 64.6467C92.1404 64.6505 92.1069 64.6611 92.0763 64.6779L89.4629 66.0962L89.06 66.3146L85.5804 68.2009C85.5496 68.2174 85.5225 68.2398 85.5005 68.2668C85.4785 68.2937 85.4621 68.3248 85.4523 68.358C85.4424 68.3913 85.4392 68.4263 85.4429 68.4608C85.4466 68.4953 85.4572 68.5287 85.4739 68.5592C85.4907 68.5896 85.5133 68.6165 85.5406 68.6382C85.5678 68.66 85.5991 68.6761 85.6326 68.6858C85.6662 68.6955 85.7013 68.6985 85.736 68.6946C85.7707 68.6908 85.8043 68.6801 85.8349 68.6633L89.3127 66.7771L89.7157 66.5586L92.3309 65.1403C92.3927 65.1066 92.4385 65.05 92.4584 64.9827C92.4783 64.9155 92.4707 64.8432 92.4371 64.7816Z" fill="#CCCCCC"/>
<path d="M83.2983 70.3402C83.9204 70.3402 84.4247 69.8388 84.4247 69.2204C84.4247 68.6019 83.9204 68.1006 83.2983 68.1006C82.6762 68.1006 82.1719 68.6019 82.1719 69.2204C82.1719 69.8388 82.6762 70.3402 83.2983 70.3402Z" fill="#CCCCCC"/>
<path d="M84.0548 75.5163C84.2444 75.5348 84.4322 75.5682 84.6166 75.6162L97.3907 64.3505L96.5646 60.309L102.537 58.2725L104.699 65.2859C104.873 65.8525 104.858 66.4601 104.656 67.0175C104.454 67.575 104.075 68.0521 103.577 68.3773L87.337 78.9772C87.3609 79.7065 87.161 80.4257 86.7637 81.0393C86.3664 81.6528 85.7907 82.1316 85.113 82.4119C84.4354 82.6922 83.6879 82.7608 82.9701 82.6085C82.2523 82.4562 81.5981 82.0903 81.0946 81.5594C80.5911 81.0284 80.2622 80.3577 80.1515 79.6364C80.0408 78.915 80.1536 78.1773 80.4749 77.5213C80.7963 76.8652 81.3109 76.322 81.9504 75.9639C82.5899 75.6057 83.3239 75.4496 84.0548 75.5163Z" fill="#FFB8B8"/>
<path d="M106.184 59.2811L102.565 52.4099C102.192 51.3648 101.426 50.5045 100.428 50.0106C99.4291 49.5167 98.2766 49.4277 97.2135 49.7626C97.1731 49.7736 97.1347 49.7863 97.0945 49.8009C96.0171 50.1753 95.1331 50.9593 94.6366 51.981C94.1401 53.0026 94.0716 54.1784 94.4462 55.2502L95.8985 62.8442C95.9401 63.0616 96.0284 63.2675 96.1573 63.4479C96.2863 63.6282 96.4529 63.7788 96.6457 63.8893C96.8565 64.0119 97.094 64.0818 97.338 64.0932C97.5387 64.1059 97.7399 64.078 97.9295 64.0113L98.7061 63.7418L103.691 62.0158L105.321 61.4514C105.531 61.3783 105.723 61.2611 105.884 61.1077C106.044 60.9543 106.17 60.7683 106.252 60.5624C106.334 60.3565 106.37 60.1355 106.358 59.9144C106.346 59.6933 106.287 59.4773 106.184 59.2811Z" fill="#C9184A"/>
<path d="M119.845 85.785H0.253942C0.20537 85.785 0.158787 85.7658 0.124441 85.7317C0.0900958 85.6976 0.0708008 85.6513 0.0708008 85.603C0.0708008 85.5547 0.0900958 85.5084 0.124441 85.4742C0.158787 85.4401 0.20537 85.4209 0.253942 85.4209H119.845C119.894 85.4209 119.94 85.4401 119.975 85.4742C120.009 85.5084 120.028 85.5547 120.028 85.603C120.028 85.6513 120.009 85.6976 119.975 85.7317C119.94 85.7658 119.894 85.785 119.845 85.785Z" fill="#46081A"/>
<path d="M20.8567 82.4165V82.5075C20.8573 83.1248 21.0381 83.7286 21.3772 84.2457C21.7163 84.7628 22.199 85.1709 22.7669 85.4206C23.1742 85.6016 23.6155 85.6947 24.0617 85.6937H53.6389V82.4165H20.8567Z" fill="#46081A"/>
<path d="M74.2897 60.8182C73.8203 59.855 73.0976 59.0359 72.1982 58.4477C71.7905 58.1793 71.3506 57.9628 70.8888 57.8032C70.2594 57.5847 69.5976 57.4733 68.931 57.4736H40.5441C38.9661 57.4754 37.4532 58.0994 36.3374 59.2087C35.2216 60.318 34.5939 61.8221 34.5921 63.3908V79.777C34.5915 80.007 34.605 80.2368 34.6324 80.4652C34.6726 80.8067 34.7424 81.1442 34.8411 81.4738C34.939 81.7985 35.0652 82.1141 35.2184 82.4169C35.7114 83.4018 36.4711 84.2303 37.412 84.8093C38.3529 85.3882 39.4376 85.6947 40.5441 85.6942H68.931C69.7127 85.6945 70.4868 85.5416 71.2091 85.2443C71.9314 84.9471 72.5876 84.5112 73.1404 83.9617C73.6932 83.4122 74.1316 82.7598 74.4306 82.0417C74.7296 81.3237 74.8834 80.5541 74.8831 79.777V63.3908C74.8844 62.4996 74.6815 61.6198 74.2897 60.8182Z" fill="#46081A"/>
<path d="M56.2945 73.04C57.1036 73.04 57.7596 72.3879 57.7596 71.5835C57.7596 70.7791 57.1036 70.127 56.2945 70.127C55.4853 70.127 54.8293 70.7791 54.8293 71.5835C54.8293 72.3879 55.4853 73.04 56.2945 73.04Z" fill="#F9F9F9"/>
</g>
<defs>
<clipPath id="clip0_426_18313">
<rect width="131" height="110" fill="white" transform="translate(0.0708008)"/>
</clipPath>
</defs>
</svg>
