<svg width="132" height="84" viewBox="0 0 132 84" fill="none" xmlns="http://www.w3.org/2000/svg">
<g clip-path="url(#clip0_426_18534)">
<path d="M116.235 76.4065L116.364 73.5304C117.704 72.8176 119.199 72.4411 120.719 72.4336C118.627 74.1349 118.888 77.4144 117.471 79.7022C116.564 81.1408 115.048 82.0909 113.353 82.2842L111.602 83.3504C111.116 80.6545 111.841 77.8821 113.586 75.7636C114.075 75.1811 114.637 74.6622 115.256 74.2192C115.675 75.3189 116.235 76.4065 116.235 76.4065Z" fill="#F9F9F9"/>
<path d="M27.7622 73.2549L23.5387 71.9826C22.9848 69.7435 22.9886 67.4038 23.5498 65.1665C25.289 68.8825 30.2586 69.7334 33.1227 72.6801C34.9178 74.5555 35.7583 77.1415 35.4067 79.7077L36.3312 82.6827C32.144 82.382 28.299 80.2721 25.8094 76.9088C25.1285 75.9697 24.5692 74.9491 24.1447 73.8709C25.936 73.6687 27.7622 73.2549 27.7622 73.2549Z" fill="#F9F9F9"/>
<path d="M101.601 82.8798C101.6 82.9669 101.565 83.0503 101.504 83.1122C101.442 83.1732 101.359 83.2074 101.272 83.2071H99.9497C99.7687 83.2077 99.6214 83.0622 99.6208 82.8821V43.093C99.6208 42.2159 99.3247 41.5041 98.9613 41.5024H16.6491C16.284 41.5041 15.9896 42.2159 15.9879 43.093V82.636C15.9874 82.8045 15.8588 82.9452 15.6903 82.9616C15.4238 82.9878 15.1574 83.0107 14.8926 83.032C14.886 83.032 14.8795 83.0336 14.8729 83.0336C14.7281 83.0467 14.5834 83.0566 14.4387 83.068H14.437C14.3614 82.9322 14.289 82.7931 14.215 82.654C14.1913 82.6067 14.1789 82.5546 14.1788 82.5018V41.0295C14.1788 40.7873 14.1887 40.5435 14.2051 40.303C14.2286 39.9727 14.2698 39.6438 14.3285 39.3179C14.6064 37.7977 15.2347 36.7684 15.9485 36.7651H99.6602C99.7644 36.7658 99.8674 36.7875 99.9628 36.829C100.103 36.8907 100.23 36.9791 100.336 37.0891C100.48 37.2383 100.604 37.4062 100.703 37.5882C101.055 38.2051 101.307 39.1248 101.395 40.195C101.395 40.2048 101.397 40.2146 101.397 40.2244C101.42 40.4895 101.432 40.7595 101.43 41.0295L101.453 44.5363L101.468 46.6276L101.512 53.1894L101.529 55.5196L101.601 82.8798Z" fill="#F9F9F9"/>
<path d="M71.052 24.6343H62.6635C62.4163 24.6346 62.2163 24.8342 62.2166 25.0801V38.265H71.5001V25.0801C71.5002 24.834 71.2998 24.6344 71.0525 24.6343H71.052ZM66.886 32.1258C66.3399 32.1232 65.898 31.6835 65.8954 31.1402V29.6194C65.8954 29.0751 66.3389 28.6339 66.8859 28.6339C67.433 28.6339 67.8765 29.0751 67.8765 29.6194V31.1402C67.874 31.6835 67.432 32.1233 66.886 32.1258Z" fill="#CCCCCC"/>
<path d="M62.1877 37.8433V39.1153C62.188 39.2526 62.2998 39.3637 62.4377 39.364H71.2789C71.4166 39.3633 71.5281 39.2524 71.5288 39.1153V37.8433H62.1877Z" fill="#46081A"/>
<path d="M84.9428 4.05762H49.085C48.4436 4.05863 47.9239 4.57574 47.9229 5.21394V29.2894C47.9235 29.9278 48.4434 30.4451 49.085 30.4457H84.9428C85.5843 30.4451 86.1043 29.9278 86.1049 29.2894V5.21394C86.1039 4.57574 85.5842 4.05863 84.9428 4.05762Z" fill="#F9F9F9"/>
<path d="M84.6433 4.89307H49.3845C49.041 4.89381 48.763 5.17103 48.7629 5.51276V28.9915C48.7635 29.3328 49.0415 29.6093 49.3845 29.6099H84.6433C84.9863 29.6093 85.2642 29.3328 85.2648 28.9915V5.51276C85.2648 5.17103 84.9868 4.89381 84.6433 4.89307Z" fill="#F9F9F9"/>
<path d="M77.7756 39.8065H56.7985C56.5854 39.8065 56.4126 39.6346 56.4126 39.4226C56.4126 39.396 56.4154 39.3695 56.4209 39.3435L56.7464 37.8053C56.7845 37.628 56.9417 37.5011 57.1239 37.5005H77.4501C77.6324 37.5011 77.7895 37.628 77.8277 37.8053L78.1532 39.3435C78.1971 39.551 78.0636 39.7546 77.8551 39.7983C77.8289 39.8038 77.8023 39.8065 77.7756 39.8065Z" fill="#CCCCCC"/>
<path d="M57.8385 37.7778H57.353C57.3087 37.7778 57.2727 37.8136 57.2727 37.8577V38.0836C57.2727 38.1278 57.3087 38.1635 57.353 38.1635H57.8385C57.8828 38.1635 57.9188 38.1278 57.9188 38.0836V37.8577C57.9188 37.8136 57.8828 37.7778 57.8385 37.7778Z" fill="#F9F9F9"/>
<path d="M59.1307 37.7778H58.6452C58.6009 37.7778 58.5649 37.8136 58.5649 37.8577V38.0836C58.5649 38.1278 58.6009 38.1635 58.6452 38.1635H59.1307C59.1751 38.1635 59.211 38.1278 59.211 38.0836V37.8577C59.211 37.8136 59.1751 37.7778 59.1307 37.7778Z" fill="#F9F9F9"/>
<path d="M60.423 37.7778H59.9375C59.8931 37.7778 59.8572 37.8136 59.8572 37.8577V38.0836C59.8572 38.1278 59.8931 38.1635 59.9375 38.1635H60.423C60.4673 38.1635 60.5033 38.1278 60.5033 38.0836V37.8577C60.5033 37.8136 60.4673 37.7778 60.423 37.7778Z" fill="#F9F9F9"/>
<path d="M61.715 37.7778H61.2295C61.1851 37.7778 61.1492 37.8136 61.1492 37.8577V38.0836C61.1492 38.1278 61.1851 38.1635 61.2295 38.1635H61.715C61.7593 38.1635 61.7952 38.1278 61.7952 38.0836V37.8577C61.7952 37.8136 61.7593 37.7778 61.715 37.7778Z" fill="#F9F9F9"/>
<path d="M63.0072 37.7778H62.5217C62.4774 37.7778 62.4414 37.8136 62.4414 37.8577V38.0836C62.4414 38.1278 62.4774 38.1635 62.5217 38.1635H63.0072C63.0515 38.1635 63.0875 38.1278 63.0875 38.0836V37.8577C63.0875 37.8136 63.0515 37.7778 63.0072 37.7778Z" fill="#F9F9F9"/>
<path d="M64.2994 37.7778H63.8139C63.7696 37.7778 63.7336 37.8136 63.7336 37.8577V38.0836C63.7336 38.1278 63.7696 38.1635 63.8139 38.1635H64.2994C64.3438 38.1635 64.3797 38.1278 64.3797 38.0836V37.8577C64.3797 37.8136 64.3438 37.7778 64.2994 37.7778Z" fill="#F9F9F9"/>
<path d="M65.5914 37.7778H65.1059C65.0616 37.7778 65.0256 37.8136 65.0256 37.8577V38.0836C65.0256 38.1278 65.0616 38.1635 65.1059 38.1635H65.5914C65.6358 38.1635 65.6717 38.1278 65.6717 38.0836V37.8577C65.6717 37.8136 65.6358 37.7778 65.5914 37.7778Z" fill="#F9F9F9"/>
<path d="M66.8837 37.7778H66.3982C66.3538 37.7778 66.3179 37.8136 66.3179 37.8577V38.0836C66.3179 38.1278 66.3538 38.1635 66.3982 38.1635H66.8837C66.928 38.1635 66.9639 38.1278 66.9639 38.0836V37.8577C66.9639 37.8136 66.928 37.7778 66.8837 37.7778Z" fill="#F9F9F9"/>
<path d="M68.1759 37.7778H67.6904C67.6461 37.7778 67.6101 37.8136 67.6101 37.8577V38.0836C67.6101 38.1278 67.6461 38.1635 67.6904 38.1635H68.1759C68.2202 38.1635 68.2562 38.1278 68.2562 38.0836V37.8577C68.2562 37.8136 68.2202 37.7778 68.1759 37.7778Z" fill="#F9F9F9"/>
<path d="M69.4679 37.7778H68.9824C68.938 37.7778 68.9021 37.8136 68.9021 37.8577V38.0836C68.9021 38.1278 68.938 38.1635 68.9824 38.1635H69.4679C69.5122 38.1635 69.5482 38.1278 69.5482 38.0836V37.8577C69.5482 37.8136 69.5122 37.7778 69.4679 37.7778Z" fill="#F9F9F9"/>
<path d="M70.7601 37.7778H70.2746C70.2303 37.7778 70.1943 37.8136 70.1943 37.8577V38.0836C70.1943 38.1278 70.2303 38.1635 70.2746 38.1635H70.7601C70.8045 38.1635 70.8404 38.1278 70.8404 38.0836V37.8577C70.8404 37.8136 70.8045 37.7778 70.7601 37.7778Z" fill="#F9F9F9"/>
<path d="M72.0521 37.7778H71.5666C71.5223 37.7778 71.4863 37.8136 71.4863 37.8577V38.0836C71.4863 38.1278 71.5223 38.1635 71.5666 38.1635H72.0521C72.0965 38.1635 72.1324 38.1278 72.1324 38.0836V37.8577C72.1324 37.8136 72.0965 37.7778 72.0521 37.7778Z" fill="#F9F9F9"/>
<path d="M73.3443 37.7778H72.8589C72.8145 37.7778 72.7786 37.8136 72.7786 37.8577V38.0836C72.7786 38.1278 72.8145 38.1635 72.8589 38.1635H73.3443C73.3887 38.1635 73.4246 38.1278 73.4246 38.0836V37.8577C73.4246 37.8136 73.3887 37.7778 73.3443 37.7778Z" fill="#F9F9F9"/>
<path d="M74.6366 37.7778H74.1511C74.1067 37.7778 74.0708 37.8136 74.0708 37.8577V38.0836C74.0708 38.1278 74.1067 38.1635 74.1511 38.1635H74.6366C74.6809 38.1635 74.7169 38.1278 74.7169 38.0836V37.8577C74.7169 37.8136 74.6809 37.7778 74.6366 37.7778Z" fill="#F9F9F9"/>
<path d="M75.9286 37.7778H75.4431C75.3987 37.7778 75.3628 37.8136 75.3628 37.8577V38.0836C75.3628 38.1278 75.3987 38.1635 75.4431 38.1635H75.9286C75.9729 38.1635 76.0089 38.1278 76.0089 38.0836V37.8577C76.0089 37.8136 75.9729 37.7778 75.9286 37.7778Z" fill="#F9F9F9"/>
<path d="M77.2208 37.7778H76.7353C76.691 37.7778 76.655 37.8136 76.655 37.8577V38.0836C76.655 38.1278 76.691 38.1635 76.7353 38.1635H77.2208C77.2652 38.1635 77.3011 38.1278 77.3011 38.0836V37.8577C77.3011 37.8136 77.2652 37.7778 77.2208 37.7778Z" fill="#F9F9F9"/>
<path d="M57.8234 38.4204H57.3379C57.2935 38.4204 57.2576 38.4562 57.2576 38.5003V38.7262C57.2576 38.7703 57.2935 38.8061 57.3379 38.8061H57.8234C57.8677 38.8061 57.9036 38.7703 57.9036 38.7262V38.5003C57.9036 38.4562 57.8677 38.4204 57.8234 38.4204Z" fill="#F9F9F9"/>
<path d="M59.1156 38.4204H58.6301C58.5858 38.4204 58.5498 38.4562 58.5498 38.5003V38.7262C58.5498 38.7703 58.5858 38.8061 58.6301 38.8061H59.1156C59.1599 38.8061 59.1959 38.7703 59.1959 38.7262V38.5003C59.1959 38.4562 59.1599 38.4204 59.1156 38.4204Z" fill="#F9F9F9"/>
<path d="M60.4076 38.4204H59.9221C59.8777 38.4204 59.8418 38.4562 59.8418 38.5003V38.7262C59.8418 38.7703 59.8777 38.8061 59.9221 38.8061H60.4076C60.4519 38.8061 60.4879 38.7703 60.4879 38.7262V38.5003C60.4879 38.4562 60.4519 38.4204 60.4076 38.4204Z" fill="#F9F9F9"/>
<path d="M61.6998 38.4204H61.2143C61.17 38.4204 61.134 38.4562 61.134 38.5003V38.7262C61.134 38.7703 61.17 38.8061 61.2143 38.8061H61.6998C61.7442 38.8061 61.7801 38.7703 61.7801 38.7262V38.5003C61.7801 38.4562 61.7442 38.4204 61.6998 38.4204Z" fill="#F9F9F9"/>
<path d="M62.9921 38.4204H62.5066C62.4622 38.4204 62.4263 38.4562 62.4263 38.5003V38.7262C62.4263 38.7703 62.4622 38.8061 62.5066 38.8061H62.9921C63.0364 38.8061 63.0723 38.7703 63.0723 38.7262V38.5003C63.0723 38.4562 63.0364 38.4204 62.9921 38.4204Z" fill="#F9F9F9"/>
<path d="M64.2841 38.4204H63.7986C63.7542 38.4204 63.7183 38.4562 63.7183 38.5003V38.7262C63.7183 38.7703 63.7542 38.8061 63.7986 38.8061H64.2841C64.3284 38.8061 64.3643 38.7703 64.3643 38.7262V38.5003C64.3643 38.4562 64.3284 38.4204 64.2841 38.4204Z" fill="#F9F9F9"/>
<path d="M65.5763 38.4204H65.0908C65.0464 38.4204 65.0105 38.4562 65.0105 38.5003V38.7262C65.0105 38.7703 65.0464 38.8061 65.0908 38.8061H65.5763C65.6206 38.8061 65.6566 38.7703 65.6566 38.7262V38.5003C65.6566 38.4562 65.6206 38.4204 65.5763 38.4204Z" fill="#F9F9F9"/>
<path d="M66.8683 38.4204H66.3828C66.3384 38.4204 66.3025 38.4562 66.3025 38.5003V38.7262C66.3025 38.7703 66.3384 38.8061 66.3828 38.8061H66.8683C66.9126 38.8061 66.9486 38.7703 66.9486 38.7262V38.5003C66.9486 38.4562 66.9126 38.4204 66.8683 38.4204Z" fill="#F9F9F9"/>
<path d="M68.1605 38.4204H67.675C67.6307 38.4204 67.5947 38.4562 67.5947 38.5003V38.7262C67.5947 38.7703 67.6307 38.8061 67.675 38.8061H68.1605C68.2049 38.8061 68.2408 38.7703 68.2408 38.7262V38.5003C68.2408 38.4562 68.2049 38.4204 68.1605 38.4204Z" fill="#F9F9F9"/>
<path d="M69.4528 38.4204H68.9673C68.9229 38.4204 68.887 38.4562 68.887 38.5003V38.7262C68.887 38.7703 68.9229 38.8061 68.9673 38.8061H69.4528C69.4971 38.8061 69.533 38.7703 69.533 38.7262V38.5003C69.533 38.4562 69.4971 38.4204 69.4528 38.4204Z" fill="#F9F9F9"/>
<path d="M70.7447 38.4204H70.2592C70.2149 38.4204 70.179 38.4562 70.179 38.5003V38.7262C70.179 38.7703 70.2149 38.8061 70.2592 38.8061H70.7447C70.7891 38.8061 70.825 38.7703 70.825 38.7262V38.5003C70.825 38.4562 70.7891 38.4204 70.7447 38.4204Z" fill="#F9F9F9"/>
<path d="M72.037 38.4204H71.5515C71.5071 38.4204 71.4712 38.4562 71.4712 38.5003V38.7262C71.4712 38.7703 71.5071 38.8061 71.5515 38.8061H72.037C72.0813 38.8061 72.1173 38.7703 72.1173 38.7262V38.5003C72.1173 38.4562 72.0813 38.4204 72.037 38.4204Z" fill="#F9F9F9"/>
<path d="M73.3292 38.4204H72.8437C72.7994 38.4204 72.7634 38.4562 72.7634 38.5003V38.7262C72.7634 38.7703 72.7994 38.8061 72.8437 38.8061H73.3292C73.3736 38.8061 73.4095 38.7703 73.4095 38.7262V38.5003C73.4095 38.4562 73.3736 38.4204 73.3292 38.4204Z" fill="#F9F9F9"/>
<path d="M74.6212 38.4204H74.1357C74.0914 38.4204 74.0554 38.4562 74.0554 38.5003V38.7262C74.0554 38.7703 74.0914 38.8061 74.1357 38.8061H74.6212C74.6655 38.8061 74.7015 38.7703 74.7015 38.7262V38.5003C74.7015 38.4562 74.6655 38.4204 74.6212 38.4204Z" fill="#F9F9F9"/>
<path d="M75.9134 38.4204H75.4279C75.3836 38.4204 75.3477 38.4562 75.3477 38.5003V38.7262C75.3477 38.7703 75.3836 38.8061 75.4279 38.8061H75.9134C75.9578 38.8061 75.9937 38.7703 75.9937 38.7262V38.5003C75.9937 38.4562 75.9578 38.4204 75.9134 38.4204Z" fill="#F9F9F9"/>
<path d="M77.2054 38.4204H76.7199C76.6756 38.4204 76.6396 38.4562 76.6396 38.5003V38.7262C76.6396 38.7703 76.6756 38.8061 76.7199 38.8061H77.2054C77.2498 38.8061 77.2857 38.7703 77.2857 38.7262V38.5003C77.2857 38.4562 77.2498 38.4204 77.2054 38.4204Z" fill="#F9F9F9"/>
<path d="M68.5483 39.1919H63.5403C63.4959 39.1919 63.46 39.2277 63.46 39.2718V39.4977C63.46 39.5418 63.4959 39.5776 63.5403 39.5776H68.5483C68.5926 39.5776 68.6286 39.5418 68.6286 39.4977V39.2718C68.6286 39.2277 68.5926 39.1919 68.5483 39.1919Z" fill="#F9F9F9"/>
<path d="M82.8709 8.12778H49.8793C49.8069 8.12619 49.7494 8.06646 49.751 7.99437C49.7526 7.92451 49.8091 7.86824 49.8793 7.8667H82.8709C82.9433 7.86828 83.0008 7.92802 82.9992 8.00011C82.9977 8.06997 82.9411 8.12624 82.8709 8.12778Z" fill="#CACACA"/>
<path d="M52.1251 7.20038C52.5497 7.20038 52.894 6.85023 52.894 6.4183C52.894 5.98638 52.5497 5.63623 52.1251 5.63623C51.7004 5.63623 51.3562 5.98638 51.3562 6.4183C51.3562 6.85023 51.7004 7.20038 52.1251 7.20038Z" fill="#CCCCCC"/>
<path d="M54.7813 7.20038C55.206 7.20038 55.5502 6.85023 55.5502 6.4183C55.5502 5.98638 55.206 5.63623 54.7813 5.63623C54.3567 5.63623 54.0125 5.98638 54.0125 6.4183C54.0125 6.85023 54.3567 7.20038 54.7813 7.20038Z" fill="#CCCCCC"/>
<path d="M57.4373 7.20038C57.862 7.20038 58.2062 6.85023 58.2062 6.4183C58.2062 5.98638 57.862 5.63623 57.4373 5.63623C57.0127 5.63623 56.6685 5.98638 56.6685 6.4183C56.6685 6.85023 57.0127 7.20038 57.4373 7.20038Z" fill="#CCCCCC"/>
<path d="M66.3414 10.1071L66.2349 9.79736L79.8619 2.75244L79.9684 3.06221L66.3414 10.1071Z" fill="#46081A"/>
<path d="M107.457 23.1559L107.351 22.8462L115.55 15.8369L115.657 16.1465L107.457 23.1559Z" fill="#46081A"/>
<path d="M91.7033 24.7878L78.0762 17.7429L78.1827 17.4331L91.8097 24.478L91.7033 24.7878Z" fill="#46081A"/>
<path d="M98.679 19.8854L90.6902 6.83592L90.9426 6.62598L98.9313 19.6754L98.679 19.8854Z" fill="#46081A"/>
<path d="M104.913 2.8815L97.1331 2.84583V2.51855L104.913 2.55423V2.8815Z" fill="#46081A"/>
<path d="M119.007 4.9118H110.291C109.11 4.9118 108.153 3.95938 108.153 2.78451C108.153 1.60965 109.11 0.657227 110.291 0.657227H119.007C120.188 0.657227 121.145 1.60965 121.145 2.78451C121.145 3.95938 120.188 4.9118 119.007 4.9118Z" fill="#C9184A"/>
<path d="M129.862 17.3478H121.145C119.965 17.3478 119.007 16.3954 119.007 15.2205C119.007 14.0457 119.965 13.0933 121.145 13.0933H129.862C131.043 13.0933 132 14.0457 132 15.2205C132 16.3954 131.043 17.3478 129.862 17.3478Z" fill="#C9184A"/>
<path d="M115.768 26.1182L107.988 26.0826V25.7554L115.768 25.7909V26.1182Z" fill="#46081A"/>
<path d="M129.862 28.1481H121.145C119.965 28.1481 119.007 27.1957 119.007 26.0208C119.007 24.846 119.965 23.8936 121.145 23.8936H129.862C131.043 23.8936 132 24.846 132 26.0208C132 27.1957 131.043 28.1481 129.862 28.1481Z" fill="#C9184A"/>
<path d="M104.37 26.6818H95.6536C94.4729 26.6818 93.5156 25.7294 93.5156 24.5545C93.5156 23.3797 94.4729 22.4272 95.6536 22.4272H104.37C105.551 22.4272 106.508 23.3797 106.508 24.5545C106.508 25.7294 105.551 26.6818 104.37 26.6818Z" fill="#C9184A"/>
<path d="M92.5289 4.75457H83.8123C82.6315 4.75457 81.6743 3.80216 81.6743 2.62729C81.6743 1.45242 82.6315 0.5 83.8123 0.5H92.5289C93.7097 0.5 94.6669 1.45242 94.6669 2.62729C94.6669 3.80216 93.7097 4.75457 92.5289 4.75457Z" fill="#C9184A"/>
<path d="M50.8656 41.2754H40.9978C40.2712 41.2754 39.6821 41.8615 39.6821 42.5845C39.6821 43.3075 40.2712 43.8936 40.9978 43.8936H44.616V54.0391H47.2474V43.8936H50.8656C51.5923 43.8936 52.1813 43.3075 52.1813 42.5845C52.1813 41.8615 51.5923 41.2754 50.8656 41.2754Z" fill="#46081A"/>
<path d="M57.3785 59.6575H30.985C25.6961 59.6383 21.2214 55.7629 20.4731 50.5534L19.5388 47.1341C17.6051 40.0486 14.6596 33.2757 10.7924 27.0226C9.02491 24.1665 8.11516 21.4018 10.1815 18.74C10.1991 18.7173 10.2164 18.695 10.2334 18.673C11.8907 16.5267 20.1397 16.062 22.8289 15.9717C22.9351 15.9681 23.0418 15.9663 23.1488 15.9663H39.5653C39.6725 15.9663 39.7791 15.9681 39.8852 15.9717C42.8387 16.0573 45.5065 17.7492 46.8315 20.3769C48.2454 23.0597 48.065 26.2982 46.3618 28.8091C40.5952 37.4281 38.8296 42.8324 40.6372 46.3323C42.3856 49.7175 47.7453 51.4483 57.5043 51.779C60.1269 51.8678 61.3305 53.8997 61.3389 55.7499C61.3471 57.5523 60.1899 59.5423 57.6298 59.6523C57.5466 59.6558 57.4628 59.6575 57.3785 59.6575Z" fill="#46081A"/>
<path d="M35.4687 82.9759H45.3365C46.0631 82.9759 46.6522 82.3898 46.6522 81.6668C46.6522 80.9438 46.0631 80.3577 45.3365 80.3577H41.7183V58.2666H39.0868V80.3577H35.4687C34.742 80.3577 34.153 80.9438 34.153 81.6668C34.153 82.3898 34.742 82.9759 35.4687 82.9759Z" fill="#46081A"/>
<path d="M44.3999 74.0704L46.0998 74.989L50.5998 68.7984L48.0908 67.4424L44.3999 74.0704Z" fill="#A0616A"/>
<path d="M45.2183 71.8643L48.3043 72.8257L47.8131 74.1121L49.9292 77.168C50.2 77.5589 50.101 78.0941 49.7082 78.3635C49.4744 78.5238 49.1764 78.5596 48.9111 78.4592L45.3185 77.1012L45.1852 75.5947L44.4575 76.7757L43.103 76.2637L45.2183 71.8643Z" fill="#46081A"/>
<path d="M48.695 11.6396C48.8473 12.6783 48.1245 13.6431 47.0806 13.7946C46.9693 13.8107 46.8568 13.8171 46.7443 13.8135L40.1902 27.6892L38.1346 24.8371L44.8816 11.7164C44.9852 10.6661 45.925 9.89833 46.9806 10.0015C47.8638 10.0878 48.5726 10.765 48.695 11.6396Z" fill="#A0616A"/>
<path d="M26.9448 30.4948C26.9448 30.4948 26.7691 32.9188 29.5244 33.3943C32.2796 33.8697 39.6453 29.2354 40.855 28.5238C42.0646 27.8122 44.3188 18.8593 44.3188 18.8593L42.3584 15.5601C39.9379 18.6065 38.0372 21.4157 37.9217 23.4098L26.9448 30.4948Z" fill="#C9184A"/>
<path d="M30.1256 38.8446L30.7207 41.3886C30.7207 41.3886 30.7265 43.7343 31.144 44.1668C31.5586 44.5973 40.6756 43.7329 40.6756 43.7329C40.6756 43.7329 39.7089 39.9529 39.7218 37.0928L30.1256 38.8446Z" fill="#A0616A"/>
<path d="M49.3855 71.3846L46.0962 69.5846C46.0336 65.3259 48.6081 59.5628 51.6615 53.5264C44.8325 54.695 38.39 55.0694 32.8175 53.6557C30.9139 53.1556 29.7667 51.2273 30.2415 49.3263C30.2632 49.2365 30.2883 49.1478 30.3168 49.06C30.9837 47.0354 29.4883 45.7663 30.8637 43.5395C34.4813 42.3102 37.9179 41.9631 41.0604 43.0486L43.0295 47.3803L52.7891 46.1237C54.7626 45.889 56.5537 47.2904 56.7896 49.254C56.7907 49.263 56.7917 49.2719 56.7928 49.2809C56.8059 49.3863 56.8144 49.4921 56.8185 49.5984C54.845 58.8035 52.6323 67.0861 49.3855 71.3846Z" fill="#46081A"/>
<path d="M28.8008 22.7388L32.5606 22.5179C32.8856 22.4988 33.187 22.687 33.3112 22.9865L34.3737 25.5493L38.7896 29.1808C38.7896 29.1808 40.5379 31.3944 40.542 34.2534C40.5461 37.1123 41.1623 43.7296 41.1623 43.7296C41.1623 43.7296 38.6107 40.156 37.0357 41.1064C36.7678 41.2681 36.6735 41.5988 36.3929 41.7659C36.2529 41.8493 35.9294 41.7683 35.7881 41.8518C33.6178 43.1336 31.3545 44.3859 31.143 44.1663C30.7278 43.7352 30.2241 41.5322 30.2241 41.5322L26.7825 28.9505C26.4047 27.6102 26.649 26.1719 27.4485 25.0295C27.6889 24.6927 27.9408 24.4421 28.175 24.4007C28.7006 24.2893 28.421 23.1171 28.8008 22.7388Z" fill="#C9184A"/>
<path d="M60.7839 79.3996L62.371 78.3018L58.7756 71.5527L56.4333 73.1731L60.7839 79.3996Z" fill="#A0616A"/>
<path d="M61.0237 74.8708L58.5364 77.0829C54.5814 72.6981 51.5916 66.5486 49.0578 59.565C42.4191 57.6305 37.4127 54.5105 33.0421 50.8061C31.5594 49.5578 30.4479 47.9541 31.7125 46.4335C31.7716 46.3624 31.8333 46.2937 31.8977 46.2273C33.3907 44.7005 37.177 44.9915 39.3946 43.5928L44.3485 48.8613L44.0369 50.2738L53.3418 53.4099C55.2149 54.063 56.2012 56.1034 55.5447 57.9671C55.5415 57.9763 55.5383 57.9854 55.535 57.9945C55.5001 58.0949 55.461 58.1937 55.4176 58.2909L61.0237 74.8708Z" fill="#46081A"/>
<path d="M59.8584 78.9545L62.3989 76.9639L63.1883 78.0938L66.918 78.0825C67.3951 78.081 67.7831 78.4646 67.7846 78.9393C67.7855 79.2217 67.6469 79.4866 67.4138 79.6478L64.2583 81.8303L62.9335 81.0889L63.502 82.3534L62.3123 83.1763L59.8584 78.9545Z" fill="#46081A"/>
<path d="M34.3528 54.4469C33.3817 54.0368 32.9287 52.9211 33.3408 51.9549C33.3848 51.8519 33.4378 51.7529 33.4992 51.6592L24.9875 38.8788L28.5048 38.6128L36.2679 51.1649C37.116 51.7986 37.2872 52.9964 36.6503 53.8403C36.1174 54.5464 35.1675 54.7972 34.3528 54.4469Z" fill="#A0616A"/>
<path d="M29.4589 26.16C29.4589 26.16 27.4683 24.7514 25.6287 26.8469C23.7891 28.9425 23.9427 37.6121 23.9254 39.0102C23.92 39.448 24.5554 40.3927 25.4308 41.4838C25.8238 41.9737 26.2652 42.4931 26.7187 43.0094C26.9811 43.3082 26.755 43.9301 27.0185 44.2206C27.2805 44.5094 28.0322 44.4668 28.2815 44.7348C29.4647 46.0072 30.4259 46.9757 30.4259 46.9757L34.2777 47.0228C34.3211 44.1739 32.3603 41.6308 29.8411 39.173L29.4589 26.16Z" fill="#C9184A"/>
<path d="M25.5763 13.7557C25.2117 14.0176 24.828 14.2874 24.3831 14.3523C23.9381 14.4172 23.4171 14.2031 23.294 13.7728C23.1434 13.2466 23.621 12.7674 24.0502 12.4254L25.4113 11.341C25.6606 11.1211 25.9419 10.9401 26.2458 10.8042C26.555 10.6688 26.9092 10.6806 27.2086 10.8362C27.5061 11.036 27.6781 11.3751 27.6631 11.7319C27.6436 12.0836 27.527 12.4231 27.326 12.713C26.8154 13.5048 26.0021 14.0549 25.0743 14.2359" fill="#46081A"/>
<path d="M35.8994 41.9297H26.0316C25.305 41.9297 24.7159 42.5158 24.7159 43.2388C24.7159 43.9618 25.305 44.5479 26.0316 44.5479H29.6498V54.6934H32.2812V44.5479H35.8994C36.6261 44.5479 37.2151 43.9618 37.2151 43.2388C37.2151 42.5158 36.6261 41.9297 35.8994 41.9297Z" fill="#46081A"/>
<path d="M26.1809 11.0093C26.2206 10.0278 25.1694 9.25056 24.1844 9.312C23.1993 9.37344 22.3525 10.0628 21.7939 10.8727C21.2355 11.6819 20.9 12.6192 20.46 13.4979C20.0201 14.3765 19.4342 15.2367 18.56 15.692C17.6859 16.1467 16.4692 16.0655 15.865 15.2893C15.484 15.8642 15.4011 16.5853 15.6419 17.2309C15.8892 17.8682 16.3505 18.4007 16.9474 18.7382C17.185 18.8784 17.4389 18.9894 17.7033 19.0689C17.8124 18.776 17.9658 18.5015 18.1583 18.2548C18.0713 18.5469 18.0381 18.8521 18.0603 19.1559C18.4679 19.2337 18.8872 19.2271 19.2922 19.1366C20.0985 18.9572 20.7726 18.4101 21.1114 17.6604C21.4809 16.7902 21.2927 15.7981 21.3717 14.8568C21.4501 13.9153 22.0202 12.8405 22.9696 12.8252C23.6927 12.8133 23.597 12.8727 24.0551 13.4293" fill="#46081A"/>
<path d="M32.7465 16.1672C32.7465 18.5169 30.832 20.4217 28.4704 20.4217C26.1089 20.4217 23.8655 17.6987 23.8655 15.349C23.8655 12.9992 26.1089 11.9126 28.4704 11.9126C30.832 11.9126 32.7465 13.8174 32.7465 16.1672Z" fill="#46081A"/>
<path d="M30.5776 21.2656C32.785 20.8162 34.2082 18.6715 33.7565 16.4752C33.3049 14.279 31.1493 12.8629 28.942 13.3123C26.7347 13.7617 25.3115 15.9064 25.7631 18.1026C26.2148 20.2989 28.3703 21.715 30.5776 21.2656Z" fill="#A0616A"/>
<path d="M34.8844 16.6578C33.6768 16.9859 32.4575 17.3298 31.9866 16.6578C31.8951 16.2122 31.7217 15.7872 31.4751 15.4043C31.4287 15.8332 31.3276 16.2544 31.1741 16.6578C29.6484 16.9877 28.2224 17.0666 26.9902 16.6578C26.8208 16.9627 26.7224 17.3016 26.7024 17.6494C26.6415 17.6113 26.5777 17.578 26.5116 17.5496C26.4324 17.505 26.3377 17.4967 26.2518 17.5267C26.1924 17.5624 26.1529 17.6234 26.1449 17.692C26.1367 17.7602 26.14 17.8293 26.1547 17.8965C26.172 18.1306 26.2423 18.3577 26.3603 18.5609C26.4547 18.7024 26.6045 18.798 26.7731 18.8243C26.9442 19.7816 28.3059 21.076 28.3059 21.076C24.1943 21.2396 24.1943 18.4643 24.1943 15.8396L24.6877 14.8578H26.3324V12.7305H30.9373C33.117 12.731 34.8839 14.489 34.8844 16.6578Z" fill="#46081A"/>
<path d="M72.3551 83.4497L0.196845 83.5C0.0886961 83.5006 0.00056683 83.4138 2.72114e-06 83.3062C-0.000561388 83.1986 0.0866534 83.1109 0.194803 83.1103H0.196845L72.3551 83.0601C72.4632 83.0604 72.5506 83.1479 72.5503 83.2555C72.5499 83.3626 72.4627 83.4494 72.3551 83.4497Z" fill="#CACACA"/>
<path d="M120.543 83.4497L83.2508 83.5C83.1427 83.5006 83.0545 83.4138 83.054 83.3062C83.0534 83.1986 83.1406 83.1109 83.2488 83.1103H83.2508L120.543 83.0601C120.651 83.0597 120.739 83.1467 120.739 83.2543C120.74 83.3619 120.652 83.4494 120.544 83.4497H120.543Z" fill="#CACACA"/>
<path d="M74.0043 24.7182H59.8681C58.6404 24.7168 57.6454 23.7269 57.644 22.5053V13.1856C57.6454 11.964 58.6404 10.974 59.8682 10.9727H74.0043C75.232 10.974 76.227 11.964 76.2284 13.1856V22.5053C76.227 23.7269 75.232 24.7169 74.0043 24.7182ZM59.8681 11.2999C58.822 11.3011 57.9742 12.1447 57.973 13.1856V22.5053C57.9742 23.5462 58.822 24.3897 59.8682 24.3909H74.0043C75.0505 24.3897 75.8983 23.5462 75.8995 22.5053V13.1856C75.8983 12.1447 75.0505 11.3011 74.0043 11.2999L59.8681 11.2999Z" fill="#F9F9F9"/>
<path d="M64.0566 13.9185H60.2754V14.2457H64.0566V13.9185Z" fill="#F9F9F9"/>
<path d="M68.663 15.2275H60.2754V15.5548H68.663V15.2275Z" fill="#F9F9F9"/>
<path d="M68.663 16.373H60.2754V16.7003H68.663V16.373Z" fill="#F9F9F9"/>
<path d="M70.9655 17.5181H60.2754V17.8453H70.9655V17.5181Z" fill="#F9F9F9"/>
<path d="M65.8671 18.6636H60.2754V18.9908H65.8671V18.6636Z" fill="#F9F9F9"/>
<path d="M70.4721 19.8091H60.2754V20.1364H70.4721V19.8091Z" fill="#F9F9F9"/>
<path d="M62.0845 20.9546H60.2754V21.2819H62.0845V20.9546Z" fill="#F9F9F9"/>
<path d="M60.1522 6.87522C60.1362 6.87522 60.1202 6.86907 60.1082 6.85682L59.7573 6.4999C59.7339 6.47611 59.7339 6.43811 59.7573 6.41433L60.1082 6.05744C60.132 6.0333 60.171 6.03291 60.1952 6.05648C60.2195 6.08012 60.2199 6.11887 60.1961 6.14301L59.8873 6.45711L60.1961 6.77125C60.2199 6.79539 60.2195 6.83414 60.1952 6.85777C60.1832 6.86943 60.1677 6.87522 60.1522 6.87522Z" fill="#CCCCCC"/>
<path d="M60.7419 6.87527C60.7264 6.87527 60.7109 6.86947 60.6989 6.85782C60.6746 6.83419 60.6742 6.79546 60.698 6.77129L61.0068 6.45716L60.698 6.14305C60.6742 6.11891 60.6746 6.08016 60.6989 6.05653C60.7232 6.03286 60.7621 6.03331 60.7859 6.05748L61.1368 6.41437C61.1602 6.43816 61.1602 6.47616 61.1368 6.49994L60.7859 6.85686C60.7738 6.86911 60.7579 6.87527 60.7419 6.87527Z" fill="#CCCCCC"/>
<path d="M79.0999 5.98926H78.4474C78.373 5.98926 78.3127 6.04922 78.3127 6.12326V6.7731C78.3127 6.84714 78.373 6.90711 78.4474 6.90711H79.0999C79.1743 6.90711 79.2352 6.84714 79.2352 6.7731V6.12326C79.2352 6.04922 79.1743 5.98926 79.0999 5.98926Z" fill="#CCCCCC"/>
<path d="M77.5008 5.98926H76.8483C76.7739 5.98926 76.7136 6.04922 76.7136 6.12326V6.7731C76.7136 6.84714 76.7739 6.90711 76.8483 6.90711H77.5008C77.5752 6.90711 77.6361 6.84714 77.6361 6.7731V6.12326C77.6361 6.04922 77.5752 5.98926 77.5008 5.98926Z" fill="#CCCCCC"/>
<path d="M80.6065 6.02002H79.954C79.8796 6.02002 79.8193 6.07998 79.8193 6.15403V6.80386C79.8193 6.8779 79.8796 6.93787 79.954 6.93787H80.6065C80.6809 6.93787 80.7418 6.8779 80.7418 6.80386V6.15403C80.7418 6.07998 80.6809 6.02002 80.6065 6.02002Z" fill="#CCCCCC"/>
<path d="M70.7715 6.26709H65.5558C65.4648 6.26709 65.3916 6.34052 65.3916 6.43047C65.3916 6.52042 65.4648 6.59384 65.5558 6.59384H70.7715C70.8619 6.59384 70.9357 6.52042 70.9357 6.43047C70.9357 6.34052 70.8619 6.26709 70.7715 6.26709Z" fill="#CCCCCC"/>
</g>
<defs>
<clipPath id="clip0_426_18534">
<rect width="132" height="83" fill="white" transform="translate(0 0.5)"/>
</clipPath>
</defs>
</svg>
