<svg width="129" height="104" viewBox="0 0 129 104" fill="none" xmlns="http://www.w3.org/2000/svg">
<g clip-path="url(#clip0_426_18265)">
<path d="M128.071 100.82C128.11 104.872 102.3 105.243 101.809 100.821C101.77 96.769 127.579 96.3977 128.071 100.82Z" fill="#F9F9F9"/>
<path d="M107.878 86.7544L105.959 87.7893L107.18 91.7569L109.098 91.9294L110.144 89.6869L107.878 86.7544Z" fill="#9F616A"/>
<path d="M113.806 94.6895V96.5868L116.771 96.4144L116.729 94.8517L113.806 94.6895Z" fill="#9F616A"/>
<path d="M107.18 63.9844L108.226 76.9221L111.539 95.8972L116.771 95.2072L115.027 80.1995L115.725 66.3995L107.18 63.9844Z" fill="#46081A"/>
<path d="M121.13 54.3242L108.575 54.4967L107.18 63.9843L115.725 67.9518L117.817 75.5419L107.18 86.7545L111.365 91.9296C111.365 91.9296 117.294 83.9945 121.653 79.5095C126.013 75.0244 123.92 61.3968 123.92 61.3968L121.13 54.3242Z" fill="#46081A"/>
<path d="M113.632 29.8288C115.751 29.8288 117.468 28.1297 117.468 26.0338C117.468 23.9379 115.751 22.2388 113.632 22.2388C111.513 22.2388 109.796 23.9379 109.796 26.0338C109.796 28.1297 111.513 29.8288 113.632 29.8288Z" fill="#9F616A"/>
<path d="M112.237 28.6215V32.4165L114.853 36.5566C114.853 36.5566 118.863 33.6241 117.991 32.934C117.12 32.244 116.945 26.8965 116.945 26.8965L112.237 28.6215Z" fill="#9F616A"/>
<path d="M112.237 31.7264L109.621 34.8314L110.668 56.394L118.863 56.2216L120.258 37.419L118.515 32.5889L117.318 30.979L115.201 34.1414L112.237 31.7264Z" fill="#D0CDE1"/>
<path d="M108.052 42.9393L106.134 50.1844L108.052 57.4295L104.913 61.5695L102.123 48.4594C102.123 48.4594 104.216 37.7643 104.39 36.5568C104.565 35.3493 104.913 35.1768 104.913 35.1768L106.308 35.3493L108.052 42.9393Z" fill="#46081A"/>
<path d="M122.002 45.6989L123.222 47.9416L123.571 51.7365L122.874 56.0491L125.315 60.0167L127.756 49.1489L125.141 35.1763H124.094L122.002 45.6989Z" fill="#46081A"/>
<path d="M107.18 86.582C107.18 86.582 104.739 87.272 103.867 87.4445C102.995 87.617 104.39 90.8946 104.39 90.8946C104.39 90.8946 105.262 95.3796 105.436 96.2421C105.611 97.1046 106.831 100.037 108.401 100.382C109.97 100.727 108.924 94.3446 108.924 94.3446C108.924 94.3446 109.621 92.2746 109.621 91.5846C109.621 90.8946 108.575 91.2396 108.575 91.2396C105.785 90.8946 107.18 86.582 107.18 86.582Z" fill="#46081A"/>
<path d="M112.934 99.8647C113.109 100.9 112.76 100.9 115.55 101.245C118.34 101.59 117.643 99.3472 117.643 99.3472C117.526 98.29 117.292 97.2487 116.945 96.2421C116.422 94.8621 113.632 96.5871 113.632 96.5871C113.632 96.5871 112.76 98.8296 112.934 99.8647Z" fill="#46081A"/>
<path d="M116.95 27.0169L117.04 28.551C117.04 28.551 118.166 26.0339 118.34 23.4464C118.514 20.8588 115.55 20.3413 113.806 20.1688C112.063 19.9963 109.098 21.2038 109.098 22.5838C109.098 23.9639 112.237 23.6189 113.457 23.2739C114.678 22.9289 115.201 25.8614 115.201 25.8614L115.899 26.0339L116.95 27.0169Z" fill="#46081A"/>
<path d="M111.208 32.9481L112.237 31.7266L115.201 34.1415L112.237 36.2115L111.208 32.9481Z" fill="#D0CDE1"/>
<path d="M118.515 32.5891L117.294 31.0366L115.201 34.1416L117.817 36.0392L118.515 32.5891Z" fill="#D0CDE1"/>
<path d="M107.529 45.3542L108.226 51.9092L106.831 55.8768L105.96 59.6718C105.96 59.6718 105.96 63.2944 109.447 63.4669C112.934 63.6393 115.899 52.5992 115.899 52.5992C115.899 52.5992 116.422 55.0143 116.771 56.3943C117.119 57.7743 123.048 63.2944 123.048 63.2944C123.048 63.2944 124.443 63.1218 125.664 60.3618C126.884 57.6018 123.223 55.0143 123.223 55.0143L122.176 51.3917L122.525 46.9067L124.966 35.1766L117.73 31.4678L118.514 41.3866L115.899 49.1492L111.975 31.9853L110.668 32.934L105.088 35.1766L107.529 45.3542Z" fill="#46081A"/>
<path d="M38.6147 71.4455C38.2699 71.4428 37.9212 71.4405 37.5786 71.43L37.5893 71.0883C37.9282 71.0986 38.2749 71.1033 38.6148 71.1036C38.9562 71.1036 39.3041 71.0981 39.6493 71.0871L39.6604 71.4286C39.3115 71.4398 38.9598 71.4455 38.6147 71.4455ZM35.5014 71.3011C34.8135 71.2367 34.1188 71.1494 33.4366 71.0417L33.4911 70.7042C34.1661 70.8107 34.8534 70.8972 35.534 70.9609L35.5014 71.3011ZM41.7374 71.2974L41.7045 70.9573C42.3848 70.8928 43.0721 70.8055 43.747 70.698L43.802 71.0355C43.1197 71.1442 42.4251 71.2323 41.7374 71.2974ZM31.3928 70.6516C30.7192 70.5006 30.0415 70.3256 29.3786 70.1319L29.4765 69.804C30.1324 69.9958 30.8028 70.1687 31.4692 70.3181L31.3928 70.6516ZM45.8453 70.6431L45.7685 70.31C46.4364 70.1592 47.1067 69.9855 47.7606 69.7933L47.859 70.1212C47.198 70.3153 46.5204 70.4909 45.8453 70.6431ZM27.4022 69.4849C26.7523 69.2487 26.102 68.9886 25.4694 68.7117L25.6093 68.3993C26.235 68.673 26.8783 68.9304 27.5213 69.1641L27.4022 69.4849ZM49.8343 69.4715L49.7149 69.1507C50.3539 68.9179 50.995 68.6606 51.6202 68.3862L51.7604 68.6987C51.1283 68.9761 50.4803 69.2362 49.8343 69.4715ZM23.5917 67.8171C22.9801 67.5013 22.3693 67.1608 21.7765 66.8052L21.9557 66.5128C22.5423 66.8648 23.1465 67.2015 23.7516 67.5139L23.5917 67.8171ZM53.6329 67.8045L53.4729 67.5016C54.0766 67.1893 54.6795 66.8526 55.2645 66.5009L55.444 66.793C54.8526 67.1486 54.2433 67.4887 53.6329 67.8045ZM20.031 65.6805C19.4645 65.2895 18.9031 64.8747 18.3621 64.448L18.5776 64.1806C19.1128 64.6029 19.6683 65.0132 20.2287 65.4001L20.031 65.6805ZM57.1866 65.6684L56.9885 65.3883C57.5489 65.0009 58.1036 64.5906 58.6375 64.1688L58.8531 64.4359C58.3135 64.8622 57.7529 65.2768 57.1866 65.6684ZM16.7763 63.1125C16.2642 62.6527 15.7608 62.1708 15.2801 61.6806L15.5282 61.4426C16.0037 61.9276 16.5019 62.4043 17.0087 62.8595L16.7763 63.1125ZM60.4373 63.1007L60.2048 62.8477C60.7103 62.3935 61.2081 61.9164 61.6844 61.4302L61.9324 61.6679C61.4512 62.1595 60.9481 62.6415 60.4373 63.1007ZM13.8794 60.1576C13.431 59.6375 12.9938 59.0965 12.5798 58.5497L12.8565 58.3448C13.266 58.8859 13.6986 59.4212 14.1422 59.9356L13.8794 60.1576ZM63.3328 60.1434L63.07 59.9218C63.5135 59.4068 63.9462 58.8709 64.3557 58.3291L64.6324 58.5337C64.2185 59.0814 63.7813 59.623 63.3328 60.1434ZM11.3868 56.8632C11.0088 56.2905 10.645 55.6991 10.3056 55.1054L10.6064 54.9372C10.9422 55.5246 11.3021 56.1098 11.6762 56.6763L11.3868 56.8632ZM65.8258 56.8447L65.5363 56.6581C65.9105 56.0904 66.2704 55.5042 66.6063 54.9155L66.9073 55.0834C66.5679 55.6786 66.2039 56.2712 65.8258 56.8447ZM9.3406 53.283C9.03993 52.6678 8.75588 52.0355 8.49638 51.4036L8.81645 51.275C9.07325 51.9 9.35427 52.5256 9.65174 53.1342L9.3406 53.283ZM67.8726 53.2563L67.5615 53.1078C67.8588 52.4982 68.1399 51.8709 68.397 51.243L68.7173 51.3712C68.4574 52.006 68.1733 52.6402 67.8726 53.2563ZM7.77507 49.4719C7.55648 48.8226 7.35679 48.1584 7.18148 47.4977L7.51573 47.4109C7.6891 48.0644 7.88669 48.7216 8.1029 49.3637L7.77507 49.4719ZM69.4372 49.4356L69.1092 49.3281C69.3242 48.6867 69.5211 48.0294 69.694 47.3746L70.0285 47.461C69.8535 48.123 69.6546 48.7873 69.4372 49.4356ZM6.71791 45.4904C6.58588 44.8197 6.47418 44.1359 6.38585 43.4577L6.72854 43.414C6.81593 44.085 6.92645 44.7615 7.05705 45.425L6.71791 45.4904ZM70.4896 45.4529L70.1504 45.3881C70.28 44.7248 70.3899 44.0479 70.4764 43.3764L70.8193 43.4198C70.7317 44.0985 70.6207 44.7825 70.4896 45.4529ZM6.18608 41.4083C6.14179 40.727 6.11892 40.0344 6.11816 39.3499L6.46372 39.3496C6.46448 40.0269 6.48709 40.7121 6.53096 41.3863L6.18608 41.4083ZM71.0167 41.3701L70.6718 41.3484C70.7148 40.6749 70.7366 39.9897 70.7366 39.3122L70.7364 39.2373H71.082L71.0822 39.311C71.0822 39.9969 71.0601 40.6892 71.0167 41.3701ZM6.52615 37.3132L6.18127 37.2922C6.22412 36.6095 6.28968 35.9198 6.37615 35.2421L6.719 35.2849C6.63337 35.9555 6.5685 36.6379 6.52615 37.3132ZM70.6671 37.201C70.6222 36.5254 70.5549 35.8432 70.467 35.1735L70.8095 35.1295C70.8984 35.8063 70.9666 36.4957 71.012 37.1787L70.6671 37.201ZM7.04263 33.2732L6.70332 33.2086C6.83366 32.5377 6.98805 31.8619 7.162 31.2001L7.49642 31.286C7.32431 31.9409 7.17161 32.6094 7.04263 33.2732ZM70.1358 33.1629C70.0042 32.4988 69.8489 31.8308 69.6748 31.1774L70.0089 31.0903C70.185 31.7507 70.3418 32.4258 70.4749 33.0972L70.1358 33.1629ZM8.07903 29.332L7.75085 29.2248C7.96775 28.5752 8.2092 27.9237 8.46862 27.2882L8.78903 27.4162C8.5324 28.0449 8.29357 28.6894 8.07903 29.332ZM69.0856 29.2254C68.8686 28.5838 68.6278 27.9411 68.3699 27.315L68.6898 27.186C68.9506 27.8188 69.1941 28.4684 69.4133 29.1169L69.0856 29.2254ZM9.62255 25.5501L9.31108 25.4018C9.61082 24.7854 9.93494 24.1703 10.2743 23.5738L10.5755 23.7415C10.2397 24.3317 9.91908 24.9402 9.62255 25.5501ZM67.5325 25.4568C67.2348 24.8499 66.9131 24.2436 66.5756 23.655L66.8763 23.4864C67.2173 24.0813 67.5426 24.6941 67.8433 25.3078L67.5325 25.4568ZM11.6436 21.9975L11.3539 21.8111C11.7307 21.2381 12.1315 20.6693 12.5451 20.1207L12.8221 20.325C12.413 20.8678 12.0164 21.4305 11.6436 21.9975ZM65.5037 21.9171C65.1298 21.3521 64.7321 20.7912 64.3214 20.2499L64.5978 20.0448C65.0129 20.5919 65.4149 21.1589 65.7929 21.7298L65.5037 21.9171ZM14.106 18.7309L13.8428 18.5096C14.2903 17.9887 14.7608 17.4753 15.2412 16.9836L15.4897 17.2211C15.0144 17.7076 14.5489 18.2156 14.106 18.7309ZM63.0337 18.6605C62.5894 18.1466 62.1224 17.6401 61.6459 17.155L61.8936 16.9169C62.3753 17.407 62.8472 17.9189 63.2962 18.4383L63.0337 18.6605ZM16.9675 15.8018L16.7348 15.5491C17.2462 15.0883 17.7787 14.6384 18.3174 14.2119L18.5334 14.4788C18.0003 14.9008 17.4734 15.3459 16.9675 15.8018ZM60.1636 15.7398C59.6569 15.286 59.1287 14.8422 58.5931 14.4207L58.8084 14.1532C59.3495 14.5792 59.8835 15.0277 60.3955 15.4864L60.1636 15.7398ZM20.1809 13.2574L19.9827 12.9775C20.5481 12.5855 21.1339 12.2065 21.7238 11.851L21.9036 12.1429C21.32 12.4947 20.7403 12.8697 20.1809 13.2574ZM56.9406 13.203C56.3781 12.8157 55.7966 12.4419 55.2123 12.0922L55.3912 11.7997C55.9817 12.1532 56.5696 12.5309 57.138 12.9224L56.9406 13.203ZM23.6942 11.1401L23.5337 10.8373C24.1446 10.5203 24.7743 10.2187 25.405 9.94087L25.5456 10.2532C24.9215 10.528 24.2986 10.8264 23.6942 11.1401ZM53.4152 11.0932C52.8084 10.7807 52.1831 10.4837 51.5565 10.2103L51.6961 9.89747C52.3293 10.1738 52.9614 10.4741 53.5748 10.7899L53.4152 11.0932ZM27.4501 9.48636L27.3301 9.16571C27.9781 8.9286 28.6424 8.70928 29.3048 8.5139L29.4035 8.84156C28.7482 9.03476 28.091 9.25176 27.4501 9.48636ZM49.6436 9.44755C49.0013 9.21512 48.3433 9.00046 47.6878 8.80968L47.7853 8.48168C48.4479 8.67455 49.1131 8.89155 49.7624 9.12657L49.6436 9.44755ZM31.395 8.32287L31.3178 7.98971C31.9901 7.83731 32.6775 7.70453 33.3607 7.59478L33.4161 7.93229C32.74 8.04078 32.0601 8.17215 31.395 8.32287ZM45.6944 8.298C45.0281 8.14944 44.3476 8.02042 43.6719 7.91443L43.7261 7.57676C44.4091 7.68392 45.0969 7.81436 45.7703 7.9645L45.6944 8.298ZM35.4583 7.67065L35.4249 7.33047C36.111 7.26463 36.8097 7.21964 37.5018 7.19686L37.5133 7.53853C36.8285 7.56107 36.1371 7.60555 35.4583 7.67065ZM41.6287 7.66005C40.9489 7.59721 40.2573 7.55514 39.5733 7.53503L39.5836 7.19336C40.2748 7.21372 40.9738 7.2562 41.6608 7.31971L41.6287 7.66005Z" fill="#D0CDE1"/>
<path d="M37.3905 16.0666C41.8754 16.0666 45.511 12.47 45.511 8.03332C45.511 3.59664 41.8754 0 37.3905 0C32.9057 0 29.27 3.59664 29.27 8.03332C29.27 12.47 32.9057 16.0666 37.3905 16.0666Z" fill="#C9184A"/>
<path d="M68.8361 37.9446C73.3209 37.9446 76.9566 34.3479 76.9566 29.9112C76.9566 25.4746 73.3209 21.8779 68.8361 21.8779C64.3513 21.8779 60.7156 25.4746 60.7156 29.9112C60.7156 34.3479 64.3513 37.9446 68.8361 37.9446Z" fill="#C9184A"/>
<path d="M58.9877 71.4451C63.4725 71.4451 67.1082 67.8484 67.1082 63.4117C67.1082 58.9751 63.4725 55.3784 58.9877 55.3784C54.5029 55.3784 50.8672 58.9751 50.8672 63.4117C50.8672 67.8484 54.5029 71.4451 58.9877 71.4451Z" fill="#C9184A"/>
<path d="M19.9401 72.8127C24.4249 72.8127 28.0606 69.2161 28.0606 64.7794C28.0606 60.3427 24.4249 56.7461 19.9401 56.7461C15.4553 56.7461 11.8196 60.3427 11.8196 64.7794C11.8196 69.2161 15.4553 72.8127 19.9401 72.8127Z" fill="#C9184A"/>
<path d="M8.19131 37.9446C12.6761 37.9446 16.3118 34.3479 16.3118 29.9112C16.3118 25.4746 12.6761 21.8779 8.19131 21.8779C3.70648 21.8779 0.0708008 25.4746 0.0708008 29.9112C0.0708008 34.3479 3.70648 37.9446 8.19131 37.9446Z" fill="#C9184A"/>
<path d="M40.8706 7.39263H38.0381C37.7805 7.39263 37.5335 7.29141 37.3514 7.11125C37.1693 6.93108 37.0669 6.68672 37.0669 6.43192V3.62986C37.0669 3.61935 37.0649 3.60894 37.0608 3.59922C37.0567 3.58951 37.0508 3.58069 37.0432 3.57325C37.0357 3.56582 37.0268 3.55992 37.017 3.5559C37.0072 3.55187 36.9966 3.5498 36.986 3.5498H35.1247C34.7813 3.5498 34.4519 3.68476 34.2091 3.92498C33.9663 4.1652 33.8298 4.49102 33.8298 4.83074V11.2354C33.8298 11.5752 33.9663 11.901 34.2091 12.1412C34.4519 12.3814 34.7813 12.5164 35.1247 12.5164H39.6566C40.0001 12.5164 40.3294 12.3814 40.5722 12.1412C40.8151 11.901 40.9515 11.5752 40.9515 11.2354V7.47269C40.9515 7.46217 40.9494 7.45176 40.9453 7.44205C40.9413 7.43233 40.9353 7.42351 40.9278 7.41608C40.9203 7.40864 40.9113 7.40274 40.9015 7.39872C40.8917 7.3947 40.8812 7.39263 40.8706 7.39263ZM39.0092 10.595H35.7721C35.6862 10.595 35.6039 10.5612 35.5432 10.5012C35.4825 10.4411 35.4484 10.3597 35.4484 10.2747C35.4484 10.1898 35.4825 10.1084 35.5432 10.0483C35.6039 9.98825 35.6862 9.95451 35.7721 9.95451H39.0092C39.0951 9.95451 39.1774 9.98825 39.2381 10.0483C39.2988 10.1084 39.3329 10.1898 39.3329 10.2747C39.3329 10.3597 39.2988 10.4411 39.2381 10.5012C39.1774 10.5612 39.0951 10.595 39.0092 10.595ZM39.0092 8.9938H35.7721C35.6862 8.9938 35.6039 8.96006 35.5432 8.90001C35.4825 8.83995 35.4484 8.7585 35.4484 8.67357C35.4484 8.58864 35.4825 8.50718 35.5432 8.44713C35.6039 8.38707 35.6862 8.35333 35.7721 8.35333H39.0092C39.0951 8.35333 39.1774 8.38707 39.2381 8.44713C39.2988 8.50718 39.3329 8.58864 39.3329 8.67357C39.3329 8.7585 39.2988 8.83995 39.2381 8.90001C39.1774 8.96006 39.0951 8.9938 39.0092 8.9938Z" fill="#F9F9F9"/>
<path d="M40.6929 6.68391L37.7833 3.80559C37.7777 3.80002 37.7705 3.79624 37.7627 3.7947C37.7548 3.79317 37.7467 3.79397 37.7394 3.79698C37.732 3.8 37.7257 3.8051 37.7212 3.81165C37.7168 3.81821 37.7144 3.82591 37.7144 3.83381V6.43192C37.7144 6.51685 37.7485 6.5983 37.8092 6.65836C37.8699 6.71841 37.9522 6.75215 38.0381 6.75215H40.6644C40.6724 6.75212 40.6801 6.74975 40.6868 6.74535C40.6934 6.74095 40.6986 6.73471 40.7016 6.72742C40.7046 6.72012 40.7055 6.7121 40.7039 6.70436C40.7024 6.69662 40.6985 6.6895 40.6929 6.68391Z" fill="#F9F9F9"/>
<path d="M60.1623 61.8296C60.0627 61.8296 59.9663 61.8638 59.8893 61.9264C59.8124 61.9889 59.7598 62.0759 59.7404 62.1725C59.721 62.2691 59.7361 62.3694 59.7831 62.4562C59.8301 62.543 59.906 62.6111 59.998 62.6487C60.09 62.6864 60.1924 62.6913 60.2876 62.6627C60.3829 62.634 60.4652 62.5736 60.5205 62.4917C60.5757 62.4098 60.6006 62.3114 60.5908 62.2134C60.581 62.1154 60.5371 62.0238 60.4667 61.9542C60.4267 61.9146 60.3793 61.8833 60.327 61.8619C60.2748 61.8405 60.2188 61.8296 60.1623 61.8296Z" fill="#F9F9F9"/>
<path d="M62.558 60.1269V60.1255C62.5444 60.0663 62.5143 60.0122 62.4712 59.969C62.4281 59.9259 62.3737 59.8956 62.3141 59.8814C61.8336 59.7655 61.0777 59.8891 60.24 60.2209C59.4345 60.5306 58.6975 60.9923 58.0701 61.5802C57.8987 61.7488 57.7395 61.9291 57.5936 62.1198C57.2713 62.0978 56.9482 62.1491 56.6492 62.2699C55.7182 62.6752 55.4523 63.7125 55.3815 64.1384C55.3713 64.1989 55.3753 64.261 55.3932 64.3197C55.4112 64.3784 55.4426 64.4323 55.485 64.477C55.5274 64.5218 55.5797 64.5562 55.6378 64.5778C55.6959 64.5993 55.7582 64.6072 55.8199 64.601H55.822L56.8591 64.489C56.8604 64.5021 56.8619 64.5141 56.863 64.5251C56.8763 64.6501 56.9327 64.7668 57.0226 64.8556L57.5288 65.3566C57.6184 65.4457 57.7363 65.5015 57.8627 65.5147L57.8974 65.5183L57.7845 66.543V66.5451C57.779 66.5972 57.784 66.6498 57.7991 66.7C57.8143 66.7502 57.8392 66.7969 57.8726 66.8376C57.906 66.8782 57.9471 66.912 57.9937 66.9369C58.0403 66.9618 58.0913 66.9774 58.144 66.9828C58.1564 66.984 58.1688 66.9847 58.1813 66.9849C58.2037 66.9849 58.2261 66.9831 58.2482 66.9794C58.6812 66.9105 59.7292 66.6507 60.1378 65.7247C60.2589 65.4299 60.311 65.1117 60.2902 64.7942C60.4838 64.6502 60.6667 64.4926 60.8376 64.3228C61.4315 63.7079 61.8987 62.9846 62.2131 62.193C62.5468 61.3738 62.6724 60.6204 62.558 60.1269ZM60.8318 62.9164C60.6993 63.0476 60.5305 63.137 60.3467 63.1732C60.1629 63.2095 59.9724 63.191 59.7992 63.1201C59.626 63.0493 59.4779 62.9292 59.3737 62.7751C59.2695 62.621 59.2139 62.4398 59.2138 62.2544C59.2137 62.069 59.2692 61.8877 59.3732 61.7335C59.4772 61.5793 59.6252 61.459 59.7983 61.388C59.9714 61.317 60.1619 61.2983 60.3458 61.3344C60.5296 61.3704 60.6985 61.4596 60.8311 61.5907L60.8318 61.5914C61.0094 61.7644 61.1103 62.0002 61.1121 62.2468C61.114 62.4935 61.0168 62.7307 60.8418 62.9065L60.8318 62.9164Z" fill="#F9F9F9"/>
<path d="M57.4709 65.4924C57.4085 65.4847 57.3454 65.4999 57.2935 65.535C57.1905 65.6047 57.087 65.6736 56.9825 65.7407C56.9371 65.7696 56.8833 65.7826 56.8296 65.7775C56.7759 65.7725 56.7255 65.7497 56.6864 65.7129C56.6473 65.6761 56.6219 65.6274 56.6142 65.5746C56.6065 65.5218 56.617 65.4679 56.6439 65.4217L56.8398 65.0867C56.8678 65.0462 56.8834 64.9985 56.8847 64.9495C56.886 64.9004 56.873 64.852 56.8472 64.81C56.8214 64.7681 56.7839 64.7344 56.7392 64.713C56.6946 64.6916 56.6446 64.6834 56.5953 64.6894C56.3779 64.7166 56.1758 64.8146 56.0209 64.9679C55.9618 65.0264 55.7824 65.2041 55.6858 65.8813C55.6583 66.0757 55.641 66.2715 55.6339 66.4678C55.633 66.5013 55.6388 66.5346 55.651 66.5659C55.6631 66.5972 55.6814 66.6258 55.7047 66.6501C55.7281 66.6744 55.756 66.6939 55.787 66.7075C55.8179 66.7211 55.8513 66.7286 55.8852 66.7295C55.8874 66.7295 55.8896 66.7295 55.8919 66.7295H55.8983C56.0968 66.7226 56.2949 66.7055 56.4917 66.6785C57.1765 66.5828 57.3561 66.4051 57.4151 66.3467C57.5708 66.1934 57.6696 65.9925 57.6955 65.7766C57.7038 65.7095 57.6848 65.6418 57.6427 65.5885C57.6006 65.5352 57.5388 65.5006 57.4709 65.4924Z" fill="#F9F9F9"/>
<path d="M17.1453 69.1446H16.557C16.44 69.1446 16.3277 69.0986 16.245 69.0167C16.1622 68.9349 16.1157 68.8238 16.1157 68.7081V66.0889C16.1157 65.9731 16.1622 65.8621 16.245 65.7802C16.3277 65.6983 16.44 65.6523 16.557 65.6523H17.1453C17.2624 65.6523 17.3746 65.6983 17.4574 65.7802C17.5401 65.8621 17.5866 65.9731 17.5866 66.0889V68.7081C17.5866 68.8238 17.5401 68.9349 17.4574 69.0167C17.3746 69.0986 17.2624 69.1446 17.1453 69.1446Z" fill="#F9F9F9"/>
<path d="M21.264 69.1446H20.6756C20.5586 69.1446 20.4464 69.0986 20.3636 69.0168C20.2809 68.9349 20.2344 68.8239 20.2344 68.7081V64.3428C20.2344 64.227 20.2809 64.116 20.3636 64.0341C20.4464 63.9522 20.5586 63.9062 20.6756 63.9062H21.264C21.381 63.9063 21.4933 63.9522 21.576 64.0341C21.6588 64.116 21.7053 64.227 21.7053 64.3428V68.7081C21.7053 68.8239 21.6588 68.9349 21.576 69.0168C21.4933 69.0986 21.381 69.1446 21.264 69.1446Z" fill="#F9F9F9"/>
<path d="M23.3231 69.1447H22.7347C22.6177 69.1447 22.5055 69.0987 22.4227 69.0168C22.3399 68.9349 22.2935 68.8239 22.2935 68.7081V62.3057C22.2935 62.1899 22.3399 62.0789 22.4227 61.997C22.5055 61.9151 22.6177 61.8691 22.7347 61.8691H23.3231C23.4401 61.8691 23.5524 61.9151 23.6351 61.997C23.7179 62.0789 23.7644 62.1899 23.7644 62.3057V68.7081C23.7644 68.8239 23.7179 68.9349 23.6351 69.0168C23.5524 69.0987 23.4401 69.1447 23.3231 69.1447Z" fill="#F9F9F9"/>
<path d="M19.2047 69.1447H18.6163C18.4993 69.1447 18.387 69.0987 18.3043 69.0168C18.2215 68.935 18.175 68.8239 18.175 68.7082V60.8506C18.175 60.7348 18.2215 60.6238 18.3043 60.5419C18.387 60.4601 18.4993 60.4141 18.6163 60.4141H19.2047C19.3217 60.4141 19.434 60.4601 19.5167 60.5419C19.5995 60.6238 19.646 60.7348 19.646 60.8506V68.7082C19.646 68.7655 19.6345 68.8223 19.6124 68.8752C19.5902 68.9282 19.5577 68.9763 19.5167 69.0168C19.4757 69.0574 19.4271 69.0895 19.3735 69.1115C19.32 69.1334 19.2626 69.1447 19.2047 69.1447Z" fill="#F9F9F9"/>
<path d="M69.2249 29.7011L68.8046 29.2851C68.7083 29.1898 68.5778 29.1361 68.4416 29.1357C68.3054 29.1354 68.1747 29.1884 68.0779 29.2831L65.1554 31.9513C65.0481 32.0452 64.9825 32.1771 64.9727 32.3185C64.9696 32.3888 64.9811 32.4589 65.0066 32.5245C65.0322 32.5901 65.0711 32.6498 65.1209 32.6998L65.7488 33.3278L65.7499 33.3289C65.847 33.4246 65.9782 33.4785 66.1152 33.4789H66.1342C66.2052 33.475 66.2746 33.4572 66.3386 33.4267C66.4027 33.3962 66.4599 33.3535 66.5073 33.301L69.2232 30.4232C69.3202 30.328 69.375 30.1986 69.3756 30.0634C69.3762 29.9283 69.3225 29.7984 69.2263 29.7024L69.2249 29.7011Z" fill="#F9F9F9"/>
<path d="M72.6033 28.8602L72.5983 28.8553L72.0466 28.315C72.0143 28.2832 71.9759 28.2579 71.9337 28.2408C71.8915 28.2237 71.8462 28.2151 71.8006 28.2153C71.7267 28.2154 71.6546 28.2385 71.5947 28.2813C71.5947 28.2744 71.5957 28.2677 71.5961 28.2618C71.6184 28.1223 71.5887 27.9796 71.5124 27.8602C71.3909 27.6981 71.2574 27.5451 71.1132 27.4024L71.1119 27.4012C70.7086 27.0184 70.2346 26.7159 69.7158 26.5102C69.4446 26.4002 69.1543 26.3436 68.8612 26.3438C68.4818 26.3404 68.1131 26.4682 67.8188 26.705C67.735 26.7842 67.6586 26.8706 67.5905 26.9633C67.558 27.0078 67.5408 27.0614 67.5415 27.1163C67.5423 27.1711 67.5609 27.2243 67.5946 27.2678C67.6284 27.3114 67.6754 27.343 67.7287 27.358C67.7821 27.373 67.8389 27.3705 67.8907 27.351C67.9359 27.3343 67.982 27.3203 68.0289 27.3091C68.1265 27.2887 68.2265 27.2825 68.3259 27.2908C68.532 27.3121 68.7294 27.3837 68.9005 27.4993C68.9964 27.5792 69.0727 27.6796 69.1236 27.793C69.1746 27.9064 69.1988 28.0297 69.1945 28.1537C69.123 28.3551 69.0137 28.5414 68.8725 28.7028C68.8348 28.7519 68.8164 28.8129 68.8207 28.8744C68.825 28.9359 68.8517 28.9938 68.8958 29.0373L69.4498 29.5853C69.4963 29.6315 69.559 29.6582 69.6249 29.6601C69.6908 29.6619 69.7549 29.6387 69.804 29.5952C69.9606 29.4568 70.1992 29.2481 70.2826 29.197C70.3539 29.1498 70.4346 29.1183 70.5193 29.1046C70.5823 29.0985 70.6458 29.1118 70.701 29.1426C70.7013 29.1453 70.701 29.148 70.7001 29.1506C70.6993 29.1532 70.6979 29.1556 70.696 29.1577L70.6667 29.1852L70.6619 29.1897C70.5968 29.2538 70.5601 29.341 70.56 29.4319C70.5598 29.5228 70.5961 29.61 70.661 29.6744L70.6627 29.6761L71.2143 30.2161C71.2466 30.248 71.285 30.2732 71.3272 30.2903C71.3694 30.3074 71.4146 30.316 71.4603 30.3157C71.5519 30.3158 71.6399 30.2804 71.7053 30.2169L72.5988 29.3439C72.6018 29.3408 72.6049 29.3376 72.6078 29.3345C72.6677 29.2695 72.7006 29.1844 72.6998 29.0964C72.6989 29.0085 72.6645 28.9241 72.6033 28.8602Z" fill="#F9F9F9"/>
<path d="M9.48053 29.4328C9.41678 29.4328 9.35446 29.4141 9.30145 29.379C9.24845 29.344 9.20713 29.2942 9.18274 29.2359C9.15834 29.1777 9.15196 29.1136 9.1644 29.0517C9.17683 28.9899 9.20753 28.933 9.25261 28.8884L9.99166 28.1573L9.25261 27.4262C9.19216 27.3664 9.1582 27.2853 9.1582 27.2007C9.1582 27.1161 9.19216 27.035 9.25261 26.9752C9.31305 26.9154 9.39504 26.8818 9.48053 26.8818C9.56601 26.8818 9.648 26.9154 9.70844 26.9752L10.6754 27.9318C10.7054 27.9614 10.7291 27.9966 10.7453 28.0353C10.7615 28.074 10.7698 28.1154 10.7698 28.1573C10.7698 28.1992 10.7615 28.2406 10.7453 28.2793C10.7291 28.318 10.7054 28.3532 10.6754 28.3828L9.70844 29.3394C9.67855 29.369 9.64302 29.3926 9.60391 29.4086C9.56479 29.4246 9.52286 29.4328 9.48053 29.4328Z" fill="#F9F9F9"/>
<path d="M4.32331 30.3898C4.28098 30.3898 4.23906 30.3816 4.19996 30.3656C4.16085 30.3495 4.12531 30.326 4.09538 30.2964C4.06545 30.2668 4.04171 30.2317 4.02551 30.193C4.00931 30.1543 4.00098 30.1128 4.00098 30.071V29.7521C4.0035 29.2456 4.20794 28.7606 4.56988 28.4023C4.93182 28.0441 5.42203 27.8416 5.934 27.8389H10.1253C10.2108 27.8389 10.2927 27.8725 10.3532 27.9323C10.4136 27.9921 10.4476 28.0732 10.4476 28.1577C10.4476 28.2423 10.4136 28.3234 10.3532 28.3832C10.2927 28.443 10.2108 28.4766 10.1253 28.4766H5.93496C5.59347 28.4786 5.26655 28.6138 5.02517 28.8527C4.78379 29.0917 4.64741 29.4152 4.64564 29.753V30.071C4.64564 30.1128 4.6373 30.1543 4.6211 30.193C4.60491 30.2317 4.58116 30.2668 4.55123 30.2964C4.5213 30.326 4.48577 30.3495 4.44666 30.3656C4.40755 30.3816 4.36564 30.3898 4.32331 30.3898Z" fill="#F9F9F9"/>
<path d="M6.90188 32.9404C6.85954 32.9404 6.81761 32.9322 6.7785 32.9162C6.73938 32.9002 6.70386 32.8766 6.67396 32.847L5.70697 31.8904C5.67703 31.8608 5.65329 31.8256 5.63709 31.7869C5.62089 31.7483 5.61255 31.7068 5.61255 31.6649C5.61255 31.623 5.62089 31.5816 5.63709 31.5429C5.65329 31.5042 5.67703 31.4691 5.70697 31.4394L6.67396 30.4828C6.73443 30.4231 6.81638 30.3896 6.90182 30.3896C6.98725 30.3897 7.06918 30.4233 7.12959 30.483C7.19 30.5428 7.22395 30.6238 7.22399 30.7084C7.22403 30.7929 7.19015 30.874 7.12979 30.9338L6.39074 31.6649L7.12979 32.3961C7.17487 32.4406 7.20557 32.4975 7.21801 32.5593C7.23044 32.6212 7.22406 32.6853 7.19966 32.7435C7.17527 32.8018 7.13396 32.8516 7.08095 32.8867C7.02795 32.9217 6.96563 32.9404 6.90188 32.9404Z" fill="#F9F9F9"/>
<path d="M6.25739 31.9841C6.1719 31.9841 6.08992 31.9505 6.02947 31.8907C5.96902 31.8309 5.93506 31.7498 5.93506 31.6652C5.93506 31.5806 5.96902 31.4995 6.02947 31.4397C6.08992 31.3799 6.1719 31.3463 6.25739 31.3463H10.4477C10.7892 31.3443 11.1161 31.2092 11.3575 30.9702C11.5989 30.7312 11.7352 30.4077 11.737 30.0699V29.752C11.737 29.6674 11.771 29.5863 11.8314 29.5265C11.8919 29.4667 11.9738 29.4331 12.0593 29.4331C12.1448 29.4331 12.2268 29.4667 12.2873 29.5265C12.3477 29.5863 12.3817 29.6674 12.3817 29.752V30.0708C12.3791 30.5773 12.1747 31.0624 11.8128 31.4206C11.4508 31.7788 10.9606 31.9813 10.4486 31.9841L6.25739 31.9841Z" fill="#F9F9F9"/>
</g>
<defs>
<clipPath id="clip0_426_18265">
<rect width="128" height="104" fill="white" transform="translate(0.0708008)"/>
</clipPath>
</defs>
</svg>
