<svg width="106" height="108" viewBox="0 0 106 108" fill="none" xmlns="http://www.w3.org/2000/svg">
<g clip-path="url(#clip0_426_18136)">
<path d="M75.74 50.9819H55.9739V60.9912H75.74V50.9819Z" fill="#F9F9F9"/>
<path d="M73.4046 53.5444H58.3091V54.0586H73.4046V53.5444Z" fill="#C9184A"/>
<path d="M73.4046 55.7295H58.3091V56.2437H73.4046V55.7295Z" fill="#C9184A"/>
<path d="M73.4046 57.915H58.3091V58.4292H73.4046V57.915Z" fill="#C9184A"/>
<path d="M75.896 61.1478H55.8188V50.8252H75.896V61.1478ZM56.1297 60.835H75.5847V51.1384H56.1297V60.835Z" fill="#46081A"/>
<path d="M23.1494 53.6893C18.9648 53.6929 14.8622 52.5228 11.3035 50.3106L11.2131 50.2543L11.269 50.1635L23.0907 30.939H45.684V31.0462C45.684 43.5313 35.5752 53.6893 23.1494 53.6893Z" fill="#C9184A"/>
<path d="M8.65374 45.5261L8.58115 45.481C4.59276 43.0029 1.71751 39.0657 0.561337 34.4991C-0.594831 29.9325 0.0583905 25.0933 2.38334 21.0012L2.42577 20.9268L18.2076 29.9888L8.65374 45.5261Z" fill="#F9F9F9"/>
<path d="M45.6838 27.9056H23.0171L27.9035 5.66113L28.0073 5.68406C33.019 6.79718 37.5026 9.5957 40.7168 13.6169C43.931 17.6381 45.6832 22.6411 45.6838 27.7988V27.9056Z" fill="#D6D6E3"/>
<path d="M19.4067 24.4019L4.04858 15.5832L4.08981 15.5108C5.95174 12.2425 8.80364 9.65702 12.23 8.13109C15.6563 6.60515 19.478 6.2185 23.1383 7.02748L23.2194 7.04544L19.4067 24.4019Z" fill="#F9F9F9"/>
<path d="M78.231 0.65625H58.4648V10.6655H78.231V0.65625Z" fill="#F9F9F9"/>
<path d="M75.8958 3.21875H60.8003V3.73293H75.8958V3.21875Z" fill="#D6D6E3"/>
<path d="M75.8958 5.40381H60.8003V5.91799H75.8958V5.40381Z" fill="#D6D6E3"/>
<path d="M75.8958 7.58936H60.8003V8.10354H75.8958V7.58936Z" fill="#D6D6E3"/>
<path d="M78.3866 10.8222H58.3091V0.500488H78.3866V10.8222ZM58.6205 10.5094H78.0755V0.812885H58.6205V10.5094Z" fill="#D6D6E3"/>
<path d="M55.8183 55.919H45.143L45.1128 55.875L36.8174 43.778L36.9839 43.6626L45.2492 55.716H55.8183V55.919Z" fill="#46081A"/>
<path d="M58.3089 5.3125H47.6337L47.6035 5.35648L39.3081 17.4535L39.4746 17.5689L47.7398 5.51549H58.3088L58.3089 5.3125Z" fill="#D6D6E3"/>
<path d="M92.3594 38.3511L89.4656 38.4639L89.6099 42.2026L92.5037 42.0898L92.3594 38.3511Z" fill="#C9184A"/>
<path d="M79.305 51.4454C79.305 51.4454 75.2976 49.5213 75.3616 51.183C75.4256 52.8447 79.4014 53.938 79.4014 53.938L79.305 51.4454Z" fill="#FFB9B9"/>
<path d="M81.5037 65.5051C81.5037 65.5051 79.613 70.1552 78.9144 73.5107C78.2158 76.8662 77.152 81.4842 78.5204 84.7597C79.8888 88.0351 83.7796 97.6602 83.8196 98.6986C83.8596 99.737 83.486 100.792 84.3133 100.76C85.1405 100.727 89.6395 99.3039 89.8221 98.6727C90.0046 98.0415 88.287 96.4442 88.287 96.4442L84.0453 83.0881L88.4709 74.3866L91.663 87.3676L92.2882 103.569C92.2882 103.569 95.357 102.617 95.8021 103.432C95.8021 103.432 97.1764 101.506 97.3516 100.667C97.5268 99.8284 96.7024 83.8429 96.7024 83.8429C96.7024 83.8429 99.519 65.6354 97.2453 65.7239C94.9715 65.8124 86.0656 60.3347 81.5037 65.5051Z" fill="#46081A"/>
<path d="M84.2811 99.9285C84.2811 99.9285 82.1836 104.587 81.985 104.802C81.7863 105.018 80.4195 107.152 81.453 107.111C82.4865 107.071 84.9269 105.936 86.7234 104.202C88.5198 102.468 90.8877 99.4631 90.6728 99.2634C90.4578 99.0638 88.9871 98.4971 88.9871 98.4971L84.2811 99.9285Z" fill="#46081A"/>
<path d="M92.6619 102.514C92.6619 102.514 92.5354 104.6 92.1539 105.446C91.7724 106.293 91.8203 107.54 92.8541 107.499C93.8879 107.459 96.5587 106.939 96.5587 106.939C96.5587 106.939 96.7174 105.685 96.5027 105.485C96.288 105.285 95.373 103.033 95.7623 102.394C96.1516 101.754 92.6619 102.514 92.6619 102.514Z" fill="#46081A"/>
<path d="M94.1907 34.8477C94.1907 34.8477 96.394 38.2982 97.2529 39.0968C98.1118 39.8953 95.6954 41.6537 95.6954 41.6537L91.3706 42.2383C91.3706 42.2383 91.4251 38.2837 91.2022 37.8764C90.9794 37.4691 94.1907 34.8477 94.1907 34.8477Z" fill="#FFB9B9"/>
<path d="M90.4315 39.3626C90.4315 39.3626 91.3224 40.992 92.1493 40.9598C92.9761 40.9277 97.2527 39.0962 97.4354 38.466C97.6181 37.8359 98.852 42.9873 98.852 42.9873L88.3873 61.493L85.8347 59.7198L87.0716 48.8545L88.0874 42.9903L90.4315 39.3626Z" fill="#C9184A"/>
<path d="M97.8215 55.9243C97.4041 56.8018 97.1433 57.7169 97.1794 58.6535C97.181 58.6951 97.1826 58.7367 97.1864 58.7781C97.2854 60.7005 97.9901 62.9239 98.243 64.5407C98.4264 65.7006 98.3743 66.5471 97.6987 66.7461C96.0612 67.2259 97.9374 67.5689 91.6018 69.688C85.2661 71.807 84.1604 69.978 84.1444 69.5625C84.1284 69.147 85.0417 65.9911 84.8269 65.7915C84.6121 65.5918 81.8225 68.4047 80.9797 68.0215C80.1368 67.6384 80.8834 65.5291 80.8834 65.5291C80.8834 65.5291 82.7821 61.0866 82.7421 60.0481C82.7021 59.0095 85.6182 54.1113 85.6182 54.1113L87.6018 41.1367C87.6018 41.1367 88.3644 39.4428 89.3897 39.1949C90.4149 38.947 91.2661 39.5378 91.2661 39.5378L89.5499 43.3491L87.7393 50.0763L88.0422 52.5608C88.0422 52.5608 90.1477 48.1102 91.5304 46.3922C92.9131 44.6742 95.8614 40.6068 95.8614 40.6068C95.8614 40.6068 96.5498 38.2731 96.0301 37.5757C95.5104 36.8762 98.1976 36.7712 99.3433 39.6391C99.9506 41.159 100.936 43.4254 101.554 45.5356C102.104 47.405 102.364 49.1527 101.819 50.1517C100.986 51.678 98.8902 53.6839 97.8215 55.9243Z" fill="#D6D6E3"/>
<path opacity="0.1" d="M101.82 50.1523C100.986 51.6784 98.8901 53.6843 97.8214 55.9247C97.5423 54.9141 97.2018 53.8686 97.2018 53.8686C97.2018 53.8686 95.8957 46.8468 99.7591 45.0321C100.399 44.9699 101.039 45.1496 101.555 45.5362C102.105 47.4056 102.365 49.1533 101.82 50.1523Z" fill="#46081A"/>
<path d="M86.4836 49.7095L83.2084 50.6692L78.6609 50.8464L78.1931 54.8171L85.6665 55.3579C85.6665 55.3579 87.5331 50.0846 86.4836 49.7095Z" fill="#D6D6E3"/>
<path d="M91.8244 63.0601C91.8244 63.0601 87.4428 63.7905 88.4428 65.1154C89.4429 66.4404 93.3244 65.0475 93.3244 65.0475L91.8244 63.0601Z" fill="#FFB9B9"/>
<path opacity="0.1" d="M97.009 57.8394C97.108 59.7617 97.8128 61.9851 98.0656 63.6019C96.6699 64.9293 95.3425 66.1003 94.8423 66.1197C93.8088 66.16 92.1471 66.0168 91.535 66.2486C90.923 66.4804 90.564 62.5421 90.564 62.5421C90.564 62.5421 90.9293 61.2797 92.5588 60.5921C93.6588 60.1276 95.7672 58.8661 97.009 57.8394Z" fill="#46081A"/>
<path d="M99.7109 43.7855C99.7109 43.7855 103.209 43.2331 103.02 49.0651C102.831 54.8972 103.389 58.6198 101.982 59.7146C100.575 60.8095 96.005 65.7722 94.9715 65.8124C93.9379 65.8526 92.2762 65.7094 91.6642 65.9412C91.0522 66.173 90.6931 62.2347 90.6931 62.2347C90.6931 62.2347 91.0584 60.9724 92.688 60.2848C94.3175 59.5973 98.1568 57.1594 98.1247 56.3285C98.0927 55.4977 97.1536 52.622 97.1536 52.622C97.1536 52.622 95.8477 45.6002 99.7109 43.7855Z" fill="#D6D6E3"/>
<path d="M91.1063 39.9571C93.6198 39.9571 95.6573 37.9097 95.6573 35.3841C95.6573 32.8585 93.6198 30.811 91.1063 30.811C88.5929 30.811 86.5554 32.8585 86.5554 35.3841C86.5554 37.9097 88.5929 39.9571 91.1063 39.9571Z" fill="#FFB9B9"/>
<path d="M88.042 28.8294C87.9322 28.9244 87.8008 28.9907 87.6593 29.0223C87.5883 29.035 87.5152 29.019 87.4559 28.9777C87.3966 28.9364 87.356 28.8733 87.3428 28.802C87.2388 29.0189 87.1212 29.2502 86.9087 29.3616C86.6961 29.4731 86.3674 29.3796 86.3368 29.1407C86.3057 29.3221 86.2259 29.4914 86.1058 29.6305C85.9739 29.7569 85.7348 29.7887 85.6196 29.6468C85.713 30.1581 85.6553 30.6838 85.6845 31.2021C85.7137 31.7204 85.8514 32.2711 86.2415 32.6123C86.8105 33.1099 87.6661 32.9877 88.4145 32.8928C88.5277 32.8689 88.6451 32.8754 88.755 32.9116C89.0352 33.0316 89.0226 33.4236 89.0263 33.7294C89.0491 34.2665 89.2606 34.778 89.6233 35.1732C89.9859 35.5684 90.4762 35.8217 91.007 35.888C91.3041 35.9341 91.6072 35.8598 91.8497 35.6814C92.0623 35.5004 92.1708 35.2055 92.4143 35.0695C92.8104 34.8483 93.2907 35.1709 93.5803 35.5211C93.8698 35.8713 94.1554 36.3021 94.6039 36.3658C95.1973 36.4505 95.6492 35.8429 95.8715 35.2835C96.1774 34.4993 96.324 33.6616 96.3025 32.8196C96.2811 31.9776 96.0921 31.1484 95.7467 30.381C94.5073 27.6684 90.2753 27.2392 88.042 28.8294Z" fill="#46081A"/>
<path d="M105.985 107.5H72.2483V107.174H106L105.985 107.5Z" fill="#CBCBCB"/>
</g>
<defs>
<clipPath id="clip0_426_18136">
<rect width="106" height="107" fill="white" transform="translate(0 0.5)"/>
</clipPath>
</defs>
</svg>
