<svg width="64" height="64" viewBox="0 0 64 64" fill="none" xmlns="http://www.w3.org/2000/svg">
<path fill-rule="evenodd" clip-rule="evenodd" d="M53.1893 4.47214C53.0097 3.94534 52.6698 3.48794 52.2172 3.16405C51.7645 2.84016 51.2219 2.66602 50.6653 2.66602C50.1088 2.66602 49.5661 2.84016 49.1135 3.16405C48.6609 3.48794 48.3209 3.94534 48.1413 4.47214L47.7973 5.48014C47.4024 6.6371 46.7476 7.68816 45.8831 8.5526C45.0187 9.41705 43.9676 10.0719 42.8107 10.4668L41.8053 10.8108C41.2795 10.991 40.8231 11.331 40.5 11.7833C40.1768 12.2356 40.0031 12.7776 40.0031 13.3335C40.0031 13.8893 40.1768 14.4313 40.5 14.8836C40.8231 15.3359 41.2795 15.6759 41.8053 15.8561L42.8133 16.2028C43.97 16.5975 45.0209 17.2519 45.8853 18.1158C46.7497 18.9798 47.4047 20.0303 47.8 21.1868L48.1413 22.1948C48.3209 22.7216 48.6609 23.179 49.1135 23.5029C49.5661 23.8268 50.1088 24.0009 50.6653 24.0009C51.2219 24.0009 51.7645 23.8268 52.2172 23.5029C52.6698 23.179 53.0097 22.7216 53.1893 22.1948L53.536 21.1868C53.9307 20.0301 54.5851 18.9792 55.449 18.1148C56.313 17.2504 57.3635 16.5954 58.52 16.2001L59.528 15.8561C60.0539 15.6759 60.5103 15.3359 60.8334 14.8836C61.1565 14.4313 61.3302 13.8893 61.3302 13.3335C61.3302 12.7776 61.1565 12.2356 60.8334 11.7833C60.5103 11.331 60.0539 10.991 59.528 10.8108L58.52 10.4641C57.3633 10.0695 56.3124 9.41506 55.448 8.5511C54.5836 7.68713 53.9286 6.63661 53.5333 5.48014L53.1893 4.47214ZM48.5227 13.3335C49.3191 12.7024 50.0338 11.9877 50.6667 11.1895C51.2978 11.9859 52.0124 12.7006 52.8107 13.3335C52.0168 13.9643 51.2975 14.6836 50.6667 15.4775C50.0358 14.6836 49.3165 13.9643 48.5227 13.3335ZM32 5.33347C28.4638 5.33347 25.0724 6.73823 22.5719 9.23872C20.0714 11.7392 18.6667 15.1306 18.6667 18.6668V32.0001C18.6667 35.5364 20.0714 38.9277 22.5719 41.4282C25.0724 43.9287 28.4638 45.3335 32 45.3335C35.5362 45.3335 38.9276 43.9287 41.4281 41.4282C43.9286 38.9277 45.3333 35.5364 45.3333 32.0001V26.6668C45.3333 25.9596 45.0524 25.2813 44.5523 24.7812C44.0522 24.2811 43.3739 24.0001 42.6667 24.0001C41.9594 24.0001 41.2811 24.2811 40.781 24.7812C40.281 25.2813 40 25.9596 40 26.6668V32.0001C40 34.1219 39.1571 36.1567 37.6569 37.657C36.1566 39.1573 34.1217 40.0001 32 40.0001C29.8783 40.0001 27.8434 39.1573 26.3431 37.657C24.8429 36.1567 24 34.1219 24 32.0001V18.6668C23.9995 17.4456 24.2786 16.2404 24.8159 15.1438C25.3531 14.0471 26.1344 13.088 27.0997 12.3399C28.065 11.5919 29.1887 11.0747 30.3848 10.8282C31.5809 10.5816 32.8176 10.6122 34 10.9175C34.3418 11.0137 34.6994 11.0408 35.0517 10.997C35.4041 10.9532 35.7442 10.8395 36.0521 10.6626C36.3599 10.4856 36.6293 10.2489 36.8444 9.96642C37.0596 9.68393 37.2162 9.36132 37.3049 9.01751C37.3937 8.67371 37.413 8.31563 37.3615 7.96429C37.3101 7.61295 37.189 7.27542 37.0053 6.97151C36.8217 6.6676 36.5792 6.40343 36.2921 6.1945C36.0049 5.98556 35.679 5.83608 35.3333 5.75481C34.2444 5.47437 33.1244 5.3328 32 5.33347ZM34.6667 53.1681C39.3016 52.5829 43.6165 50.4932 46.9494 47.2195C50.2823 43.9459 52.4491 39.6691 53.1173 35.0455C53.2178 34.3453 53.0359 33.6339 52.6119 33.0678C52.1878 32.5017 51.5562 32.1272 50.856 32.0268C50.1558 31.9264 49.4444 32.1082 48.8783 32.5323C48.3122 32.9564 47.9378 33.588 47.8373 34.2881C47.2818 38.0919 45.3758 41.5687 42.4678 44.0829C39.5599 46.597 35.8441 47.9806 32 47.9806C28.1559 47.9806 24.4401 46.597 21.5321 44.0829C18.6242 41.5687 16.7182 38.0919 16.1627 34.2881C16.0622 33.588 15.6878 32.9564 15.1217 32.5323C14.5556 32.1082 13.8442 31.9264 13.144 32.0268C12.4438 32.1272 11.8122 32.5017 11.3881 33.0678C10.9641 33.6339 10.7822 34.3453 10.8827 35.0455C11.5509 39.6691 13.7177 43.9459 17.0506 47.2195C20.3835 50.4932 24.6984 52.5829 29.3333 53.1681V56.0001C29.3333 56.7074 29.6143 57.3857 30.1144 57.8858C30.6145 58.3859 31.2928 58.6668 32 58.6668C32.7072 58.6668 33.3855 58.3859 33.8856 57.8858C34.3857 57.3857 34.6667 56.7074 34.6667 56.0001V53.1681Z" fill="#C9184A"/>
</svg>
