<svg width="64" height="64" viewBox="0 0 64 64" fill="none" xmlns="http://www.w3.org/2000/svg">
<path d="M16 58.6663H56V53.333H16.032C14.8 53.301 13.3333 52.813 13.3333 50.6663C13.3333 48.5197 14.8 48.0317 16.032 47.9997H56V10.6663C56 7.72501 53.608 5.33301 50.6667 5.33301H16C12.784 5.33301 8 7.46367 8 13.333V50.6663C8 56.5357 12.784 58.6663 16 58.6663ZM13.3333 21.333V13.333C13.3333 11.1863 14.8 10.6983 16 10.6663H50.6667V42.6663H13.3333V21.333Z" fill="#C9184A"/>
<path d="M21.3333 16H45.3333V21.3333H21.3333V16Z" fill="#C9184A"/>
</svg>
