<svg width="64" height="64" viewBox="0 0 64 64" fill="none" xmlns="http://www.w3.org/2000/svg">
<path d="M10.6667 55.9997C9.19999 55.9997 7.94488 55.4779 6.90133 54.4343C5.85777 53.3908 5.33511 52.1348 5.33333 50.6663V21.333C5.33333 19.8663 5.856 18.6112 6.90133 17.5677C7.94666 16.5241 9.20177 16.0015 10.6667 15.9997H21.3333V10.6663C21.3333 9.19967 21.856 7.94456 22.9013 6.90101C23.9467 5.85745 25.2018 5.33479 26.6667 5.33301H37.3333C38.8 5.33301 40.056 5.85567 41.1013 6.90101C42.1467 7.94634 42.6684 9.20145 42.6667 10.6663V15.9997H53.3333C54.8 15.9997 56.056 16.5223 57.1013 17.5677C58.1467 18.613 58.6684 19.8681 58.6667 21.333V50.6663C58.6667 52.133 58.1449 53.389 57.1013 54.4343C56.0578 55.4797 54.8018 56.0015 53.3333 55.9997H10.6667ZM10.6667 50.6663H53.3333V21.333H10.6667V50.6663ZM26.6667 15.9997H37.3333V10.6663H26.6667V15.9997Z" fill="#C9184A"/>
</svg>
